<?xml version="1.0" standalone="yes"?>
<svg xmlns="http://www.w3.org/2000/svg" width="400" height="400">
<path style="fill:#ffffff; stroke:none;" d="M0 0L0 400L400 400L400 0L0 0z"/>
<path style="fill:#b3b5b7; stroke:none;" d="M249.667 140.333L250.333 140.667L249.667 140.333z"/>
<path style="fill:#79b2ce; stroke:none;" d="M251.667 140.333L252.333 140.667L251.667 140.333z"/>
<path style="fill:#4aa0cd; stroke:none;" d="M253 140.439C241.457 142.237 230.71 145.498 221 152.22C219.504 153.256 207.391 163.118 214.167 163.964C218.717 164.532 225.212 157.07 229 154.876C237.959 149.687 250.471 145.28 261 146.174C271.24 147.043 281.229 149.624 290 155.066C293.58 157.287 300.428 164.797 304.833 164.083C312.523 162.835 295.801 150.823 294 149.707C282.412 142.526 266.606 138.319 253 140.439z"/>
<path style="fill:#79b2ce; stroke:none;" d="M267.667 140.333L268.333 140.667L267.667 140.333z"/>
<path style="fill:#b3b5b7; stroke:none;" d="M269 140L270 141L269 140M243 141L244 142L243 141z"/>
<path style="fill:#79b2ce; stroke:none;" d="M244 141L244 142L248 142L244 141M272 141L272 142L275 142L272 141z"/>
<path style="fill:#b3b5b7; stroke:none;" d="M275 141L276 142L275 141M240 142L241 143L240 142z"/>
<path style="fill:#79b2ce; stroke:none;" d="M241 142L242 143L241 142M277 142L278 143L277 142z"/>
<path style="fill:#b3b5b7; stroke:none;" d="M278 142L279 143L278 142M186.667 143.333L187.333 143.667L186.667 143.333M237 143L238 144L237 143z"/>
<path style="fill:#79b2ce; stroke:none;" d="M238 143L239 144L238 143M280.667 143.333L281.333 143.667L280.667 143.333z"/>
<path style="fill:#b3b5b7; stroke:none;" d="M183 144L184 145L183 144z"/>
<path style="fill:#717173; stroke:none;" d="M176 245C179.007 244.994 184.328 245.84 186.566 243.316C195.426 233.325 177.199 200.404 202 201.137C216.637 201.57 213 223.344 213 233C213 235.981 211.927 241.852 214.603 243.972C216.871 245.769 221.297 245 224 245C225.037 232.577 227.693 209.085 221.583 198.004C215.483 186.943 194.717 186.377 189 198L188 198L188 144C184.16 144.335 177.664 144.96 176.122 149.225C173.377 156.813 176.039 169.851 175.999 178C175.894 199.911 173.656 223.172 176 245z"/>
<path style="fill:#b3b5b7; stroke:none;" d="M234 144L235 145L234 144z"/>
<path style="fill:#79b2ce; stroke:none;" d="M235 144L236 145L235 144M283 144L284 145L283 144z"/>
<path style="fill:#b3b5b7; stroke:none;" d="M284 144L285 145L284 144M179.667 145.333L180.333 145.667L179.667 145.333z"/>
<path style="fill:#79b2ce; stroke:none;" d="M232.667 145.333L233.333 145.667L232.667 145.333M285 145L286 146L285 145z"/>
<path style="fill:#b3b5b7; stroke:none;" d="M286 145L287 146L286 145M175 148L178 147L175 148z"/>
<path style="fill:#79b2ce; stroke:none;" d="M230 146L231 147L230 146M254 146L254 147L264 147L254 146M287.667 146.333L288.333 146.667L287.667 146.333z"/>
<path style="fill:#b3b5b7; stroke:none;" d="M227 147L228 148L227 147z"/>
<path style="fill:#79b2ce; stroke:none;" d="M228 147L229 148L228 147M249 147L250 148L249 147z"/>
<path style="fill:#b3b5b7; stroke:none;" d="M250 147L251 148L250 147M268 147L269 148L268 147z"/>
<path style="fill:#79b2ce; stroke:none;" d="M269 147L270 148L269 147M290 147L291 148L290 147M175 148L176 149L175 148M226.667 148.333L227.333 148.667L226.667 148.333M244.667 148.333L245.333 148.667L244.667 148.333z"/>
<path style="fill:#b3b5b7; stroke:none;" d="M246 148L247 149L246 148M273 148L274 149L273 148z"/>
<path style="fill:#79b2ce; stroke:none;" d="M274.667 148.333L275.333 148.667L274.667 148.333M292 148L293 149L292 148z"/>
<path style="fill:#b3b5b7; stroke:none;" d="M175.333 149.667L175.667 150.333L175.333 149.667z"/>
<path style="fill:#79b2ce; stroke:none;" d="M224.667 149.333L225.333 149.667L224.667 149.333M240.667 149.333L241.333 149.667L240.667 149.333z"/>
<path style="fill:#b3b5b7; stroke:none;" d="M242 149L243 150L242 149z"/>
<path style="fill:#79b2ce; stroke:none;" d="M277.667 149.333L278.333 149.667L277.667 149.333M293 149L294 150L293 149z"/>
<path style="fill:#b3b5b7; stroke:none;" d="M294 149L295 150L294 149M222 150L223 151L222 150z"/>
<path style="fill:#79b2ce; stroke:none;" d="M223 150L224 151L223 150M237 150L238 151L237 150z"/>
<path style="fill:#b3b5b7; stroke:none;" d="M238 150L239 151L238 150z"/>
<path style="fill:#79b2ce; stroke:none;" d="M280.667 150.333L281.333 150.667L280.667 150.333M295 150L296 151L295 150M221 151L222 152L221 151M235 151L236 152L235 151z"/>
<path style="fill:#b3b5b7; stroke:none;" d="M236 151L237 152L236 151M282 151L283 152L282 151z"/>
<path style="fill:#79b2ce; stroke:none;" d="M283 151L284 152L283 151M296 151L297 152L296 151z"/>
<path style="fill:#b3b5b7; stroke:none;" d="M297 151L298 152L297 151z"/>
<path style="fill:#79b2ce; stroke:none;" d="M175 152L175 184L176 184L175 152M220 152L221 153L220 152M233 152L234 153L233 152z"/>
<path style="fill:#b3b5b7; stroke:none;" d="M284 152L285 153L284 152z"/>
<path style="fill:#79b2ce; stroke:none;" d="M285 152L286 153L285 152M298 152L299 153L298 152z"/>
<path style="fill:#b3b5b7; stroke:none;" d="M218 153L219 154L218 153z"/>
<path style="fill:#79b2ce; stroke:none;" d="M219 153L220 154L219 153M231 153L232 154L231 153M287 153L288 154L287 153M299 153L300 154L299 153z"/>
<path style="fill:#b3b5b7; stroke:none;" d="M300 153L301 154L300 153M149.667 154.333L150.333 154.667L149.667 154.333z"/>
<path style="fill:#717173; stroke:none;" d="M151 154C147.994 155.151 142.989 155.718 141.028 158.51C136.691 164.684 140 182.519 140 190L132 190L132 200L140 200C140 215.421 134.305 250.336 160 245.532C163.281 244.919 166.119 243.621 169 242L166 233C146.348 240.514 152 212.249 152 200L168 200L168 190L152 190C152 179.613 155.011 163.56 151 154z"/>
<path style="fill:#b3b5b7; stroke:none;" d="M217 154L218 155L217 154z"/>
<path style="fill:#79b2ce; stroke:none;" d="M229 154L230 155L229 154z"/>
<path style="fill:#b3b5b7; stroke:none;" d="M250 154L251 155L250 154z"/>
<path style="fill:#79b2ce; stroke:none;" d="M251.667 154.333L252.333 154.667L251.667 154.333z"/>
<path style="fill:#4aa0cd; stroke:none;" d="M298 174C296.624 167.482 290.557 163.791 285 160.68C270.086 152.33 251.47 151.918 236.17 159.514C233.965 160.609 216.9 170.88 223.373 173.694C227.279 175.392 235.616 167.123 239 165.323C248.75 160.138 259.375 159.361 270 161.626C279.4 163.629 288.928 175.477 298 174z"/>
<path style="fill:#79b2ce; stroke:none;" d="M266.667 154.333L267.333 154.667L266.667 154.333z"/>
<path style="fill:#b3b5b7; stroke:none;" d="M268.667 154.333L269.333 154.667L268.667 154.333M288 154L289 155L288 154z"/>
<path style="fill:#79b2ce; stroke:none;" d="M289 154L290 155L289 154z"/>
<path style="fill:#b3b5b7; stroke:none;" d="M301 154L302 155L301 154M146 155L147 156L146 155z"/>
<path style="fill:#79b2ce; stroke:none;" d="M216 155L217 156L216 155M227 155L228 156L227 155z"/>
<path style="fill:#b3b5b7; stroke:none;" d="M228 155L229 156L228 155M245 155L246 156L245 155z"/>
<path style="fill:#79b2ce; stroke:none;" d="M246.667 155.333L247.333 155.667L246.667 155.333M271.667 155.333L272.333 155.667L271.667 155.333z"/>
<path style="fill:#b3b5b7; stroke:none;" d="M273 155L274 156L273 155M290 155L291 156L290 155M302 155L303 156L302 155M142.667 156.333L143.333 156.667L142.667 156.333z"/>
<path style="fill:#79b2ce; stroke:none;" d="M215 156L216 157L215 156M226 156L227 157L226 156z"/>
<path style="fill:#b3b5b7; stroke:none;" d="M242 156L243 157L242 156z"/>
<path style="fill:#79b2ce; stroke:none;" d="M243 156L244 157L243 156M275 156L276 157L275 156z"/>
<path style="fill:#b3b5b7; stroke:none;" d="M276 156L277 157L276 156z"/>
<path style="fill:#79b2ce; stroke:none;" d="M292 156L293 157L292 156M303 156L304 157L303 156z"/>
<path style="fill:#b3b5b7; stroke:none;" d="M140 157L141 158L140 157M213 157L211 160L213 157z"/>
<path style="fill:#79b2ce; stroke:none;" d="M214 157L215 158L214 157M224 157L225 158L224 157z"/>
<path style="fill:#b3b5b7; stroke:none;" d="M225 157L226 158L225 157M239 157L240 158L239 157z"/>
<path style="fill:#79b2ce; stroke:none;" d="M240.667 157.333L241.333 157.667L240.667 157.333M277.667 157.333L278.333 157.667L277.667 157.333z"/>
<path style="fill:#b3b5b7; stroke:none;" d="M279 157L280 158L279 157M293 157L294 158L293 157z"/>
<path style="fill:#79b2ce; stroke:none;" d="M304 157L307 160L304 157z"/>
<path style="fill:#b3b5b7; stroke:none;" d="M305 157L306 158L305 157z"/>
<path style="fill:#79b2ce; stroke:none;" d="M213 158L214 159L213 158M223 158L224 159L223 158z"/>
<path style="fill:#b3b5b7; stroke:none;" d="M237 158L238 159L237 158z"/>
<path style="fill:#79b2ce; stroke:none;" d="M238 158L239 159L238 158M280 158L281 159L280 158z"/>
<path style="fill:#b3b5b7; stroke:none;" d="M281 158L282 159L281 158z"/>
<path style="fill:#79b2ce; stroke:none;" d="M295 158L296 159L295 158z"/>
<path style="fill:#b3b5b7; stroke:none;" d="M306 158L307 159L306 158z"/>
<path style="fill:#79b2ce; stroke:none;" d="M212 159L213 160L212 159M222 159L223 160L222 159z"/>
<path style="fill:#b3b5b7; stroke:none;" d="M235 159L236 160L235 159M283 159L284 160L283 159M296 159L297 160L296 159z"/>
<path style="fill:#79b2ce; stroke:none;" d="M211 160L212 161L211 160M220 160L221 161L220 160z"/>
<path style="fill:#b3b5b7; stroke:none;" d="M221 160L222 161L221 160M233 160L234 161L233 160z"/>
<path style="fill:#79b2ce; stroke:none;" d="M254 160L254 161L264 161L254 160M284 160L285 161L284 160z"/>
<path style="fill:#b3b5b7; stroke:none;" d="M285 160L286 161L285 160M297 160L298 161L297 160z"/>
<path style="fill:#79b2ce; stroke:none;" d="M307 160L308 161L307 160z"/>
<path style="fill:#b3b5b7; stroke:none;" d="M125 161L126 190L126 244L121 244L121 245L127 245L127 185C127 178.172 129.236 166.591 125 161z"/>
<path style="fill:#79b2ce; stroke:none;" d="M219 161L220 162L219 161z"/>
<path style="fill:#b3b5b7; stroke:none;" d="M231 161L232 162L231 161z"/>
<path style="fill:#79b2ce; stroke:none;" d="M232.667 161.333L233.333 161.667L232.667 161.333M249.667 161.333L250.333 161.667L249.667 161.333z"/>
<path style="fill:#b3b5b7; stroke:none;" d="M251 161L252 162L251 161M267 161L268 162L267 161z"/>
<path style="fill:#79b2ce; stroke:none;" d="M268.667 161.333L269.333 161.667L268.667 161.333M286 161L287 162L286 161z"/>
<path style="fill:#b3b5b7; stroke:none;" d="M298 161L300 163L298 161z"/>
<path style="fill:#79b2ce; stroke:none;" d="M299 161L300 162L299 161z"/>
<path style="fill:#b3b5b7; stroke:none;" d="M122.667 162.333L123.333 162.667L122.667 162.333z"/>
<path style="fill:#717173; stroke:none;" d="M114 165L114 244L126 244L126 162L114 165z"/>
<path style="fill:#79b2ce; stroke:none;" d="M218 162L219 163L218 162M230.667 162.333L231.333 162.667L230.667 162.333M245.667 162.333L246.333 162.667L245.667 162.333z"/>
<path style="fill:#b3b5b7; stroke:none;" d="M247 162L248 163L247 162M271 162L272 163L271 162z"/>
<path style="fill:#79b2ce; stroke:none;" d="M272 162L272 163L276 164L276 163L272 162M288 162L289 163L288 162M300 162L301 163L300 162z"/>
<path style="fill:#b3b5b7; stroke:none;" d="M119 163L120 164L119 163z"/>
<path style="fill:#79b2ce; stroke:none;" d="M211 163L213 165L211 163M217 163L218 164L217 163z"/>
<path style="fill:#b3b5b7; stroke:none;" d="M228 163L229 164L228 163z"/>
<path style="fill:#79b2ce; stroke:none;" d="M229 163L230 164L229 163M242.667 163.333L243.333 163.667L242.667 163.333z"/>
<path style="fill:#b3b5b7; stroke:none;" d="M274 163L275 164L274 163z"/>
<path style="fill:#79b2ce; stroke:none;" d="M289 163L291 165L289 163z"/>
<path style="fill:#b3b5b7; stroke:none;" d="M290 163L291 164L290 163z"/>
<path style="fill:#79b2ce; stroke:none;" d="M301 163L302 164L301 163M307 163L308 164L307 163z"/>
<path style="fill:#b3b5b7; stroke:none;" d="M116 164L117 165L116 164M211 164L212 165L211 164z"/>
<path style="fill:#79b2ce; stroke:none;" d="M215.667 164.333L216.333 164.667L215.667 164.333M227 164L228 165L227 164M240 164L241 165L240 164z"/>
<path style="fill:#b3b5b7; stroke:none;" d="M241 164L242 165L241 164M277 164L278 165L277 164z"/>
<path style="fill:#79b2ce; stroke:none;" d="M278 164L279 165L278 164z"/>
<path style="fill:#b3b5b7; stroke:none;" d="M291 164L292 165L291 164z"/>
<path style="fill:#79b2ce; stroke:none;" d="M302 164L303 165L302 164M306 164L307 165L306 164z"/>
<path style="fill:#b3b5b7; stroke:none;" d="M213.667 165.333L214.333 165.667L213.667 165.333z"/>
<path style="fill:#79b2ce; stroke:none;" d="M226 165L227 166L226 165M238 165L239 166L238 165z"/>
<path style="fill:#b3b5b7; stroke:none;" d="M239 165L240 166L239 165z"/>
<path style="fill:#79b2ce; stroke:none;" d="M280 165L281 166L280 165M292 165L293 166L292 165z"/>
<path style="fill:#b3b5b7; stroke:none;" d="M303 165L303 166L307 166L303 165M224 166L225 167L224 166z"/>
<path style="fill:#79b2ce; stroke:none;" d="M225 166L226 167L225 166M236 166L237 167L236 166z"/>
<path style="fill:#b3b5b7; stroke:none;" d="M237 166L238 167L237 166z"/>
<path style="fill:#79b2ce; stroke:none;" d="M281 166L282 167L281 166M293 166L295 168L293 166z"/>
<path style="fill:#b3b5b7; stroke:none;" d="M294 166L295 167L294 166M223 167L224 168L223 167M235 167L236 168L235 167M283 167L284 168L283 167M295 167L296 168L295 167M222 168L221 170L222 168z"/>
<path style="fill:#79b2ce; stroke:none;" d="M233 168L234 169L233 168z"/>
<path style="fill:#b3b5b7; stroke:none;" d="M251 168L252 169L251 168z"/>
<path style="fill:#79b2ce; stroke:none;" d="M252 168L253 169L252 168z"/>
<path style="fill:#4aa0cd; stroke:none;" d="M288 184C285.204 166.367 255.149 165.789 243 171.809C241.008 172.797 226.906 180.756 233.362 183.744C236.846 185.356 242.127 179.302 245 177.836C251.927 174.301 259.545 173.459 267 175.378C274.329 177.265 280.485 184.953 288 184z"/>
<path style="fill:#79b2ce; stroke:none;" d="M265.667 168.333L266.333 168.667L265.667 168.333z"/>
<path style="fill:#b3b5b7; stroke:none;" d="M267 168L268 169L267 168z"/>
<path style="fill:#79b2ce; stroke:none;" d="M285 168L286 169L285 168M222 169L223 170L222 169z"/>
<path style="fill:#b3b5b7; stroke:none;" d="M232 169L233 170L232 169M247 169L248 170L247 169z"/>
<path style="fill:#79b2ce; stroke:none;" d="M248 169L249 170L248 169M269 169L269 170L272 170L269 169z"/>
<path style="fill:#b3b5b7; stroke:none;" d="M286 169L287 170L286 169z"/>
<path style="fill:#79b2ce; stroke:none;" d="M221 170L222 171L221 170M230 170L229 172L230 170z"/>
<path style="fill:#b3b5b7; stroke:none;" d="M231 170L232 171L231 170M244 170L245 171L244 170z"/>
<path style="fill:#79b2ce; stroke:none;" d="M245 170L246 171L245 170M273 170L274 171L273 170z"/>
<path style="fill:#b3b5b7; stroke:none;" d="M274 170L275 171L274 170M287 170L288 171L287 170z"/>
<path style="fill:#79b2ce; stroke:none;" d="M288 170L289 171L288 170z"/>
<path style="fill:#b3b5b7; stroke:none;" d="M230 171L231 172L230 171M242 171L243 172L242 171z"/>
<path style="fill:#79b2ce; stroke:none;" d="M243 171L244 172L243 171M275 171L276 172L275 171z"/>
<path style="fill:#b3b5b7; stroke:none;" d="M276 171L277 172L276 171z"/>
<path style="fill:#79b2ce; stroke:none;" d="M289 171L290 172L289 171M297.333 171.667L297.667 172.333L297.333 171.667z"/>
<path style="fill:#b3b5b7; stroke:none;" d="M228 172L229 173L228 172M240 172L241 173L240 172z"/>
<path style="fill:#79b2ce; stroke:none;" d="M241 172L242 173L241 172M277 172L278 173L277 172z"/>
<path style="fill:#b3b5b7; stroke:none;" d="M278 172L279 173L278 172z"/>
<path style="fill:#79b2ce; stroke:none;" d="M290 172L291 173L290 172M221 173L223 175L221 173M226 173L225 175L226 173z"/>
<path style="fill:#b3b5b7; stroke:none;" d="M227 173L228 174L227 173M238 173L239 174L238 173z"/>
<path style="fill:#79b2ce; stroke:none;" d="M239 173L240 174L239 173M279 173L280 174L279 173z"/>
<path style="fill:#b3b5b7; stroke:none;" d="M280 173L281 174L280 173z"/>
<path style="fill:#79b2ce; stroke:none;" d="M291 173L292 174L291 173z"/>
<path style="fill:#b3b5b7; stroke:none;" d="M221 174L222 175L221 174M226 174L227 175L226 174z"/>
<path style="fill:#79b2ce; stroke:none;" d="M237.667 174.333L238.333 174.667L237.667 174.333M255 174L255 175L264 175L255 174z"/>
<path style="fill:#b3b5b7; stroke:none;" d="M281 174L282 175L281 174z"/>
<path style="fill:#79b2ce; stroke:none;" d="M292 174L293 175L292 174M296 174L297 175L296 174z"/>
<path style="fill:#b3b5b7; stroke:none;" d="M224 175L225 176L224 175M235 175L236 176L235 175z"/>
<path style="fill:#79b2ce; stroke:none;" d="M236 175L237 176L236 175M251 175L252 176L251 175z"/>
<path style="fill:#b3b5b7; stroke:none;" d="M252 175L253 176L252 175M266 175L267 176L266 175z"/>
<path style="fill:#79b2ce; stroke:none;" d="M267 175L268 176L267 175M282 175L283 176L282 175z"/>
<path style="fill:#b3b5b7; stroke:none;" d="M294 175L295 176L294 175M234 176L235 177L234 176z"/>
<path style="fill:#79b2ce; stroke:none;" d="M247.667 176.333L248.333 176.667L247.667 176.333z"/>
<path style="fill:#b3b5b7; stroke:none;" d="M249 176L250 177L249 176M269 176L270 177L269 176z"/>
<path style="fill:#79b2ce; stroke:none;" d="M270.667 176.333L271.333 176.667L270.667 176.333M283 176L285 178L283 176z"/>
<path style="fill:#b3b5b7; stroke:none;" d="M284 176L285 177L284 176z"/>
<path style="fill:#79b2ce; stroke:none;" d="M233 177L234 178L233 177M245 177L246 178L245 177z"/>
<path style="fill:#b3b5b7; stroke:none;" d="M246 177L247 178L246 177M272 177L273 178L272 177z"/>
<path style="fill:#79b2ce; stroke:none;" d="M273 177L274 178L273 177z"/>
<path style="fill:#b3b5b7; stroke:none;" d="M285 177L286 178L285 177M232 178L233 179L232 178z"/>
<path style="fill:#79b2ce; stroke:none;" d="M243 178L244 179L243 178z"/>
<path style="fill:#b3b5b7; stroke:none;" d="M244 178L245 179L244 178M274 178L275 179L274 178z"/>
<path style="fill:#79b2ce; stroke:none;" d="M275 178L276 179L275 178z"/>
<path style="fill:#b3b5b7; stroke:none;" d="M286 178L287 179L286 178M231 179L232 180L231 179z"/>
<path style="fill:#79b2ce; stroke:none;" d="M240 181L243 180L240 181M276 179L277 180L276 179z"/>
<path style="fill:#b3b5b7; stroke:none;" d="M287 179L288 180L287 179z"/>
<path style="fill:#79b2ce; stroke:none;" d="M231 180L232 181L231 180z"/>
<path style="fill:#b3b5b7; stroke:none;" d="M241 180L242 181L241 180M277 180L278 181L277 180z"/>
<path style="fill:#79b2ce; stroke:none;" d="M278 180L279 181L278 180z"/>
<path style="fill:#b3b5b7; stroke:none;" d="M239 181L240 182L239 181z"/>
<path style="fill:#79b2ce; stroke:none;" d="M279 181L280 182L279 181z"/>
<path style="fill:#b3b5b7; stroke:none;" d="M288.333 181.667L288.667 182.333L288.333 181.667M238 182L239 183L238 182z"/>
<path style="fill:#79b2ce; stroke:none;" d="M280 182L281 183L280 182M287 182L288 183L287 182M231 183L233 185L231 183z"/>
<path style="fill:#b3b5b7; stroke:none;" d="M237 183L238 184L237 183M281 183L282 184L281 183M175.333 184.667L175.667 185.333L175.333 184.667M231 184L232 185L231 184z"/>
<path style="fill:#79b2ce; stroke:none;" d="M235 184L236 185L235 184z"/>
<path style="fill:#b3b5b7; stroke:none;" d="M236 184L237 185L236 184M282 184L283 185L282 184z"/>
<path style="fill:#79b2ce; stroke:none;" d="M283 184L284 185L283 184M286 184L287 185L286 184z"/>
<path style="fill:#b3b5b7; stroke:none;" d="M68.6667 189.333L69.3333 189.667L68.6667 189.333z"/>
<path style="fill:#717173; stroke:none;" d="M92 238L92 244L104 245L104 190C97.4279 190 92.2596 189.094 92 197C88.0046 193.693 84.1921 190.996 79 189.938C38.4818 181.687 39.7574 254.937 80 244.957C84.7848 243.77 88.3856 241.244 92 238z"/>
<path style="fill:#79b2ce; stroke:none;" d="M71 189L72 190L71 189z"/>
<path style="fill:#b3b5b7; stroke:none;" d="M72.6667 189.333L73.3333 189.667L72.6667 189.333z"/>
<path style="fill:#79b2ce; stroke:none;" d="M74 189L75 190L74 189z"/>
<path style="fill:#b3b5b7; stroke:none;" d="M77.6667 189.333L78.3333 189.667L77.6667 189.333z"/>
<path style="fill:#79b2ce; stroke:none;" d="M175 189L175 200L176 200L175 189z"/>
<path style="fill:#b3b5b7; stroke:none;" d="M200 189L200 190L203 190L200 189z"/>
<path style="fill:#79b2ce; stroke:none;" d="M203 189L204 190L203 189z"/>
<path style="fill:#b3b5b7; stroke:none;" d="M204 189L204 190L208 190L204 189M209.667 189.333L210.333 189.667L209.667 189.333M255 189L256 190L255 189z"/>
<path style="fill:#717173; stroke:none;" d="M282 240L278 231C264.767 234.783 250.864 238.779 245 222L286 222C286.211 215.917 286.308 210.676 283.676 205C281.85 201.063 279.461 197.423 275.96 194.789C246.006 172.243 213.871 223.175 246.004 241.662C250.564 244.285 255.743 245.663 261 245.896C268.568 246.231 275.31 243.023 282 240z"/>
<path style="fill:#79b2ce; stroke:none;" d="M263.667 189.333L264.333 189.667L263.667 189.333z"/>
<path style="fill:#b3b5b7; stroke:none;" d="M265 189L266 190L265 189M313.667 189.333L314.333 189.667L313.667 189.333z"/>
<path style="fill:#717173; stroke:none;" d="M337 238L337 244L348 244L349 206L347.821 191.603L337 190L337 197C332.526 194.08 328.438 190.765 323 189.905C283.356 183.639 284.606 252.145 322 245.535C327.859 244.499 332.264 241.389 337 238z"/>
<path style="fill:#79b2ce; stroke:none;" d="M316 189L317 190L316 189z"/>
<path style="fill:#b3b5b7; stroke:none;" d="M317 189L317 190L320 190L317 189z"/>
<path style="fill:#79b2ce; stroke:none;" d="M321 189L322 190L321 189z"/>
<path style="fill:#b3b5b7; stroke:none;" d="M322.667 189.333L323.333 189.667L322.667 189.333M65 190L66 191L65 190M81 190L82 191L81 190M91 190L91 197L92 197L91 190z"/>
<path style="fill:#79b2ce; stroke:none;" d="M92 190L93 191L92 190z"/>
<path style="fill:#b3b5b7; stroke:none;" d="M168 190L169 191L168 190M196.667 190.333L197.333 190.667L196.667 190.333z"/>
<path style="fill:#79b2ce; stroke:none;" d="M212 190L213 191L212 190z"/>
<path style="fill:#b3b5b7; stroke:none;" d="M213 190L214 191L213 190M251.667 190.333L252.333 190.667L251.667 190.333M268 190L269 191L268 190M310 190L311 191L310 190M326 190L327 191L326 190M336 190L335 197L336 197L336 190M348.333 190.667L348.667 191.333L348.333 190.667M62.6667 191.333L63.3333 191.667L62.6667 191.333M84 191L85 192L84 191z"/>
<path style="fill:#79b2ce; stroke:none;" d="M168 191L168 200L169 200L168 191z"/>
<path style="fill:#b3b5b7; stroke:none;" d="M194.667 191.333L195.333 191.667L194.667 191.333z"/>
<path style="fill:#79b2ce; stroke:none;" d="M215 191L216 192L215 191z"/>
<path style="fill:#b3b5b7; stroke:none;" d="M249 191L250 192L249 191M270 191L271 192L270 191M307 191L308 192L307 191M328.667 191.333L329.333 191.667L328.667 191.333z"/>
<path style="fill:#79b2ce; stroke:none;" d="M61 192L62 193L61 192z"/>
<path style="fill:#b3b5b7; stroke:none;" d="M86 192L87 193L86 192M193 192L194 193L193 192M217 192L218 193L217 192M246 192L247 193L246 192z"/>
<path style="fill:#79b2ce; stroke:none;" d="M247 192L248 193L247 192z"/>
<path style="fill:#b3b5b7; stroke:none;" d="M272 192L273 193L272 192M305 192L306 193L305 192M330 192L331 193L330 192M59 193L60 194L59 193M191 193L192 194L191 193M218 193L219 194L218 193M245 193L246 194L245 193M274 193L275 194L274 193M332 193L333 194L332 193M58 194L59 195L58 194z"/>
<path style="fill:#79b2ce; stroke:none;" d="M88 194L89 195L88 194z"/>
<path style="fill:#b3b5b7; stroke:none;" d="M190 194L191 195L190 194M219 194L220 195L219 194M275 194L276 195L275 194M303 194L304 195L303 194M333 194L334 195L333 194M57 195L58 196L57 195M189 195L190 196L189 195M220 195L221 196L220 195M242 195L243 196L242 195M334 195L335 196L334 195z"/>
<path style="fill:#79b2ce; stroke:none;" d="M56 196L57 197L56 196z"/>
<path style="fill:#b3b5b7; stroke:none;" d="M188 196L189 197L188 196M241 196L242 197L241 196z"/>
<path style="fill:#79b2ce; stroke:none;" d="M336 196L337 197L336 196z"/>
<path style="fill:#b3b5b7; stroke:none;" d="M55 197L56 198L55 197z"/>
<path style="fill:#79b2ce; stroke:none;" d="M188 197L189 198L188 197z"/>
<path style="fill:#b3b5b7; stroke:none;" d="M221 197L222 198L221 197M240 197L241 198L240 197M54 198L55 199L54 198M239 198L240 199L239 198M53 199L54 200L53 199M222 199L223 200L222 199M238 199L239 200L238 199M280 199L281 200L280 199M298 199L299 200L298 199M132 200L132 201L140 201L132 200M152 200L152 201L169 201L152 200M237 200L238 201L237 200z"/>
<path style="fill:#79b2ce; stroke:none;" d="M255 200L256 201L255 200z"/>
<path style="fill:#b3b5b7; stroke:none;" d="M256 200L257 201L256 200z"/>
<path style="fill:#ffffff; stroke:none;" d="M246 212C254.12 213.933 265.979 214.371 274 212C269.723 197.602 249.241 195.937 246 212z"/>
<path style="fill:#b3b5b7; stroke:none;" d="M263 200L264 201L263 200M281 200L282 201L281 200M297.333 200.667L297.667 201.333L297.333 200.667M52 201L53 202L52 201M72 201L72 202L75 202L72 201z"/>
<path style="fill:#ffffff; stroke:none;" d="M75 201.505C54.9621 204.169 57.8415 235.963 78 233.797C97.1405 231.74 94.4247 198.922 75 201.505z"/>
<path style="fill:#b3b5b7; stroke:none;" d="M79.6667 201.333L80.3333 201.667L79.6667 201.333z"/>
<path style="fill:#79b2ce; stroke:none;" d="M81 201L82 202L81 201z"/>
<path style="fill:#b3b5b7; stroke:none;" d="M197.667 201.333L198.333 201.667L197.667 201.333M203 201L203 202L206 202L203 201z"/>
<path style="fill:#79b2ce; stroke:none;" d="M237 201L238 202L237 201z"/>
<path style="fill:#b3b5b7; stroke:none;" d="M253 201L254 202L253 201M266 201L267 202L266 201z"/>
<path style="fill:#79b2ce; stroke:none;" d="M316 201L317 202L316 201z"/>
<path style="fill:#b3b5b7; stroke:none;" d="M317 201L318 202L317 201z"/>
<path style="fill:#ffffff; stroke:none;" d="M317.715 201.653C297.838 206.339 304.958 238.475 324.999 233.29C343.261 228.565 336.761 197.162 317.715 201.653z"/>
<path style="fill:#b3b5b7; stroke:none;" d="M319 201L320 202L319 201M323 201L323 202L326 202L323 201M51.3333 202.667L51.6667 203.333L51.3333 202.667z"/>
<path style="fill:#79b2ce; stroke:none;" d="M69 202L70 203L69 202z"/>
<path style="fill:#b3b5b7; stroke:none;" d="M70 202L71 203L70 202M82 202L83 203L82 202z"/>
<path style="fill:#79b2ce; stroke:none;" d="M83 202L84 203L83 202M175 202L175 207L176 207L175 202z"/>
<path style="fill:#b3b5b7; stroke:none;" d="M195 202L196 203L195 202M207 202L208 203L207 202z"/>
<path style="fill:#79b2ce; stroke:none;" d="M208 202L209 203L208 202z"/>
<path style="fill:#b3b5b7; stroke:none;" d="M223 202L224 203L223 202M236 202L237 203L236 202M251 202L252 203L251 202M282 202L283 203L282 202M296 202L297 203L296 202M314 202L315 203L314 202M326.667 202.333L327.333 202.667L326.667 202.333z"/>
<path style="fill:#79b2ce; stroke:none;" d="M328 202L329 203L328 202z"/>
<path style="fill:#b3b5b7; stroke:none;" d="M84 203L85 204L84 203M193 203L194 204L193 203M209 203L210 204L209 203M250 203L251 204L250 203M269 203L270 204L269 203M312 203L313 204L312 203M329 203L330 204L329 203M66 204L67 205L66 204M192 204L193 205L192 204M235 204L236 205L235 204M249 204L250 205L249 204M270 204L271 205L270 204M283 204L284 205L283 204M295 204L296 205L295 204M311 204L312 205L311 204M330 204L331 205L330 204M50 205L51 206L50 205M65 205L66 206L65 205z"/>
<path style="fill:#79b2ce; stroke:none;" d="M87 205L88 206L87 205z"/>
<path style="fill:#b3b5b7; stroke:none;" d="M191 205L192 206L191 205M210 205L211 206L210 205M248 205L249 206L248 205M271 205L272 206L271 205M284.333 205.667L284.667 206.333L284.333 205.667M310 205L311 206L310 205M331 205L332 206L331 205M64 206L65 207L64 206M190 206L191 207L190 206z"/>
<path style="fill:#79b2ce; stroke:none;" d="M211 206L212 207L211 206z"/>
<path style="fill:#b3b5b7; stroke:none;" d="M224.333 206.667L224.667 207.333L224.333 206.667M234 206L235 207L234 206M247 206L248 207L247 206M309 206L310 207L309 206M332 206L333 207L332 206M88 207L89 208L88 207M211 207L212 208L211 207z"/>
<path style="fill:#79b2ce; stroke:none;" d="M246 207L247 208L246 207z"/>
<path style="fill:#b3b5b7; stroke:none;" d="M272 207L273 208L272 207M294 207L295 208L294 207M308 207L309 208L308 207M333 207L334 208L333 207M49 208L50 209L49 208M89 208L90 209L89 208z"/>
<path style="fill:#79b2ce; stroke:none;" d="M175 208L175 232L176 232L175 208M224 208L224 240L225 240L224 208z"/>
<path style="fill:#b3b5b7; stroke:none;" d="M233.333 208.667L233.667 209.333L233.333 208.667M246 208L247 209L246 208M273.333 208.667L273.667 209.333L273.333 208.667z"/>
<path style="fill:#79b2ce; stroke:none;" d="M307 208L308 209L307 208z"/>
<path style="fill:#b3b5b7; stroke:none;" d="M62 209L63 210L62 209M285 209L286 210L285 209M307 209L308 210L307 209M334 209L335 210L334 209z"/>
<path style="fill:#79b2ce; stroke:none;" d="M90 210L91 211L90 210z"/>
<path style="fill:#b3b5b7; stroke:none;" d="M188 210L189 211L188 210z"/>
<path style="fill:#79b2ce; stroke:none;" d="M212 210L213 211L212 210z"/>
<path style="fill:#b3b5b7; stroke:none;" d="M245 210L248 213L248 212L245 210M293.333 210.667L293.667 211.333L293.333 210.667M61.3333 211.667L61.6667 212.333L61.3333 211.667M90 211L91 212L90 211M212.333 211.667L212.667 212.333L212.333 211.667M274 211L273 213L275 213L274 211M306 211L307 212L306 211M335 212L336 213L335 212M48 213L48 216L49 216L48 213z"/>
<path style="fill:#79b2ce; stroke:none;" d="M91 213L92 214L91 213z"/>
<path style="fill:#b3b5b7; stroke:none;" d="M232 213L232 216L233 216L232 213M286.333 213.667L286.667 214.333L286.333 213.667M91 214L92 215L91 214z"/>
<path style="fill:#79b2ce; stroke:none;" d="M60 215L61 216L60 215M91 215L92 216L91 215z"/>
<path style="fill:#b3b5b7; stroke:none;" d="M305 215L306 216L305 215M91 216L91 221L92 221L91 216z"/>
<path style="fill:#79b2ce; stroke:none;" d="M286.333 216.667L286.667 217.333L286.333 216.667M336 216L337 217L336 216z"/>
<path style="fill:#b3b5b7; stroke:none;" d="M336.333 217.667L336.667 218.333L336.333 217.667M286 218L286 222L287 222L286 218M48 219L48 222L49 222L48 219M232 219L232 222L233 222L232 219M305.333 219.667L305.667 220.333L305.333 219.667z"/>
<path style="fill:#79b2ce; stroke:none;" d="M91 221L92 222L91 221z"/>
<path style="fill:#b3b5b7; stroke:none;" d="M61.3333 222.667L61.6667 223.333L61.3333 222.667M245 222L246 223L245 222M335.333 222.667L335.667 223.333L335.333 222.667M306.333 223.667L306.667 224.333L306.333 223.667M90 224L91 225L90 224M293 224L294 225L293 224M62 225L63 226L62 225M246.333 225.667L246.667 226.333L246.333 225.667M334 225L335 226L334 225M49.3333 226.667L49.6667 227.333L49.3333 226.667M89 226L90 227L89 226M233 226L234 227L233 226M307 226L308 227L307 226M63 227L64 228L63 227M247.333 227.667L247.667 228.333L247.333 227.667M294 227L295 228L294 227M308 227L309 228L308 227M333 227L334 228L333 227M64 228L65 229L64 228z"/>
<path style="fill:#79b2ce; stroke:none;" d="M88 228L89 229L88 228z"/>
<path style="fill:#b3b5b7; stroke:none;" d="M309 228L310 229L309 228M332 228L333 229L332 228M50 229L51 230L50 229M65 229L66 230L65 229M87 229L88 230L87 229M234 229L235 230L234 229M248 229L249 230L248 229M66 230L67 231L66 230M86 230L87 231L86 230M152.333 230.667L152.667 231.333L152.333 230.667M249 230L250 231L249 230M277 230L278 231L277 230M295 230L296 231L295 230z"/>
<path style="fill:#79b2ce; stroke:none;" d="M310 230L311 231L310 230z"/>
<path style="fill:#b3b5b7; stroke:none;" d="M311 230L312 231L311 230z"/>
<path style="fill:#79b2ce; stroke:none;" d="M331 230L332 231L331 230z"/>
<path style="fill:#b3b5b7; stroke:none;" d="M67 231L68 232L67 231M84.6667 231.333L85.3333 231.667L84.6667 231.333M235 231L236 232L235 231M250 231L251 232L250 231M275 231L276 232L275 231M278.333 231.667L278.667 232.333L278.333 231.667M312 231L313 232L312 231M329 231L330 232L329 231M51 232L52 233L51 232M69 232L70 233L69 232M83 232L84 233L83 232M153.333 232.667L153.667 233.333L153.333 232.667M165 232L166 233L165 232M175 232L176 233L175 232M252 232L253 233L252 232M273 232L274 233L273 232M296 232L297 233L296 232M314 232L315 233L314 232M328 232L329 233L328 232M52 233L53 234L52 233M72 233L73 234L72 233M80.6667 233.333L81.3333 233.667L80.6667 233.333M140.333 233.667L140.667 234.333L140.333 233.667M164 233L165 234L164 233M253.667 233.333L254.333 233.667L253.667 233.333M271 233L272 234L271 233M279 233L280 234L279 233M316.667 233.333L317.333 233.667L316.667 233.333M324.667 233.333L325.333 233.667L324.667 233.333M154.667 234.333L155.333 234.667L154.667 234.333M162 234L163 235L162 234M166 234L167 235L166 234M237 234L238 235L237 234M256.667 234.333L257.333 234.667L256.667 234.333M265 234L266 235L265 234M267.667 234.333L268.333 234.667L267.667 234.333M297 234L298 235L297 234M53 235L54 236L53 235M157.667 235.333L158.333 235.667L157.667 235.333z"/>
<path style="fill:#79b2ce; stroke:none;" d="M159 235L160 236L159 235M175 235L176 236L175 235z"/>
<path style="fill:#b3b5b7; stroke:none;" d="M238 235L239 236L238 235M280 235L281 236L280 235M54 236L55 237L54 236M167 236L168 237L167 236M175 236L176 237L175 236z"/>
<path style="fill:#79b2ce; stroke:none;" d="M239 236L240 237L239 236z"/>
<path style="fill:#b3b5b7; stroke:none;" d="M55 237L56 238L55 237M141 237L142 238L141 237z"/>
<path style="fill:#79b2ce; stroke:none;" d="M175.333 237.667L175.667 238.333L175.333 237.667z"/>
<path style="fill:#b3b5b7; stroke:none;" d="M281 237L282 238L281 237z"/>
<path style="fill:#79b2ce; stroke:none;" d="M56 238L57 239L56 238z"/>
<path style="fill:#b3b5b7; stroke:none;" d="M91 238L91 245L95 245L95 244L92 244L91 238M240.667 238.333L241.333 238.667L240.667 238.333M300 238L301 239L300 238z"/>
<path style="fill:#79b2ce; stroke:none;" d="M336 238L337 239L336 238z"/>
<path style="fill:#b3b5b7; stroke:none;" d="M142 239L143 240L142 239M168 239L169 240L168 239M175 239L176 240L175 239M242 239L243 240L242 239M301 239L302 240L301 239z"/>
<path style="fill:#79b2ce; stroke:none;" d="M334 239L335 240L334 239z"/>
<path style="fill:#b3b5b7; stroke:none;" d="M336 239L336 245L340 245L340 244L337 244L336 239M58 240L59 241L58 240M89 240L90 241L89 240M143.333 240.667L143.667 241.333L143.333 240.667z"/>
<path style="fill:#79b2ce; stroke:none;" d="M175 240L176 241L175 240z"/>
<path style="fill:#b3b5b7; stroke:none;" d="M243 240L244 241L243 240M280.667 240.333L281.333 240.667L280.667 240.333M302 240L303 241L302 240M333.667 240.333L334.333 240.667L333.667 240.333z"/>
<path style="fill:#79b2ce; stroke:none;" d="M348.333 240.667L348.667 241.333L348.333 240.667z"/>
<path style="fill:#b3b5b7; stroke:none;" d="M59 241L60 242L59 241M212 241L212 244L213 244L212 241z"/>
<path style="fill:#79b2ce; stroke:none;" d="M224.333 241.667L224.667 242.333L224.333 241.667z"/>
<path style="fill:#b3b5b7; stroke:none;" d="M244.667 241.333L245.333 241.667L244.667 241.333z"/>
<path style="fill:#79b2ce; stroke:none;" d="M278 241L279 242L278 241z"/>
<path style="fill:#b3b5b7; stroke:none;" d="M279 241L280 242L279 241M303 241L304 242L303 241z"/>
<path style="fill:#79b2ce; stroke:none;" d="M304 241L305 242L304 241z"/>
<path style="fill:#b3b5b7; stroke:none;" d="M332 241L333 242L332 241M60 242L61 243L60 242z"/>
<path style="fill:#79b2ce; stroke:none;" d="M61 242L62 243L61 242z"/>
<path style="fill:#b3b5b7; stroke:none;" d="M86 242L87 243L86 242M168 242L169 243L168 242z"/>
<path style="fill:#79b2ce; stroke:none;" d="M175 242L176 243L175 242z"/>
<path style="fill:#b3b5b7; stroke:none;" d="M246 242L247 243L246 242z"/>
<path style="fill:#79b2ce; stroke:none;" d="M247 242L248 243L247 242z"/>
<path style="fill:#b3b5b7; stroke:none;" d="M277 242L278 243L277 242M305 242L306 243L305 242M330.667 242.333L331.333 242.667L330.667 242.333M348 242L346 244L346 245C348.251 244.527 349.118 244.14 348 242M62 243L63 244L62 243M84 243L85 244L84 243M146 243L147 244L146 243M166 243L167 244L166 243M175.333 243.667L175.667 244.333L175.333 243.667z"/>
<path style="fill:#79b2ce; stroke:none;" d="M187 243L186 245L187 243z"/>
<path style="fill:#b3b5b7; stroke:none;" d="M224.333 243.667L224.667 244.333L224.333 243.667M248.667 243.333L249.333 243.667L248.667 243.333M274 243L275 244L274 243M307 243L308 244L307 243M329 243L330 244L329 243M64.6667 244.333L65.3333 244.667L64.6667 244.333M82 244L83 245L82 244z"/>
<path style="fill:#79b2ce; stroke:none;" d="M95 244L96 245L95 244z"/>
<path style="fill:#b3b5b7; stroke:none;" d="M114 244L115 245L114 244z"/>
<path style="fill:#79b2ce; stroke:none;" d="M115 244L116 245L115 244z"/>
<path style="fill:#b3b5b7; stroke:none;" d="M116 244L116 245L119 245L116 244z"/>
<path style="fill:#79b2ce; stroke:none;" d="M119.667 244.333L120.333 244.667L119.667 244.333z"/>
<path style="fill:#b3b5b7; stroke:none;" d="M148 244L149 245L148 244M164 244L165 245L164 244M184 244L185 245L184 244M187 244L188 245L187 244M213 244L214 245L213 244M251 244L252 245L251 244M271.667 244.333L272.333 244.667L271.667 244.333M309 244L310 245L309 244M326.667 244.333L327.333 244.667L326.667 244.333z"/>
<path style="fill:#79b2ce; stroke:none;" d="M340 244L340 245L343 245L340 244M345 244L346 245L345 244z"/>
<path style="fill:#b3b5b7; stroke:none;" d="M68.6667 245.333L69.3333 245.667L68.6667 245.333M77.6667 245.333L78.3333 245.667L77.6667 245.333M80 245L81 246L80 245M150.667 245.333L151.333 245.667L150.667 245.333M160 245L161 246L160 245M255.667 245.333L256.333 245.667L255.667 245.333z"/>
<path style="fill:#79b2ce; stroke:none;" d="M257 245L258 246L257 245z"/>
<path style="fill:#b3b5b7; stroke:none;" d="M266.667 245.333L267.333 245.667L266.667 245.333M313.667 245.333L314.333 245.667L313.667 245.333M322.667 245.333L323.333 245.667L322.667 245.333z"/>
</svg>
