<?xml version="1.0" encoding="UTF-8"?>
<!DOCTYPE svg PUBLIC "-//W3C//DTD SVG 1.1//EN" "http://www.w3.org/Graphics/SVG/1.1/DTD/svg11.dtd">
<svg xmlns="http://www.w3.org/2000/svg" version="1.1" width="400px" height="400px" style="shape-rendering:geometricPrecision; text-rendering:geometricPrecision; image-rendering:optimizeQuality; fill-rule:evenodd; clip-rule:evenodd" xmlns:xlink="http://www.w3.org/1999/xlink">
<g><path style="opacity:1" fill="#fffefd" d="M -0.5,-0.5 C 132.833,-0.5 266.167,-0.5 399.5,-0.5C 399.5,132.833 399.5,266.167 399.5,399.5C 266.167,399.5 132.833,399.5 -0.5,399.5C -0.5,266.167 -0.5,132.833 -0.5,-0.5 Z"/></g>
<g><path style="opacity:1" fill="#fd4d01" d="M 224.5,396.5 C 220.486,396.334 216.486,396.501 212.5,397C 211.584,397.278 210.918,397.778 210.5,398.5C 131.058,399.706 70.225,367.04 28,300.5C 2.7405,255.355 -4.92617,207.355 5,156.5C 27.6452,72.5215 81.4785,21.3549 166.5,3C 236.689,-6.16075 296.522,14.3392 346,64.5C 400.491,128.51 412.491,199.843 382,278.5C 350.579,345.729 298.079,385.063 224.5,396.5 Z"/></g>
<g><path style="opacity:1" fill="#dc5d21" d="M 219.5,91.5 C 206.216,89.3224 192.882,88.9891 179.5,90.5C 192.458,88.5186 205.791,87.8519 219.5,88.5C 219.5,89.5 219.5,90.5 219.5,91.5 Z"/></g>
<g><path style="opacity:1" fill="#fde3d0" d="M 219.5,91.5 C 220.833,91.5 222.167,91.5 223.5,91.5C 223.5,91.8333 223.5,92.1667 223.5,92.5C 205.278,90.6615 187.278,91.4949 169.5,95C 162.337,97.359 155.337,99.859 148.5,102.5C 151.074,101.536 153.408,100.036 155.5,98C 163.502,95.1768 171.502,92.6768 179.5,90.5C 192.882,88.9891 206.216,89.3224 219.5,91.5 Z"/></g>
<g><path style="opacity:1" fill="#fefefd" d="M 223.5,92.5 C 237.167,95.5105 249.833,100.844 261.5,108.5C 268.131,113.796 274.465,119.463 280.5,125.5C 280.828,130.659 283.328,134.326 288,136.5C 288.687,138.568 288.52,140.568 287.5,142.5C 289.779,146.155 292.779,149.155 296.5,151.5C 297.368,155.661 299.368,158.994 302.5,161.5C 302.5,161.833 302.5,162.167 302.5,162.5C 303.937,172.22 305.77,181.887 308,191.5C 308.167,206.5 308.333,221.5 308.5,236.5C 308.499,251.849 307.833,266.849 306.5,281.5C 304.401,274.523 301.735,267.857 298.5,261.5C 298.573,259.973 297.906,258.973 296.5,258.5C 293.654,252.145 290.154,246.145 286,240.5C 280.271,234.603 274.438,228.936 268.5,223.5C 268.238,221.436 267.071,220.103 265,219.5C 264.517,218.552 264.351,217.552 264.5,216.5C 261.593,216.425 258.927,215.591 256.5,214C 254.561,213.092 253.561,211.592 253.5,209.5C 254.873,209.657 256.207,209.49 257.5,209C 254.681,207.374 251.681,207.207 248.5,208.5C 245.725,207.077 242.725,206.411 239.5,206.5C 233.313,203.443 226.646,201.11 219.5,199.5C 207.514,198.334 195.514,198.167 183.5,199C 182.584,199.278 181.918,199.778 181.5,200.5C 180.508,200.328 179.842,200.662 179.5,201.5C 175.475,201.63 171.809,202.63 168.5,204.5C 149.178,209.659 132.845,219.659 119.5,234.5C 115.372,237.29 112.372,240.957 110.5,245.5C 107.589,248.99 104.922,252.656 102.5,256.5C 101.624,256.369 100.957,256.702 100.5,257.5C 98.723,262.047 96.723,266.38 94.5,270.5C 93.5,270.5 92.5,270.5 91.5,270.5C 91.5,244.167 91.5,217.833 91.5,191.5C 92.5,191.5 93.5,191.5 94.5,191.5C 93.3157,187.403 93.3157,181.237 94.5,173C 95.2049,168.54 96.8715,164.54 99.5,161C 99.0109,159.862 98.6775,158.695 98.5,157.5C 98.5569,156.391 98.8902,155.391 99.5,154.5C 101.424,152.416 103.591,150.416 106,148.5C 106.253,145.21 107.253,142.21 109,139.5C 109.219,140.938 109.719,142.271 110.5,143.5C 110.669,141.883 111.003,140.216 111.5,138.5C 114.451,140.968 117.284,140.968 120,138.5C 120.688,137.668 120.521,137.002 119.5,136.5C 117.902,137.485 116.235,137.651 114.5,137C 115.911,133.19 117.244,129.356 118.5,125.5C 119.552,125.649 120.552,125.483 121.5,125C 123.745,121.588 126.745,119.088 130.5,117.5C 131.952,116.06 132.952,114.394 133.5,112.5C 133.5,112.167 133.5,111.833 133.5,111.5C 138.255,108.075 143.255,105.075 148.5,102.5C 155.337,99.859 162.337,97.359 169.5,95C 187.278,91.4949 205.278,90.6615 223.5,92.5 Z"/></g>
<g><path style="opacity:1" fill="#e86027" d="M 223.5,92.5 C 223.5,92.1667 223.5,91.8333 223.5,91.5C 233.508,93.224 243.175,95.724 252.5,99C 252.167,99.3333 251.833,99.6667 251.5,100C 254.082,101.333 256.749,102.5 259.5,103.5C 260.174,105.195 260.841,106.862 261.5,108.5C 249.833,100.844 237.167,95.5105 223.5,92.5 Z"/></g>
<g><path style="opacity:1" fill="#eb5816" d="M 287.5,132.5 C 284.806,130.473 282.473,128.139 280.5,125.5C 274.465,119.463 268.131,113.796 261.5,108.5C 263.547,108.489 265.547,108.156 267.5,107.5C 268.167,107.833 268.833,108.167 269.5,108.5C 268.624,109.251 267.624,109.751 266.5,110C 269.337,112.687 272.67,114.187 276.5,114.5C 277.287,119.419 280.287,121.753 285.5,121.5C 285.773,123.451 285.107,124.951 283.5,126C 285.232,127.972 286.565,130.139 287.5,132.5 Z"/></g>
<g><path style="opacity:1" fill="#e35c1d" d="M 133.5,111.5 C 133.5,111.833 133.5,112.167 133.5,112.5C 127.609,115.719 122.609,120.052 118.5,125.5C 116.527,128.139 114.194,130.473 111.5,132.5C 112.031,130.456 113.198,128.789 115,127.5C 115.49,126.207 115.657,124.873 115.5,123.5C 116.5,123.5 117.5,123.5 118.5,123.5C 119.778,122.209 120.445,120.209 120.5,117.5C 122.282,116.28 124.282,115.614 126.5,115.5C 126.5,114.5 126.5,113.5 126.5,112.5C 128.861,112.326 131.194,111.993 133.5,111.5 Z"/></g>
<g><path style="opacity:1" fill="#fedfc6" d="M 133.5,112.5 C 132.952,114.394 131.952,116.06 130.5,117.5C 126.745,119.088 123.745,121.588 121.5,125C 120.552,125.483 119.552,125.649 118.5,125.5C 122.609,120.052 127.609,115.719 133.5,112.5 Z"/></g>
<g><path style="opacity:1" fill="#fdeee0" d="M 118.5,125.5 C 117.244,129.356 115.911,133.19 114.5,137C 116.235,137.651 117.902,137.485 119.5,136.5C 120.521,137.002 120.688,137.668 120,138.5C 117.284,140.968 114.451,140.968 111.5,138.5C 111.003,140.216 110.669,141.883 110.5,143.5C 109.719,142.271 109.219,140.938 109,139.5C 107.253,142.21 106.253,145.21 106,148.5C 103.591,150.416 101.424,152.416 99.5,154.5C 102.992,146.847 106.992,139.513 111.5,132.5C 114.194,130.473 116.527,128.139 118.5,125.5 Z"/></g>
<g><path style="opacity:1" fill="#fde9d9" d="M 280.5,125.5 C 282.473,128.139 284.806,130.473 287.5,132.5C 288.806,134.816 290.139,137.15 291.5,139.5C 295.738,145.986 299.405,152.653 302.5,159.5C 302.5,160.167 302.5,160.833 302.5,161.5C 299.368,158.994 297.368,155.661 296.5,151.5C 292.779,149.155 289.779,146.155 287.5,142.5C 288.52,140.568 288.687,138.568 288,136.5C 283.328,134.326 280.828,130.659 280.5,125.5 Z"/></g>
<g><path style="opacity:1" fill="#ee5312" d="M 120.5,117.5 C 120.445,120.209 119.778,122.209 118.5,123.5C 117.5,123.5 116.5,123.5 115.5,123.5C 115.657,124.873 115.49,126.207 115,127.5C 113.198,128.789 112.031,130.456 111.5,132.5C 106.992,139.513 102.992,146.847 99.5,154.5C 98.8902,155.391 98.5569,156.391 98.5,157.5C 97.8333,158.167 97.1667,158.833 96.5,159.5C 97.9201,153.605 99.2534,147.605 100.5,141.5C 101.086,141.709 101.586,142.043 102,142.5C 102.494,140.866 102.66,139.199 102.5,137.5C 104.288,137.785 105.955,137.452 107.5,136.5C 105.565,135.932 104.232,134.765 103.5,133C 104.633,130.623 106.299,128.79 108.5,127.5C 109.298,129.078 109.798,130.744 110,132.5C 111.996,129.092 113.163,125.425 113.5,121.5C 116.061,120.615 118.394,119.282 120.5,117.5 Z"/></g>
<g><path style="opacity:1" fill="#df5a20" d="M 291.5,139.5 C 292.496,139.414 293.329,139.748 294,140.5C 295.586,143.341 297.42,146.007 299.5,148.5C 301.068,152.045 302.068,155.712 302.5,159.5C 299.405,152.653 295.738,145.986 291.5,139.5 Z"/></g>
<g><path style="opacity:1" fill="#de5f22" d="M 96.5,159.5 C 95.3541,165.092 93.6874,170.426 91.5,175.5C 91.5642,171.78 92.0642,168.114 93,164.5C 93.5494,162.24 94.716,160.574 96.5,159.5 Z"/></g>
<g><path style="opacity:1" fill="#fee9d1" d="M 239.5,206.5 C 234.116,205.372 228.782,204.039 223.5,202.5C 218.417,200.922 213.084,200.255 207.5,200.5C 198.981,199.274 190.315,199.274 181.5,200.5C 181.918,199.778 182.584,199.278 183.5,199C 195.514,198.167 207.514,198.334 219.5,199.5C 226.646,201.11 233.313,203.443 239.5,206.5 Z"/></g>
<g><path style="opacity:1" fill="#fef5e9" d="M 98.5,157.5 C 98.6775,158.695 99.0109,159.862 99.5,161C 96.8715,164.54 95.2049,168.54 94.5,173C 93.3157,181.237 93.3157,187.403 94.5,191.5C 93.5,191.5 92.5,191.5 91.5,191.5C 91.5,217.833 91.5,244.167 91.5,270.5C 92.5,270.5 93.5,270.5 94.5,270.5C 96.723,266.38 98.723,262.047 100.5,257.5C 100.957,256.702 101.624,256.369 102.5,256.5C 102.5,257.167 102.5,257.833 102.5,258.5C 97.9708,265.884 94.6374,273.884 92.5,282.5C 90.5075,251.851 89.8409,220.851 90.5,189.5C 90.6159,186.14 90.9492,182.807 91.5,179.5C 91.5,178.167 91.5,176.833 91.5,175.5C 93.6874,170.426 95.3541,165.092 96.5,159.5C 97.1667,158.833 97.8333,158.167 98.5,157.5 Z"/></g>
<g><path style="opacity:1" fill="#fadabf" d="M 302.5,162.5 C 305.574,169.443 307.741,176.776 309,184.5C 309.5,218.832 309.667,253.165 309.5,287.5C 309.5,290.167 309.5,292.833 309.5,295.5C 308.085,291.042 307.085,286.375 306.5,281.5C 307.833,266.849 308.499,251.849 308.5,236.5C 308.333,221.5 308.167,206.5 308,191.5C 305.77,181.887 303.937,172.22 302.5,162.5 Z"/></g>
<g><path style="opacity:1" fill="#de7947" d="M 207.5,200.5 C 198.148,200.434 188.815,200.768 179.5,201.5C 179.842,200.662 180.508,200.328 181.5,200.5C 190.315,199.274 198.981,199.274 207.5,200.5 Z"/></g>
<g><path style="opacity:1" fill="#e65a1e" d="M 207.5,200.5 C 213.084,200.255 218.417,200.922 223.5,202.5C 215.322,202.479 207.156,202.145 199,201.5C 188.752,201.992 178.586,202.992 168.5,204.5C 171.809,202.63 175.475,201.63 179.5,201.5C 188.815,200.768 198.148,200.434 207.5,200.5 Z"/></g>
<g><path style="opacity:1" fill="#da591b" d="M 302.5,159.5 C 304.284,160.956 306.284,161.956 308.5,162.5C 309.623,186.142 310.29,209.808 310.5,233.5C 310.5,251.67 310.167,269.67 309.5,287.5C 309.667,253.165 309.5,218.832 309,184.5C 307.741,176.776 305.574,169.443 302.5,162.5C 302.5,162.167 302.5,161.833 302.5,161.5C 302.5,160.833 302.5,160.167 302.5,159.5 Z"/></g>
<g><path style="opacity:1" fill="#d55b1e" d="M 91.5,179.5 C 90.9492,182.807 90.6159,186.14 90.5,189.5C 89.5017,221.996 89.1684,254.662 89.5,287.5C 88.5016,251.671 88.1682,215.671 88.5,179.5C 89.5,179.5 90.5,179.5 91.5,179.5 Z"/></g>
<g><path style="opacity:1" fill="#e95618" d="M 223.5,202.5 C 228.782,204.039 234.116,205.372 239.5,206.5C 242.833,208.5 246.167,210.5 249.5,212.5C 246.279,211.427 243.112,211.427 240,212.5C 238.812,211.437 238.312,210.103 238.5,208.5C 235.38,207.14 232.047,206.307 228.5,206C 226.24,205.451 224.574,204.284 223.5,202.5 Z"/></g>
<g><path style="opacity:1" fill="#feecd9" d="M 239.5,206.5 C 242.725,206.411 245.725,207.077 248.5,208.5C 251.681,207.207 254.681,207.374 257.5,209C 256.207,209.49 254.873,209.657 253.5,209.5C 253.561,211.592 254.561,213.092 256.5,214C 258.927,215.591 261.593,216.425 264.5,216.5C 264.351,217.552 264.517,218.552 265,219.5C 267.071,220.103 268.238,221.436 268.5,223.5C 266.999,222.248 265.332,221.248 263.5,220.5C 260.567,218.355 257.567,216.188 254.5,214C 252.846,213.392 251.179,212.892 249.5,212.5C 246.167,210.5 242.833,208.5 239.5,206.5 Z"/></g>
<g><path style="opacity:1" fill="#ef5718" d="M 168.5,204.5 C 165.375,206.225 162.042,207.725 158.5,209C 159.747,210.494 159.747,211.994 158.5,213.5C 156.689,214.827 154.689,215.827 152.5,216.5C 152.709,217.086 153.043,217.586 153.5,218C 149.294,217.732 144.961,218.066 140.5,219C 138.026,221.428 138.526,221.928 142,220.5C 143.205,221.071 144.372,221.738 145.5,222.5C 143.833,223.167 142.167,223.833 140.5,224.5C 143.142,228.024 142.308,229.357 138,228.5C 137.506,226.866 137.34,225.199 137.5,223.5C 134.689,223.826 132.022,224.659 129.5,226C 126.568,229.442 123.235,232.275 119.5,234.5C 132.845,219.659 149.178,209.659 168.5,204.5 Z"/></g>
<g><path style="opacity:1" fill="#e48258" d="M 119.5,234.5 C 116.871,238.463 113.871,242.129 110.5,245.5C 112.372,240.957 115.372,237.29 119.5,234.5 Z"/></g>
<g><path style="opacity:1" fill="#ec5c25" d="M 263.5,220.5 C 265.332,221.248 266.999,222.248 268.5,223.5C 274.438,228.936 280.271,234.603 286,240.5C 290.154,246.145 293.654,252.145 296.5,258.5C 293.561,256.012 291.061,253.012 289,249.5C 287.334,250.34 287.167,249.84 288.5,248C 287.371,245.832 285.871,245.332 284,246.5C 283.333,244.5 282.667,242.5 282,240.5C 280.491,239.91 278.991,239.244 277.5,238.5C 279.807,237.193 279.64,235.86 277,234.5C 275.324,237.16 273.657,237.16 272,234.5C 271.504,232.965 271.67,231.465 272.5,230C 271.046,228.287 269.212,227.12 267,226.5C 266.373,224.073 265.206,222.073 263.5,220.5 Z"/></g>
<g><path style="opacity:1" fill="#fadabf" d="M 90.5,189.5 C 89.8409,220.851 90.5075,251.851 92.5,282.5C 92.5,283.167 92.5,283.833 92.5,284.5C 92.5,284.833 92.5,285.167 92.5,285.5C 91.6255,288.535 90.6255,291.535 89.5,294.5C 89.5,292.167 89.5,289.833 89.5,287.5C 89.1684,254.662 89.5017,221.996 90.5,189.5 Z"/></g>
<g><path style="opacity:1" fill="#ec612a" d="M 102.5,258.5 C 101.277,265.208 99.9432,271.875 98.5,278.5C 97.1667,278.5 95.8333,278.5 94.5,278.5C 94.405,280.786 93.7384,282.786 92.5,284.5C 92.5,283.833 92.5,283.167 92.5,282.5C 94.6374,273.884 97.9708,265.884 102.5,258.5 Z"/></g>
<g><path style="opacity:1" fill="#e56931" d="M 298.5,261.5 C 301.735,267.857 304.401,274.523 306.5,281.5C 307.085,286.375 308.085,291.042 309.5,295.5C 309.657,296.873 309.49,298.207 309,299.5C 308.667,299.167 308.333,298.833 308,298.5C 306.87,291.705 305.537,285.039 304,278.5C 299.999,273.66 298.166,267.993 298.5,261.5 Z"/></g>
<g><path style="opacity:1" fill="#e2793e" d="M 92.5,285.5 C 92.7319,289.98 92.0652,294.313 90.5,298.5C 89.5713,297.311 89.238,295.978 89.5,294.5C 90.6255,291.535 91.6255,288.535 92.5,285.5 Z"/></g>
<g><path style="opacity:1" fill="#ff7f48" d="M 224.5,396.5 C 220.005,397.422 215.338,398.089 210.5,398.5C 210.918,397.778 211.584,397.278 212.5,397C 216.486,396.501 220.486,396.334 224.5,396.5 Z"/></g>
</svg>
