<?xml version="1.0" encoding="UTF-8"?>
<!DOCTYPE svg PUBLIC "-//W3C//DTD SVG 1.1//EN" "http://www.w3.org/Graphics/SVG/1.1/DTD/svg11.dtd">
<svg xmlns="http://www.w3.org/2000/svg" version="1.1" width="400px" height="400px" style="shape-rendering:geometricPrecision; text-rendering:geometricPrecision; image-rendering:optimizeQuality; fill-rule:evenodd; clip-rule:evenodd" xmlns:xlink="http://www.w3.org/1999/xlink">
<g><path style="opacity:1" fill="#fdfdfd" d="M -0.5,-0.5 C 60.1667,-0.5 120.833,-0.5 181.5,-0.5C 101.742,10.469 45.5756,52.8023 13,126.5C 6.35422,144.429 1.85422,162.762 -0.5,181.5C -0.5,120.833 -0.5,60.1667 -0.5,-0.5 Z"/></g>
<g><path style="opacity:1" fill="#fdfdfd" d="M 214.5,-0.5 C 276.167,-0.5 337.833,-0.5 399.5,-0.5C 399.5,60.1667 399.5,120.833 399.5,181.5C 389.48,105.624 350.147,50.7904 281.5,17C 259.932,7.74639 237.598,1.91305 214.5,-0.5 Z"/></g>
<g><path style="opacity:1" fill="#000000" d="M 181.5,-0.5 C 192.5,-0.5 203.5,-0.5 214.5,-0.5C 237.598,1.91305 259.932,7.74639 281.5,17C 350.147,50.7904 389.48,105.624 399.5,181.5C 399.5,192.5 399.5,203.5 399.5,214.5C 388.634,301.055 342.3,359.555 260.5,390C 245.292,394.475 229.959,397.641 214.5,399.5C 203.5,399.5 192.5,399.5 181.5,399.5C 105.624,389.48 50.7904,350.147 17,281.5C 7.74639,259.932 1.91305,237.598 -0.5,214.5C -0.5,203.5 -0.5,192.5 -0.5,181.5C 1.85422,162.762 6.35422,144.429 13,126.5C 45.5756,52.8023 101.742,10.469 181.5,-0.5 Z"/></g>
<g><path style="opacity:1" fill="#d7b504" d="M 197.5,96.5 C 198.498,123.662 198.831,150.995 198.5,178.5C 196.833,178.5 195.167,178.5 193.5,178.5C 190.042,165.293 185.876,152.293 181,139.5C 177.086,128.566 172.919,117.899 168.5,107.5C 177.869,103.262 187.536,99.5958 197.5,96.5 Z"/></g>
<g><path style="opacity:1" fill="#b3e8d0" d="M 201.5,96.5 C 204.063,97.0883 206.396,98.0883 208.5,99.5C 205.093,99.1253 204.593,100.125 207,102.5C 214.737,112.483 221.737,122.817 228,133.5C 230.628,135.126 232.961,137.126 235,139.5C 236.1,143.705 237.767,147.705 240,151.5C 245.533,158.161 250.7,164.827 255.5,171.5C 255.573,173.027 254.906,174.027 253.5,174.5C 250.895,169.389 248.061,164.389 245,159.5C 242.521,156.931 239.854,154.598 237,152.5C 235.277,149.664 233.444,146.831 231.5,144C 231.833,143.667 232.167,143.333 232.5,143C 231.241,142.077 229.908,141.243 228.5,140.5C 225.181,133.704 220.681,128.038 215,123.5C 209.939,116.953 204.772,110.62 199.5,104.5C 198.964,101.302 199.631,98.6353 201.5,96.5 Z"/></g>
<g><path style="opacity:1" fill="#b4bad2" d="M 211.5,100.5 C 213.284,100.893 214.95,101.559 216.5,102.5C 216.88,105.745 218.047,108.745 220,111.5C 225.699,117.033 230.866,123.033 235.5,129.5C 237.117,132.805 238.783,136.138 240.5,139.5C 238.383,137.084 235.883,135.084 233,133.5C 232.027,131.608 231.36,129.608 231,127.5C 227.273,125.03 224.773,121.697 223.5,117.5C 222.5,117.5 221.5,117.5 220.5,117.5C 217.775,111.718 214.775,106.051 211.5,100.5 Z"/></g>
<g><path style="opacity:1" fill="#b47fd3" d="M 218.5,103.5 C 220.579,103.971 222.579,104.637 224.5,105.5C 226.689,111.889 230.356,117.222 235.5,121.5C 235.5,122.833 235.5,124.167 235.5,125.5C 230.7,121.205 226.867,116.205 224,110.5C 220.845,109.181 219.012,106.848 218.5,103.5 Z"/></g>
<g><path style="opacity:1" fill="#b4d4d2" d="M 208.5,99.5 C 209.609,99.5569 210.609,99.8902 211.5,100.5C 214.775,106.051 217.775,111.718 220.5,117.5C 221.5,117.5 222.5,117.5 223.5,117.5C 224.773,121.697 227.273,125.03 231,127.5C 231.36,129.608 232.027,131.608 233,133.5C 235.883,135.084 238.383,137.084 240.5,139.5C 240.5,140.167 240.5,140.833 240.5,141.5C 240.351,142.552 240.517,143.552 241,144.5C 246.648,152.448 251.815,160.781 256.5,169.5C 256.672,170.492 256.338,171.158 255.5,171.5C 250.7,164.827 245.533,158.161 240,151.5C 237.767,147.705 236.1,143.705 235,139.5C 232.961,137.126 230.628,135.126 228,133.5C 221.737,122.817 214.737,112.483 207,102.5C 204.593,100.125 205.093,99.1253 208.5,99.5 Z"/></g>
<g><path style="opacity:1" fill="#b4a0d2" d="M 216.5,102.5 C 217.492,102.328 218.158,102.662 218.5,103.5C 219.012,106.848 220.845,109.181 224,110.5C 226.867,116.205 230.7,121.205 235.5,125.5C 235.5,126.833 235.5,128.167 235.5,129.5C 230.866,123.033 225.699,117.033 220,111.5C 218.047,108.745 216.88,105.745 216.5,102.5 Z"/></g>
<g><path style="opacity:1" fill="#bc06d2" d="M 234.5,109.5 C 250.598,115.31 266.598,121.31 282.5,127.5C 283.491,131.445 283.824,135.445 283.5,139.5C 281.408,139.439 279.908,138.439 279,136.5C 277.333,138.167 275.667,139.833 274,141.5C 272.656,144.865 270.823,147.865 268.5,150.5C 258.603,140.955 248.77,131.288 239,121.5C 237.612,117.634 235.779,113.967 233.5,110.5C 233.624,109.893 233.957,109.56 234.5,109.5 Z"/></g>
<g><path style="opacity:1" fill="#b3ecc2" d="M 199.5,104.5 C 204.772,110.62 209.939,116.953 215,123.5C 220.681,128.038 225.181,133.704 228.5,140.5C 229.908,141.243 231.241,142.077 232.5,143C 232.167,143.333 231.833,143.667 231.5,144C 233.444,146.831 235.277,149.664 237,152.5C 239.854,154.598 242.521,156.931 245,159.5C 248.061,164.389 250.895,169.389 253.5,174.5C 253.672,175.492 253.338,176.158 252.5,176.5C 249.814,171.54 246.98,166.54 244,161.5C 238.251,157.346 233.918,152.013 231,145.5C 229.172,143.919 227.172,142.585 225,141.5C 219.079,133.977 213.412,126.31 208,118.5C 205.002,116.332 202.169,113.999 199.5,111.5C 199.5,109.167 199.5,106.833 199.5,104.5 Z"/></g>
<g><path style="opacity:1" fill="#88edb2" d="M 147.5,115.5 C 154.883,141.15 163.383,166.483 173,191.5C 174.739,199.779 177.405,207.779 181,215.5C 181.494,217.134 181.66,218.801 181.5,220.5C 180.833,220.5 180.167,220.5 179.5,220.5C 178.722,219.844 178.056,219.011 177.5,218C 174.282,207.885 171.115,197.718 168,187.5C 166.654,184.131 164.821,181.131 162.5,178.5C 158.768,164.401 154.935,150.401 151,136.5C 149.596,132.464 148.262,128.464 147,124.5C 145.943,121.728 144.443,119.395 142.5,117.5C 143.78,116.069 145.447,115.402 147.5,115.5 Z"/></g>
<g><path style="opacity:1" fill="#47ebb4" d="M 142.5,117.5 C 144.443,119.395 145.943,121.728 147,124.5C 148.262,128.464 149.596,132.464 151,136.5C 154.935,150.401 158.768,164.401 162.5,178.5C 160.516,178.617 158.85,177.95 157.5,176.5C 152.453,162.096 146.619,148.43 140,135.5C 138.345,130.229 137.178,124.896 136.5,119.5C 138.214,118.262 140.214,117.595 142.5,117.5 Z"/></g>
<g><path style="opacity:1" fill="#b43dd2" d="M 224.5,105.5 C 228.127,106.321 231.46,107.654 234.5,109.5C 233.957,109.56 233.624,109.893 233.5,110.5C 235.779,113.967 237.612,117.634 239,121.5C 248.77,131.288 258.603,140.955 268.5,150.5C 267.833,152.167 267.167,153.833 266.5,155.5C 265.833,156.167 265.167,156.833 264.5,157.5C 259.672,148.199 253.172,140.199 245,133.5C 242.237,128.935 239.071,124.935 235.5,121.5C 230.356,117.222 226.689,111.889 224.5,105.5 Z"/></g>
<g><path style="opacity:1" fill="#a7f17c" d="M 199.5,117.5 C 202.479,119.812 205.146,122.479 207.5,125.5C 212.569,131.962 217.403,138.628 222,145.5C 223.129,147.141 224.629,148.141 226.5,148.5C 226.934,155.781 230.434,161.114 237,164.5C 239.725,169.055 242.225,173.722 244.5,178.5C 243.833,178.5 243.167,178.5 242.5,178.5C 241.489,176.628 240.655,174.628 240,172.5C 232.623,164.753 225.957,156.42 220,147.5C 218.385,146.614 216.885,145.614 215.5,144.5C 210.671,139.799 207.171,134.132 205,127.5C 203.251,125.379 201.418,123.379 199.5,121.5C 199.5,120.167 199.5,118.833 199.5,117.5 Z"/></g>
<g><path style="opacity:1" fill="#7ff25c" d="M 199.5,121.5 C 201.418,123.379 203.251,125.379 205,127.5C 207.171,134.132 210.671,139.799 215.5,144.5C 215.833,145.833 216.167,147.167 216.5,148.5C 213.5,144.833 210.167,141.5 206.5,138.5C 205.448,138.649 204.448,138.483 203.5,138C 202.267,136.333 200.933,134.833 199.5,133.5C 199.5,129.5 199.5,125.5 199.5,121.5 Z"/></g>
<g><path style="opacity:1" fill="#b9c310" d="M 197.5,96.5 C 198.833,95.1667 200.167,95.1667 201.5,96.5C 199.631,98.6353 198.964,101.302 199.5,104.5C 199.5,106.833 199.5,109.167 199.5,111.5C 199.5,113.5 199.5,115.5 199.5,117.5C 199.5,118.833 199.5,120.167 199.5,121.5C 199.5,125.5 199.5,129.5 199.5,133.5C 199.5,134.833 199.5,136.167 199.5,137.5C 199.5,147.167 199.5,156.833 199.5,166.5C 199.5,170.5 199.5,174.5 199.5,178.5C 199.167,178.5 198.833,178.5 198.5,178.5C 198.831,150.995 198.498,123.662 197.5,96.5 Z"/></g>
<g><path style="opacity:1" fill="#b478d3" d="M 235.5,125.5 C 238.518,126.353 240.351,128.353 241,131.5C 245.306,136.473 249.973,141.14 255,145.5C 257.508,150.517 260.008,155.517 262.5,160.5C 262.672,161.492 262.338,162.158 261.5,162.5C 253.381,152.558 245.881,142.225 239,131.5C 238.184,130.177 237.017,129.511 235.5,129.5C 235.5,128.167 235.5,126.833 235.5,125.5 Z"/></g>
<g><path style="opacity:1" fill="#b015ed" d="M 283.5,139.5 C 283.5,150.5 283.5,161.5 283.5,172.5C 281.704,171.206 279.704,170.206 277.5,169.5C 273.108,165.437 269.442,160.77 266.5,155.5C 267.167,153.833 267.833,152.167 268.5,150.5C 270.823,147.865 272.656,144.865 274,141.5C 275.667,139.833 277.333,138.167 279,136.5C 279.908,138.439 281.408,139.439 283.5,139.5 Z"/></g>
<g><path style="opacity:1" fill="#b45fd3" d="M 235.5,121.5 C 239.071,124.935 242.237,128.935 245,133.5C 253.172,140.199 259.672,148.199 264.5,157.5C 264.5,157.833 264.5,158.167 264.5,158.5C 263.662,158.842 263.328,159.508 263.5,160.5C 263.167,160.5 262.833,160.5 262.5,160.5C 260.008,155.517 257.508,150.517 255,145.5C 249.973,141.14 245.306,136.473 241,131.5C 240.351,128.353 238.518,126.353 235.5,125.5C 235.5,124.167 235.5,122.833 235.5,121.5 Z"/></g>
<g><path style="opacity:1" fill="#b2d3be" d="M 115.5,129.5 C 123.318,140.456 130.651,151.79 137.5,163.5C 136.749,164.573 135.749,164.74 134.5,164C 128.918,157.426 123.751,150.593 119,143.5C 117.989,142.663 116.822,142.33 115.5,142.5C 115.5,138.167 115.5,133.833 115.5,129.5 Z"/></g>
<g><path style="opacity:1" fill="#a2d0ed" d="M 129.5,170.5 C 126.833,171.167 124.167,171.833 121.5,172.5C 120.482,173.292 120.149,174.959 120.5,177.5C 118.938,174.358 117.438,171.025 116,167.5C 115.501,161.843 115.334,156.176 115.5,150.5C 115.369,149.761 115.536,149.094 116,148.5C 118.635,153.298 121.468,157.965 124.5,162.5C 126.5,163.5 128.5,164.5 130.5,165.5C 129.975,166.192 129.308,166.692 128.5,167C 129.337,168.011 129.67,169.178 129.5,170.5 Z"/></g>
<g><path style="opacity:1" fill="#a7ced0" d="M 115.5,127.5 C 115.5,128.167 115.5,128.833 115.5,129.5C 115.5,133.833 115.5,138.167 115.5,142.5C 116.822,142.33 117.989,142.663 119,143.5C 123.751,150.593 128.918,157.426 134.5,164C 135.749,164.74 136.749,164.573 137.5,163.5C 138.737,164.965 139.737,166.632 140.5,168.5C 138.058,170.126 135.391,171.459 132.5,172.5C 131.222,172.218 130.222,171.551 129.5,170.5C 129.67,169.178 129.337,168.011 128.5,167C 129.308,166.692 129.975,166.192 130.5,165.5C 128.5,164.5 126.5,163.5 124.5,162.5C 121.468,157.965 118.635,153.298 116,148.5C 115.536,149.094 115.369,149.761 115.5,150.5C 115.167,150.5 114.833,150.5 114.5,150.5C 114.175,142.648 114.508,134.982 115.5,127.5 Z"/></g>
<g><path style="opacity:1" fill="#b49ed3" d="M 235.5,129.5 C 237.017,129.511 238.184,130.177 239,131.5C 245.881,142.225 253.381,152.558 261.5,162.5C 261.5,163.167 261.167,163.5 260.5,163.5C 254.2,155.865 247.533,148.532 240.5,141.5C 240.5,140.833 240.5,140.167 240.5,139.5C 238.783,136.138 237.117,132.805 235.5,129.5 Z"/></g>
<g><path style="opacity:1" fill="#3ff203" d="M 199.5,137.5 C 202.077,139.782 204.077,142.615 205.5,146C 205.938,150.498 207.271,154.665 209.5,158.5C 210.21,161.799 210.543,165.133 210.5,168.5C 206.915,167.417 203.249,166.751 199.5,166.5C 199.5,156.833 199.5,147.167 199.5,137.5 Z"/></g>
<g><path style="opacity:1" fill="#b4c0d3" d="M 240.5,141.5 C 247.533,148.532 254.2,155.865 260.5,163.5C 260.5,164.167 260.5,164.833 260.5,165.5C 259.833,165.5 259.5,165.833 259.5,166.5C 258.662,166.842 258.328,167.508 258.5,168.5C 257.833,168.833 257.167,169.167 256.5,169.5C 251.815,160.781 246.648,152.448 241,144.5C 240.517,143.552 240.351,142.552 240.5,141.5 Z"/></g>
<g><path style="opacity:1" fill="#aff157" d="M 215.5,144.5 C 216.885,145.614 218.385,146.614 220,147.5C 225.957,156.42 232.623,164.753 240,172.5C 240.655,174.628 241.489,176.628 242.5,178.5C 240.833,178.5 239.167,178.5 237.5,178.5C 234.199,172.282 229.699,166.949 224,162.5C 221.23,157.918 218.73,153.251 216.5,148.5C 216.167,147.167 215.833,145.833 215.5,144.5 Z"/></g>
<g><path style="opacity:1" fill="#d2ec81" d="M 157.5,111.5 C 155.697,116.047 156.531,120.047 160,123.5C 163,132.167 166,140.833 169,149.5C 174.129,159.075 178.962,168.742 183.5,178.5C 182.5,178.5 181.5,178.5 180.5,178.5C 179.833,178.5 179.167,178.5 178.5,178.5C 177.056,174.999 175.89,171.332 175,167.5C 173.43,166.386 172.097,165.053 171,163.5C 168.593,154.866 165.426,146.533 161.5,138.5C 160.675,137.614 159.675,137.281 158.5,137.5C 157.072,130.72 154.739,124.22 151.5,118C 151.989,116.436 152.322,114.936 152.5,113.5C 153.93,112.463 155.597,111.796 157.5,111.5 Z"/></g>
<g><path style="opacity:1" fill="#d3df5f" d="M 162.5,109.5 C 166.777,126.975 173.277,143.641 182,159.5C 183.765,163.989 184.765,168.655 185,173.5C 185.847,175.193 186.68,176.86 187.5,178.5C 186.167,178.5 184.833,178.5 183.5,178.5C 178.962,168.742 174.129,159.075 169,149.5C 166,140.833 163,132.167 160,123.5C 156.531,120.047 155.697,116.047 157.5,111.5C 158.93,110.463 160.597,109.796 162.5,109.5 Z"/></g>
<g><path style="opacity:1" fill="#8253f2" d="M 266.5,155.5 C 269.442,160.77 273.108,165.437 277.5,169.5C 279.704,170.206 281.704,171.206 283.5,172.5C 283.5,174.5 283.5,176.5 283.5,178.5C 276.513,172.512 270.18,165.845 264.5,158.5C 264.5,158.167 264.5,157.833 264.5,157.5C 265.167,156.833 265.833,156.167 266.5,155.5 Z"/></g>
<g><path style="opacity:1" fill="#b4eb88" d="M 226.5,148.5 C 229.828,151.994 233.328,155.328 237,158.5C 237.333,160.167 237.667,161.833 238,163.5C 242.195,168.611 246.362,173.611 250.5,178.5C 248.5,178.5 246.5,178.5 244.5,178.5C 242.225,173.722 239.725,169.055 237,164.5C 230.434,161.114 226.934,155.781 226.5,148.5 Z"/></g>
<g><path style="opacity:1" fill="#c9f19b" d="M 152.5,113.5 C 152.322,114.936 151.989,116.436 151.5,118C 154.739,124.22 157.072,130.72 158.5,137.5C 159.675,137.281 160.675,137.614 161.5,138.5C 165.426,146.533 168.593,154.866 171,163.5C 172.097,165.053 173.43,166.386 175,167.5C 175.89,171.332 177.056,174.999 178.5,178.5C 176.167,178.5 173.833,178.5 171.5,178.5C 164.144,157.133 156.811,135.799 149.5,114.5C 150.391,113.89 151.391,113.557 152.5,113.5 Z"/></g>
<g><path style="opacity:1" fill="#65f20b" d="M 199.5,133.5 C 200.933,134.833 202.267,136.333 203.5,138C 204.448,138.483 205.448,138.649 206.5,138.5C 206.523,140.927 207.023,143.26 208,145.5C 216.671,155.342 223.504,166.342 228.5,178.5C 226.833,178.5 225.167,178.5 223.5,178.5C 218.167,178.5 212.833,178.5 207.5,178.5C 204.833,178.5 202.167,178.5 199.5,178.5C 199.5,174.5 199.5,170.5 199.5,166.5C 203.249,166.751 206.915,167.417 210.5,168.5C 210.543,165.133 210.21,161.799 209.5,158.5C 207.271,154.665 205.938,150.498 205.5,146C 204.077,142.615 202.077,139.782 199.5,137.5C 199.5,136.167 199.5,134.833 199.5,133.5 Z"/></g>
<g><path style="opacity:1" fill="#5992f2" d="M 262.5,160.5 C 262.833,160.5 263.167,160.5 263.5,160.5C 268.442,165.663 272.942,171.33 277,177.5C 279.328,178.999 281.495,180.666 283.5,182.5C 283.5,183.833 283.5,185.167 283.5,186.5C 275.508,179.841 267.841,172.841 260.5,165.5C 260.5,164.833 260.5,164.167 260.5,163.5C 261.167,163.5 261.5,163.167 261.5,162.5C 262.338,162.158 262.672,161.492 262.5,160.5 Z"/></g>
<g><path style="opacity:1" fill="#6e71f2" d="M 264.5,158.5 C 270.18,165.845 276.513,172.512 283.5,178.5C 283.5,179.833 283.5,181.167 283.5,182.5C 281.495,180.666 279.328,178.999 277,177.5C 272.942,171.33 268.442,165.663 263.5,160.5C 263.328,159.508 263.662,158.842 264.5,158.5 Z"/></g>
<g><path style="opacity:1" fill="#95f22d" d="M 206.5,138.5 C 210.167,141.5 213.5,144.833 216.5,148.5C 218.73,153.251 221.23,157.918 224,162.5C 229.699,166.949 234.199,172.282 237.5,178.5C 237.167,178.5 236.833,178.5 236.5,178.5C 233.833,178.5 231.167,178.5 228.5,178.5C 223.504,166.342 216.671,155.342 208,145.5C 207.023,143.26 206.523,140.927 206.5,138.5 Z"/></g>
<g><path style="opacity:1" fill="#b2e9a7" d="M 199.5,111.5 C 202.169,113.999 205.002,116.332 208,118.5C 213.412,126.31 219.079,133.977 225,141.5C 227.172,142.585 229.172,143.919 231,145.5C 233.918,152.013 238.251,157.346 244,161.5C 246.98,166.54 249.814,171.54 252.5,176.5C 252.5,176.833 252.5,177.167 252.5,177.5C 251.833,177.5 251.5,177.833 251.5,178.5C 251.167,178.5 250.833,178.5 250.5,178.5C 246.362,173.611 242.195,168.611 238,163.5C 237.667,161.833 237.333,160.167 237,158.5C 233.328,155.328 229.828,151.994 226.5,148.5C 224.629,148.141 223.129,147.141 222,145.5C 217.403,138.628 212.569,131.962 207.5,125.5C 205.146,122.479 202.479,119.812 199.5,117.5C 199.5,115.5 199.5,113.5 199.5,111.5 Z"/></g>
<g><path style="opacity:1" fill="#d3c933" d="M 168.5,107.5 C 172.919,117.899 177.086,128.566 181,139.5C 185.876,152.293 190.042,165.293 193.5,178.5C 191.5,178.5 189.5,178.5 187.5,178.5C 186.68,176.86 185.847,175.193 185,173.5C 184.765,168.655 183.765,163.989 182,159.5C 173.277,143.641 166.777,126.975 162.5,109.5C 164.297,108.27 166.297,107.604 168.5,107.5 Z"/></g>
<g><path style="opacity:1" fill="#3ca6f2" d="M 260.5,165.5 C 267.841,172.841 275.508,179.841 283.5,186.5C 283.5,187.833 283.5,189.167 283.5,190.5C 275.697,182.03 267.697,174.03 259.5,166.5C 259.5,165.833 259.833,165.5 260.5,165.5 Z"/></g>
<g><path style="opacity:1" fill="#44f258" d="M 207.5,178.5 C 212.833,178.5 218.167,178.5 223.5,178.5C 224.311,183.01 222.977,187.01 219.5,190.5C 218.719,189.271 218.219,187.938 218,186.5C 216.961,187.244 216.461,188.244 216.5,189.5C 215.833,189.167 215.167,188.833 214.5,188.5C 211.828,186.146 210.494,183.146 210.5,179.5C 209.209,179.737 208.209,179.404 207.5,178.5 Z"/></g>
<g><path style="opacity:1" fill="#1df251" d="M 236.5,178.5 C 236.833,178.5 237.167,178.5 237.5,178.5C 239.167,178.5 240.833,178.5 242.5,178.5C 243.167,178.5 243.833,178.5 244.5,178.5C 246.5,178.5 248.5,178.5 250.5,178.5C 250.833,178.5 251.167,178.5 251.5,178.5C 251.5,183.5 251.5,188.5 251.5,193.5C 246.85,188.183 241.85,183.183 236.5,178.5 Z"/></g>
<g><path style="opacity:1" fill="#0cd4ec" d="M 258.5,168.5 C 266.033,178.377 274.366,187.71 283.5,196.5C 283.5,199.5 283.5,202.5 283.5,205.5C 278.192,202.504 272.858,199.504 267.5,196.5C 263.1,192.27 259.266,187.603 256,182.5C 255.184,181.177 254.017,180.511 252.5,180.5C 252.5,179.5 252.5,178.5 252.5,177.5C 252.5,177.167 252.5,176.833 252.5,176.5C 253.338,176.158 253.672,175.492 253.5,174.5C 254.906,174.027 255.573,173.027 255.5,171.5C 256.338,171.158 256.672,170.492 256.5,169.5C 257.167,169.167 257.833,168.833 258.5,168.5 Z"/></g>
<g><path style="opacity:1" fill="#22bcf2" d="M 259.5,166.5 C 267.697,174.03 275.697,182.03 283.5,190.5C 283.5,192.5 283.5,194.5 283.5,196.5C 274.366,187.71 266.033,178.377 258.5,168.5C 258.328,167.508 258.662,166.842 259.5,166.5 Z"/></g>
<g><path style="opacity:1" fill="#1bdad7" d="M 140.5,168.5 C 142.935,170.481 142.935,172.481 140.5,174.5C 143.188,181.653 145.355,188.653 147,195.5C 148,197.167 149,198.833 150,200.5C 150.427,205.518 151.593,210.351 153.5,215C 153.355,216.226 153.022,217.393 152.5,218.5C 154.048,222.535 155.381,226.202 156.5,229.5C 153.5,230.833 150.5,232.167 147.5,233.5C 146.833,233.833 146.167,234.167 145.5,234.5C 143.883,235.038 142.216,235.371 140.5,235.5C 139.809,231.774 138.809,228.107 137.5,224.5C 138.309,222.929 138.643,221.262 138.5,219.5C 141.558,219.374 141.891,217.874 139.5,215C 141.62,213.477 141.953,211.644 140.5,209.5C 141.167,208.833 141.833,208.167 142.5,207.5C 141.442,197.936 139.109,188.603 135.5,179.5C 134.773,177.046 133.773,174.713 132.5,172.5C 135.391,171.459 138.058,170.126 140.5,168.5 Z"/></g>
<g><path style="opacity:1" fill="#d3ceb1" d="M 180.5,178.5 C 181.5,178.5 182.5,178.5 183.5,178.5C 184.833,178.5 186.167,178.5 187.5,178.5C 189.5,178.5 191.5,178.5 193.5,178.5C 195.167,178.5 196.833,178.5 198.5,178.5C 198.833,178.5 199.167,178.5 199.5,178.5C 199.5,178.833 199.5,179.167 199.5,179.5C 199.5,186.167 199.5,192.833 199.5,199.5C 198.852,201.498 198.019,203.498 197,205.5C 195.956,204.377 195.29,203.044 195,201.5C 194.667,202.5 194.333,203.5 194,204.5C 192.526,198.892 189.526,194.225 185,190.5C 182.959,186.916 180.792,183.416 178.5,180C 179.416,179.722 180.082,179.222 180.5,178.5 Z"/></g>
<g><path style="opacity:1" fill="#20d4ec" d="M 129.5,170.5 C 130.222,171.551 131.222,172.218 132.5,172.5C 133.773,174.713 134.773,177.046 135.5,179.5C 134.414,179.62 133.747,180.287 133.5,181.5C 135.075,186.061 136.742,190.561 138.5,195C 137.692,195.308 137.025,195.808 136.5,196.5C 137.229,199.923 137.562,203.256 137.5,206.5C 137.132,207.91 136.299,208.91 135,209.5C 133.78,216.133 133.447,222.8 134,229.5C 134.5,230.5 135,231.5 135.5,232.5C 134.652,234.409 134.318,236.409 134.5,238.5C 133.508,238.328 132.842,238.662 132.5,239.5C 130.035,239.767 127.701,240.434 125.5,241.5C 126.661,239.817 127.661,237.984 128.5,236C 126.875,233.863 127.208,232.197 129.5,231C 128.541,229.293 127.875,227.459 127.5,225.5C 130.873,214.987 131.373,204.321 129,193.5C 126.037,186.637 123.537,179.637 121.5,172.5C 124.167,171.833 126.833,171.167 129.5,170.5 Z"/></g>
<g><path style="opacity:1" fill="#c9eb95" d="M 199.5,179.5 C 200.833,179.5 202.167,179.5 203.5,179.5C 203.151,182.99 204.651,185.323 208,186.5C 209.009,188.025 209.509,189.692 209.5,191.5C 207.856,191.714 206.356,191.38 205,190.5C 203.713,198.923 204.213,207.59 206.5,216.5C 206.167,216.5 205.833,216.5 205.5,216.5C 204.005,216.011 202.671,215.345 201.5,214.5C 200.833,209.5 200.167,204.5 199.5,199.5C 199.5,192.833 199.5,186.167 199.5,179.5 Z"/></g>
<g><path style="opacity:1" fill="#92f279" d="M 199.5,179.5 C 199.5,179.167 199.5,178.833 199.5,178.5C 202.167,178.5 204.833,178.5 207.5,178.5C 208.209,179.404 209.209,179.737 210.5,179.5C 210.494,183.146 211.828,186.146 214.5,188.5C 214.279,191.067 213.612,193.401 212.5,195.5C 210.738,194.738 209.738,193.404 209.5,191.5C 209.509,189.692 209.009,188.025 208,186.5C 204.651,185.323 203.151,182.99 203.5,179.5C 202.167,179.5 200.833,179.5 199.5,179.5 Z"/></g>
<g><path style="opacity:1" fill="#2ef215" d="M 223.5,178.5 C 225.167,178.5 226.833,178.5 228.5,178.5C 231.167,178.5 233.833,178.5 236.5,178.5C 241.85,183.183 246.85,188.183 251.5,193.5C 251.5,194.833 251.5,196.167 251.5,197.5C 251.5,204.5 251.5,211.5 251.5,218.5C 244.99,218.411 239.657,215.911 235.5,211C 231.427,209.074 228.593,205.907 227,201.5C 224.491,199.352 221.991,197.352 219.5,195.5C 218.478,193.456 217.478,191.456 216.5,189.5C 216.461,188.244 216.961,187.244 218,186.5C 218.219,187.938 218.719,189.271 219.5,190.5C 222.977,187.01 224.311,183.01 223.5,178.5 Z"/></g>
<g><path style="opacity:1" fill="#d0e3b0" d="M 171.5,178.5 C 173.833,178.5 176.167,178.5 178.5,178.5C 179.167,178.5 179.833,178.5 180.5,178.5C 180.082,179.222 179.416,179.722 178.5,180C 180.792,183.416 182.959,186.916 185,190.5C 189.526,194.225 192.526,198.892 194,204.5C 194.333,203.5 194.667,202.5 195,201.5C 195.29,203.044 195.956,204.377 197,205.5C 198.019,203.498 198.852,201.498 199.5,199.5C 200.167,204.5 200.833,209.5 201.5,214.5C 197.022,214.882 192.689,215.882 188.5,217.5C 185.71,214.742 183.543,211.408 182,207.5C 180.531,200.593 178.531,193.926 176,187.5C 173.453,185.027 171.953,182.027 171.5,178.5 Z"/></g>
<g><path style="opacity:1" fill="#99f250" d="M 214.5,188.5 C 215.167,188.833 215.833,189.167 216.5,189.5C 217.478,191.456 218.478,193.456 219.5,195.5C 218.595,196.964 218.595,198.298 219.5,199.5C 219.5,200.5 219.5,201.5 219.5,202.5C 218.118,201.199 216.452,200.366 214.5,200C 213.177,199.184 212.511,198.017 212.5,196.5C 212.5,196.167 212.5,195.833 212.5,195.5C 213.612,193.401 214.279,191.067 214.5,188.5 Z"/></g>
<g><path style="opacity:1" fill="#17c2ee" d="M 121.5,172.5 C 123.537,179.637 126.037,186.637 129,193.5C 131.373,204.321 130.873,214.987 127.5,225.5C 127.875,227.459 128.541,229.293 129.5,231C 127.208,232.197 126.875,233.863 128.5,236C 127.661,237.984 126.661,239.817 125.5,241.5C 124.508,241.328 123.842,241.662 123.5,242.5C 120.888,243.371 118.221,244.037 115.5,244.5C 115.5,243.167 115.5,241.833 115.5,240.5C 116.801,239.36 117.968,238.027 119,236.5C 121.55,238.839 122.05,238.172 120.5,234.5C 124.926,232.496 125.593,229.662 122.5,226C 128.555,217.289 130.055,207.789 127,197.5C 125.496,190.491 123.33,183.825 120.5,177.5C 120.149,174.959 120.482,173.292 121.5,172.5 Z"/></g>
<g><path style="opacity:1" fill="#106bdf" d="M 114.5,175.5 C 120.462,186.727 122.296,198.727 120,211.5C 118.621,213.715 116.787,215.381 114.5,216.5C 114.5,202.833 114.5,189.167 114.5,175.5 Z"/></g>
<g><path style="opacity:1" fill="#0260f3" d="M 115.5,188.5 C 117.867,191.68 118.867,195.347 118.5,199.5C 118.615,203.762 117.782,207.762 116,211.5C 115.5,203.841 115.334,196.174 115.5,188.5 Z"/></g>
<g><path style="opacity:1" fill="#18d5c3" d="M 126.5,123.5 C 132.843,139.844 139.343,156.177 146,172.5C 147.606,182.717 150.772,192.384 155.5,201.5C 158.17,209.304 160.336,217.304 162,225.5C 163.626,225.854 165.459,225.854 167.5,225.5C 166.5,226.167 165.5,226.833 164.5,227.5C 162.214,227.595 160.214,228.262 158.5,229.5C 157.833,229.5 157.167,229.5 156.5,229.5C 155.381,226.202 154.048,222.535 152.5,218.5C 153.022,217.393 153.355,216.226 153.5,215C 151.593,210.351 150.427,205.518 150,200.5C 149,198.833 148,197.167 147,195.5C 145.355,188.653 143.188,181.653 140.5,174.5C 142.935,172.481 142.935,170.481 140.5,168.5C 139.737,166.632 138.737,164.965 137.5,163.5C 130.651,151.79 123.318,140.456 115.5,129.5C 115.5,128.833 115.5,128.167 115.5,127.5C 118.939,125.796 122.605,124.462 126.5,123.5 Z"/></g>
<g><path style="opacity:1" fill="#03ebc2" d="M 252.5,177.5 C 252.5,178.5 252.5,179.5 252.5,180.5C 250.982,193.73 256.315,203.23 268.5,209C 272.196,213.364 276.53,216.864 281.5,219.5C 282.183,219.137 282.85,218.804 283.5,218.5C 283.5,221.833 283.5,225.167 283.5,228.5C 271.99,223.97 262.49,216.637 255,206.5C 254.23,207.598 253.397,207.598 252.5,206.5C 252.81,203.287 252.477,200.287 251.5,197.5C 251.5,196.167 251.5,194.833 251.5,193.5C 251.5,188.5 251.5,183.5 251.5,178.5C 251.5,177.833 251.833,177.5 252.5,177.5 Z"/></g>
<g><path style="opacity:1" fill="#02e1da" d="M 252.5,180.5 C 254.017,180.511 255.184,181.177 256,182.5C 259.266,187.603 263.1,192.27 267.5,196.5C 272.858,199.504 278.192,202.504 283.5,205.5C 283.5,209.833 283.5,214.167 283.5,218.5C 282.85,218.804 282.183,219.137 281.5,219.5C 276.53,216.864 272.196,213.364 268.5,209C 256.315,203.23 250.982,193.73 252.5,180.5 Z"/></g>
<g><path style="opacity:1" fill="#06e1eb" d="M 135.5,179.5 C 139.109,188.603 141.442,197.936 142.5,207.5C 141.833,208.167 141.167,208.833 140.5,209.5C 141.953,211.644 141.62,213.477 139.5,215C 141.891,217.874 141.558,219.374 138.5,219.5C 138.643,221.262 138.309,222.929 137.5,224.5C 138.809,228.107 139.809,231.774 140.5,235.5C 139.5,236.167 138.5,236.833 137.5,237.5C 136.391,237.557 135.391,237.89 134.5,238.5C 134.318,236.409 134.652,234.409 135.5,232.5C 135,231.5 134.5,230.5 134,229.5C 133.447,222.8 133.78,216.133 135,209.5C 136.299,208.91 137.132,207.91 137.5,206.5C 137.562,203.256 137.229,199.923 136.5,196.5C 137.025,195.808 137.692,195.308 138.5,195C 136.742,190.561 135.075,186.061 133.5,181.5C 133.747,180.287 134.414,179.62 135.5,179.5 Z"/></g>
<g><path style="opacity:1" fill="#d0eb6e" d="M 209.5,191.5 C 209.738,193.404 210.738,194.738 212.5,195.5C 212.5,195.833 212.5,196.167 212.5,196.5C 211.876,196.917 211.543,197.584 211.5,198.5C 213.726,201.664 213.893,204.997 212,208.5C 211.667,208.167 211.333,207.833 211,207.5C 210.245,211.255 210.411,214.922 211.5,218.5C 210.391,218.443 209.391,218.11 208.5,217.5C 207.833,217.167 207.167,216.833 206.5,216.5C 204.213,207.59 203.713,198.923 205,190.5C 206.356,191.38 207.856,191.714 209.5,191.5 Z"/></g>
<g><path style="opacity:1" fill="#02f1b1" d="M 252.5,206.5 C 253.397,207.598 254.23,207.598 255,206.5C 262.49,216.637 271.99,223.97 283.5,228.5C 283.5,230.5 283.5,232.5 283.5,234.5C 278.87,233.043 274.87,230.543 271.5,227C 265.215,224.405 258.882,221.905 252.5,219.5C 252.5,215.167 252.5,210.833 252.5,206.5 Z"/></g>
<g><path style="opacity:1" fill="#a9ebb2" d="M 149.5,114.5 C 156.811,135.799 164.144,157.133 171.5,178.5C 171.953,182.027 173.453,185.027 176,187.5C 178.531,193.926 180.531,200.593 182,207.5C 183.543,211.408 185.71,214.742 188.5,217.5C 187.5,218.167 186.5,218.833 185.5,219.5C 184.167,219.833 182.833,220.167 181.5,220.5C 181.66,218.801 181.494,217.134 181,215.5C 177.405,207.779 174.739,199.779 173,191.5C 163.383,166.483 154.883,141.15 147.5,115.5C 147.842,114.662 148.508,114.328 149.5,114.5 Z"/></g>
<g><path style="opacity:1" fill="#26ddb5" d="M 136.5,119.5 C 137.178,124.896 138.345,130.229 140,135.5C 146.619,148.43 152.453,162.096 157.5,176.5C 158.85,177.95 160.516,178.617 162.5,178.5C 164.821,181.131 166.654,184.131 168,187.5C 171.115,197.718 174.282,207.885 177.5,218C 178.056,219.011 178.722,219.844 179.5,220.5C 179.5,220.833 179.5,221.167 179.5,221.5C 177.597,221.796 175.93,222.463 174.5,223.5C 172.597,223.796 170.93,224.463 169.5,225.5C 168.833,225.5 168.167,225.5 167.5,225.5C 165.459,225.854 163.626,225.854 162,225.5C 160.336,217.304 158.17,209.304 155.5,201.5C 150.772,192.384 147.606,182.717 146,172.5C 139.343,156.177 132.843,139.844 126.5,123.5C 129.54,121.654 132.873,120.321 136.5,119.5 Z"/></g>
<g><path style="opacity:1" fill="#2796e4" d="M 114.5,150.5 C 114.833,150.5 115.167,150.5 115.5,150.5C 115.334,156.176 115.501,161.843 116,167.5C 117.438,171.025 118.938,174.358 120.5,177.5C 121.049,183.75 122.549,189.75 125,195.5C 126.263,203.18 125.263,210.513 122,217.5C 120.316,219.351 118.483,221.018 116.5,222.5C 115.504,228.463 115.171,234.463 115.5,240.5C 115.5,241.833 115.5,243.167 115.5,244.5C 115.5,244.833 115.5,245.167 115.5,245.5C 114.506,236.014 114.173,226.348 114.5,216.5C 116.787,215.381 118.621,213.715 120,211.5C 122.296,198.727 120.462,186.727 114.5,175.5C 114.5,167.167 114.5,158.833 114.5,150.5 Z"/></g>
<g><path style="opacity:1" fill="#87f20b" d="M 219.5,195.5 C 221.991,197.352 224.491,199.352 227,201.5C 228.593,205.907 231.427,209.074 235.5,211C 239.657,215.911 244.99,218.411 251.5,218.5C 251.5,220.167 251.5,221.833 251.5,223.5C 251.5,224.167 251.5,224.833 251.5,225.5C 248.482,225.296 245.482,224.963 242.5,224.5C 242.5,223.5 242.5,222.5 242.5,221.5C 241.448,221.649 240.448,221.483 239.5,221C 237.142,218.971 234.808,216.971 232.5,215C 230.996,213.509 230.163,211.676 230,209.5C 226.297,206.259 222.797,202.926 219.5,199.5C 218.595,198.298 218.595,196.964 219.5,195.5 Z"/></g>
<g><path style="opacity:1" fill="#a9f20b" d="M 219.5,199.5 C 222.797,202.926 226.297,206.259 230,209.5C 230.163,211.676 230.996,213.509 232.5,215C 234.808,216.971 237.142,218.971 239.5,221C 240.448,221.483 241.448,221.649 242.5,221.5C 242.5,222.5 242.5,223.5 242.5,224.5C 245.482,224.963 248.482,225.296 251.5,225.5C 251.5,228.167 251.5,230.833 251.5,233.5C 251.167,233.5 250.833,233.5 250.5,233.5C 248.085,232.695 245.751,231.695 243.5,230.5C 241.716,230.107 240.05,229.441 238.5,228.5C 237.508,228.672 236.842,228.338 236.5,227.5C 236.938,227.565 237.272,227.399 237.5,227C 234.363,223.191 231.197,219.358 228,215.5C 226.044,213.452 223.877,211.786 221.5,210.5C 219.954,208.118 219.287,205.451 219.5,202.5C 219.5,201.5 219.5,200.5 219.5,199.5 Z"/></g>
<g><path style="opacity:1" fill="#cded42" d="M 212.5,196.5 C 212.511,198.017 213.177,199.184 214.5,200C 216.452,200.366 218.118,201.199 219.5,202.5C 219.287,205.451 219.954,208.118 221.5,210.5C 220.425,209.438 219.425,209.438 218.5,210.5C 219.352,214.131 220.019,217.798 220.5,221.5C 219.833,221.5 219.167,221.5 218.5,221.5C 217.609,220.89 216.609,220.557 215.5,220.5C 214.167,219.833 212.833,219.167 211.5,218.5C 210.411,214.922 210.245,211.255 211,207.5C 211.333,207.833 211.667,208.167 212,208.5C 213.893,204.997 213.726,201.664 211.5,198.5C 211.543,197.584 211.876,196.917 212.5,196.5 Z"/></g>
<g><path style="opacity:1" fill="#c7f115" d="M 221.5,210.5 C 223.877,211.786 226.044,213.452 228,215.5C 231.197,219.358 234.363,223.191 237.5,227C 237.272,227.399 236.938,227.565 236.5,227.5C 236.167,227.5 235.833,227.5 235.5,227.5C 234.167,227.167 232.833,226.833 231.5,226.5C 230.833,226.167 230.167,225.833 229.5,225.5C 228.292,224.766 226.959,224.433 225.5,224.5C 223.928,223.313 222.261,222.313 220.5,221.5C 220.019,217.798 219.352,214.131 218.5,210.5C 219.425,209.438 220.425,209.438 221.5,210.5 Z"/></g>
<g><path style="opacity:1" fill="#fdfdfd" d="M -0.5,214.5 C 1.91305,237.598 7.74639,259.932 17,281.5C 50.7904,350.147 105.624,389.48 181.5,399.5C 120.833,399.5 60.1667,399.5 -0.5,399.5C -0.5,337.833 -0.5,276.167 -0.5,214.5 Z"/></g>
<g><path style="opacity:1" fill="#0ab7ef" d="M 201.5,214.5 C 202.671,215.345 204.005,216.011 205.5,216.5C 197.478,232.938 188.311,248.271 178,262.5C 174.57,270.526 170.737,278.36 166.5,286C 165.189,289.431 164.189,292.931 163.5,296.5C 162.167,296.5 160.833,296.5 159.5,296.5C 161.017,290.466 163.851,285.132 168,280.5C 170.816,273.041 173.816,265.708 177,258.5C 179.586,245.407 183.086,232.74 187.5,220.5C 187.043,219.702 186.376,219.369 185.5,219.5C 186.5,218.833 187.5,218.167 188.5,217.5C 192.689,215.882 197.022,214.882 201.5,214.5 Z"/></g>
<g><path style="opacity:1" fill="#fdfdfd" d="M 399.5,214.5 C 399.5,276.167 399.5,337.833 399.5,399.5C 337.833,399.5 276.167,399.5 214.5,399.5C 229.959,397.641 245.292,394.475 260.5,390C 342.3,359.555 388.634,301.055 399.5,214.5 Z"/></g>
<g><path style="opacity:1" fill="#06b5f0" d="M 120.5,177.5 C 123.33,183.825 125.496,190.491 127,197.5C 130.055,207.789 128.555,217.289 122.5,226C 125.593,229.662 124.926,232.496 120.5,234.5C 122.05,238.172 121.55,238.839 119,236.5C 117.968,238.027 116.801,239.36 115.5,240.5C 115.171,234.463 115.504,228.463 116.5,222.5C 118.483,221.018 120.316,219.351 122,217.5C 125.263,210.513 126.263,203.18 125,195.5C 122.549,189.75 121.049,183.75 120.5,177.5 Z"/></g>
<g><path style="opacity:1" fill="#8464f2" d="M 167.5,225.5 C 168.167,225.5 168.833,225.5 169.5,225.5C 170.756,225.461 171.756,225.961 172.5,227C 169.669,233.328 167.335,239.828 165.5,246.5C 163.025,251.921 160.359,257.254 157.5,262.5C 157.833,260.5 158.167,258.5 158.5,256.5C 158.933,253.834 159.433,251.168 160,248.5C 163.925,243.958 165.425,238.791 164.5,233C 164.493,231.188 165.16,229.688 166.5,228.5C 166.043,227.702 165.376,227.369 164.5,227.5C 165.5,226.833 166.5,226.167 167.5,225.5 Z"/></g>
<g><path style="opacity:1" fill="#18f280" d="M 251.5,197.5 C 252.477,200.287 252.81,203.287 252.5,206.5C 252.5,210.833 252.5,215.167 252.5,219.5C 258.882,221.905 265.215,224.405 271.5,227C 274.87,230.543 278.87,233.043 283.5,234.5C 283.5,236.833 283.5,239.167 283.5,241.5C 275.58,237.043 267.247,233.377 258.5,230.5C 255.751,228.418 253.417,226.084 251.5,223.5C 251.5,221.833 251.5,220.167 251.5,218.5C 251.5,211.5 251.5,204.5 251.5,197.5 Z"/></g>
<g><path style="opacity:1" fill="#01e5e6" d="M 215.5,220.5 C 216.609,220.557 217.609,220.89 218.5,221.5C 215.657,229.511 211.491,236.845 206,243.5C 204.333,247.833 202.667,252.167 201,256.5C 193.042,268.916 185.208,281.416 177.5,294C 178.252,294.671 178.586,295.504 178.5,296.5C 175.167,296.5 171.833,296.5 168.5,296.5C 177.592,284.239 186.092,271.573 194,258.5C 194.195,256.793 194.195,255.126 194,253.5C 201.675,242.813 208.842,231.813 215.5,220.5 Z"/></g>
<g><path style="opacity:1" fill="#02f0dd" d="M 218.5,221.5 C 219.167,221.5 219.833,221.5 220.5,221.5C 222.261,222.313 223.928,223.313 225.5,224.5C 215.446,240.153 206.613,256.486 199,273.5C 193.164,280.181 189.331,287.848 187.5,296.5C 184.5,296.5 181.5,296.5 178.5,296.5C 178.586,295.504 178.252,294.671 177.5,294C 185.208,281.416 193.042,268.916 201,256.5C 202.667,252.167 204.333,247.833 206,243.5C 211.491,236.845 215.657,229.511 218.5,221.5 Z"/></g>
<g><path style="opacity:1" fill="#c721f0" d="M 156.5,229.5 C 157.167,229.5 157.833,229.5 158.5,229.5C 162.138,228.737 163.638,230.07 163,233.5C 161.234,235.881 160.068,238.548 159.5,241.5C 155.32,246.748 151.32,252.081 147.5,257.5C 147.5,249.5 147.5,241.5 147.5,233.5C 150.5,232.167 153.5,230.833 156.5,229.5 Z"/></g>
<g><path style="opacity:1" fill="#3af254" d="M 251.5,223.5 C 253.417,226.084 255.751,228.418 258.5,230.5C 267.247,233.377 275.58,237.043 283.5,241.5C 283.5,242.833 283.5,244.167 283.5,245.5C 281.167,244.833 278.833,244.167 276.5,243.5C 274.786,242.262 272.786,241.595 270.5,241.5C 268.151,239.369 265.484,239.035 262.5,240.5C 259.063,237.714 255.396,235.381 251.5,233.5C 251.5,230.833 251.5,228.167 251.5,225.5C 251.5,224.833 251.5,224.167 251.5,223.5 Z"/></g>
<g><path style="opacity:1" fill="#d1b47b" d="M 132.5,239.5 C 134.272,248.413 132.272,256.413 126.5,263.5C 125.4,262.395 124.733,261.062 124.5,259.5C 127.386,256.517 128.72,252.851 128.5,248.5C 128.333,246.833 128.167,245.167 128,243.5C 127.586,243.957 127.086,244.291 126.5,244.5C 125.735,243.388 124.735,242.721 123.5,242.5C 123.842,241.662 124.508,241.328 125.5,241.5C 127.701,240.434 130.035,239.767 132.5,239.5 Z"/></g>
<g><path style="opacity:1" fill="#16a8f2" d="M 185.5,219.5 C 186.376,219.369 187.043,219.702 187.5,220.5C 183.086,232.74 179.586,245.407 177,258.5C 173.816,265.708 170.816,273.041 168,280.5C 163.851,285.132 161.017,290.466 159.5,296.5C 158.833,296.5 158.167,296.5 157.5,296.5C 159.169,288.448 162.335,281.115 167,274.5C 169.823,266.7 171.823,258.7 173,250.5C 174.586,248.33 175.92,245.996 177,243.5C 178.027,236.424 179.86,229.591 182.5,223C 181.756,221.961 180.756,221.461 179.5,221.5C 179.5,221.167 179.5,220.833 179.5,220.5C 180.167,220.5 180.833,220.5 181.5,220.5C 182.833,220.167 184.167,219.833 185.5,219.5 Z"/></g>
<g><path style="opacity:1" fill="#6ff20f" d="M 250.5,233.5 C 250.833,233.5 251.167,233.5 251.5,233.5C 255.396,235.381 259.063,237.714 262.5,240.5C 265.484,239.035 268.151,239.369 270.5,241.5C 268.545,242.615 266.712,243.948 265,245.5C 262.724,251.61 258.557,255.943 252.5,258.5C 251.671,253.533 251.171,248.533 251,243.5C 247.919,251.324 244.585,258.991 241,266.5C 240.667,268.833 240.333,271.167 240,273.5C 236.119,281.262 232.286,288.929 228.5,296.5C 227.833,296.5 227.167,296.5 226.5,296.5C 227.893,291.82 229.393,287.154 231,282.5C 235.416,278.209 237.749,272.876 238,266.5C 243.638,256.089 247.805,245.089 250.5,233.5 Z"/></g>
<g><path style="opacity:1" fill="#d3b49b" d="M 137.5,237.5 C 137.55,242.552 137.05,247.552 136,252.5C 133.726,257.387 131.226,262.054 128.5,266.5C 127.833,265.5 127.167,264.5 126.5,263.5C 132.272,256.413 134.272,248.413 132.5,239.5C 132.842,238.662 133.508,238.328 134.5,238.5C 135.391,237.89 136.391,237.557 137.5,237.5 Z"/></g>
<g><path style="opacity:1" fill="#4477f2" d="M 174.5,223.5 C 175.376,223.369 176.043,223.702 176.5,224.5C 170.28,240.38 165.78,256.714 163,273.5C 160.796,281.511 157.963,289.178 154.5,296.5C 153.833,296.5 153.167,296.5 152.5,296.5C 153.293,288.7 154.793,281.034 157,273.5C 157.684,271.641 158.684,269.974 160,268.5C 162.448,261.373 164.282,254.039 165.5,246.5C 167.335,239.828 169.669,233.328 172.5,227C 171.756,225.961 170.756,225.461 169.5,225.5C 170.93,224.463 172.597,223.796 174.5,223.5 Z"/></g>
<g><path style="opacity:1" fill="#d0b254" d="M 123.5,242.5 C 124.735,242.721 125.735,243.388 126.5,244.5C 127.086,244.291 127.586,243.957 128,243.5C 128.167,245.167 128.333,246.833 128.5,248.5C 128.72,252.851 127.386,256.517 124.5,259.5C 120.719,255.376 117.719,250.709 115.5,245.5C 115.5,245.167 115.5,244.833 115.5,244.5C 118.221,244.037 120.888,243.371 123.5,242.5 Z"/></g>
<g><path style="opacity:1" fill="#00c7ef" d="M 205.5,216.5 C 205.833,216.5 206.167,216.5 206.5,216.5C 207.167,216.833 207.833,217.167 208.5,217.5C 208.509,219.308 208.009,220.975 207,222.5C 202.494,230.18 197.494,237.513 192,244.5C 190.038,248.257 188.205,252.09 186.5,256C 187.451,256.718 187.617,257.551 187,258.5C 177.995,270.182 170.828,282.849 165.5,296.5C 164.833,296.5 164.167,296.5 163.5,296.5C 164.189,292.931 165.189,289.431 166.5,286C 170.737,278.36 174.57,270.526 178,262.5C 188.311,248.271 197.478,232.938 205.5,216.5 Z"/></g>
<g><path style="opacity:1" fill="#01f2af" d="M 229.5,225.5 C 230.167,225.833 230.833,226.167 231.5,226.5C 227.822,231.672 224.989,237.338 223,243.5C 220.749,247.425 218.083,251.092 215,254.5C 208.444,268.868 201.277,282.868 193.5,296.5C 192.167,296.5 190.833,296.5 189.5,296.5C 190.905,292.615 191.905,288.615 192.5,284.5C 194.39,284.703 195.89,284.037 197,282.5C 200.02,277.82 201.853,272.82 202.5,267.5C 204.143,267.52 205.476,266.853 206.5,265.5C 207.308,263.577 207.808,261.577 208,259.5C 212.649,252.525 217.649,245.859 223,239.5C 224.582,234.448 226.748,229.781 229.5,225.5 Z"/></g>
<g><path style="opacity:1" fill="#963af2" d="M 164.5,227.5 C 165.376,227.369 166.043,227.702 166.5,228.5C 165.16,229.688 164.493,231.188 164.5,233C 165.425,238.791 163.925,243.958 160,248.5C 159.433,251.168 158.933,253.834 158.5,256.5C 157.25,256.423 156.417,255.756 156,254.5C 154.654,258.344 152.987,262.011 151,265.5C 150.667,264.5 150.333,263.5 150,262.5C 149.148,263.571 148.315,264.571 147.5,265.5C 147.5,262.833 147.5,260.167 147.5,257.5C 151.32,252.081 155.32,246.748 159.5,241.5C 160.068,238.548 161.234,235.881 163,233.5C 163.638,230.07 162.138,228.737 158.5,229.5C 160.214,228.262 162.214,227.595 164.5,227.5 Z"/></g>
<g><path style="opacity:1" fill="#03f28a" d="M 231.5,226.5 C 232.833,226.833 234.167,227.167 235.5,227.5C 233.976,231.202 231.81,234.536 229,237.5C 227.274,243.619 224.441,249.286 220.5,254.5C 218.757,258.984 216.757,263.317 214.5,267.5C 211.023,270.481 208.523,274.148 207,278.5C 206,279.167 205,279.833 204,280.5C 202.273,285.846 200.44,291.179 198.5,296.5C 196.833,296.5 195.167,296.5 193.5,296.5C 201.277,282.868 208.444,268.868 215,254.5C 218.083,251.092 220.749,247.425 223,243.5C 224.989,237.338 227.822,231.672 231.5,226.5 Z"/></g>
<g><path style="opacity:1" fill="#d3b4bd" d="M 145.5,234.5 C 144.89,242.942 142.723,250.942 139,258.5C 135.697,261.758 132.863,265.425 130.5,269.5C 129.599,268.71 128.932,267.71 128.5,266.5C 131.226,262.054 133.726,257.387 136,252.5C 137.05,247.552 137.55,242.552 137.5,237.5C 138.5,236.833 139.5,236.167 140.5,235.5C 142.216,235.371 143.883,235.038 145.5,234.5 Z"/></g>
<g><path style="opacity:1" fill="#2290f2" d="M 179.5,221.5 C 180.756,221.461 181.756,221.961 182.5,223C 179.86,229.591 178.027,236.424 177,243.5C 175.92,245.996 174.586,248.33 173,250.5C 171.823,258.7 169.823,266.7 167,274.5C 162.335,281.115 159.169,288.448 157.5,296.5C 156.5,296.5 155.5,296.5 154.5,296.5C 157.963,289.178 160.796,281.511 163,273.5C 165.78,256.714 170.28,240.38 176.5,224.5C 176.043,223.702 175.376,223.369 174.5,223.5C 175.93,222.463 177.597,221.796 179.5,221.5 Z"/></g>
<g><path style="opacity:1" fill="#b6aed2" d="M 147.5,233.5 C 147.5,241.5 147.5,249.5 147.5,257.5C 147.5,260.167 147.5,262.833 147.5,265.5C 147.5,275.833 147.5,286.167 147.5,296.5C 141.597,287.705 135.931,278.705 130.5,269.5C 132.863,265.425 135.697,261.758 139,258.5C 142.723,250.942 144.89,242.942 145.5,234.5C 146.167,234.167 146.833,233.833 147.5,233.5 Z"/></g>
<g><path style="opacity:1" fill="#01d5ec" d="M 208.5,217.5 C 209.391,218.11 210.391,218.443 211.5,218.5C 212.833,219.167 214.167,219.833 215.5,220.5C 208.842,231.813 201.675,242.813 194,253.5C 194.195,255.126 194.195,256.793 194,258.5C 186.092,271.573 177.592,284.239 168.5,296.5C 167.5,296.5 166.5,296.5 165.5,296.5C 170.828,282.849 177.995,270.182 187,258.5C 187.617,257.551 187.451,256.718 186.5,256C 188.205,252.09 190.038,248.257 192,244.5C 197.494,237.513 202.494,230.18 207,222.5C 208.009,220.975 208.509,219.308 208.5,217.5 Z"/></g>
<g><path style="opacity:1" fill="#0ff23f" d="M 238.5,228.5 C 240.05,229.441 241.716,230.107 243.5,230.5C 241.84,234.489 240.173,238.489 238.5,242.5C 235.895,246.645 233.395,250.979 231,255.5C 229.488,256.257 228.154,257.257 227,258.5C 226.74,260.618 225.74,262.284 224,263.5C 220.935,271.023 216.935,278.023 212,284.5C 210.202,288.422 208.702,292.422 207.5,296.5C 205.833,296.5 204.167,296.5 202.5,296.5C 205.917,289.997 209.084,283.33 212,276.5C 215.737,273.408 217.403,269.408 217,264.5C 218.945,260.264 221.612,256.597 225,253.5C 227.869,245.51 232.202,238.51 238,232.5C 238.49,231.207 238.657,229.873 238.5,228.5 Z"/></g>
<g><path style="opacity:1" fill="#4ef203" d="M 243.5,230.5 C 245.751,231.695 248.085,232.695 250.5,233.5C 247.805,245.089 243.638,256.089 238,266.5C 237.749,272.876 235.416,278.209 231,282.5C 229.393,287.154 227.893,291.82 226.5,296.5C 224.167,296.5 221.833,296.5 219.5,296.5C 222.14,291.906 224.473,287.073 226.5,282C 226.885,276.066 229.052,270.899 233,266.5C 234.517,258.384 236.35,250.384 238.5,242.5C 240.173,238.489 241.84,234.489 243.5,230.5 Z"/></g>
<g><path style="opacity:1" fill="#aaf205" d="M 270.5,241.5 C 272.786,241.595 274.786,242.262 276.5,243.5C 274.571,243.231 272.905,243.731 271.5,245C 271.957,245.414 272.291,245.914 272.5,246.5C 267.824,250.014 263.991,254.347 261,259.5C 260.517,260.448 260.351,261.448 260.5,262.5C 257.937,263.2 255.437,264.2 253,265.5C 252.055,265.095 251.388,264.428 251,263.5C 245.225,272.048 240.225,281.048 236,290.5C 235.505,292.473 235.338,294.473 235.5,296.5C 233.167,296.5 230.833,296.5 228.5,296.5C 232.286,288.929 236.119,281.262 240,273.5C 240.333,271.167 240.667,268.833 241,266.5C 244.585,258.991 247.919,251.324 251,243.5C 251.171,248.533 251.671,253.533 252.5,258.5C 258.557,255.943 262.724,251.61 265,245.5C 266.712,243.948 268.545,242.615 270.5,241.5 Z"/></g>
<g><path style="opacity:1" fill="#d3f008" d="M 276.5,243.5 C 278.833,244.167 281.167,244.833 283.5,245.5C 279.651,252.544 275.318,259.211 270.5,265.5C 268.665,266.122 267.498,267.456 267,269.5C 266.196,268.196 265.029,267.529 263.5,267.5C 258.265,269.37 253.765,272.37 250,276.5C 246.742,283.351 243.242,290.018 239.5,296.5C 238.167,296.5 236.833,296.5 235.5,296.5C 235.338,294.473 235.505,292.473 236,290.5C 240.225,281.048 245.225,272.048 251,263.5C 251.388,264.428 252.055,265.095 253,265.5C 255.437,264.2 257.937,263.2 260.5,262.5C 260.351,261.448 260.517,260.448 261,259.5C 263.991,254.347 267.824,250.014 272.5,246.5C 272.291,245.914 271.957,245.414 271.5,245C 272.905,243.731 274.571,243.231 276.5,243.5 Z"/></g>
<g><path style="opacity:1" fill="#e9e800" d="M 270.5,265.5 C 265.026,275.776 259.026,285.776 252.5,295.5C 248.217,296.492 243.884,296.826 239.5,296.5C 243.242,290.018 246.742,283.351 250,276.5C 253.765,272.37 258.265,269.37 263.5,267.5C 265.029,267.529 266.196,268.196 267,269.5C 267.498,267.456 268.665,266.122 270.5,265.5 Z"/></g>
<g><path style="opacity:1" fill="#01f2c8" d="M 225.5,224.5 C 226.959,224.433 228.292,224.766 229.5,225.5C 226.748,229.781 224.582,234.448 223,239.5C 217.649,245.859 212.649,252.525 208,259.5C 207.808,261.577 207.308,263.577 206.5,265.5C 205.476,266.853 204.143,267.52 202.5,267.5C 201.853,272.82 200.02,277.82 197,282.5C 195.89,284.037 194.39,284.703 192.5,284.5C 191.905,288.615 190.905,292.615 189.5,296.5C 188.833,296.5 188.167,296.5 187.5,296.5C 189.331,287.848 193.164,280.181 199,273.5C 206.613,256.486 215.446,240.153 225.5,224.5 Z"/></g>
<g><path style="opacity:1" fill="#4641f2" d="M 158.5,256.5 C 158.167,258.5 157.833,260.5 157.5,262.5C 154.213,273.65 151.546,284.983 149.5,296.5C 148.833,296.5 148.167,296.5 147.5,296.5C 147.5,286.167 147.5,275.833 147.5,265.5C 148.315,264.571 149.148,263.571 150,262.5C 150.333,263.5 150.667,264.5 151,265.5C 152.987,262.011 154.654,258.344 156,254.5C 156.417,255.756 157.25,256.423 158.5,256.5 Z"/></g>
<g><path style="opacity:1" fill="#285df2" d="M 165.5,246.5 C 164.282,254.039 162.448,261.373 160,268.5C 158.684,269.974 157.684,271.641 157,273.5C 154.793,281.034 153.293,288.7 152.5,296.5C 151.5,296.5 150.5,296.5 149.5,296.5C 151.546,284.983 154.213,273.65 157.5,262.5C 160.359,257.254 163.025,251.921 165.5,246.5 Z"/></g>
<g><path style="opacity:1" fill="#16f209" d="M 238.5,242.5 C 236.35,250.384 234.517,258.384 233,266.5C 229.052,270.899 226.885,276.066 226.5,282C 224.473,287.073 222.14,291.906 219.5,296.5C 215.5,296.5 211.5,296.5 207.5,296.5C 208.702,292.422 210.202,288.422 212,284.5C 216.935,278.023 220.935,271.023 224,263.5C 225.74,262.284 226.74,260.618 227,258.5C 228.154,257.257 229.488,256.257 231,255.5C 233.395,250.979 235.895,246.645 238.5,242.5 Z"/></g>
<g><path style="opacity:1" fill="#06f266" d="M 235.5,227.5 C 235.833,227.5 236.167,227.5 236.5,227.5C 236.842,228.338 237.508,228.672 238.5,228.5C 238.657,229.873 238.49,231.207 238,232.5C 232.202,238.51 227.869,245.51 225,253.5C 221.612,256.597 218.945,260.264 217,264.5C 217.403,269.408 215.737,273.408 212,276.5C 209.084,283.33 205.917,289.997 202.5,296.5C 201.167,296.5 199.833,296.5 198.5,296.5C 200.44,291.179 202.273,285.846 204,280.5C 205,279.833 206,279.167 207,278.5C 208.523,274.148 211.023,270.481 214.5,267.5C 216.757,263.317 218.757,258.984 220.5,254.5C 224.441,249.286 227.274,243.619 229,237.5C 231.81,234.536 233.976,231.202 235.5,227.5 Z"/></g>
</svg>
