<?xml version="1.0" standalone="yes"?>
<svg xmlns="http://www.w3.org/2000/svg" width="365" height="365">
<path style="fill:#fdfcfe; stroke:none;" d="M0 0L0 365L365 365L365 0L0 0z"/>
<path style="fill:#3a99d6; stroke:none;" d="M17 226L18 226L19 217L20 217L20 223L21 223L20 216L30 212L32 204C37.7403 203.163 43.1635 197.74 44 192L48 192L48 188C53.7403 187.163 59.1635 181.74 60 176L64 176L64 172C69.7403 171.163 75.1635 165.74 76 160L80 160L80 156C85.7403 155.163 91.1635 149.74 92 144L96 144L96 140C101.74 139.163 107.163 133.74 108 128L112 128L112 124C117.74 123.163 123.163 117.74 124 112L128 112L128 108C133.74 107.164 139.164 101.74 140 96L144 96L144 92C149.74 91.1635 155.164 85.7403 156 80L160 80L160 76C165.74 75.1635 171.163 69.7403 172 64L176 64L176 60C181.74 59.1635 187.164 53.7403 188 48L192 48L192 44C197.74 43.1635 203.163 37.7403 204 32L208 32L208 28C215.03 26.9756 219.438 20.6666 220 14C204.313 8.68945 185.257 9.20554 169 10.831C103.851 17.345 46.5204 59.1602 23.064 121C9.61602 156.454 12.0778 189.446 17 226z"/>
<path style="fill:#7243e6; stroke:none;" d="M220 14L219 15C219.663 21.0247 213.565 26.5671 208 28L208 32L204 32C202.61 37.397 197.397 42.6105 192 44L192 48L188 48C186.61 53.397 181.397 58.6105 176 60L176 64L172 64C170.61 69.397 165.397 74.6105 160 76L160 80L156 80C154.61 85.397 149.397 90.6105 144 92L144 96L140 96C138.61 101.397 133.397 106.61 128 108L128 112L124 112C122.61 117.397 117.397 122.61 112 124L112 128L108 128C106.61 133.397 101.397 138.61 96 140L96 144L92 144C90.6104 149.397 85.397 154.61 80 156L80 160L76 160C74.6104 165.397 69.397 170.61 64 172L64 176L60 176C58.6105 181.397 53.397 186.61 48 188L48 192L44 192C42.6105 197.397 37.397 202.61 32 204L30 212L20 216L21 223L20 223L20 217L19 217C17.496 252.029 45.9766 295.26 74 315L68 306C64.189 304.159 62.6382 302.292 63 298L58 298L80 272C86.9891 270.816 92.5541 260.193 98.3356 255.973C105.717 250.585 118.386 252 127 252L127 251L95 251C95 237.231 92.9017 221.506 95.6659 208C101.562 179.192 126.542 158.003 156 158L156 192C125.86 192.642 129 223.428 129 245L130 245L132 215L136 223L137 223L139 209L143 212L154 202L160 189L161 189C169.711 208.599 167 229.78 167 251L168 251L167 123L202 123L201 176L202 176L204 148L208 149C210.346 142.375 219.246 130.371 227 134C233.527 131.292 235.24 139.694 238 144C239.505 131.161 223.565 123.863 213 123L213 89C232.689 89.163 244.757 99.3049 260 110L256 100L253 100L255 96C260.836 94.81 270.354 85.7077 272 80L290.749 63.2485L298 57C310.989 62.0965 316.449 76.9067 327 85C303.098 46.6176 262.385 24.9706 220 14z"/>
<path style="fill:#3a99d6; stroke:none;" d="M221 14L221 15L224 15L221 14M226.667 15.3333L227.333 15.6667L226.667 15.3333M225 16L224 18L225 16M230.667 16.3333L231.333 16.6667L230.667 16.3333M227 17L228 18L227 17M233.667 17.3333L234.333 17.6667L233.667 17.3333M237 18L238 19L237 18M240 19L241 20L240 19M243 20L244 21L243 20M246 21L247 22L246 21M248 22L249 23L248 22M251 23L252 24L251 23M253 24L254 25L253 24M265 30L266 31L265 30M267 31L268 32L267 31M269 32L270 33L269 32M271 33L272 34L271 33M274 35L275 36L274 35M276 36L277 37L276 36M279 38L280 39L279 38M282 40L283 41L282 40M290 46L291 47L290 46M294 49L295 50L294 49M295 50L296 51L295 50z"/>
<path style="fill:#aa10a8; stroke:none;" d="M292 53L293 57L297 57L296 54L294 55L292 53M291 55L292 56L291 55z"/>
<path style="fill:#3a99d6; stroke:none;" d="M302 56L303 57L302 56z"/>
<path style="fill:#aa10a8; stroke:none;" d="M298 57L280.384 72.3835L272 80C269.346 85.5589 260.842 93.9956 255 96L253 100L256 100C255.446 105.857 260.603 110.284 263.694 114.95C268.394 122.043 272.433 130.494 273.701 139C278.518 171.338 275 206.33 275 239L276 239L278 209L280 209L282 218L283 218L285 204L286 204L286 210L288 210C290.567 201.653 302.435 193.299 308.886 187.486C323.644 174.188 335.846 157.909 351 145L355 170C358.291 162.14 353.617 148.962 351.627 141C345.627 117.001 334.602 94.0446 318.715 75C313.101 68.2712 306.791 59.2949 298 57z"/>
<path style="fill:#3a99d6; stroke:none;" d="M304 58L305 59L304 58M305 59L306 60L305 59z"/>
<path style="fill:#7243e6; stroke:none;" d="M302 62L303 63L302 62z"/>
<path style="fill:#3a99d6; stroke:none;" d="M308 62L309 63L308 62M310 64L311 65L310 64z"/>
<path style="fill:#7243e6; stroke:none;" d="M327 86L328 87L327 86M328 87L329 88L328 87z"/>
<path style="fill:#fdfcfe; stroke:none;" d="M213 89L213 123C225.187 123.997 236.023 131.869 239.236 144C241.366 152.042 240 161.728 240 170L240 222C240 228.223 237.094 244.43 241.028 249.397C242.891 251.75 247.383 250.999 250 251L274 251L274 176C274 161.866 275.627 146.749 271.842 133C264.606 106.714 239.688 89.551 213 89z"/>
<path style="fill:#3a99d6; stroke:none;" d="M219.667 89.3333L220.333 89.6667L219.667 89.3333z"/>
<path style="fill:#7243e6; stroke:none;" d="M329 89L330 90L329 89z"/>
<path style="fill:#3a99d6; stroke:none;" d="M226 90L227 91L226 90M330 90L331 91L330 90z"/>
<path style="fill:#7243e6; stroke:none;" d="M330 91L331 92L330 91z"/>
<path style="fill:#3a99d6; stroke:none;" d="M233 92L234 93L233 92z"/>
<path style="fill:#7243e6; stroke:none;" d="M331 92L332 93L331 92z"/>
<path style="fill:#3a99d6; stroke:none;" d="M238 94L239 95L238 94z"/>
<path style="fill:#7243e6; stroke:none;" d="M332 94L333 95L332 94M333 95L335 98L333 95z"/>
<path style="fill:#aa10a8; stroke:none;" d="M251 97L253 99L251 97M254 97L255 98L254 97z"/>
<path style="fill:#3a99d6; stroke:none;" d="M245 98L246 99L245 98z"/>
<path style="fill:#7243e6; stroke:none;" d="M335 99L336 100L335 99z"/>
<path style="fill:#3a99d6; stroke:none;" d="M248 100L249 101L248 100z"/>
<path style="fill:#7243e6; stroke:none;" d="M259 100L260 101L259 100M336 101L337 102L336 101z"/>
<path style="fill:#3a99d6; stroke:none;" d="M252 103L253 104L252 103z"/>
<path style="fill:#7243e6; stroke:none;" d="M337 103L338 104L337 103z"/>
<path style="fill:#3a99d6; stroke:none;" d="M253 104L254 105L253 104z"/>
<path style="fill:#7243e6; stroke:none;" d="M338 105L339 106L338 105M339 107L340 108L339 107M340 109L341 110L340 109M260 111L263 114L260 111M341 111L342 112L341 111M342 113L343 114L342 113M263.333 114.667L263.667 115.333L263.333 114.667M343.333 115.667L343.667 116.333L343.333 115.667M264 116L265 117L264 116M265 118L267 122L268 122L265 118M344 118L345 119L344 118M345.333 120.667L345.667 121.333L345.333 120.667z"/>
<path style="fill:#3a99d6; stroke:none;" d="M167 123L167 183L168 183L168 142L167 123z"/>
<path style="fill:#fdfcfe; stroke:none;" d="M168 123L168 251L201 251L201 123L168 123z"/>
<path style="fill:#3a99d6; stroke:none;" d="M201 123L201 166L202 166C202 153.781 205.71 134.226 201 123M217 123L218 124L217 123z"/>
<path style="fill:#7243e6; stroke:none;" d="M268 123L269 124L268 123M346 123L347 124L346 123z"/>
<path style="fill:#3a99d6; stroke:none;" d="M221 124L222 125L221 124M268 124L269 125L268 124z"/>
<path style="fill:#7243e6; stroke:none;" d="M269.333 125.667L269.667 126.333L269.333 125.667M347 126L348 127L347 126M270 128L271 129L270 128z"/>
<path style="fill:#3a99d6; stroke:none;" d="M230 129L231 130L230 129z"/>
<path style="fill:#7243e6; stroke:none;" d="M348 129L349 130L348 129z"/>
<path style="fill:#aa10a8; stroke:none;" d="M226 130L226 132L228 132L226 130z"/>
<path style="fill:#7243e6; stroke:none;" d="M271.333 130.667L271.667 131.333L271.333 130.667z"/>
<path style="fill:#aa10a8; stroke:none;" d="M208 149L204 148L202 251L167 251C167 231.369 171.581 206.304 161 189L160 189L154 202C148.493 204.179 145.337 206.49 143 212L139 209L137 223L136 223L132 215L129 252C120.403 251.055 104.864 250.506 97.5795 255.973C91.8016 260.309 86.7448 269.925 80 272L58 298L63 298C62.0066 302.496 63.6257 304.731 68 306C69.4665 314.313 83.3562 321.875 90 326.329C113.805 342.291 144.027 353.981 173 354L173 353C164.327 352.976 151.493 352.3 145 346L156 344L152 339L160 338C162.567 329.653 174.435 321.299 180.886 315.486C194.906 302.853 207.995 288.198 220.965 274.478C226.734 268.377 236.698 262.965 238 254C247.002 255.034 255.936 252.714 265 252.09C269.384 251.787 273.401 252.817 275 248L274 248L274 251L240 251L239 143C234.636 143 234.135 126.865 227 134C220.363 127.9 209.289 142.934 208 149z"/>
<path style="fill:#3a99d6; stroke:none;" d="M233 132L234 133L233 132z"/>
<path style="fill:#7243e6; stroke:none;" d="M349 132L350 133L349 132M272 133L272 136L273 136L272 133M350.333 135.667L350.667 136.333L350.333 135.667z"/>
<path style="fill:#c60850; stroke:none;" d="M348 136L348 140L349 140L348 136z"/>
<path style="fill:#7243e6; stroke:none;" d="M273 137L273 141L274 141L273 137z"/>
<path style="fill:#3a99d6; stroke:none;" d="M237 138L238 139L237 138z"/>
<path style="fill:#7243e6; stroke:none;" d="M351.333 139.667L351.667 140.333L351.333 139.667z"/>
<path style="fill:#c60850; stroke:none;" d="M346 141L346 144L348 141L346 141z"/>
<path style="fill:#7243e6; stroke:none;" d="M352.333 143.667L352.667 144.333L352.333 143.667M239 144L239 159L240 159L239 144z"/>
<path style="fill:#aa10a8; stroke:none;" d="M205.333 145.667L205.667 146.333L205.333 145.667z"/>
<path style="fill:#c60850; stroke:none;" d="M350 145C335.419 158.455 322.869 174.406 307.986 187.486C301.904 192.832 289.366 201.916 288 210L286 210L286 204L285 204L283 218L282 218L280 209L278 209L275.285 240L273.397 250.397L264 252.09L238 254C235.892 262.164 227.301 267.352 221.657 273.036C208.007 286.781 195 301.434 180.886 314.689C174.655 320.54 161.456 329.384 160 338L152 339L156 344L145 346C149.481 352.567 162.741 352.389 170 353.166C196.021 355.952 222.541 352.657 247 343.189C304.546 320.914 345.765 268.874 354.579 208C357.357 188.82 358.797 162.862 350 145z"/>
<path style="fill:#7243e6; stroke:none;" d="M274 146L274 241L275 241L275 175L274 146M353.333 147.667L353.667 148.333L353.333 147.667M354.333 153.667L354.667 154.333L354.333 153.667z"/>
<path style="fill:#3a99d6; stroke:none;" d="M145 158L146 159L145 158z"/>
<path style="fill:#fdfcfe; stroke:none;" d="M95 251L119 251C121.617 250.999 126.109 251.75 127.972 249.397C130.895 245.706 129 235.513 129 231C129 212.684 133.273 192.484 156 192L156 158C149.011 158.001 142.687 158.901 136 161.029C94.0991 174.362 95 215.065 95 251z"/>
<path style="fill:#3a99d6; stroke:none;" d="M141 159L142 160L141 159z"/>
<path style="fill:#7243e6; stroke:none;" d="M355 159L355 162L356 162L355 159z"/>
<path style="fill:#3a99d6; stroke:none;" d="M137 160L138 161L137 160M134 161L135 162L134 161M129 163L130 164L129 163M127 164L128 165L127 164M125 165L126 166L125 165M122 167L123 168L122 167z"/>
<path style="fill:#7243e6; stroke:none;" d="M356 168L356 176L357 176L356 168z"/>
<path style="fill:#3a99d6; stroke:none;" d="M119 169L120 170L119 169M201 176L201 208L202 208L201 176z"/>
<path style="fill:#aa10a8; stroke:none;" d="M356 176L356 189L357 189L356 176z"/>
<path style="fill:#3a99d6; stroke:none;" d="M107 181L108 182L107 181M106 182L107 183L106 182M104 185L105 186L104 185M102 188L103 189L102 188z"/>
<path style="fill:#7243e6; stroke:none;" d="M356 189L356 197L357 197L356 189z"/>
<path style="fill:#3a99d6; stroke:none;" d="M101 190L102 191L101 190M100 192L101 193L100 192M149 192L150 193L149 192M146 193L147 194L146 193M98 197L99 198L98 197z"/>
<path style="fill:#aa10a8; stroke:none;" d="M153 197L154 198L153 197M151 198L152 199L151 198z"/>
<path style="fill:#3a99d6; stroke:none;" d="M97 200L98 201L97 200z"/>
<path style="fill:#aa10a8; stroke:none;" d="M142 201L141 203L143 203L142 201z"/>
<path style="fill:#7243e6; stroke:none;" d="M158 201L159 202L158 201z"/>
<path style="fill:#aa10a8; stroke:none;" d="M355.333 201.667L355.667 202.333L355.333 201.667z"/>
<path style="fill:#7243e6; stroke:none;" d="M355 203L355 206L356 206L355 203z"/>
<path style="fill:#3a99d6; stroke:none;" d="M96 204L97 205L96 204z"/>
<path style="fill:#aa10a8; stroke:none;" d="M138 206L139 207L138 206z"/>
<path style="fill:#3a99d6; stroke:none;" d="M95.3333 208.667L95.6667 209.333L95.3333 208.667z"/>
<path style="fill:#7243e6; stroke:none;" d="M201 208L201 251L202 251C202 238.781 205.71 219.226 201 208z"/>
<path style="fill:#aa10a8; stroke:none;" d="M354.333 208.667L354.667 209.333L354.333 208.667z"/>
<path style="fill:#3a99d6; stroke:none;" d="M130 209L131 210L130 209z"/>
<path style="fill:#7243e6; stroke:none;" d="M354.333 210.667L354.667 211.333L354.333 210.667z"/>
<path style="fill:#3a99d6; stroke:none;" d="M129 213L130 214L129 213z"/>
<path style="fill:#7243e6; stroke:none;" d="M18 216L19 217L18 216M353.333 216.667L353.667 217.333L353.333 216.667z"/>
<path style="fill:#aa10a8; stroke:none;" d="M352 220L353 221L352 220z"/>
<path style="fill:#7243e6; stroke:none;" d="M352 221L353 222L352 221z"/>
<path style="fill:#3a99d6; stroke:none;" d="M21 224L22 225L21 224z"/>
<path style="fill:#aa10a8; stroke:none;" d="M351 224L352 225L351 224z"/>
<path style="fill:#7243e6; stroke:none;" d="M351 225L352 226L351 225z"/>
<path style="fill:#3a99d6; stroke:none;" d="M18.3333 228.667L18.6667 229.333L18.3333 228.667z"/>
<path style="fill:#aa10a8; stroke:none;" d="M350 228L351 229L350 228z"/>
<path style="fill:#7243e6; stroke:none;" d="M350 229L351 230L350 229z"/>
<path style="fill:#3a99d6; stroke:none;" d="M19.3333 231.667L19.6667 232.333L19.3333 231.667z"/>
<path style="fill:#7243e6; stroke:none;" d="M349 232L350 233L349 232z"/>
<path style="fill:#3a99d6; stroke:none;" d="M20 235L21 236L20 235z"/>
<path style="fill:#7243e6; stroke:none;" d="M348 235L349 236L348 235z"/>
<path style="fill:#3a99d6; stroke:none;" d="M21 238L22 239L21 238M22 241L23 242L22 241z"/>
<path style="fill:#aa10a8; stroke:none;" d="M274.333 241.667L274.667 242.333L274.333 241.667z"/>
<path style="fill:#7243e6; stroke:none;" d="M346 241L347 242L346 241M274 243L274 248L275 248L274 243z"/>
<path style="fill:#3a99d6; stroke:none;" d="M23 244L24 245L23 244z"/>
<path style="fill:#7243e6; stroke:none;" d="M345 244L346 245L345 244z"/>
<path style="fill:#3a99d6; stroke:none;" d="M24 246L25 247L24 246z"/>
<path style="fill:#7243e6; stroke:none;" d="M344 246L345 247L344 246z"/>
<path style="fill:#3a99d6; stroke:none;" d="M25 249L26 250L25 249z"/>
<path style="fill:#7243e6; stroke:none;" d="M343 249L344 250L343 249M128.333 250.667L128.667 251.333L128.333 250.667M240 250L241 251L240 250z"/>
<path style="fill:#3a99d6; stroke:none;" d="M26 251L27 252L26 251z"/>
<path style="fill:#7243e6; stroke:none;" d="M342 251L343 252L342 251z"/>
<path style="fill:#3a99d6; stroke:none;" d="M27 253L28 254L27 253z"/>
<path style="fill:#aa10a8; stroke:none;" d="M97 253L98 254L97 253M341 253L342 254L341 253M93 254L94 255L93 254M90.6667 255.333L91.3333 255.667L90.6667 255.333z"/>
<path style="fill:#3a99d6; stroke:none;" d="M34 267L35 268L34 267z"/>
<path style="fill:#7243e6; stroke:none;" d="M334 267L335 268L334 267z"/>
<path style="fill:#3a99d6; stroke:none;" d="M35 269L36 270L35 269z"/>
<path style="fill:#7243e6; stroke:none;" d="M333 269L334 270L333 269M331 272L332 273L331 272M330 274L331 275L330 274z"/>
<path style="fill:#3a99d6; stroke:none;" d="M40 277L41 278L40 277z"/>
<path style="fill:#7243e6; stroke:none;" d="M328 277L329 278L328 277z"/>
<path style="fill:#3a99d6; stroke:none;" d="M42 280L43 281L42 280M45 284L46 285L45 284z"/>
<path style="fill:#7243e6; stroke:none;" d="M323 284L324 285L323 284z"/>
<path style="fill:#3a99d6; stroke:none;" d="M48 288L49 289L48 288z"/>
<path style="fill:#7243e6; stroke:none;" d="M320 288L321 289L320 288z"/>
<path style="fill:#aa10a8; stroke:none;" d="M54 291L55 292L54 291z"/>
<path style="fill:#3a99d6; stroke:none;" d="M52 293L53 294L52 293z"/>
<path style="fill:#7243e6; stroke:none;" d="M316 293L317 294L316 293M315 294L316 295L315 294M314 295L315 296L314 295M306 304L307 305L306 304M304 306L305 307L304 306z"/>
<path style="fill:#aa10a8; stroke:none;" d="M297 312L298 313L297 312z"/>
<path style="fill:#7243e6; stroke:none;" d="M296 313L297 314L296 313M295 314L296 315L295 314M75 315L76 316L75 315M76 316L80 319L76 316M290 318L291 319L290 318M81 320L82 321L81 320M82.6667 321.333L83.3333 321.667L82.6667 321.333M286 321L287 322L286 321M84 322L85 323L84 322M85 323L86 324L85 323M283 323L284 324L283 323z"/>
<path style="fill:#3a99d6; stroke:none;" d="M86 324L87 325L86 324z"/>
<path style="fill:#7243e6; stroke:none;" d="M87 324L88 325L87 324M88 325L89 326L88 325M89.6667 326.333L90.3333 326.667L89.6667 326.333M279 326L280 327L279 326M91 327L92 328L91 327M277 327L278 328L277 327z"/>
<path style="fill:#3a99d6; stroke:none;" d="M92 328L93 329L92 328z"/>
<path style="fill:#7243e6; stroke:none;" d="M93 328L94 329L93 328M94 329L95 330L94 329M274 329L275 330L274 329M96 330L97 331L96 330M97.6667 331.333L98.3333 331.667L97.6667 331.333M271 331L272 332L271 331M99 332L100 333L99 332M269 332L270 333L269 332M101 333L102 334L101 333M103 334L104 335L103 334z"/>
<path style="fill:#aa10a8; stroke:none;" d="M265 334L266 335L265 334z"/>
<path style="fill:#7243e6; stroke:none;" d="M105 335L106 336L105 335M107 336L108 337L107 336M109 337L110 338L109 337M111 338L112 339L111 338z"/>
<path style="fill:#aa10a8; stroke:none;" d="M257 338L258 339L257 338z"/>
<path style="fill:#7243e6; stroke:none;" d="M113 339L114 340L113 339z"/>
<path style="fill:#aa10a8; stroke:none;" d="M255 339L256 340L255 339z"/>
<path style="fill:#7243e6; stroke:none;" d="M115 340L116 341L115 340z"/>
<path style="fill:#c60850; stroke:none;" d="M145.333 340.667L145.667 341.333L145.333 340.667z"/>
<path style="fill:#7243e6; stroke:none;" d="M253 340L254 341L253 340M117.667 341.333L118.333 341.667L117.667 341.333M251 341L252 342L251 341M120 342L121 343L120 342M248 342L249 343L248 342M122.667 343.333L123.333 343.667L122.667 343.333M246 343L247 344L246 343M125 344L126 345L125 344M243 344L244 345L243 344M128 345L129 346L128 345M240 345L241 346L240 345M131 346L132 347L131 346z"/>
<path style="fill:#aa10a8; stroke:none;" d="M236 346L237 347L236 346z"/>
<path style="fill:#7243e6; stroke:none;" d="M237 346L238 347L237 346M134 347L135 348L134 347M234 347L235 348L234 347M137.667 348.333L138.333 348.667L137.667 348.333z"/>
<path style="fill:#c60850; stroke:none;" d="M143.667 348.333L144.333 348.667L143.667 348.333z"/>
<path style="fill:#aa10a8; stroke:none;" d="M156 348L156 349L160 349L156 348M230 348L231 349L230 348z"/>
<path style="fill:#7243e6; stroke:none;" d="M231 348L232 349L231 348M141 349L142 350L141 349M227 349L228 350L227 349M145.667 350.333L146.333 350.667L145.667 350.333M222.667 350.333L223.333 350.667L222.667 350.333M149.667 351.333L150.333 351.667L149.667 351.333z"/>
<path style="fill:#aa10a8; stroke:none;" d="M217 351L218 352L217 351z"/>
<path style="fill:#7243e6; stroke:none;" d="M218.667 351.333L219.333 351.667L218.667 351.333M154 352L154 353L157 353L154 352z"/>
<path style="fill:#aa10a8; stroke:none;" d="M211 352L212 353L211 352z"/>
<path style="fill:#7243e6; stroke:none;" d="M212.667 352.333L213.333 352.667L212.667 352.333M161 353L161 354L164 354L161 353z"/>
<path style="fill:#aa10a8; stroke:none;" d="M203 353L203 354L206 354L203 353z"/>
<path style="fill:#7243e6; stroke:none;" d="M206.667 353.333L207.333 353.667L206.667 353.333M171 354L171 355L178 355L171 354z"/>
<path style="fill:#aa10a8; stroke:none;" d="M178 354L178 355L192 355L178 354z"/>
<path style="fill:#7243e6; stroke:none;" d="M192 354L192 355L198 355L192 354z"/>
</svg>
