<?xml version="1.0" encoding="UTF-8"?>
<!DOCTYPE svg PUBLIC "-//W3C//DTD SVG 1.1//EN" "http://www.w3.org/Graphics/SVG/1.1/DTD/svg11.dtd">
<svg xmlns="http://www.w3.org/2000/svg" version="1.1" width="400px" height="400px" style="shape-rendering:geometricPrecision; text-rendering:geometricPrecision; image-rendering:optimizeQuality; fill-rule:evenodd; clip-rule:evenodd" xmlns:xlink="http://www.w3.org/1999/xlink">
<g><path style="opacity:0.983" fill="#fdfdfd" d="M 181.5,-0.5 C 193.833,-0.5 206.167,-0.5 218.5,-0.5C 293.769,9.61876 348.269,48.6188 382,116.5C 391.141,137.405 396.974,159.072 399.5,181.5C 399.5,193.833 399.5,206.167 399.5,218.5C 389.381,293.769 350.381,348.269 282.5,382C 261.595,391.141 239.928,396.974 217.5,399.5C 205.167,399.5 192.833,399.5 180.5,399.5C 105.231,389.381 50.7313,350.381 17,282.5C 7.85929,261.595 2.02596,239.928 -0.5,217.5C -0.5,205.167 -0.5,192.833 -0.5,180.5C 9.61876,105.231 48.6188,50.7313 116.5,17C 137.405,7.85929 159.072,2.02596 181.5,-0.5 Z"/></g>
<g><path style="opacity:1" fill="#61666b" d="M 141.5,23.5 C 141.5,23.1667 141.5,22.8333 141.5,22.5C 180.833,22.5 220.167,22.5 259.5,22.5C 259.5,30.5 259.5,38.5 259.5,46.5C 220.167,46.5 180.833,46.5 141.5,46.5C 141.5,46.1667 141.5,45.8333 141.5,45.5C 180.5,45.5 219.5,45.5 258.5,45.5C 258.5,38.1667 258.5,30.8333 258.5,23.5C 219.5,23.5 180.5,23.5 141.5,23.5 Z"/></g>
<g><path style="opacity:1" fill="#2d343e" d="M 141.5,23.5 C 180.5,23.5 219.5,23.5 258.5,23.5C 258.5,30.8333 258.5,38.1667 258.5,45.5C 219.5,45.5 180.5,45.5 141.5,45.5C 141.5,38.1667 141.5,30.8333 141.5,23.5 Z"/></g>
<g><path style="opacity:1" fill="#fefefe" d="M 141.5,46.5 C 180.833,46.5 220.167,46.5 259.5,46.5C 259.5,54.1667 259.5,61.8333 259.5,69.5C 274.991,70.4963 290.658,70.8296 306.5,70.5C 306.5,78.1667 306.5,85.8333 306.5,93.5C 313.982,94.492 321.648,94.8254 329.5,94.5C 329.17,110.342 329.504,126.009 330.5,141.5C 338.167,141.5 345.833,141.5 353.5,141.5C 353.5,180.5 353.5,219.5 353.5,258.5C 345.648,258.175 337.982,258.508 330.5,259.5C 330.5,275.167 330.5,290.833 330.5,306.5C 322.5,306.5 314.5,306.5 306.5,306.5C 306.5,314.5 306.5,322.5 306.5,330.5C 290.833,330.5 275.167,330.5 259.5,330.5C 258.508,337.982 258.175,345.648 258.5,353.5C 219.5,353.5 180.5,353.5 141.5,353.5C 141.5,345.833 141.5,338.167 141.5,330.5C 126.009,329.504 110.342,329.17 94.5,329.5C 94.8254,321.648 94.492,313.982 93.5,306.5C 85.8333,306.5 78.1667,306.5 70.5,306.5C 70.8296,290.658 70.4963,274.991 69.5,259.5C 61.8333,259.5 54.1667,259.5 46.5,259.5C 46.5,220.167 46.5,180.833 46.5,141.5C 54.5,141.5 62.5,141.5 70.5,141.5C 70.5,125.833 70.5,110.167 70.5,94.5C 78.3516,94.8254 86.0182,94.492 93.5,93.5C 94.492,86.0182 94.8254,78.3516 94.5,70.5C 110.167,70.5 125.833,70.5 141.5,70.5C 141.5,62.5 141.5,54.5 141.5,46.5 Z"/></g>
<g><path style="opacity:1" fill="#2d353f" d="M 259.5,46.5 C 275.167,46.5 290.833,46.5 306.5,46.5C 306.5,54.1667 306.5,61.8333 306.5,69.5C 290.833,69.5 275.167,69.5 259.5,69.5C 259.5,61.8333 259.5,54.1667 259.5,46.5 Z"/></g>
<g><path style="opacity:1" fill="#9ea1a5" d="M 141.5,22.5 C 141.5,22.8333 141.5,23.1667 141.5,23.5C 141.5,30.8333 141.5,38.1667 141.5,45.5C 141.5,45.8333 141.5,46.1667 141.5,46.5C 141.5,54.5 141.5,62.5 141.5,70.5C 125.833,70.5 110.167,70.5 94.5,70.5C 94.8254,78.3516 94.492,86.0182 93.5,93.5C 86.0182,94.492 78.3516,94.8254 70.5,94.5C 70.5,110.167 70.5,125.833 70.5,141.5C 62.5,141.5 54.5,141.5 46.5,141.5C 46.1667,141.5 45.8333,141.5 45.5,141.5C 38.1667,141.5 30.8333,141.5 23.5,141.5C 23.1667,141.5 22.8333,141.5 22.5,141.5C 29.9818,140.508 37.6484,140.175 45.5,140.5C 45.5,124.833 45.5,109.167 45.5,93.5C 53.5,93.5 61.5,93.5 69.5,93.5C 69.5,85.5 69.5,77.5 69.5,69.5C 77.5,69.5 85.5,69.5 93.5,69.5C 93.5,61.5 93.5,53.5 93.5,45.5C 109.167,45.5 124.833,45.5 140.5,45.5C 140.175,37.6484 140.508,29.9818 141.5,22.5 Z"/></g>
<g><path style="opacity:1" fill="#2d353e" d="M 94.5,46.5 C 109.833,46.5 125.167,46.5 140.5,46.5C 140.5,54.1667 140.5,61.8333 140.5,69.5C 125.167,69.5 109.833,69.5 94.5,69.5C 94.5,61.8333 94.5,54.1667 94.5,46.5 Z"/></g>
<g><path style="opacity:1" fill="#95999c" d="M 306.5,46.5 C 307.492,53.9818 307.825,61.6484 307.5,69.5C 315.352,69.1746 323.018,69.508 330.5,70.5C 322.833,70.5 315.167,70.5 307.5,70.5C 307.5,78.1667 307.5,85.8333 307.5,93.5C 307.167,93.5 306.833,93.5 306.5,93.5C 306.5,85.8333 306.5,78.1667 306.5,70.5C 290.658,70.8296 274.991,70.4963 259.5,69.5C 275.167,69.5 290.833,69.5 306.5,69.5C 306.5,61.8333 306.5,54.1667 306.5,46.5 Z"/></g>
<g><path style="opacity:1" fill="#2d353f" d="M 93.5,93.5 C 85.8333,93.5 78.1667,93.5 70.5,93.5C 70.5,85.8333 70.5,78.1667 70.5,70.5C 78.1667,70.5 85.8333,70.5 93.5,70.5C 93.5,78.1667 93.5,85.8333 93.5,93.5 Z"/></g>
<g><path style="opacity:1" fill="#2e353f" d="M 330.5,70.5 C 330.5,78.1667 330.5,85.8333 330.5,93.5C 322.833,93.5 315.167,93.5 307.5,93.5C 307.5,85.8333 307.5,78.1667 307.5,70.5C 315.167,70.5 322.833,70.5 330.5,70.5 Z"/></g>
<g><path style="opacity:1" fill="#64696f" d="M 141.5,94.5 C 141.5,94.1667 141.5,93.8333 141.5,93.5C 180.833,93.5 220.167,93.5 259.5,93.5C 259.5,101.5 259.5,109.5 259.5,117.5C 220.167,117.5 180.833,117.5 141.5,117.5C 141.5,117.167 141.5,116.833 141.5,116.5C 180.5,116.5 219.5,116.5 258.5,116.5C 258.5,109.167 258.5,101.833 258.5,94.5C 219.5,94.5 180.5,94.5 141.5,94.5 Z"/></g>
<g><path style="opacity:1" fill="#daddde" d="M 306.5,93.5 C 306.833,93.5 307.167,93.5 307.5,93.5C 315.167,93.5 322.833,93.5 330.5,93.5C 330.5,109.167 330.5,124.833 330.5,140.5C 330.5,140.833 330.5,141.167 330.5,141.5C 329.504,126.009 329.17,110.342 329.5,94.5C 321.648,94.8254 313.982,94.492 306.5,93.5 Z"/></g>
<g><path style="opacity:1" fill="#696e74" d="M 330.5,93.5 C 338.5,93.5 346.5,93.5 354.5,93.5C 354.5,109.167 354.5,124.833 354.5,140.5C 354.167,140.5 353.833,140.5 353.5,140.5C 353.5,125.167 353.5,109.833 353.5,94.5C 346.167,94.5 338.833,94.5 331.5,94.5C 331.5,109.833 331.5,125.167 331.5,140.5C 331.167,140.5 330.833,140.5 330.5,140.5C 330.5,124.833 330.5,109.167 330.5,93.5 Z"/></g>
<g><path style="opacity:1" fill="#2d343e" d="M 46.5,94.5 C 54.1667,94.5 61.8333,94.5 69.5,94.5C 69.5,109.833 69.5,125.167 69.5,140.5C 61.8333,140.5 54.1667,140.5 46.5,140.5C 46.5,125.167 46.5,109.833 46.5,94.5 Z"/></g>
<g><path style="opacity:1" fill="#2d343e" d="M 141.5,94.5 C 180.5,94.5 219.5,94.5 258.5,94.5C 258.5,101.833 258.5,109.167 258.5,116.5C 219.5,116.5 180.5,116.5 141.5,116.5C 141.5,109.167 141.5,101.833 141.5,94.5 Z"/></g>
<g><path style="opacity:1" fill="#2d343e" d="M 353.5,140.5 C 346.167,140.5 338.833,140.5 331.5,140.5C 331.5,125.167 331.5,109.833 331.5,94.5C 338.833,94.5 346.167,94.5 353.5,94.5C 353.5,109.833 353.5,125.167 353.5,140.5 Z"/></g>
<g><path style="opacity:1" fill="#cdcfd1" d="M 259.5,93.5 C 260.492,100.982 260.825,108.648 260.5,116.5C 268.352,116.175 276.018,116.508 283.5,117.5C 283.167,117.5 282.833,117.5 282.5,117.5C 274.833,117.5 267.167,117.5 259.5,117.5C 259.5,109.5 259.5,101.5 259.5,93.5 Z"/></g>
<g><path style="opacity:1" fill="#eef0f1" d="M 141.5,118.5 C 141.5,118.167 141.5,117.833 141.5,117.5C 180.833,117.5 220.167,117.5 259.5,117.5C 259.5,125.167 259.5,132.833 259.5,140.5C 259.5,140.833 259.5,141.167 259.5,141.5C 258.508,134.018 258.175,126.352 258.5,118.5C 219.5,118.5 180.5,118.5 141.5,118.5 Z"/></g>
<g><path style="opacity:1" fill="#2e363f" d="M 259.5,117.5 C 267.167,117.5 274.833,117.5 282.5,117.5C 282.5,125.167 282.5,132.833 282.5,140.5C 274.833,140.5 267.167,140.5 259.5,140.5C 259.5,132.833 259.5,125.167 259.5,117.5 Z"/></g>
<g><path style="opacity:1" fill="#a2a6a9" d="M 141.5,93.5 C 141.5,93.8333 141.5,94.1667 141.5,94.5C 141.5,101.833 141.5,109.167 141.5,116.5C 141.5,116.833 141.5,117.167 141.5,117.5C 141.5,117.833 141.5,118.167 141.5,118.5C 141.5,126.167 141.5,133.833 141.5,141.5C 133.833,141.5 126.167,141.5 118.5,141.5C 118.167,141.5 117.833,141.5 117.5,141.5C 117.167,141.5 116.833,141.5 116.5,141.5C 109.167,141.5 101.833,141.5 94.5,141.5C 94.1667,141.5 93.8333,141.5 93.5,141.5C 100.982,140.508 108.648,140.175 116.5,140.5C 116.175,132.648 116.508,124.982 117.5,117.5C 124.982,116.508 132.648,116.175 140.5,116.5C 140.175,108.648 140.508,100.982 141.5,93.5 Z"/></g>
<g><path style="opacity:1" fill="#2d353e" d="M 117.5,117.5 C 125.167,117.5 132.833,117.5 140.5,117.5C 140.5,125.167 140.5,132.833 140.5,140.5C 132.833,140.5 125.167,140.5 117.5,140.5C 117.5,132.833 117.5,125.167 117.5,117.5 Z"/></g>
<g><path style="opacity:1" fill="#8d9195" d="M 282.5,117.5 C 282.833,117.5 283.167,117.5 283.5,117.5C 283.5,125.5 283.5,133.5 283.5,141.5C 275.5,141.5 267.5,141.5 259.5,141.5C 259.5,141.167 259.5,140.833 259.5,140.5C 267.167,140.5 274.833,140.5 282.5,140.5C 282.5,132.833 282.5,125.167 282.5,117.5 Z"/></g>
<g><path style="opacity:1" fill="#61666b" d="M 22.5,141.5 C 22.8333,141.5 23.1667,141.5 23.5,141.5C 23.5,180.5 23.5,219.5 23.5,258.5C 30.8333,258.5 38.1667,258.5 45.5,258.5C 45.5,219.5 45.5,180.5 45.5,141.5C 45.8333,141.5 46.1667,141.5 46.5,141.5C 46.5,180.833 46.5,220.167 46.5,259.5C 38.5,259.5 30.5,259.5 22.5,259.5C 22.5,220.167 22.5,180.833 22.5,141.5 Z"/></g>
<g><path style="opacity:1" fill="#63686e" d="M 93.5,141.5 C 93.8333,141.5 94.1667,141.5 94.5,141.5C 94.5,180.5 94.5,219.5 94.5,258.5C 101.833,258.5 109.167,258.5 116.5,258.5C 116.5,219.5 116.5,180.5 116.5,141.5C 116.833,141.5 117.167,141.5 117.5,141.5C 117.5,180.833 117.5,220.167 117.5,259.5C 109.5,259.5 101.5,259.5 93.5,259.5C 93.5,220.167 93.5,180.833 93.5,141.5 Z"/></g>
<g><path style="opacity:1" fill="#edf0f1" d="M 117.5,141.5 C 117.833,141.5 118.167,141.5 118.5,141.5C 118.5,180.5 118.5,219.5 118.5,258.5C 126.352,258.175 134.018,258.508 141.5,259.5C 141.167,259.5 140.833,259.5 140.5,259.5C 132.833,259.5 125.167,259.5 117.5,259.5C 117.5,220.167 117.5,180.833 117.5,141.5 Z"/></g>
<g><path style="opacity:1" fill="#b3b6b8" d="M 330.5,141.5 C 330.5,141.167 330.5,140.833 330.5,140.5C 330.833,140.5 331.167,140.5 331.5,140.5C 338.833,140.5 346.167,140.5 353.5,140.5C 353.833,140.5 354.167,140.5 354.5,140.5C 362.352,140.175 370.018,140.508 377.5,141.5C 369.833,141.5 362.167,141.5 354.5,141.5C 354.5,180.5 354.5,219.5 354.5,258.5C 354.5,258.833 354.5,259.167 354.5,259.5C 346.5,259.5 338.5,259.5 330.5,259.5C 337.982,258.508 345.648,258.175 353.5,258.5C 353.5,219.5 353.5,180.5 353.5,141.5C 345.833,141.5 338.167,141.5 330.5,141.5 Z"/></g>
<g><path style="opacity:1" fill="#2d343e" d="M 23.5,141.5 C 30.8333,141.5 38.1667,141.5 45.5,141.5C 45.5,180.5 45.5,219.5 45.5,258.5C 38.1667,258.5 30.8333,258.5 23.5,258.5C 23.5,219.5 23.5,180.5 23.5,141.5 Z"/></g>
<g><path style="opacity:1" fill="#2d343e" d="M 94.5,141.5 C 101.833,141.5 109.167,141.5 116.5,141.5C 116.5,180.5 116.5,219.5 116.5,258.5C 109.167,258.5 101.833,258.5 94.5,258.5C 94.5,219.5 94.5,180.5 94.5,141.5 Z"/></g>
<g><path style="opacity:1" fill="#2d343e" d="M 377.5,141.5 C 377.5,180.5 377.5,219.5 377.5,258.5C 369.833,258.5 362.167,258.5 354.5,258.5C 354.5,219.5 354.5,180.5 354.5,141.5C 362.167,141.5 369.833,141.5 377.5,141.5 Z"/></g>
<g><path style="opacity:1" fill="#2d353e" d="M 229.5,177.5 C 229.5,181.167 229.5,184.833 229.5,188.5C 229.5,196.167 229.5,203.833 229.5,211.5C 229.5,215.5 229.5,219.5 229.5,223.5C 214.167,223.5 198.833,223.5 183.5,223.5C 183.5,208.167 183.5,192.833 183.5,177.5C 198.833,177.5 214.167,177.5 229.5,177.5 Z"/></g>
<g><path style="opacity:1" fill="#64696d" d="M 229.5,176.5 C 229.5,176.833 229.5,177.167 229.5,177.5C 214.167,177.5 198.833,177.5 183.5,177.5C 183.5,192.833 183.5,208.167 183.5,223.5C 198.833,223.5 214.167,223.5 229.5,223.5C 214.009,224.496 198.342,224.83 182.5,224.5C 182.5,208.5 182.5,192.5 182.5,176.5C 198.167,176.5 213.833,176.5 229.5,176.5 Z"/></g>
<g><path style="opacity:1" fill="#c8cbcd" d="M 229.5,176.5 C 230.482,179.962 230.815,183.629 230.5,187.5C 254.006,187.169 277.339,187.502 300.5,188.5C 276.833,188.5 253.167,188.5 229.5,188.5C 229.5,184.833 229.5,181.167 229.5,177.5C 229.5,177.167 229.5,176.833 229.5,176.5 Z"/></g>
<g><path style="opacity:1" fill="#424850" d="M 229.5,188.5 C 253.167,188.5 276.833,188.5 300.5,188.5C 300.5,188.833 300.5,189.167 300.5,189.5C 277.5,189.5 254.5,189.5 231.5,189.5C 231.5,196.833 231.5,204.167 231.5,211.5C 230.833,211.5 230.167,211.5 229.5,211.5C 229.5,203.833 229.5,196.167 229.5,188.5 Z"/></g>
<g><path style="opacity:1" fill="#2d353e" d="M 300.5,189.5 C 300.5,196.833 300.5,204.167 300.5,211.5C 277.5,211.5 254.5,211.5 231.5,211.5C 231.5,204.167 231.5,196.833 231.5,189.5C 254.5,189.5 277.5,189.5 300.5,189.5 Z"/></g>
<g><path style="opacity:1" fill="#909498" d="M 300.5,188.5 C 301.492,196.316 301.826,204.316 301.5,212.5C 277.833,212.5 254.167,212.5 230.5,212.5C 230.815,216.371 230.482,220.038 229.5,223.5C 229.5,219.5 229.5,215.5 229.5,211.5C 230.167,211.5 230.833,211.5 231.5,211.5C 254.5,211.5 277.5,211.5 300.5,211.5C 300.5,204.167 300.5,196.833 300.5,189.5C 300.5,189.167 300.5,188.833 300.5,188.5 Z"/></g>
<g><path style="opacity:1" fill="#777c7f" d="M 377.5,141.5 C 378.499,180.663 378.832,219.996 378.5,259.5C 370.5,259.5 362.5,259.5 354.5,259.5C 354.5,259.167 354.5,258.833 354.5,258.5C 362.167,258.5 369.833,258.5 377.5,258.5C 377.5,219.5 377.5,180.5 377.5,141.5 Z"/></g>
<g><path style="opacity:1" fill="#cdd0d1" d="M 93.5,259.5 C 101.5,259.5 109.5,259.5 117.5,259.5C 117.5,267.167 117.5,274.833 117.5,282.5C 117.5,282.833 117.5,283.167 117.5,283.5C 116.508,276.018 116.175,268.352 116.5,260.5C 108.648,260.825 100.982,260.492 93.5,259.5 Z"/></g>
<g><path style="opacity:1" fill="#5d6268" d="M 330.5,259.5 C 338.5,259.5 346.5,259.5 354.5,259.5C 354.5,275.167 354.5,290.833 354.5,306.5C 354.167,306.5 353.833,306.5 353.5,306.5C 353.5,291.167 353.5,275.833 353.5,260.5C 346.167,260.5 338.833,260.5 331.5,260.5C 331.5,275.833 331.5,291.167 331.5,306.5C 331.167,306.5 330.833,306.5 330.5,306.5C 330.5,290.833 330.5,275.167 330.5,259.5 Z"/></g>
<g><path style="opacity:1" fill="#2d353f" d="M 46.5,259.5 C 54.1667,259.5 61.8333,259.5 69.5,259.5C 69.5,275.167 69.5,290.833 69.5,306.5C 61.8333,306.5 54.1667,306.5 46.5,306.5C 46.5,290.833 46.5,275.167 46.5,259.5 Z"/></g>
<g><path style="opacity:1" fill="#2e353f" d="M 117.5,259.5 C 125.167,259.5 132.833,259.5 140.5,259.5C 140.5,267.167 140.5,274.833 140.5,282.5C 132.833,282.5 125.167,282.5 117.5,282.5C 117.5,274.833 117.5,267.167 117.5,259.5 Z"/></g>
<g><path style="opacity:1" fill="#4c5258" d="M 282.5,259.5 C 282.5,259.833 282.5,260.167 282.5,260.5C 275.167,260.5 267.833,260.5 260.5,260.5C 260.5,267.833 260.5,275.167 260.5,282.5C 260.167,282.5 259.833,282.5 259.5,282.5C 259.5,274.833 259.5,267.167 259.5,259.5C 267.167,259.5 274.833,259.5 282.5,259.5 Z"/></g>
<g><path style="opacity:1" fill="#2d343e" d="M 282.5,260.5 C 282.5,267.833 282.5,275.167 282.5,282.5C 275.167,282.5 267.833,282.5 260.5,282.5C 260.5,275.167 260.5,267.833 260.5,260.5C 267.833,260.5 275.167,260.5 282.5,260.5 Z"/></g>
<g><path style="opacity:1" fill="#2d343e" d="M 353.5,306.5 C 346.167,306.5 338.833,306.5 331.5,306.5C 331.5,291.167 331.5,275.833 331.5,260.5C 338.833,260.5 346.167,260.5 353.5,260.5C 353.5,275.833 353.5,291.167 353.5,306.5 Z"/></g>
<g><path style="opacity:1" fill="#818589" d="M 282.5,259.5 C 283.492,267.316 283.826,275.316 283.5,283.5C 275.5,283.5 267.5,283.5 259.5,283.5C 259.5,283.167 259.5,282.833 259.5,282.5C 259.833,282.5 260.167,282.5 260.5,282.5C 267.833,282.5 275.167,282.5 282.5,282.5C 282.5,275.167 282.5,267.833 282.5,260.5C 282.5,260.167 282.5,259.833 282.5,259.5 Z"/></g>
<g><path style="opacity:1" fill="#9b9fa2" d="M 140.5,259.5 C 140.833,259.5 141.167,259.5 141.5,259.5C 141.5,267.167 141.5,274.833 141.5,282.5C 180.833,282.5 220.167,282.5 259.5,282.5C 259.5,282.833 259.5,283.167 259.5,283.5C 220.167,283.5 180.833,283.5 141.5,283.5C 141.5,291.167 141.5,298.833 141.5,306.5C 140.508,299.018 140.175,291.352 140.5,283.5C 132.833,283.5 125.167,283.5 117.5,283.5C 117.5,283.167 117.5,282.833 117.5,282.5C 125.167,282.5 132.833,282.5 140.5,282.5C 140.5,274.833 140.5,267.167 140.5,259.5 Z"/></g>
<g><path style="opacity:1" fill="#2d353e" d="M 259.5,283.5 C 259.5,291.167 259.5,298.833 259.5,306.5C 220.167,306.5 180.833,306.5 141.5,306.5C 141.5,298.833 141.5,291.167 141.5,283.5C 180.833,283.5 220.167,283.5 259.5,283.5 Z"/></g>
<g><path style="opacity:1" fill="#95999c" d="M 69.5,259.5 C 70.4963,274.991 70.8296,290.658 70.5,306.5C 78.1667,306.5 85.8333,306.5 93.5,306.5C 93.5,306.833 93.5,307.167 93.5,307.5C 85.8333,307.5 78.1667,307.5 70.5,307.5C 70.5,315.167 70.5,322.833 70.5,330.5C 69.508,323.018 69.1746,315.352 69.5,307.5C 61.6484,307.825 53.9818,307.492 46.5,306.5C 54.1667,306.5 61.8333,306.5 69.5,306.5C 69.5,290.833 69.5,275.167 69.5,259.5 Z"/></g>
<g><path style="opacity:1" fill="#858a8e" d="M 330.5,306.5 C 330.5,306.833 330.5,307.167 330.5,307.5C 330.167,307.5 329.833,307.5 329.5,307.5C 322.167,307.5 314.833,307.5 307.5,307.5C 307.5,314.833 307.5,322.167 307.5,329.5C 307.5,329.833 307.5,330.167 307.5,330.5C 307.5,338.5 307.5,346.5 307.5,354.5C 291.5,354.5 275.5,354.5 259.5,354.5C 259.5,354.167 259.5,353.833 259.5,353.5C 259.833,353.5 260.167,353.5 260.5,353.5C 275.833,353.5 291.167,353.5 306.5,353.5C 306.5,346.167 306.5,338.833 306.5,331.5C 306.5,331.167 306.5,330.833 306.5,330.5C 306.5,322.5 306.5,314.5 306.5,306.5C 314.5,306.5 322.5,306.5 330.5,306.5 Z"/></g>
<g><path style="opacity:1" fill="#c6cacb" d="M 330.5,306.5 C 330.833,306.5 331.167,306.5 331.5,306.5C 338.833,306.5 346.167,306.5 353.5,306.5C 353.833,306.5 354.167,306.5 354.5,306.5C 347.018,307.492 339.352,307.825 331.5,307.5C 331.825,315.352 331.492,323.018 330.5,330.5C 330.5,322.833 330.5,315.167 330.5,307.5C 330.5,307.167 330.5,306.833 330.5,306.5 Z"/></g>
<g><path style="opacity:1" fill="#2e363f" d="M 93.5,307.5 C 93.5,315.167 93.5,322.833 93.5,330.5C 85.8333,330.5 78.1667,330.5 70.5,330.5C 70.5,322.833 70.5,315.167 70.5,307.5C 78.1667,307.5 85.8333,307.5 93.5,307.5 Z"/></g>
<g><path style="opacity:1" fill="#2d343e" d="M 329.5,307.5 C 329.5,314.833 329.5,322.167 329.5,329.5C 322.167,329.5 314.833,329.5 307.5,329.5C 307.5,322.167 307.5,314.833 307.5,307.5C 314.833,307.5 322.167,307.5 329.5,307.5 Z"/></g>
<g><path style="opacity:1" fill="#d9dcdd" d="M 93.5,306.5 C 94.492,313.982 94.8254,321.648 94.5,329.5C 110.342,329.17 126.009,329.504 141.5,330.5C 141.167,330.5 140.833,330.5 140.5,330.5C 124.833,330.5 109.167,330.5 93.5,330.5C 93.5,322.833 93.5,315.167 93.5,307.5C 93.5,307.167 93.5,306.833 93.5,306.5 Z"/></g>
<g><path style="opacity:1" fill="#4b5056" d="M 329.5,307.5 C 329.833,307.5 330.167,307.5 330.5,307.5C 330.5,315.167 330.5,322.833 330.5,330.5C 322.833,330.5 315.167,330.5 307.5,330.5C 307.5,330.167 307.5,329.833 307.5,329.5C 314.833,329.5 322.167,329.5 329.5,329.5C 329.5,322.167 329.5,314.833 329.5,307.5 Z"/></g>
<g><path style="opacity:1" fill="#61666b" d="M 93.5,330.5 C 109.167,330.5 124.833,330.5 140.5,330.5C 140.5,330.833 140.5,331.167 140.5,331.5C 125.167,331.5 109.833,331.5 94.5,331.5C 94.5,338.833 94.5,346.167 94.5,353.5C 109.833,353.5 125.167,353.5 140.5,353.5C 140.5,353.833 140.5,354.167 140.5,354.5C 124.833,354.5 109.167,354.5 93.5,354.5C 93.5,346.5 93.5,338.5 93.5,330.5 Z"/></g>
<g><path style="opacity:1" fill="#53595e" d="M 259.5,330.5 C 275.167,330.5 290.833,330.5 306.5,330.5C 306.5,330.833 306.5,331.167 306.5,331.5C 291.167,331.5 275.833,331.5 260.5,331.5C 260.5,338.833 260.5,346.167 260.5,353.5C 260.167,353.5 259.833,353.5 259.5,353.5C 259.5,345.833 259.5,338.167 259.5,330.5 Z"/></g>
<g><path style="opacity:1" fill="#2d343e" d="M 140.5,331.5 C 140.5,338.833 140.5,346.167 140.5,353.5C 125.167,353.5 109.833,353.5 94.5,353.5C 94.5,346.167 94.5,338.833 94.5,331.5C 109.833,331.5 125.167,331.5 140.5,331.5 Z"/></g>
<g><path style="opacity:1" fill="#2d343e" d="M 306.5,331.5 C 306.5,338.833 306.5,346.167 306.5,353.5C 291.167,353.5 275.833,353.5 260.5,353.5C 260.5,346.167 260.5,338.833 260.5,331.5C 275.833,331.5 291.167,331.5 306.5,331.5 Z"/></g>
<g><path style="opacity:1" fill="#b2b6b8" d="M 140.5,330.5 C 140.833,330.5 141.167,330.5 141.5,330.5C 141.5,338.167 141.5,345.833 141.5,353.5C 180.5,353.5 219.5,353.5 258.5,353.5C 258.175,345.648 258.508,337.982 259.5,330.5C 259.5,338.167 259.5,345.833 259.5,353.5C 259.5,353.833 259.5,354.167 259.5,354.5C 220.167,354.5 180.833,354.5 141.5,354.5C 141.5,362.167 141.5,369.833 141.5,377.5C 140.508,370.018 140.175,362.352 140.5,354.5C 140.5,354.167 140.5,353.833 140.5,353.5C 140.5,346.167 140.5,338.833 140.5,331.5C 140.5,331.167 140.5,330.833 140.5,330.5 Z"/></g>
<g><path style="opacity:1" fill="#2d353e" d="M 259.5,354.5 C 259.5,362.167 259.5,369.833 259.5,377.5C 220.167,377.5 180.833,377.5 141.5,377.5C 141.5,369.833 141.5,362.167 141.5,354.5C 180.833,354.5 220.167,354.5 259.5,354.5 Z"/></g>
</svg>
