<?xml version="1.0" encoding="UTF-8"?>
<!DOCTYPE svg PUBLIC "-//W3C//DTD SVG 1.1//EN" "http://www.w3.org/Graphics/SVG/1.1/DTD/svg11.dtd">
<svg xmlns="http://www.w3.org/2000/svg" version="1.1" width="400px" height="400px" style="shape-rendering:geometricPrecision; text-rendering:geometricPrecision; image-rendering:optimizeQuality; fill-rule:evenodd; clip-rule:evenodd" xmlns:xlink="http://www.w3.org/1999/xlink">
<g><path style="opacity:1" fill="#fefefe" d="M -0.5,-0.5 C 132.833,-0.5 266.167,-0.5 399.5,-0.5C 399.5,132.833 399.5,266.167 399.5,399.5C 266.167,399.5 132.833,399.5 -0.5,399.5C -0.5,266.167 -0.5,132.833 -0.5,-0.5 Z"/></g>
<g><path style="opacity:1" fill="#020202" d="M 179.5,3.5 C 263.376,-0.652659 327.209,32.6807 371,103.5C 406.524,171.964 404.524,239.298 365,305.5C 325.589,363.386 270.589,393.719 200,396.5C 124.347,393.363 67.0136,359.696 28,295.5C -1.65194,238.059 -4.3186,179.393 20,119.5C 52.7653,52.8599 105.932,14.1932 179.5,3.5 Z"/></g>
<g><path style="opacity:1" fill="#742e4e" d="M 213.5,49.5 C 204.651,49.1736 195.984,49.507 187.5,50.5C 182.507,50.9157 177.507,51.2491 172.5,51.5C 186.061,48.4801 199.728,47.8134 213.5,49.5 Z"/></g>
<g><path style="opacity:1" fill="#fe5eb1" d="M 205.5,51.5 C 207.378,53.5089 209.544,53.8422 212,52.5C 212.499,58.1569 212.666,63.8236 212.5,69.5C 211.178,69.33 210.011,69.6634 209,70.5C 207.667,81.7367 206.501,93.07 205.5,104.5C 204.264,105.246 202.93,105.579 201.5,105.5C 201.624,114.561 201.957,123.394 202.5,132C 201.183,138.185 200.016,144.351 199,150.5C 198.952,158.931 198.119,167.265 196.5,175.5C 197.037,176.741 197.704,177.908 198.5,179C 197.115,180.597 196.449,182.43 196.5,184.5C 195.833,184.5 195.167,184.5 194.5,184.5C 194.715,182.821 194.048,181.821 192.5,181.5C 191.372,165.498 191.372,149.498 192.5,133.5C 192.978,129.509 191.978,126.009 189.5,123C 190.746,118.475 191.412,113.808 191.5,109C 191.333,104.833 191.167,100.667 191,96.5C 189.468,88.2251 188.301,79.8918 187.5,71.5C 186.914,71.2907 186.414,70.9574 186,70.5C 185.501,64.8431 185.334,59.1764 185.5,53.5C 192.092,52.2302 198.759,51.5635 205.5,51.5 Z"/></g>
<g><path style="opacity:1" fill="#682048" d="M 217.5,49.5 C 222.481,50.0892 227.481,50.5892 232.5,51C 233.416,51.2784 234.082,51.7784 234.5,52.5C 229.537,51.746 224.537,51.4126 219.5,51.5C 218.833,50.8333 218.167,50.1667 217.5,49.5 Z"/></g>
<g><path style="opacity:1" fill="#fd66ad" d="M 187.5,50.5 C 195.984,49.507 204.651,49.1736 213.5,49.5C 214.833,49.5 216.167,49.5 217.5,49.5C 218.167,50.1667 218.833,50.8333 219.5,51.5C 214.833,51.5 210.167,51.5 205.5,51.5C 198.759,51.5635 192.092,52.2302 185.5,53.5C 185.334,59.1764 185.501,64.8431 186,70.5C 186.414,70.9574 186.914,71.2907 187.5,71.5C 188.301,79.8918 189.468,88.2251 191,96.5C 191.167,100.667 191.333,104.833 191.5,109C 191.412,113.808 190.746,118.475 189.5,123C 191.978,126.009 192.978,129.509 192.5,133.5C 191.372,149.498 191.372,165.498 192.5,181.5C 191.655,180.329 190.989,178.995 190.5,177.5C 191.152,176.551 191.486,175.385 191.5,174C 188.919,163.263 186.919,152.43 185.5,141.5C 185.88,139.341 186.213,137.174 186.5,135C 186.359,133.045 185.526,131.545 184,130.5C 183.5,122.173 183.334,113.84 183.5,105.5C 182.5,105.5 181.5,105.5 180.5,105.5C 178.272,91.2826 176.939,76.9493 176.5,62.5C 175.571,63.6888 175.238,65.0222 175.5,66.5C 173.833,66.5 172.167,66.5 170.5,66.5C 170.5,64.1667 170.5,61.8333 170.5,59.5C 171.833,59.5 173.167,59.5 174.5,59.5C 174.762,58.0222 174.429,56.6888 173.5,55.5C 172.035,56.6087 171.035,56.1087 170.5,54C 176.951,53.6998 183.285,52.6998 189.5,51C 188.906,50.5357 188.239,50.369 187.5,50.5 Z"/></g>
<g><path style="opacity:1" fill="#fc50b6" d="M 205.5,51.5 C 210.167,51.5 214.833,51.5 219.5,51.5C 224.537,51.4126 229.537,51.746 234.5,52.5C 237.535,53.3745 240.535,54.3745 243.5,55.5C 240.24,58.2563 237.073,57.9229 234,54.5C 231.897,56.3025 231.064,58.6359 231.5,61.5C 227.866,61.1565 226.199,62.8232 226.5,66.5C 226.787,68.4864 227.453,70.3197 228.5,72C 227.612,73.2197 226.945,74.5531 226.5,76C 225.983,80.5205 225.316,85.0205 224.5,89.5C 222.403,92.5344 220.903,95.8677 220,99.5C 218.281,108.992 216.447,118.492 214.5,128C 213.348,130.158 212.181,132.325 211,134.5C 207.417,146.407 204.084,158.407 201,170.5C 200.56,172.076 199.727,173.41 198.5,174.5C 200.104,176.179 200.771,178.179 200.5,180.5C 200.279,181.735 199.612,182.735 198.5,183.5C 199.612,184.265 200.279,185.265 200.5,186.5C 199.833,186.5 199.167,186.5 198.5,186.5C 197.167,186.5 196.5,185.833 196.5,184.5C 196.449,182.43 197.115,180.597 198.5,179C 197.704,177.908 197.037,176.741 196.5,175.5C 198.119,167.265 198.952,158.931 199,150.5C 200.016,144.351 201.183,138.185 202.5,132C 201.957,123.394 201.624,114.561 201.5,105.5C 202.93,105.579 204.264,105.246 205.5,104.5C 206.501,93.07 207.667,81.7367 209,70.5C 210.011,69.6634 211.178,69.33 212.5,69.5C 212.666,63.8236 212.499,58.1569 212,52.5C 209.544,53.8422 207.378,53.5089 205.5,51.5 Z"/></g>
<g><path style="opacity:1" fill="#fc6daa" d="M 187.5,50.5 C 188.239,50.369 188.906,50.5357 189.5,51C 183.285,52.6998 176.951,53.6998 170.5,54C 171.035,56.1087 172.035,56.6087 173.5,55.5C 174.429,56.6888 174.762,58.0222 174.5,59.5C 173.167,59.5 171.833,59.5 170.5,59.5C 170.5,61.8333 170.5,64.1667 170.5,66.5C 172.167,66.5 173.833,66.5 175.5,66.5C 175.238,65.0222 175.571,63.6888 176.5,62.5C 176.939,76.9493 178.272,91.2826 180.5,105.5C 181.5,105.5 182.5,105.5 183.5,105.5C 183.334,113.84 183.5,122.173 184,130.5C 185.526,131.545 186.359,133.045 186.5,135C 186.213,137.174 185.88,139.341 185.5,141.5C 186.919,152.43 188.919,163.263 191.5,174C 191.486,175.385 191.152,176.551 190.5,177.5C 189.791,176.596 188.791,176.263 187.5,176.5C 187.665,173.482 187.498,170.482 187,167.5C 184.026,156.993 181.692,146.327 180,135.5C 175.847,124.169 172.014,112.835 168.5,101.5C 167.773,97.4893 167.107,93.4893 166.5,89.5C 167.311,88.7836 167.978,87.9503 168.5,87C 167.087,83.6469 166.087,80.1469 165.5,76.5C 160.031,74.0898 159.697,71.7565 164.5,69.5C 157.659,69.7257 152.659,66.8923 149.5,61C 152.167,61 154.833,61 157.5,61C 156.177,60.1841 155.511,59.0174 155.5,57.5C 158.572,57.8174 161.572,57.4841 164.5,56.5C 165.612,55.7348 166.279,54.7348 166.5,53.5C 168.302,52.5418 170.302,51.8751 172.5,51.5C 177.507,51.2491 182.507,50.9157 187.5,50.5 Z"/></g>
<g><path style="opacity:1" fill="#cf688f" d="M 166.5,53.5 C 166.279,54.7348 165.612,55.7348 164.5,56.5C 161.572,57.4841 158.572,57.8174 155.5,57.5C 152.53,58.5492 149.53,59.7159 146.5,61C 144.609,63.8016 141.942,64.9682 138.5,64.5C 136.442,65.9331 134.108,66.5997 131.5,66.5C 133.253,64.7775 135.253,63.2775 137.5,62C 142.486,61.0078 147.153,59.1744 151.5,56.5C 156.527,55.5807 161.527,54.5807 166.5,53.5 Z"/></g>
<g><path style="opacity:1" fill="#fc43ba" d="M 243.5,55.5 C 250.152,56.4968 256.485,58.4968 262.5,61.5C 262.833,62.1667 263.167,62.8333 263.5,63.5C 259.471,62.7627 255.471,63.2627 251.5,65C 252.337,66.0113 252.67,67.1779 252.5,68.5C 249.5,68.5 246.5,68.5 243.5,68.5C 243.36,70.1238 244.027,71.2904 245.5,72C 240.419,79.7906 236.919,88.2906 235,97.5C 229.436,111.74 223.269,125.74 216.5,139.5C 215.713,142.848 214.879,146.182 214,149.5C 213.333,150.167 212.667,150.833 212,151.5C 212.773,157.678 210.773,162.678 206,166.5C 204.798,168.677 204.298,171.011 204.5,173.5C 203.167,175.833 201.833,178.167 200.5,180.5C 200.771,178.179 200.104,176.179 198.5,174.5C 199.727,173.41 200.56,172.076 201,170.5C 204.084,158.407 207.417,146.407 211,134.5C 212.181,132.325 213.348,130.158 214.5,128C 216.447,118.492 218.281,108.992 220,99.5C 220.903,95.8677 222.403,92.5344 224.5,89.5C 225.316,85.0205 225.983,80.5205 226.5,76C 226.945,74.5531 227.612,73.2197 228.5,72C 227.453,70.3197 226.787,68.4864 226.5,66.5C 226.199,62.8232 227.866,61.1565 231.5,61.5C 231.064,58.6359 231.897,56.3025 234,54.5C 237.073,57.9229 240.24,58.2563 243.5,55.5 Z"/></g>
<g><path style="opacity:1" fill="#64134b" d="M 262.5,61.5 C 266.338,61.9129 269.338,63.5795 271.5,66.5C 270.833,66.5 270.167,66.5 269.5,66.5C 267.819,64.9925 265.819,63.9925 263.5,63.5C 263.167,62.8333 262.833,62.1667 262.5,61.5 Z"/></g>
<g><path style="opacity:1" fill="#fd79a5" d="M 138.5,64.5 C 139.008,66.2327 139.841,66.566 141,65.5C 142.205,66.0712 143.372,66.7379 144.5,67.5C 143.833,68.1667 143.167,68.8333 142.5,69.5C 145.909,69.6174 149.242,70.1174 152.5,71C 151.376,71.2492 150.376,71.7492 149.5,72.5C 151.104,74.1789 151.771,76.1789 151.5,78.5C 152.5,78.5 153.5,78.5 154.5,78.5C 154.579,80.6663 155.246,82.6663 156.5,84.5C 155.772,86.1547 155.605,87.8214 156,89.5C 157.507,90.5046 158.673,91.838 159.5,93.5C 159.956,100.155 161.456,106.488 164,112.5C 168.108,124.052 172.775,135.385 178,146.5C 178.285,152.35 179.951,157.683 183,162.5C 184.317,167.431 185.15,172.431 185.5,177.5C 183.5,176.833 182.167,175.5 181.5,173.5C 181.752,170.68 181.252,168.014 180,165.5C 178.644,164.62 177.144,164.286 175.5,164.5C 175.975,161.115 174.642,158.782 171.5,157.5C 172.737,156.719 173.737,155.719 174.5,154.5C 172.45,150.495 169.95,146.828 167,143.5C 166.546,138.591 165.38,133.924 163.5,129.5C 162.178,129.67 161.011,129.337 160,128.5C 159.689,126.444 159.189,124.444 158.5,122.5C 158.709,121.914 159.043,121.414 159.5,121C 157.552,120.017 155.718,118.85 154,117.5C 152.939,112.877 151.439,108.544 149.5,104.5C 153.133,104.557 153.3,103.557 150,101.5C 149.027,99.6079 148.36,97.6079 148,95.5C 145.012,96.7442 142.845,95.7442 141.5,92.5C 140.062,90.0023 140.396,87.8356 142.5,86C 140.45,84.3644 139.45,82.1977 139.5,79.5C 138.5,79.5 137.5,79.5 136.5,79.5C 136.649,76.3926 136.149,73.3926 135,70.5C 133.293,71.1383 131.46,71.1383 129.5,70.5C 129.733,68.9382 130.4,67.6049 131.5,66.5C 134.108,66.5997 136.442,65.9331 138.5,64.5 Z"/></g>
<g><path style="opacity:1" fill="#fd38be" d="M 263.5,63.5 C 265.819,63.9925 267.819,64.9925 269.5,66.5C 267.712,66.2148 266.045,66.5481 264.5,67.5C 266.027,69.3304 265.527,70.3304 263,70.5C 261.449,69.9465 259.949,69.2798 258.5,68.5C 257.833,68.8333 257.167,69.1667 256.5,69.5C 257.5,70.1667 258.5,70.8333 259.5,71.5C 254.88,77.586 251.213,84.086 248.5,91C 248.957,91.414 249.291,91.914 249.5,92.5C 245.52,95.4561 243.353,99.4561 243,104.5C 240.527,105.12 238.027,105.786 235.5,106.5C 238.167,107.833 238.167,109.167 235.5,110.5C 236.167,111.167 236.833,111.833 237.5,112.5C 236.294,114.149 234.961,115.649 233.5,117C 234.059,117.725 234.392,118.558 234.5,119.5C 230.783,125.504 227.949,131.838 226,138.5C 224.989,139.337 223.822,139.67 222.5,139.5C 222.294,142.914 220.794,145.581 218,147.5C 217.759,150.289 217.092,152.956 216,155.5C 212.633,161.986 208.8,167.986 204.5,173.5C 204.298,171.011 204.798,168.677 206,166.5C 210.773,162.678 212.773,157.678 212,151.5C 212.667,150.833 213.333,150.167 214,149.5C 214.879,146.182 215.713,142.848 216.5,139.5C 223.269,125.74 229.436,111.74 235,97.5C 236.919,88.2906 240.419,79.7906 245.5,72C 244.027,71.2904 243.36,70.1238 243.5,68.5C 246.5,68.5 249.5,68.5 252.5,68.5C 252.67,67.1779 252.337,66.0113 251.5,65C 255.471,63.2627 259.471,62.7627 263.5,63.5 Z"/></g>
<g><path style="opacity:1" fill="#fe80a2" d="M 129.5,70.5 C 131.46,71.1383 133.293,71.1383 135,70.5C 136.149,73.3926 136.649,76.3926 136.5,79.5C 137.5,79.5 138.5,79.5 139.5,79.5C 139.45,82.1977 140.45,84.3644 142.5,86C 140.396,87.8356 140.062,90.0023 141.5,92.5C 142.845,95.7442 145.012,96.7442 148,95.5C 148.36,97.6079 149.027,99.6079 150,101.5C 153.3,103.557 153.133,104.557 149.5,104.5C 151.439,108.544 152.939,112.877 154,117.5C 155.718,118.85 157.552,120.017 159.5,121C 159.043,121.414 158.709,121.914 158.5,122.5C 159.189,124.444 159.689,126.444 160,128.5C 161.011,129.337 162.178,129.67 163.5,129.5C 165.38,133.924 166.546,138.591 167,143.5C 169.95,146.828 172.45,150.495 174.5,154.5C 173.737,155.719 172.737,156.719 171.5,157.5C 174.642,158.782 175.975,161.115 175.5,164.5C 177.144,164.286 178.644,164.62 180,165.5C 181.252,168.014 181.752,170.68 181.5,173.5C 180.325,173.719 179.325,173.386 178.5,172.5C 177.423,170.271 176.756,167.937 176.5,165.5C 172.5,166.167 170.833,164.5 171.5,160.5C 170.5,160.5 169.5,160.5 168.5,160.5C 167.611,154.891 165.278,150.058 161.5,146C 159.003,142.084 157.003,137.918 155.5,133.5C 154.167,132.167 152.833,130.833 151.5,129.5C 147.216,121.196 142.883,112.862 138.5,104.5C 137.476,103.147 136.143,102.48 134.5,102.5C 132.917,94.987 129.084,88.987 123,84.5C 121.118,85.606 119.284,85.606 117.5,84.5C 118.325,83.6143 119.325,83.281 120.5,83.5C 120.5,82.1667 120.5,80.8333 120.5,79.5C 119.167,79.5 117.833,79.5 116.5,79.5C 116.5,78.5 116.5,77.5 116.5,76.5C 119.566,76.276 122.066,74.9427 124,72.5C 124.414,72.9574 124.914,73.2907 125.5,73.5C 126.569,72.0905 127.903,71.0905 129.5,70.5 Z"/></g>
<g><path style="opacity:1" fill="#fc73a7" d="M 155.5,57.5 C 155.511,59.0174 156.177,60.1841 157.5,61C 154.833,61 152.167,61 149.5,61C 152.659,66.8923 157.659,69.7257 164.5,69.5C 159.697,71.7565 160.031,74.0898 165.5,76.5C 166.087,80.1469 167.087,83.6469 168.5,87C 167.978,87.9503 167.311,88.7836 166.5,89.5C 167.107,93.4893 167.773,97.4893 168.5,101.5C 172.014,112.835 175.847,124.169 180,135.5C 181.692,146.327 184.026,156.993 187,167.5C 187.498,170.482 187.665,173.482 187.5,176.5C 188.791,176.263 189.791,176.596 190.5,177.5C 190.989,178.995 191.655,180.329 192.5,181.5C 194.048,181.821 194.715,182.821 194.5,184.5C 191.331,183.083 188.331,181.417 185.5,179.5C 185.5,178.833 185.5,178.167 185.5,177.5C 185.15,172.431 184.317,167.431 183,162.5C 179.951,157.683 178.285,152.35 178,146.5C 172.775,135.385 168.108,124.052 164,112.5C 161.456,106.488 159.956,100.155 159.5,93.5C 158.673,91.838 157.507,90.5046 156,89.5C 155.605,87.8214 155.772,86.1547 156.5,84.5C 155.246,82.6663 154.579,80.6663 154.5,78.5C 153.5,78.5 152.5,78.5 151.5,78.5C 151.771,76.1789 151.104,74.1789 149.5,72.5C 150.376,71.7492 151.376,71.2492 152.5,71C 149.242,70.1174 145.909,69.6174 142.5,69.5C 143.167,68.8333 143.833,68.1667 144.5,67.5C 143.372,66.7379 142.205,66.0712 141,65.5C 139.841,66.566 139.008,66.2327 138.5,64.5C 141.942,64.9682 144.609,63.8016 146.5,61C 149.53,59.7159 152.53,58.5492 155.5,57.5 Z"/></g>
<g><path style="opacity:1" fill="#d67790" d="M 131.5,66.5 C 130.4,67.6049 129.733,68.9382 129.5,70.5C 127.903,71.0905 126.569,72.0905 125.5,73.5C 124.914,73.2907 124.414,72.9574 124,72.5C 122.066,74.9427 119.566,76.276 116.5,76.5C 116.5,77.5 116.5,78.5 116.5,79.5C 113.99,79.0535 111.99,79.7202 110.5,81.5C 109.533,82.8062 108.199,83.4729 106.5,83.5C 108.863,80.1463 111.863,77.4796 115.5,75.5C 120.887,72.4113 126.221,69.4113 131.5,66.5 Z"/></g>
<g><path style="opacity:1" fill="#2a0b1c" d="M 299.5,83.5 C 298.022,83.762 296.689,83.4287 295.5,82.5C 293.008,79.6634 290.008,77.6634 286.5,76.5C 286.5,75.8333 286.5,75.1667 286.5,74.5C 288.722,74.822 290.556,74.1554 292,72.5C 291.082,78.0887 293.582,80.7553 299.5,80.5C 299.5,81.5 299.5,82.5 299.5,83.5 Z"/></g>
<g><path style="opacity:1" fill="#fd869f" d="M 116.5,79.5 C 117.833,79.5 119.167,79.5 120.5,79.5C 120.5,80.8333 120.5,82.1667 120.5,83.5C 119.325,83.281 118.325,83.6143 117.5,84.5C 119.284,85.606 121.118,85.606 123,84.5C 129.084,88.987 132.917,94.987 134.5,102.5C 136.143,102.48 137.476,103.147 138.5,104.5C 142.883,112.862 147.216,121.196 151.5,129.5C 152.833,130.833 154.167,132.167 155.5,133.5C 157.003,137.918 159.003,142.084 161.5,146C 165.278,150.058 167.611,154.891 168.5,160.5C 169.5,160.5 170.5,160.5 171.5,160.5C 170.833,164.5 172.5,166.167 176.5,165.5C 176.756,167.937 177.423,170.271 178.5,172.5C 179.325,173.386 180.325,173.719 181.5,173.5C 182.167,175.5 183.5,176.833 185.5,177.5C 185.5,178.167 185.5,178.833 185.5,179.5C 181.345,178.258 177.678,176.258 174.5,173.5C 173.405,170.872 171.405,169.205 168.5,168.5C 168.026,166.138 167.692,163.805 167.5,161.5C 166.264,160.754 164.93,160.421 163.5,160.5C 161.22,157.682 159.886,154.349 159.5,150.5C 153.826,147.834 149.993,143.501 148,137.5C 144.578,132.929 141.412,128.262 138.5,123.5C 137.009,122.756 135.509,122.09 134,121.5C 131.64,116.235 128.806,111.235 125.5,106.5C 124.675,105.614 123.675,105.281 122.5,105.5C 122.357,101.027 120.023,99.027 115.5,99.5C 115.374,95.6413 114.041,92.308 111.5,89.5C 113.978,88.2776 114.978,86.2776 114.5,83.5C 112.517,83.8432 111.183,83.1765 110.5,81.5C 111.99,79.7202 113.99,79.0535 116.5,79.5 Z"/></g>
<g><path style="opacity:1" fill="#fd8b9c" d="M 110.5,81.5 C 111.183,83.1765 112.517,83.8432 114.5,83.5C 114.978,86.2776 113.978,88.2776 111.5,89.5C 114.041,92.308 115.374,95.6413 115.5,99.5C 120.023,99.027 122.357,101.027 122.5,105.5C 123.675,105.281 124.675,105.614 125.5,106.5C 128.806,111.235 131.64,116.235 134,121.5C 135.509,122.09 137.009,122.756 138.5,123.5C 141.412,128.262 144.578,132.929 148,137.5C 149.993,143.501 153.826,147.834 159.5,150.5C 159.886,154.349 161.22,157.682 163.5,160.5C 160.11,160.223 156.943,159.223 154,157.5C 151.445,151.389 147.279,146.722 141.5,143.5C 139.778,138.277 136.444,134.444 131.5,132C 131.833,131.667 132.167,131.333 132.5,131C 128.042,128.26 124.875,124.427 123,119.5C 117.354,114.097 111.187,109.264 104.5,105C 104.057,103.482 104.724,102.315 106.5,101.5C 106,101.167 105.5,100.833 105,100.5C 103.403,101.885 101.57,102.551 99.5,102.5C 99.5789,100.334 100.246,98.3337 101.5,96.5C 101.167,95.8333 100.833,95.1667 100.5,94.5C 98.5,96.5 96.5,98.5 94.5,100.5C 92.2997,99.6754 91.9663,98.3421 93.5,96.5C 93.8333,95.8333 94.1667,95.1667 94.5,94.5C 97.5691,89.7619 101.569,86.0953 106.5,83.5C 108.199,83.4729 109.533,82.8062 110.5,81.5 Z"/></g>
<g><path style="opacity:1" fill="#df27b4" d="M 286.5,76.5 C 290.008,77.6634 293.008,79.6634 295.5,82.5C 296.689,83.4287 298.022,83.762 299.5,83.5C 300.46,85.4607 301.793,87.1274 303.5,88.5C 306.551,91.879 309.551,95.2123 312.5,98.5C 311.167,99.1667 309.833,99.8333 308.5,100.5C 306.242,100.225 305.908,99.2249 307.5,97.5C 306.05,96.1502 305.383,94.4835 305.5,92.5C 303.856,92.7135 302.356,92.3802 301,91.5C 299.513,92.2529 299.346,93.0862 300.5,94C 299.833,94.6667 299.167,94.6667 298.5,94C 298.703,92.1015 298.703,89.9349 298.5,87.5C 296.482,86.1865 295.315,86.8532 295,89.5C 294.326,87.4835 293.159,85.8168 291.5,84.5C 291.833,83.8333 292.167,83.1667 292.5,82.5C 290.348,80.4696 288.348,78.4696 286.5,76.5 Z"/></g>
<g><path style="opacity:1" fill="#fd1fc8" d="M 286.5,76.5 C 288.348,78.4696 290.348,80.4696 292.5,82.5C 292.167,83.1667 291.833,83.8333 291.5,84.5C 293.159,85.8168 294.326,87.4835 295,89.5C 295.315,86.8532 296.482,86.1865 298.5,87.5C 298.703,89.9349 298.703,92.1015 298.5,94C 299.167,94.6667 299.833,94.6667 300.5,94C 299.346,93.0862 299.513,92.2529 301,91.5C 302.356,92.3802 303.856,92.7135 305.5,92.5C 305.383,94.4835 306.05,96.1502 307.5,97.5C 305.908,99.2249 306.242,100.225 308.5,100.5C 308.5,102.167 308.5,103.833 308.5,105.5C 305.18,102.705 301.18,99.7055 296.5,96.5C 296.167,97.1667 295.833,97.8333 295.5,98.5C 297.31,100.623 298.643,102.957 299.5,105.5C 300.833,105.5 302.167,105.5 303.5,105.5C 302.772,109.185 300.439,111.018 296.5,111C 295.122,114.637 292.455,116.137 288.5,115.5C 288.116,117.929 287.449,120.263 286.5,122.5C 282.377,123.278 279.377,125.612 277.5,129.5C 275.5,130.167 273.5,130.833 271.5,131.5C 270.145,133.986 268.645,136.319 267,138.5C 264.901,139.287 262.734,139.62 260.5,139.5C 260.822,141.722 260.155,143.556 258.5,145C 252.682,148.46 246.682,151.627 240.5,154.5C 238.908,156.684 237.574,159.018 236.5,161.5C 227.174,168.746 218.341,175.746 210,182.5C 209.784,180.616 209.117,178.949 208,177.5C 207.263,179.596 206.097,181.263 204.5,182.5C 204.201,180.396 204.534,178.396 205.5,176.5C 208.243,174.668 211.243,173.668 214.5,173.5C 214.286,171.856 214.62,170.356 215.5,169C 214.833,168.667 214.167,168.333 213.5,168C 217.543,158.446 223.043,149.613 230,141.5C 233.421,135.658 236.588,129.658 239.5,123.5C 240.76,122.618 241.926,121.618 243,120.5C 248.055,113.018 252.555,105.184 256.5,97C 258.328,94.1743 260.495,91.6743 263,89.5C 265.195,82.7813 268.695,76.7813 273.5,71.5C 274.689,70.5713 276.022,70.238 277.5,70.5C 277.5,72.8333 277.5,75.1667 277.5,77.5C 279.277,77.2137 280.944,76.5471 282.5,75.5C 283.849,75.8457 285.183,76.179 286.5,76.5 Z"/></g>
<g><path style="opacity:1" fill="#fc2cc1" d="M 269.5,66.5 C 270.167,66.5 270.833,66.5 271.5,66.5C 276.734,68.7349 281.734,71.4015 286.5,74.5C 286.5,75.1667 286.5,75.8333 286.5,76.5C 285.183,76.179 283.849,75.8457 282.5,75.5C 280.944,76.5471 279.277,77.2137 277.5,77.5C 277.5,75.1667 277.5,72.8333 277.5,70.5C 276.022,70.238 274.689,70.5713 273.5,71.5C 268.695,76.7813 265.195,82.7813 263,89.5C 260.495,91.6743 258.328,94.1743 256.5,97C 252.555,105.184 248.055,113.018 243,120.5C 241.926,121.618 240.76,122.618 239.5,123.5C 236.588,129.658 233.421,135.658 230,141.5C 223.043,149.613 217.543,158.446 213.5,168C 214.167,168.333 214.833,168.667 215.5,169C 214.62,170.356 214.286,171.856 214.5,173.5C 211.243,173.668 208.243,174.668 205.5,176.5C 204.534,178.396 204.201,180.396 204.5,182.5C 203.624,182.369 202.957,182.702 202.5,183.5C 204.544,184.065 206.21,185.065 207.5,186.5C 207.5,187.167 207.5,187.833 207.5,188.5C 206.5,188.5 205.5,188.5 204.5,188.5C 202.847,188.34 201.514,187.674 200.5,186.5C 200.279,185.265 199.612,184.265 198.5,183.5C 199.612,182.735 200.279,181.735 200.5,180.5C 201.833,178.167 203.167,175.833 204.5,173.5C 208.8,167.986 212.633,161.986 216,155.5C 217.092,152.956 217.759,150.289 218,147.5C 220.794,145.581 222.294,142.914 222.5,139.5C 223.822,139.67 224.989,139.337 226,138.5C 227.949,131.838 230.783,125.504 234.5,119.5C 234.392,118.558 234.059,117.725 233.5,117C 234.961,115.649 236.294,114.149 237.5,112.5C 236.833,111.833 236.167,111.167 235.5,110.5C 238.167,109.167 238.167,107.833 235.5,106.5C 238.027,105.786 240.527,105.12 243,104.5C 243.353,99.4561 245.52,95.4561 249.5,92.5C 249.291,91.914 248.957,91.414 248.5,91C 251.213,84.086 254.88,77.586 259.5,71.5C 258.5,70.8333 257.5,70.1667 256.5,69.5C 257.167,69.1667 257.833,68.8333 258.5,68.5C 259.949,69.2798 261.449,69.9465 263,70.5C 265.527,70.3304 266.027,69.3304 264.5,67.5C 266.045,66.5481 267.712,66.2148 269.5,66.5 Z"/></g>
<g><path style="opacity:1" fill="#2f0b24" d="M 303.5,88.5 C 306.684,90.8418 310.017,93.0085 313.5,95C 314.833,96 314.833,97 313.5,98C 315.42,99.1223 317.42,99.9556 319.5,100.5C 319.5,101.833 319.5,103.167 319.5,104.5C 318.5,104.5 317.5,104.5 316.5,104.5C 315.167,102.5 313.833,100.5 312.5,98.5C 309.551,95.2123 306.551,91.879 303.5,88.5 Z"/></g>
<g><path style="opacity:1" fill="#fb9198" d="M 163.5,160.5 C 164.93,160.421 166.264,160.754 167.5,161.5C 167.692,163.805 168.026,166.138 168.5,168.5C 171.405,169.205 173.405,170.872 174.5,173.5C 165.382,169.61 156.049,166.276 146.5,163.5C 144.898,161.926 142.898,161.259 140.5,161.5C 139.167,161.5 137.833,161.5 136.5,161.5C 136.5,161.167 136.5,160.833 136.5,160.5C 140.884,160.826 145.217,160.492 149.5,159.5C 144.098,153.72 138.598,148.054 133,142.5C 131.989,143.337 130.822,143.67 129.5,143.5C 129.5,142.5 129.5,141.5 129.5,140.5C 125.604,140.44 123.438,138.44 123,134.5C 119.133,132.303 115.967,129.303 113.5,125.5C 109.146,121.981 104.646,118.648 100,115.5C 99.5172,114.552 99.3505,113.552 99.5,112.5C 96.026,111.259 93.026,109.259 90.5,106.5C 94.4366,104.351 94.1032,103.018 89.5,102.5C 90.5462,100.264 91.8795,98.2641 93.5,96.5C 91.9663,98.3421 92.2997,99.6754 94.5,100.5C 96.5,98.5 98.5,96.5 100.5,94.5C 100.833,95.1667 101.167,95.8333 101.5,96.5C 100.246,98.3337 99.5789,100.334 99.5,102.5C 101.57,102.551 103.403,101.885 105,100.5C 105.5,100.833 106,101.167 106.5,101.5C 104.724,102.315 104.057,103.482 104.5,105C 111.187,109.264 117.354,114.097 123,119.5C 124.875,124.427 128.042,128.26 132.5,131C 132.167,131.333 131.833,131.667 131.5,132C 136.444,134.444 139.778,138.277 141.5,143.5C 147.279,146.722 151.445,151.389 154,157.5C 156.943,159.223 160.11,160.223 163.5,160.5 Z"/></g>
<g><path style="opacity:1" fill="#fc9896" d="M 89.5,102.5 C 94.1032,103.018 94.4366,104.351 90.5,106.5C 93.026,109.259 96.026,111.259 99.5,112.5C 99.3505,113.552 99.5172,114.552 100,115.5C 104.646,118.648 109.146,121.981 113.5,125.5C 115.967,129.303 119.133,132.303 123,134.5C 123.438,138.44 125.604,140.44 129.5,140.5C 129.5,141.5 129.5,142.5 129.5,143.5C 130.822,143.67 131.989,143.337 133,142.5C 138.598,148.054 144.098,153.72 149.5,159.5C 145.217,160.492 140.884,160.826 136.5,160.5C 130.833,160.5 125.167,160.5 119.5,160.5C 125.502,160.025 131.502,159.025 137.5,157.5C 135.922,156.702 134.256,156.202 132.5,156C 129.113,150.285 124.113,146.952 117.5,146C 115.454,143.097 112.787,141.264 109.5,140.5C 109.703,138.61 109.037,137.11 107.5,136C 102.622,134.952 99.6225,132.119 98.5,127.5C 95.3011,126.153 92.4677,124.153 90,121.5C 88.4031,113.574 86.5697,113.574 84.5,121.5C 83.3112,122.429 81.9778,122.762 80.5,122.5C 80.7869,120.879 81.7869,119.879 83.5,119.5C 84.4287,118.311 84.762,116.978 84.5,115.5C 83.1667,115.5 81.8333,115.5 80.5,115.5C 80.8432,117.483 80.1765,118.817 78.5,119.5C 78.513,112.328 81.8464,107.495 88.5,105C 89.2524,104.329 89.5858,103.496 89.5,102.5 Z"/></g>
<g><path style="opacity:1" fill="#f02acd" d="M 308.5,100.5 C 309.833,99.8333 311.167,99.1667 312.5,98.5C 313.833,100.5 315.167,102.5 316.5,104.5C 316.5,106.167 316.5,107.833 316.5,109.5C 317.833,109.5 319.167,109.5 320.5,109.5C 320.613,112.049 319.946,114.382 318.5,116.5C 319,116.833 319.5,117.167 320,117.5C 321.3,116.293 322.8,115.626 324.5,115.5C 324.5,116.833 324.5,118.167 324.5,119.5C 322.5,119.5 320.5,119.5 318.5,119.5C 318.5,120.5 318.5,121.5 318.5,122.5C 316.194,122.993 313.861,123.326 311.5,123.5C 311.5,124.833 311.5,126.167 311.5,127.5C 310.167,127.5 308.833,127.5 307.5,127.5C 307.5,128.5 307.5,129.5 307.5,130.5C 305.801,130.34 304.134,130.506 302.5,131C 300.463,134.198 297.797,135.365 294.5,134.5C 292.085,135.497 290.085,136.997 288.5,139C 287.552,139.483 286.552,139.649 285.5,139.5C 284.215,143.002 281.548,144.835 277.5,145C 274.364,147.406 271.031,149.572 267.5,151.5C 266.833,152.833 266.167,154.167 265.5,155.5C 262.891,156.23 260.224,156.73 257.5,157C 256.663,158.011 256.33,159.178 256.5,160.5C 249.877,163.664 243.21,166.831 236.5,170C 231.056,174.23 225.389,178.23 219.5,182C 215.41,183.417 211.41,184.917 207.5,186.5C 206.21,185.065 204.544,184.065 202.5,183.5C 202.957,182.702 203.624,182.369 204.5,182.5C 206.097,181.263 207.263,179.596 208,177.5C 209.117,178.949 209.784,180.616 210,182.5C 218.341,175.746 227.174,168.746 236.5,161.5C 237.574,159.018 238.908,156.684 240.5,154.5C 246.682,151.627 252.682,148.46 258.5,145C 260.155,143.556 260.822,141.722 260.5,139.5C 262.734,139.62 264.901,139.287 267,138.5C 268.645,136.319 270.145,133.986 271.5,131.5C 273.5,130.833 275.5,130.167 277.5,129.5C 279.377,125.612 282.377,123.278 286.5,122.5C 287.449,120.263 288.116,117.929 288.5,115.5C 292.455,116.137 295.122,114.637 296.5,111C 300.439,111.018 302.772,109.185 303.5,105.5C 302.167,105.5 300.833,105.5 299.5,105.5C 298.643,102.957 297.31,100.623 295.5,98.5C 295.833,97.8333 296.167,97.1667 296.5,96.5C 301.18,99.7055 305.18,102.705 308.5,105.5C 308.5,103.833 308.5,102.167 308.5,100.5 Z"/></g>
<g><path style="opacity:1" fill="#d58682" d="M 94.5,94.5 C 94.1667,95.1667 93.8333,95.8333 93.5,96.5C 91.8795,98.2641 90.5462,100.264 89.5,102.5C 89.5858,103.496 89.2524,104.329 88.5,105C 81.8464,107.495 78.513,112.328 78.5,119.5C 78.5,120.5 78.5,121.5 78.5,122.5C 73.5,121.5 71.5,123.5 72.5,128.5C 71.5,128.5 70.5,128.5 69.5,128.5C 74.9117,116.683 82.0784,106.017 91,96.5C 91.8159,95.1772 92.9826,94.5106 94.5,94.5 Z"/></g>
<g><path style="opacity:1" fill="#fd9f93" d="M 119.5,160.5 C 115.167,161.167 110.833,161.833 106.5,162.5C 107.167,161.833 107.833,161.167 108.5,160.5C 113.418,159.284 118.418,158.284 123.5,157.5C 123.167,156.833 122.833,156.167 122.5,155.5C 114.863,151.347 107.196,147.18 99.5,143C 95.8933,141.539 92.2266,140.372 88.5,139.5C 88.5,138.167 88.5,136.833 88.5,135.5C 84.0925,135.122 80.7591,132.955 78.5,129C 79.4506,128.282 79.6172,127.449 79,126.5C 78.2825,127.451 77.4491,127.617 76.5,127C 77.4695,125.242 78.6361,124.742 80,125.5C 80.4828,124.552 80.6495,123.552 80.5,122.5C 81.9778,122.762 83.3112,122.429 84.5,121.5C 86.5697,113.574 88.4031,113.574 90,121.5C 92.4677,124.153 95.3011,126.153 98.5,127.5C 99.6225,132.119 102.622,134.952 107.5,136C 109.037,137.11 109.703,138.61 109.5,140.5C 112.787,141.264 115.454,143.097 117.5,146C 124.113,146.952 129.113,150.285 132.5,156C 134.256,156.202 135.922,156.702 137.5,157.5C 131.502,159.025 125.502,160.025 119.5,160.5 Z"/></g>
<g><path style="opacity:1" fill="#501251" d="M 335.5,130.5 C 336.492,132.456 337.492,134.456 338.5,136.5C 336.025,135.313 335.025,133.313 335.5,130.5 Z"/></g>
<g><path style="opacity:1" fill="#f9aa8c" d="M 108.5,160.5 C 107.833,161.167 107.167,161.833 106.5,162.5C 106.167,163.167 105.833,163.833 105.5,164.5C 104.127,164.343 102.793,164.51 101.5,165C 94.3615,168.642 88.6948,173.809 84.5,180.5C 84.4003,177.892 85.0669,175.558 86.5,173.5C 91.3347,169.843 96.3347,166.343 101.5,163C 100.5,162.667 99.5,162.333 98.5,162C 98.8333,161.667 99.1667,161.333 99.5,161C 95.7776,162.093 92.4442,161.427 89.5,159C 94.2685,158.091 94.4352,157.257 90,156.5C 88.4385,156.397 86.9385,156.063 85.5,155.5C 84.1585,157.005 82.4918,157.672 80.5,157.5C 80.5,156.5 80.5,155.5 80.5,154.5C 79.1667,154.5 77.8333,154.5 76.5,154.5C 76.5,153.5 76.5,152.5 76.5,151.5C 74.8762,151.36 73.7096,152.027 73,153.5C 72.6345,149.768 70.9678,146.768 68,144.5C 66.6814,146.25 66.1814,148.25 66.5,150.5C 63.2331,151.776 60.5664,153.776 58.5,156.5C 59.1495,154.565 59.4828,152.565 59.5,150.5C 62.27,147.708 64.27,144.374 65.5,140.5C 66.6888,139.571 68.0222,139.238 69.5,139.5C 69.3379,137.473 69.5045,135.473 70,133.5C 71.147,135.731 72.147,138.065 73,140.5C 74.8138,139.24 76.6471,139.24 78.5,140.5C 80.3693,143.434 82.7027,145.934 85.5,148C 91.9294,150.875 98.596,153.208 105.5,155C 103.469,155.632 101.802,156.799 100.5,158.5C 103.166,158.459 105.833,159.125 108.5,160.5 Z"/></g>
<g><path style="opacity:1" fill="#d235d1" d="M 329.5,122.5 C 331.479,125.099 333.479,127.765 335.5,130.5C 335.025,133.313 336.025,135.313 338.5,136.5C 338.5,137.5 338.5,138.5 338.5,139.5C 338.167,139.5 337.833,139.5 337.5,139.5C 336.542,139.047 335.708,138.381 335,137.5C 333.757,141.914 332.257,146.248 330.5,150.5C 329.614,149.675 329.281,148.675 329.5,147.5C 324.02,147.738 319.353,149.904 315.5,154C 301.788,158.901 287.788,163.235 273.5,167C 270.958,168.77 268.291,170.27 265.5,171.5C 264.614,172.325 264.281,173.325 264.5,174.5C 263.167,174.5 261.833,174.5 260.5,174.5C 260.5,175.5 260.5,176.5 260.5,177.5C 252.522,179.662 244.522,181.828 236.5,184C 233.183,184.498 229.85,184.665 226.5,184.5C 226.5,185.5 226.5,186.5 226.5,187.5C 224.901,187.232 223.568,187.566 222.5,188.5C 218.256,189.643 213.923,190.31 209.5,190.5C 207.219,190.923 205.552,190.256 204.5,188.5C 205.5,188.5 206.5,188.5 207.5,188.5C 210.247,188.813 212.914,188.48 215.5,187.5C 219.976,185.47 224.309,183.137 228.5,180.5C 233.133,180.186 236.8,178.186 239.5,174.5C 244.093,174.289 247.76,172.456 250.5,169C 252.623,168.185 254.623,167.185 256.5,166C 262.233,164.121 267.9,162.287 273.5,160.5C 273.5,159.5 273.5,158.5 273.5,157.5C 277.798,156.8 282.131,156.467 286.5,156.5C 286.229,154.179 286.896,152.179 288.5,150.5C 293.3,148.433 298.3,147.433 303.5,147.5C 303.5,146.5 303.5,145.5 303.5,144.5C 307.323,144.589 310.323,143.089 312.5,140C 315.117,139.178 317.784,138.678 320.5,138.5C 320.5,137.167 320.5,135.833 320.5,134.5C 323.564,134.072 326.564,133.406 329.5,132.5C 329.5,129.167 329.5,125.833 329.5,122.5 Z"/></g>
<g><path style="opacity:1" fill="#df31cf" d="M 316.5,104.5 C 317.5,104.5 318.5,104.5 319.5,104.5C 321.252,109.151 323.919,113.318 327.5,117C 328.856,118.567 329.523,120.4 329.5,122.5C 329.5,125.833 329.5,129.167 329.5,132.5C 326.564,133.406 323.564,134.072 320.5,134.5C 320.5,135.833 320.5,137.167 320.5,138.5C 317.784,138.678 315.117,139.178 312.5,140C 310.323,143.089 307.323,144.589 303.5,144.5C 303.5,145.5 303.5,146.5 303.5,147.5C 298.3,147.433 293.3,148.433 288.5,150.5C 286.896,152.179 286.229,154.179 286.5,156.5C 282.131,156.467 277.798,156.8 273.5,157.5C 273.5,158.5 273.5,159.5 273.5,160.5C 267.9,162.287 262.233,164.121 256.5,166C 254.623,167.185 252.623,168.185 250.5,169C 247.76,172.456 244.093,174.289 239.5,174.5C 236.8,178.186 233.133,180.186 228.5,180.5C 224.309,183.137 219.976,185.47 215.5,187.5C 212.914,188.48 210.247,188.813 207.5,188.5C 207.5,187.833 207.5,187.167 207.5,186.5C 211.41,184.917 215.41,183.417 219.5,182C 225.389,178.23 231.056,174.23 236.5,170C 243.21,166.831 249.877,163.664 256.5,160.5C 256.33,159.178 256.663,158.011 257.5,157C 260.224,156.73 262.891,156.23 265.5,155.5C 266.167,154.167 266.833,152.833 267.5,151.5C 271.031,149.572 274.364,147.406 277.5,145C 281.548,144.835 284.215,143.002 285.5,139.5C 286.552,139.649 287.552,139.483 288.5,139C 290.085,136.997 292.085,135.497 294.5,134.5C 297.797,135.365 300.463,134.198 302.5,131C 304.134,130.506 305.801,130.34 307.5,130.5C 307.5,129.5 307.5,128.5 307.5,127.5C 308.833,127.5 310.167,127.5 311.5,127.5C 311.5,126.167 311.5,124.833 311.5,123.5C 313.861,123.326 316.194,122.993 318.5,122.5C 318.5,121.5 318.5,120.5 318.5,119.5C 320.5,119.5 322.5,119.5 324.5,119.5C 324.5,118.167 324.5,116.833 324.5,115.5C 322.8,115.626 321.3,116.293 320,117.5C 319.5,117.167 319,116.833 318.5,116.5C 319.946,114.382 320.613,112.049 320.5,109.5C 319.167,109.5 317.833,109.5 316.5,109.5C 316.5,107.833 316.5,106.167 316.5,104.5 Z"/></g>
<g><path style="opacity:1" fill="#fba48f" d="M 80.5,122.5 C 80.6495,123.552 80.4828,124.552 80,125.5C 78.6361,124.742 77.4695,125.242 76.5,127C 77.4491,127.617 78.2825,127.451 79,126.5C 79.6172,127.449 79.4506,128.282 78.5,129C 80.7591,132.955 84.0925,135.122 88.5,135.5C 88.5,136.833 88.5,138.167 88.5,139.5C 92.2266,140.372 95.8933,141.539 99.5,143C 107.196,147.18 114.863,151.347 122.5,155.5C 122.833,156.167 123.167,156.833 123.5,157.5C 118.418,158.284 113.418,159.284 108.5,160.5C 105.833,159.125 103.166,158.459 100.5,158.5C 101.802,156.799 103.469,155.632 105.5,155C 98.596,153.208 91.9294,150.875 85.5,148C 82.7027,145.934 80.3693,143.434 78.5,140.5C 76.6471,139.24 74.8138,139.24 73,140.5C 72.147,138.065 71.147,135.731 70,133.5C 69.5045,135.473 69.3379,137.473 69.5,139.5C 68.0222,139.238 66.6888,139.571 65.5,140.5C 64.27,144.374 62.27,147.708 59.5,150.5C 62.3228,142.86 65.6562,135.527 69.5,128.5C 70.5,128.5 71.5,128.5 72.5,128.5C 71.5,123.5 73.5,121.5 78.5,122.5C 78.5,121.5 78.5,120.5 78.5,119.5C 80.1765,118.817 80.8432,117.483 80.5,115.5C 81.8333,115.5 83.1667,115.5 84.5,115.5C 84.762,116.978 84.4287,118.311 83.5,119.5C 81.7869,119.879 80.7869,120.879 80.5,122.5 Z"/></g>
<g><path style="opacity:1" fill="#a0399e" d="M 338.5,139.5 C 340.341,141.849 341.674,144.515 342.5,147.5C 339.292,145.926 337.958,143.259 338.5,139.5 Z"/></g>
<g><path style="opacity:1" fill="#c738d5" d="M 337.5,139.5 C 337.328,143.534 336.828,147.534 336,151.5C 332.5,154.489 331.333,158.156 332.5,162.5C 323.009,165.086 313.342,167.253 303.5,169C 301.561,169.908 300.561,171.408 300.5,173.5C 292.412,172.653 284.745,173.82 277.5,177C 259.208,181.065 240.875,184.898 222.5,188.5C 223.568,187.566 224.901,187.232 226.5,187.5C 226.5,186.5 226.5,185.5 226.5,184.5C 229.85,184.665 233.183,184.498 236.5,184C 244.522,181.828 252.522,179.662 260.5,177.5C 260.5,176.5 260.5,175.5 260.5,174.5C 261.833,174.5 263.167,174.5 264.5,174.5C 264.281,173.325 264.614,172.325 265.5,171.5C 268.291,170.27 270.958,168.77 273.5,167C 287.788,163.235 301.788,158.901 315.5,154C 319.353,149.904 324.02,147.738 329.5,147.5C 329.281,148.675 329.614,149.675 330.5,150.5C 332.257,146.248 333.757,141.914 335,137.5C 335.708,138.381 336.542,139.047 337.5,139.5 Z"/></g>
<g><path style="opacity:1" fill="#3b221e" d="M 119.5,160.5 C 125.167,160.5 130.833,160.5 136.5,160.5C 136.5,160.833 136.5,161.167 136.5,161.5C 126.033,161.329 115.699,162.329 105.5,164.5C 105.833,163.833 106.167,163.167 106.5,162.5C 110.833,161.833 115.167,161.167 119.5,160.5 Z"/></g>
<g><path style="opacity:1" fill="#6b3e3a" d="M 140.5,161.5 C 142.898,161.259 144.898,161.926 146.5,163.5C 144.102,163.741 142.102,163.074 140.5,161.5 Z"/></g>
<g><path style="opacity:1" fill="#441450" d="M 345.5,156.5 C 346.924,158.515 347.59,160.848 347.5,163.5C 347.167,163.5 346.833,163.5 346.5,163.5C 346.007,161.194 345.674,158.861 345.5,156.5 Z"/></g>
<g><path style="opacity:1" fill="#c89878" d="M 59.5,150.5 C 59.4828,152.565 59.1495,154.565 58.5,156.5C 58.5542,162.352 57.8875,168.019 56.5,173.5C 55.8333,173.5 55.1667,173.5 54.5,173.5C 55.0007,165.462 56.6673,157.795 59.5,150.5 Z"/></g>
<g><path style="opacity:1" fill="#010102" d="M 136.5,161.5 C 137.833,161.5 139.167,161.5 140.5,161.5C 142.102,163.074 144.102,163.741 146.5,163.5C 156.049,166.276 165.382,169.61 174.5,173.5C 177.678,176.258 181.345,178.258 185.5,179.5C 188.331,181.417 191.331,183.083 194.5,184.5C 195.167,184.5 195.833,184.5 196.5,184.5C 196.5,185.833 197.167,186.5 198.5,186.5C 200.961,188.479 202.961,190.979 204.5,194C 206.107,193.981 207.774,193.815 209.5,193.5C 213.964,194.574 218.297,195.907 222.5,197.5C 229.353,200.288 236.353,202.621 243.5,204.5C 247.545,206.177 251.878,206.844 256.5,206.5C 257.609,207.29 258.942,207.79 260.5,208C 275.547,208.306 290.547,208.473 305.5,208.5C 307.167,209.167 308.833,209.833 310.5,210.5C 311.833,212.5 313.167,214.5 314.5,216.5C 314.157,218.483 314.824,219.817 316.5,220.5C 317.752,225.491 317.752,230.491 316.5,235.5C 314.257,240.331 312.257,245.331 310.5,250.5C 307.382,254.402 305.049,258.735 303.5,263.5C 301.469,264.539 300.136,266.205 299.5,268.5C 297.697,270.081 296.364,272.081 295.5,274.5C 291.949,276.625 289.616,279.625 288.5,283.5C 286.29,285.701 283.624,287.034 280.5,287.5C 280.608,289.514 279.942,291.18 278.5,292.5C 271.792,295.639 265.792,299.639 260.5,304.5C 254.383,305.869 248.716,308.202 243.5,311.5C 234.439,314.742 225.106,316.742 215.5,317.5C 206.494,317.666 197.494,317.5 188.5,317C 186.668,316.252 185.001,315.252 183.5,314C 175.314,313.886 167.314,313.053 159.5,311.5C 158.833,311.5 158.167,311.5 157.5,311.5C 152.888,308.361 147.888,306.028 142.5,304.5C 139.506,302 136.173,300 132.5,298.5C 131.421,296.457 129.754,295.124 127.5,294.5C 125.249,291.705 122.582,289.372 119.5,287.5C 115.472,283.141 111.472,278.807 107.5,274.5C 105.075,270.648 102.409,266.981 99.5,263.5C 99.573,261.973 98.9063,260.973 97.5,260.5C 96.431,255.911 94.431,251.911 91.5,248.5C 91.8337,245.509 90.8337,243.176 88.5,241.5C 88.2041,239.597 87.5375,237.93 86.5,236.5C 86.5,235.833 86.5,235.167 86.5,234.5C 86.7406,232.102 86.0739,230.102 84.5,228.5C 84.1417,225.311 83.475,222.311 82.5,219.5C 82.5,219.167 82.5,218.833 82.5,218.5C 81.6007,209.18 81.434,199.847 82,190.5C 82.6613,187.054 83.4946,183.721 84.5,180.5C 88.6948,173.809 94.3615,168.642 101.5,165C 102.793,164.51 104.127,164.343 105.5,164.5C 115.699,162.329 126.033,161.329 136.5,161.5 Z"/></g>
<g><path style="opacity:1" fill="#fbb587" d="M 86.5,173.5 C 80.8333,173.5 75.1667,173.5 69.5,173.5C 69.5,171.167 69.5,168.833 69.5,166.5C 68.1667,166.5 66.8333,166.5 65.5,166.5C 65.5,168.833 65.5,171.167 65.5,173.5C 62.3463,172.905 59.3463,172.905 56.5,173.5C 57.8875,168.019 58.5542,162.352 58.5,156.5C 60.5664,153.776 63.2331,151.776 66.5,150.5C 66.1814,148.25 66.6814,146.25 68,144.5C 70.9678,146.768 72.6345,149.768 73,153.5C 73.7096,152.027 74.8762,151.36 76.5,151.5C 76.5,152.5 76.5,153.5 76.5,154.5C 77.8333,154.5 79.1667,154.5 80.5,154.5C 80.5,155.5 80.5,156.5 80.5,157.5C 82.4918,157.672 84.1585,157.005 85.5,155.5C 86.9385,156.063 88.4385,156.397 90,156.5C 94.4352,157.257 94.2685,158.091 89.5,159C 92.4442,161.427 95.7776,162.093 99.5,161C 99.1667,161.333 98.8333,161.667 98.5,162C 99.5,162.333 100.5,162.667 101.5,163C 96.3347,166.343 91.3347,169.843 86.5,173.5 Z"/></g>
<g><path style="opacity:1" fill="#ba3cd5" d="M 337.5,139.5 C 337.833,139.5 338.167,139.5 338.5,139.5C 337.958,143.259 339.292,145.926 342.5,147.5C 343.079,150.706 344.079,153.706 345.5,156.5C 345.674,158.861 346.007,161.194 346.5,163.5C 346.5,169.167 346.5,174.833 346.5,180.5C 335.196,179.904 323.863,179.904 312.5,180.5C 312.649,181.552 312.483,182.552 312,183.5C 304.246,182.353 296.413,182.186 288.5,183C 276.311,185.6 263.978,187.267 251.5,188C 249.39,188.554 247.39,189.388 245.5,190.5C 244.353,190.182 243.519,189.516 243,188.5C 237.313,190.463 231.479,192.129 225.5,193.5C 222.916,192.607 220.249,192.274 217.5,192.5C 214.833,192.5 212.167,192.5 209.5,192.5C 209.5,191.833 209.5,191.167 209.5,190.5C 213.923,190.31 218.256,189.643 222.5,188.5C 240.875,184.898 259.208,181.065 277.5,177C 284.745,173.82 292.412,172.653 300.5,173.5C 300.561,171.408 301.561,169.908 303.5,169C 313.342,167.253 323.009,165.086 332.5,162.5C 331.333,158.156 332.5,154.489 336,151.5C 336.828,147.534 337.328,143.534 337.5,139.5 Z"/></g>
<g><path style="opacity:1" fill="#f5bd7c" d="M 86.5,173.5 C 85.0669,175.558 84.4003,177.892 84.5,180.5C 83.4946,183.721 82.6613,187.054 82,190.5C 81.434,199.847 81.6007,209.18 82.5,218.5C 82.1667,218.5 81.8333,218.5 81.5,218.5C 80.0725,209.597 79.0725,200.597 78.5,191.5C 77.6816,193.108 77.0149,194.775 76.5,196.5C 75.675,197.386 74.675,197.719 73.5,197.5C 73.5,195.167 73.5,192.833 73.5,190.5C 66.8333,190.5 60.1667,190.5 53.5,190.5C 53.1736,199.349 53.507,208.016 54.5,216.5C 54.5,218.833 54.5,221.167 54.5,223.5C 53.71,222.391 53.21,221.058 53,219.5C 52.3333,205.167 52.3333,190.833 53,176.5C 53.2321,175.263 53.7321,174.263 54.5,173.5C 55.1667,173.5 55.8333,173.5 56.5,173.5C 59.3463,172.905 62.3463,172.905 65.5,173.5C 65.5,171.167 65.5,168.833 65.5,166.5C 66.8333,166.5 68.1667,166.5 69.5,166.5C 69.5,168.833 69.5,171.167 69.5,173.5C 75.1667,173.5 80.8333,173.5 86.5,173.5 Z"/></g>
<g><path style="opacity:1" fill="#ab3fd8" d="M 346.5,163.5 C 346.833,163.5 347.167,163.5 347.5,163.5C 347.5,163.833 347.5,164.167 347.5,164.5C 348.363,170.455 348.697,176.455 348.5,182.5C 348.83,188.868 348.496,195.202 347.5,201.5C 342.062,203.388 336.395,204.054 330.5,203.5C 330.67,202.178 330.337,201.011 329.5,200C 319.765,199.883 310.098,199.05 300.5,197.5C 290.216,198.704 279.882,199.37 269.5,199.5C 259.76,199.421 250.093,198.755 240.5,197.5C 238.631,198.068 236.797,198.734 235,199.5C 230.99,197.865 226.823,197.198 222.5,197.5C 220.692,196 219.026,194.333 217.5,192.5C 220.249,192.274 222.916,192.607 225.5,193.5C 231.479,192.129 237.313,190.463 243,188.5C 243.519,189.516 244.353,190.182 245.5,190.5C 247.39,189.388 249.39,188.554 251.5,188C 263.978,187.267 276.311,185.6 288.5,183C 296.413,182.186 304.246,182.353 312,183.5C 312.483,182.552 312.649,181.552 312.5,180.5C 323.863,179.904 335.196,179.904 346.5,180.5C 346.5,174.833 346.5,169.167 346.5,163.5 Z"/></g>
<g><path style="opacity:1" fill="#2a0f25" d="M 198.5,186.5 C 199.167,186.5 199.833,186.5 200.5,186.5C 201.514,187.674 202.847,188.34 204.5,188.5C 205.552,190.256 207.219,190.923 209.5,190.5C 209.5,191.167 209.5,191.833 209.5,192.5C 209.5,192.833 209.5,193.167 209.5,193.5C 207.774,193.815 206.107,193.981 204.5,194C 202.961,190.979 200.961,188.479 198.5,186.5 Z"/></g>
<g><path style="opacity:1" fill="#7d3492" d="M 209.5,193.5 C 209.5,193.167 209.5,192.833 209.5,192.5C 212.167,192.5 214.833,192.5 217.5,192.5C 219.026,194.333 220.692,196 222.5,197.5C 218.297,195.907 213.964,194.574 209.5,193.5 Z"/></g>
<g><path style="opacity:1" fill="#9b43d6" d="M 348.5,182.5 C 349.825,186.445 350.492,190.778 350.5,195.5C 350.333,199.833 350.167,204.167 350,208.5C 349.264,216.383 348.097,224.049 346.5,231.5C 345.082,229.692 343.082,229.025 340.5,229.5C 340.5,228.167 340.5,226.833 340.5,225.5C 342.5,225.5 344.5,225.5 346.5,225.5C 346.5,222.833 346.5,220.167 346.5,217.5C 344.167,217.5 341.833,217.5 339.5,217.5C 339.66,219.199 339.494,220.866 339,222.5C 336.122,220.961 332.955,219.961 329.5,219.5C 328.248,217.999 327.248,216.332 326.5,214.5C 325.167,215.833 323.833,217.167 322.5,218.5C 322.167,217.5 321.833,216.5 321.5,215.5C 322.182,213.159 322.849,210.826 323.5,208.5C 322.167,208.5 320.833,208.5 319.5,208.5C 318.217,211.01 317.217,213.677 316.5,216.5C 315.833,216.5 315.167,216.5 314.5,216.5C 313.167,214.5 311.833,212.5 310.5,210.5C 310.103,208.338 308.769,207.005 306.5,206.5C 285.498,205.722 264.498,205.056 243.5,204.5C 236.353,202.621 229.353,200.288 222.5,197.5C 226.823,197.198 230.99,197.865 235,199.5C 236.797,198.734 238.631,198.068 240.5,197.5C 250.093,198.755 259.76,199.421 269.5,199.5C 279.882,199.37 290.216,198.704 300.5,197.5C 310.098,199.05 319.765,199.883 329.5,200C 330.337,201.011 330.67,202.178 330.5,203.5C 336.395,204.054 342.062,203.388 347.5,201.5C 348.496,195.202 348.83,188.868 348.5,182.5 Z"/></g>
<g><path style="opacity:1" fill="#fdcf77" d="M 81.5,218.5 C 80.5041,218.586 79.6708,218.252 79,217.5C 78.8236,214.118 78.3236,210.785 77.5,207.5C 76.8333,209.833 76.1667,212.167 75.5,214.5C 74.8076,213.975 74.3076,213.308 74,212.5C 73.6667,209.5 73.3333,206.5 73,203.5C 71.7308,204.905 71.2308,206.571 71.5,208.5C 66.5,208.5 61.5,208.5 56.5,208.5C 56.4208,209.93 56.7542,211.264 57.5,212.5C 56.0905,213.569 55.0905,214.903 54.5,216.5C 53.507,208.016 53.1736,199.349 53.5,190.5C 60.1667,190.5 66.8333,190.5 73.5,190.5C 73.5,192.833 73.5,195.167 73.5,197.5C 74.675,197.719 75.675,197.386 76.5,196.5C 77.0149,194.775 77.6816,193.108 78.5,191.5C 79.0725,200.597 80.0725,209.597 81.5,218.5 Z"/></g>
<g><path style="opacity:1" fill="#74399b" d="M 243.5,204.5 C 264.498,205.056 285.498,205.722 306.5,206.5C 308.769,207.005 310.103,208.338 310.5,210.5C 308.833,209.833 307.167,209.167 305.5,208.5C 302.282,207.046 298.782,206.379 295,206.5C 282.163,207.791 269.33,207.791 256.5,206.5C 251.878,206.844 247.545,206.177 243.5,204.5 Z"/></g>
<g><path style="opacity:1" fill="#37124e" d="M 256.5,206.5 C 269.33,207.791 282.163,207.791 295,206.5C 298.782,206.379 302.282,207.046 305.5,208.5C 290.547,208.473 275.547,208.306 260.5,208C 258.942,207.79 257.609,207.29 256.5,206.5 Z"/></g>
<g><path style="opacity:1" fill="#fcdd6c" d="M 81.5,218.5 C 81.8333,218.5 82.1667,218.5 82.5,218.5C 82.5,218.833 82.5,219.167 82.5,219.5C 82.8242,223.555 82.4909,227.555 81.5,231.5C 80.8333,229.5 80.1667,227.5 79.5,225.5C 78.8,229.041 78.1334,232.541 77.5,236C 76.365,236.749 75.365,236.583 74.5,235.5C 72.8375,230.398 71.5042,230.732 70.5,236.5C 69.5481,234.955 69.2148,233.288 69.5,231.5C 68.5,231.5 67.5,231.5 66.5,231.5C 64.966,236.678 63.2994,236.678 61.5,231.5C 60.8589,232.993 59.8589,233.993 58.5,234.5C 57.3104,231.357 55.9771,228.357 54.5,225.5C 54.5,224.833 54.5,224.167 54.5,223.5C 54.5,221.167 54.5,218.833 54.5,216.5C 55.0905,214.903 56.0905,213.569 57.5,212.5C 56.7542,211.264 56.4208,209.93 56.5,208.5C 61.5,208.5 66.5,208.5 71.5,208.5C 71.2308,206.571 71.7308,204.905 73,203.5C 73.3333,206.5 73.6667,209.5 74,212.5C 74.3076,213.308 74.8076,213.975 75.5,214.5C 76.1667,212.167 76.8333,209.833 77.5,207.5C 78.3236,210.785 78.8236,214.118 79,217.5C 79.6708,218.252 80.5041,218.586 81.5,218.5 Z"/></g>
<g><path style="opacity:1" fill="#4f246e" d="M 347.5,164.5 C 348.117,164.611 348.617,164.944 349,165.5C 352.332,186.857 352.332,208.19 349,229.5C 347.962,234.119 346.462,238.452 344.5,242.5C 344.756,239.402 345.422,236.402 346.5,233.5C 346.5,232.833 346.5,232.167 346.5,231.5C 348.097,224.049 349.264,216.383 350,208.5C 350.167,204.167 350.333,199.833 350.5,195.5C 350.492,190.778 349.825,186.445 348.5,182.5C 348.697,176.455 348.363,170.455 347.5,164.5 Z"/></g>
<g><path style="opacity:1" fill="#311351" d="M 314.5,216.5 C 315.167,216.5 315.833,216.5 316.5,216.5C 316.5,217.167 316.5,217.833 316.5,218.5C 316.5,219.167 316.5,219.833 316.5,220.5C 314.824,219.817 314.157,218.483 314.5,216.5 Z"/></g>
<g><path style="opacity:1" fill="#8d45de" d="M 346.5,231.5 C 346.5,232.167 346.5,232.833 346.5,233.5C 345.141,234.007 344.141,235.007 343.5,236.5C 342.833,239.167 342.167,241.833 341.5,244.5C 340.509,240.555 340.176,236.555 340.5,232.5C 339.178,232.67 338.011,232.337 337,231.5C 336.667,236.167 336.333,240.833 336,245.5C 334.048,247.337 333.048,249.671 333,252.5C 332.561,246.11 331.728,239.777 330.5,233.5C 329.833,234.167 329.167,234.833 328.5,235.5C 327.833,234.167 327.167,232.833 326.5,231.5C 325.901,235.544 324.567,239.211 322.5,242.5C 323.5,242.5 324.5,242.5 325.5,242.5C 326.075,248.902 323.408,252.902 317.5,254.5C 318.391,251.425 319.557,248.425 321,245.5C 321.261,241.294 321.761,237.127 322.5,233C 322.167,232.5 321.833,232 321.5,231.5C 321.112,235.589 320.112,239.256 318.5,242.5C 319.31,234.845 319.477,227.178 319,219.5C 318.329,218.748 317.496,218.414 316.5,218.5C 316.5,217.833 316.5,217.167 316.5,216.5C 317.217,213.677 318.217,211.01 319.5,208.5C 320.833,208.5 322.167,208.5 323.5,208.5C 322.849,210.826 322.182,213.159 321.5,215.5C 321.833,216.5 322.167,217.5 322.5,218.5C 323.833,217.167 325.167,215.833 326.5,214.5C 327.248,216.332 328.248,217.999 329.5,219.5C 332.955,219.961 336.122,220.961 339,222.5C 339.494,220.866 339.66,219.199 339.5,217.5C 341.833,217.5 344.167,217.5 346.5,217.5C 346.5,220.167 346.5,222.833 346.5,225.5C 344.5,225.5 342.5,225.5 340.5,225.5C 340.5,226.833 340.5,228.167 340.5,229.5C 343.082,229.025 345.082,229.692 346.5,231.5 Z"/></g>
<g><path style="opacity:1" fill="#7d713d" d="M 84.5,228.5 C 86.0739,230.102 86.7406,232.102 86.5,234.5C 84.9261,232.898 84.2594,230.898 84.5,228.5 Z"/></g>
<g><path style="opacity:1" fill="#5b3083" d="M 316.5,220.5 C 317.8,222.223 318.467,224.39 318.5,227C 318.333,229.167 318.167,231.333 318,233.5C 317.722,234.416 317.222,235.082 316.5,235.5C 317.752,230.491 317.752,225.491 316.5,220.5 Z"/></g>
<g><path style="opacity:1" fill="#f3d773" d="M 82.5,219.5 C 83.475,222.311 84.1417,225.311 84.5,228.5C 84.2594,230.898 84.9261,232.898 86.5,234.5C 86.5,235.167 86.5,235.833 86.5,236.5C 86.9746,239.082 86.3079,241.082 84.5,242.5C 85.2107,239.136 84.044,236.803 81,235.5C 80.8142,237.9 80.3142,240.234 79.5,242.5C 78.2067,237.982 76.5401,237.649 74.5,241.5C 72.9547,242.452 71.288,242.785 69.5,242.5C 69.4157,247.467 68.0823,247.8 65.5,243.5C 63.604,242.534 61.604,242.201 59.5,242.5C 59.7214,239.721 59.388,237.054 58.5,234.5C 59.8589,233.993 60.8589,232.993 61.5,231.5C 63.2994,236.678 64.966,236.678 66.5,231.5C 67.5,231.5 68.5,231.5 69.5,231.5C 69.2148,233.288 69.5481,234.955 70.5,236.5C 71.5042,230.732 72.8375,230.398 74.5,235.5C 75.365,236.583 76.365,236.749 77.5,236C 78.1334,232.541 78.8,229.041 79.5,225.5C 80.1667,227.5 80.8333,229.5 81.5,231.5C 82.4909,227.555 82.8242,223.555 82.5,219.5 Z"/></g>
<g><path style="opacity:1" fill="#7442bb" d="M 316.5,218.5 C 317.496,218.414 318.329,218.748 319,219.5C 319.477,227.178 319.31,234.845 318.5,242.5C 318.762,243.978 318.429,245.311 317.5,246.5C 314.949,247.604 312.616,248.938 310.5,250.5C 312.257,245.331 314.257,240.331 316.5,235.5C 317.222,235.082 317.722,234.416 318,233.5C 318.167,231.333 318.333,229.167 318.5,227C 318.467,224.39 317.8,222.223 316.5,220.5C 316.5,219.833 316.5,219.167 316.5,218.5 Z"/></g>
<g><path style="opacity:1" fill="#e8cf7c" d="M 54.5,225.5 C 55.9771,228.357 57.3104,231.357 58.5,234.5C 59.388,237.054 59.7214,239.721 59.5,242.5C 61.604,242.201 63.604,242.534 65.5,243.5C 68.0823,247.8 69.4157,247.467 69.5,242.5C 71.288,242.785 72.9547,242.452 74.5,241.5C 76.5401,237.649 78.2067,237.982 79.5,242.5C 80.3142,240.234 80.8142,237.9 81,235.5C 84.044,236.803 85.2107,239.136 84.5,242.5C 84.5858,243.496 84.2524,244.329 83.5,245C 78.4625,246.846 74.1292,249.679 70.5,253.5C 66.9987,252.166 63.6654,250.5 60.5,248.5C 57.7426,241.142 55.7426,233.475 54.5,225.5 Z"/></g>
<g><path style="opacity:1" fill="#8147da" d="M 346.5,233.5 C 345.422,236.402 344.756,239.402 344.5,242.5C 343.833,244.5 343.167,246.5 342.5,248.5C 340.731,250.278 338.731,251.945 336.5,253.5C 336.833,254.167 337.167,254.833 337.5,255.5C 336.624,259.224 335.624,262.89 334.5,266.5C 333.662,266.842 333.328,267.508 333.5,268.5C 332.833,268.5 332.167,268.5 331.5,268.5C 330.12,268.038 329.453,267.038 329.5,265.5C 331.261,262.004 331.761,258.337 331,254.5C 329.681,256.25 329.181,258.25 329.5,260.5C 324.87,259.771 320.203,259.437 315.5,259.5C 315.5,257.833 315.5,256.167 315.5,254.5C 314.5,254.5 313.5,254.5 312.5,254.5C 312.813,257.247 312.48,259.914 311.5,262.5C 310.999,260.345 309.999,258.678 308.5,257.5C 309.865,255.409 310.532,253.076 310.5,250.5C 312.616,248.938 314.949,247.604 317.5,246.5C 318.429,245.311 318.762,243.978 318.5,242.5C 320.112,239.256 321.112,235.589 321.5,231.5C 321.833,232 322.167,232.5 322.5,233C 321.761,237.127 321.261,241.294 321,245.5C 319.557,248.425 318.391,251.425 317.5,254.5C 323.408,252.902 326.075,248.902 325.5,242.5C 324.5,242.5 323.5,242.5 322.5,242.5C 324.567,239.211 325.901,235.544 326.5,231.5C 327.167,232.833 327.833,234.167 328.5,235.5C 329.167,234.833 329.833,234.167 330.5,233.5C 331.728,239.777 332.561,246.11 333,252.5C 333.048,249.671 334.048,247.337 336,245.5C 336.333,240.833 336.667,236.167 337,231.5C 338.011,232.337 339.178,232.67 340.5,232.5C 340.176,236.555 340.509,240.555 341.5,244.5C 342.167,241.833 342.833,239.167 343.5,236.5C 344.141,235.007 345.141,234.007 346.5,233.5 Z"/></g>
<g><path style="opacity:1" fill="#dcc782" d="M 86.5,236.5 C 87.5375,237.93 88.2041,239.597 88.5,241.5C 88.0632,244.807 88.7298,247.807 90.5,250.5C 85.3666,252.567 80.6999,255.4 76.5,259C 74.8659,259.494 73.1992,259.66 71.5,259.5C 71.2175,264.579 70.2175,264.746 68.5,260C 67.552,259.517 66.552,259.351 65.5,259.5C 63.3868,256.07 61.7202,252.403 60.5,248.5C 63.6654,250.5 66.9987,252.166 70.5,253.5C 74.1292,249.679 78.4625,246.846 83.5,245C 84.2524,244.329 84.5858,243.496 84.5,242.5C 86.3079,241.082 86.9746,239.082 86.5,236.5 Z"/></g>
<g><path style="opacity:1" fill="#683fb0" d="M 342.5,248.5 C 340.696,253.042 339.196,257.708 338,262.5C 336.595,263.731 335.429,265.064 334.5,266.5C 335.624,262.89 336.624,259.224 337.5,255.5C 337.167,254.833 336.833,254.167 336.5,253.5C 338.731,251.945 340.731,250.278 342.5,248.5 Z"/></g>
<g><path style="opacity:1" fill="#4d3285" d="M 310.5,250.5 C 310.532,253.076 309.865,255.409 308.5,257.5C 307.291,259.941 305.624,261.941 303.5,263.5C 305.049,258.735 307.382,254.402 310.5,250.5 Z"/></g>
<g><path style="opacity:1" fill="#d3c18a" d="M 88.5,241.5 C 90.8337,243.176 91.8337,245.509 91.5,248.5C 92.2561,252.63 93.2561,256.63 94.5,260.5C 88.233,263.272 81.8997,265.938 75.5,268.5C 72.3543,267.997 69.6876,266.663 67.5,264.5C 66.5592,262.95 65.8925,261.284 65.5,259.5C 66.552,259.351 67.552,259.517 68.5,260C 70.2175,264.746 71.2175,264.579 71.5,259.5C 73.1992,259.66 74.8659,259.494 76.5,259C 80.6999,255.4 85.3666,252.567 90.5,250.5C 88.7298,247.807 88.0632,244.807 88.5,241.5 Z"/></g>
<g><path style="opacity:1" fill="#c6b792" d="M 91.5,248.5 C 94.431,251.911 96.431,255.911 97.5,260.5C 97.7851,267.894 94.1185,271.561 86.5,271.5C 86.5,273.167 86.5,274.833 86.5,276.5C 84.5165,276.383 82.8498,277.05 81.5,278.5C 78.7872,277.086 76.1205,275.753 73.5,274.5C 71.0116,271.534 69.0116,268.201 67.5,264.5C 69.6876,266.663 72.3543,267.997 75.5,268.5C 81.8997,265.938 88.233,263.272 94.5,260.5C 93.2561,256.63 92.2561,252.63 91.5,248.5 Z"/></g>
<g><path style="opacity:1" fill="#3f2975" d="M 303.5,263.5 C 303.262,266.069 301.929,267.735 299.5,268.5C 300.136,266.205 301.469,264.539 303.5,263.5 Z"/></g>
<g><path style="opacity:1" fill="#7649e1" d="M 331.5,268.5 C 329.794,270.536 327.461,271.536 324.5,271.5C 323.459,274.542 323.459,277.542 324.5,280.5C 323.041,280.567 321.708,280.234 320.5,279.5C 319.018,277.085 317.018,276.418 314.5,277.5C 316.447,279.276 316.78,281.276 315.5,283.5C 314.004,279.723 312.337,279.723 310.5,283.5C 307.663,282.491 306.33,280.491 306.5,277.5C 302.157,277.157 299.823,274.823 299.5,270.5C 300.833,270.5 302.167,270.5 303.5,270.5C 303.5,271.833 303.5,273.167 303.5,274.5C 305.582,274.472 307.416,275.139 309,276.5C 309.167,276 309.333,275.5 309.5,275C 308.264,273.144 308.264,271.311 309.5,269.5C 307.955,268.548 306.288,268.215 304.5,268.5C 304.5,267.167 304.5,265.833 304.5,264.5C 305.833,264.5 307.167,264.5 308.5,264.5C 308.5,262.167 308.5,259.833 308.5,257.5C 309.999,258.678 310.999,260.345 311.5,262.5C 312.48,259.914 312.813,257.247 312.5,254.5C 313.5,254.5 314.5,254.5 315.5,254.5C 315.5,256.167 315.5,257.833 315.5,259.5C 320.203,259.437 324.87,259.771 329.5,260.5C 329.181,258.25 329.681,256.25 331,254.5C 331.761,258.337 331.261,262.004 329.5,265.5C 329.453,267.038 330.12,268.038 331.5,268.5 Z"/></g>
<g><path style="opacity:1" fill="#baae9c" d="M 97.5,260.5 C 98.9063,260.973 99.573,261.973 99.5,263.5C 99.6741,265.861 100.007,268.194 100.5,270.5C 101.552,270.351 102.552,270.517 103.5,271C 101.954,272.44 101.121,274.273 101,276.5C 100.667,276.167 100.333,275.833 100,275.5C 97.6205,279.323 94.6205,282.657 91,285.5C 90.6667,284.833 90.3333,284.167 90,283.5C 89.3203,285.513 87.987,286.846 86,287.5C 84.1246,285.822 81.958,284.822 79.5,284.5C 76.4977,281.839 74.4977,278.505 73.5,274.5C 76.1205,275.753 78.7872,277.086 81.5,278.5C 82.8498,277.05 84.5165,276.383 86.5,276.5C 86.5,274.833 86.5,273.167 86.5,271.5C 94.1185,271.561 97.7851,267.894 97.5,260.5 Z"/></g>
<g><path style="opacity:1" fill="#aea69e" d="M 99.5,263.5 C 102.409,266.981 105.075,270.648 107.5,274.5C 106.388,276.599 105.721,278.933 105.5,281.5C 104.07,281.421 102.736,281.754 101.5,282.5C 97.872,287.942 93.2053,291.942 87.5,294.5C 84.3637,291.571 81.697,288.238 79.5,284.5C 81.958,284.822 84.1246,285.822 86,287.5C 87.987,286.846 89.3203,285.513 90,283.5C 90.3333,284.167 90.6667,284.833 91,285.5C 94.6205,282.657 97.6205,279.323 100,275.5C 100.333,275.833 100.667,276.167 101,276.5C 101.121,274.273 101.954,272.44 103.5,271C 102.552,270.517 101.552,270.351 100.5,270.5C 100.007,268.194 99.6741,265.861 99.5,263.5 Z"/></g>
<g><path style="opacity:1" fill="#694adc" d="M 308.5,257.5 C 308.5,259.833 308.5,262.167 308.5,264.5C 307.167,264.5 305.833,264.5 304.5,264.5C 304.5,265.833 304.5,267.167 304.5,268.5C 306.288,268.215 307.955,268.548 309.5,269.5C 308.264,271.311 308.264,273.144 309.5,275C 309.333,275.5 309.167,276 309,276.5C 307.416,275.139 305.582,274.472 303.5,274.5C 303.5,273.167 303.5,271.833 303.5,270.5C 302.167,270.5 300.833,270.5 299.5,270.5C 299.823,274.823 302.157,277.157 306.5,277.5C 306.33,280.491 307.663,282.491 310.5,283.5C 312.337,279.723 314.004,279.723 315.5,283.5C 316.78,281.276 316.447,279.276 314.5,277.5C 317.018,276.418 319.018,277.085 320.5,279.5C 319.503,279.47 318.836,279.97 318.5,281C 321.238,285.401 320.238,288.901 315.5,291.5C 314.667,290.5 313.833,289.5 313,288.5C 313.39,291.731 313.224,295.065 312.5,298.5C 309.167,303.833 304.833,308.167 299.5,311.5C 297.861,311.926 296.528,311.926 295.5,311.5C 296.209,310.596 297.209,310.263 298.5,310.5C 298.671,307.203 298.005,306.869 296.5,309.5C 296.167,309.167 295.833,308.833 295.5,308.5C 298.477,303.203 301.81,298.203 305.5,293.5C 302.99,294.783 300.323,295.783 297.5,296.5C 297.116,298.929 296.449,301.263 295.5,303.5C 293.738,303.643 292.071,303.309 290.5,302.5C 287.662,297.652 283.662,294.319 278.5,292.5C 279.942,291.18 280.608,289.514 280.5,287.5C 283.624,287.034 286.29,285.701 288.5,283.5C 292.416,281.806 294.75,278.806 295.5,274.5C 296.364,272.081 297.697,270.081 299.5,268.5C 301.929,267.735 303.262,266.069 303.5,263.5C 305.624,261.941 307.291,259.941 308.5,257.5 Z"/></g>
<g><path style="opacity:1" fill="#6343bf" d="M 331.5,268.5 C 332.167,268.5 332.833,268.5 333.5,268.5C 332.745,273.611 330.245,277.611 326,280.5C 322.711,287.594 318.211,293.594 312.5,298.5C 313.224,295.065 313.39,291.731 313,288.5C 313.833,289.5 314.667,290.5 315.5,291.5C 320.238,288.901 321.238,285.401 318.5,281C 318.836,279.97 319.503,279.47 320.5,279.5C 321.708,280.234 323.041,280.567 324.5,280.5C 323.459,277.542 323.459,274.542 324.5,271.5C 327.461,271.536 329.794,270.536 331.5,268.5 Z"/></g>
<g><path style="opacity:1" fill="#503c9c" d="M 295.5,274.5 C 294.75,278.806 292.416,281.806 288.5,283.5C 289.616,279.625 291.949,276.625 295.5,274.5 Z"/></g>
<g><path style="opacity:1" fill="#a29ea5" d="M 107.5,274.5 C 111.472,278.807 115.472,283.141 119.5,287.5C 117.629,287.859 116.129,288.859 115,290.5C 114.667,290.167 114.333,289.833 114,289.5C 112.731,290.905 112.231,292.571 112.5,294.5C 110.5,294.5 108.5,294.5 106.5,294.5C 106.66,296.199 106.494,297.866 106,299.5C 103.326,300.714 100.826,302.047 98.5,303.5C 98.5,304.5 98.5,305.5 98.5,306.5C 94.1024,303.105 90.4357,299.105 87.5,294.5C 93.2053,291.942 97.872,287.942 101.5,282.5C 102.736,281.754 104.07,281.421 105.5,281.5C 105.721,278.933 106.388,276.599 107.5,274.5 Z"/></g>
<g><path style="opacity:1" fill="#9b97ad" d="M 119.5,287.5 C 122.582,289.372 125.249,291.705 127.5,294.5C 125.179,294.342 123.346,293.342 122,291.5C 118.029,294.093 115.529,297.759 114.5,302.5C 113.167,302.5 111.833,302.5 110.5,302.5C 111.169,306.676 109.669,308.009 106,306.5C 106.319,308.915 106.486,311.249 106.5,313.5C 103.216,311.883 100.549,309.55 98.5,306.5C 98.5,305.5 98.5,304.5 98.5,303.5C 100.826,302.047 103.326,300.714 106,299.5C 106.494,297.866 106.66,296.199 106.5,294.5C 108.5,294.5 110.5,294.5 112.5,294.5C 112.231,292.571 112.731,290.905 114,289.5C 114.333,289.833 114.667,290.167 115,290.5C 116.129,288.859 117.629,287.859 119.5,287.5 Z"/></g>
<g><path style="opacity:1" fill="#5446c6" d="M 278.5,292.5 C 276.252,294.748 273.919,297.081 271.5,299.5C 273.758,300.799 276.092,301.799 278.5,302.5C 278.762,303.978 278.429,305.311 277.5,306.5C 274.615,303.19 270.948,301.523 266.5,301.5C 266.688,303.103 266.188,304.437 265,305.5C 263.644,304.62 262.144,304.286 260.5,304.5C 265.792,299.639 271.792,295.639 278.5,292.5 Z"/></g>
<g><path style="opacity:1" fill="#8688b9" d="M 132.5,298.5 C 136.173,300 139.506,302 142.5,304.5C 139.189,307.227 136.189,306.727 133.5,303C 132.207,302.51 130.873,302.343 129.5,302.5C 129.351,303.552 129.517,304.552 130,305.5C 132.333,306.413 134.166,307.913 135.5,310C 133.758,312.797 131.758,315.464 129.5,318C 128.062,318.219 126.729,318.719 125.5,319.5C 127.944,322.054 129.611,325.054 130.5,328.5C 132.965,329.922 135.631,330.922 138.5,331.5C 139.612,332.265 140.279,333.265 140.5,334.5C 132.777,332.139 125.777,328.473 119.5,323.5C 118.27,321.703 117.604,319.703 117.5,317.5C 116.5,317.5 115.5,317.5 114.5,317.5C 116.47,313.256 118.47,308.922 120.5,304.5C 121.729,303.719 123.062,303.219 124.5,303C 125.359,299.452 128.026,297.952 132.5,298.5 Z"/></g>
<g><path style="opacity:1" fill="#574de1" d="M 278.5,292.5 C 283.662,294.319 287.662,297.652 290.5,302.5C 292.071,303.309 293.738,303.643 295.5,303.5C 296.449,301.263 297.116,298.929 297.5,296.5C 300.323,295.783 302.99,294.783 305.5,293.5C 301.81,298.203 298.477,303.203 295.5,308.5C 295.833,308.833 296.167,309.167 296.5,309.5C 298.005,306.869 298.671,307.203 298.5,310.5C 297.209,310.263 296.209,310.596 295.5,311.5C 294.733,314.627 293.067,317.293 290.5,319.5C 283.174,323.531 276.174,327.865 269.5,332.5C 268.167,332.5 266.833,332.5 265.5,332.5C 260.312,331.24 254.979,330.24 249.5,329.5C 251.333,329.167 253.167,328.833 255,328.5C 258.542,329.113 262.042,329.78 265.5,330.5C 265.5,329.5 265.5,328.5 265.5,327.5C 264.167,327.5 262.833,327.5 261.5,327.5C 257.485,322.138 254.485,316.138 252.5,309.5C 255.167,307.833 257.833,306.167 260.5,304.5C 262.144,304.286 263.644,304.62 265,305.5C 266.188,304.437 266.688,303.103 266.5,301.5C 270.948,301.523 274.615,303.19 277.5,306.5C 278.429,305.311 278.762,303.978 278.5,302.5C 276.092,301.799 273.758,300.799 271.5,299.5C 273.919,297.081 276.252,294.748 278.5,292.5 Z"/></g>
<g><path style="opacity:1" fill="#908fb0" d="M 127.5,294.5 C 129.754,295.124 131.421,296.457 132.5,298.5C 128.026,297.952 125.359,299.452 124.5,303C 123.062,303.219 121.729,303.719 120.5,304.5C 118.47,308.922 116.47,313.256 114.5,317.5C 115.5,317.5 116.5,317.5 117.5,317.5C 117.604,319.703 118.27,321.703 119.5,323.5C 114.591,320.926 110.258,317.592 106.5,313.5C 106.486,311.249 106.319,308.915 106,306.5C 109.669,308.009 111.169,306.676 110.5,302.5C 111.833,302.5 113.167,302.5 114.5,302.5C 115.529,297.759 118.029,294.093 122,291.5C 123.346,293.342 125.179,294.342 127.5,294.5 Z"/></g>
<g><path style="opacity:1" fill="#2f2d7d" d="M 260.5,304.5 C 257.833,306.167 255.167,307.833 252.5,309.5C 249.664,310.776 246.664,311.442 243.5,311.5C 248.716,308.202 254.383,305.869 260.5,304.5 Z"/></g>
<g><path style="opacity:1" fill="#767bc0" d="M 142.5,304.5 C 147.888,306.028 152.888,308.361 157.5,311.5C 154.223,311.784 151.057,311.451 148,310.5C 147.667,313.833 147.333,317.167 147,320.5C 145.196,323.325 143.696,326.325 142.5,329.5C 145.876,329.858 148.542,331.358 150.5,334C 150.043,334.414 149.709,334.914 149.5,335.5C 150.588,336.934 151.922,337.934 153.5,338.5C 154.833,338.5 156.167,338.5 157.5,338.5C 157.5,339.5 157.5,340.5 157.5,341.5C 152.537,340.027 147.537,338.527 142.5,337C 141.244,336.583 140.577,335.75 140.5,334.5C 140.279,333.265 139.612,332.265 138.5,331.5C 135.631,330.922 132.965,329.922 130.5,328.5C 129.611,325.054 127.944,322.054 125.5,319.5C 126.729,318.719 128.062,318.219 129.5,318C 131.758,315.464 133.758,312.797 135.5,310C 134.166,307.913 132.333,306.413 130,305.5C 129.517,304.552 129.351,303.552 129.5,302.5C 130.873,302.343 132.207,302.51 133.5,303C 136.189,306.727 139.189,307.227 142.5,304.5 Z"/></g>
<g><path style="opacity:1" fill="#6d75c9" d="M 157.5,311.5 C 158.167,311.5 158.833,311.5 159.5,311.5C 162.392,313.114 165.392,314.447 168.5,315.5C 161.479,316.106 161.146,317.106 167.5,318.5C 168.386,319.325 168.719,320.325 168.5,321.5C 166.143,321.337 163.81,321.503 161.5,322C 160.833,323 160.167,324 159.5,325C 162.278,326.392 165.278,326.892 168.5,326.5C 163.839,328.274 158.839,329.608 153.5,330.5C 153.5,332.167 153.5,333.833 153.5,335.5C 154.978,335.238 156.311,335.571 157.5,336.5C 156.609,337.59 155.609,337.59 154.5,336.5C 153.702,336.957 153.369,337.624 153.5,338.5C 151.922,337.934 150.588,336.934 149.5,335.5C 149.709,334.914 150.043,334.414 150.5,334C 148.542,331.358 145.876,329.858 142.5,329.5C 143.696,326.325 145.196,323.325 147,320.5C 147.333,317.167 147.667,313.833 148,310.5C 151.057,311.451 154.223,311.784 157.5,311.5 Z"/></g>
<g><path style="opacity:1" fill="#392d86" d="M 295.5,311.5 C 296.528,311.926 297.861,311.926 299.5,311.5C 297.146,314.851 294.146,317.518 290.5,319.5C 293.067,317.293 294.733,314.627 295.5,311.5 Z"/></g>
<g><path style="opacity:1" fill="#0c0c24" d="M 159.5,311.5 C 167.314,313.053 175.314,313.886 183.5,314C 185.001,315.252 186.668,316.252 188.5,317C 197.494,317.5 206.494,317.666 215.5,317.5C 213.735,318.461 211.735,318.795 209.5,318.5C 200.8,318.711 192.133,318.377 183.5,317.5C 178.43,317.261 173.43,316.595 168.5,315.5C 165.392,314.447 162.392,313.114 159.5,311.5 Z"/></g>
<g><path style="opacity:1" fill="#2e326f" d="M 183.5,317.5 C 192.133,318.377 200.8,318.711 209.5,318.5C 209.5,318.833 209.5,319.167 209.5,319.5C 201.493,319.666 193.493,319.5 185.5,319C 184.584,318.722 183.918,318.222 183.5,317.5 Z"/></g>
<g><path style="opacity:1" fill="#4550e3" d="M 252.5,309.5 C 254.485,316.138 257.485,322.138 261.5,327.5C 262.833,327.5 264.167,327.5 265.5,327.5C 265.5,328.5 265.5,329.5 265.5,330.5C 262.042,329.78 258.542,329.113 255,328.5C 253.167,328.833 251.333,329.167 249.5,329.5C 254.979,330.24 260.312,331.24 265.5,332.5C 261.326,335.088 256.993,337.421 252.5,339.5C 248.988,338.945 245.988,339.612 243.5,341.5C 240.482,341.335 237.482,341.502 234.5,342C 231.497,342.749 228.831,343.915 226.5,345.5C 225.167,345.5 223.833,345.5 222.5,345.5C 221.708,343.743 220.375,342.409 218.5,341.5C 215.843,340.741 213.177,340.074 210.5,339.5C 209.773,335.489 209.107,331.489 208.5,327.5C 211.167,326.833 213.833,326.167 216.5,325.5C 213.846,324.032 211.513,322.365 209.5,320.5C 209.5,320.167 209.5,319.833 209.5,319.5C 209.5,319.167 209.5,318.833 209.5,318.5C 211.735,318.795 213.735,318.461 215.5,317.5C 225.106,316.742 234.439,314.742 243.5,311.5C 246.664,311.442 249.664,310.776 252.5,309.5 Z"/></g>
<g><path style="opacity:1" fill="#5c66d2" d="M 168.5,315.5 C 173.43,316.595 178.43,317.261 183.5,317.5C 183.918,318.222 184.584,318.722 185.5,319C 193.493,319.5 201.493,319.666 209.5,319.5C 209.5,319.833 209.5,320.167 209.5,320.5C 199.293,320.967 189.126,320.967 179,320.5C 176.338,320.779 175.505,321.945 176.5,324C 179.817,324.498 183.15,324.665 186.5,324.5C 184.176,327.902 182.51,331.736 181.5,336C 182.262,338.429 183.762,340.262 186,341.5C 186.49,342.793 186.657,344.127 186.5,345.5C 191.37,345.69 196.036,346.356 200.5,347.5C 191.818,347.479 183.152,347.146 174.5,346.5C 174.5,346.167 174.5,345.833 174.5,345.5C 172.14,343.465 169.473,341.632 166.5,340C 177.147,338.842 177.147,338.009 166.5,337.5C 166.238,336.022 166.571,334.689 167.5,333.5C 169.747,332.626 172.08,332.292 174.5,332.5C 174.5,331.167 174.5,329.833 174.5,328.5C 172.282,328.386 170.282,327.72 168.5,326.5C 165.278,326.892 162.278,326.392 159.5,325C 160.167,324 160.833,323 161.5,322C 163.81,321.503 166.143,321.337 168.5,321.5C 168.719,320.325 168.386,319.325 167.5,318.5C 161.146,317.106 161.479,316.106 168.5,315.5 Z"/></g>
<g><path style="opacity:1" fill="#4c5bdf" d="M 209.5,320.5 C 211.513,322.365 213.846,324.032 216.5,325.5C 213.833,326.167 211.167,326.833 208.5,327.5C 209.107,331.489 209.773,335.489 210.5,339.5C 213.177,340.074 215.843,340.741 218.5,341.5C 220.375,342.409 221.708,343.743 222.5,345.5C 220.833,345.5 219.167,345.5 217.5,345.5C 210.167,345.5 202.833,345.5 195.5,345.5C 195.5,339.5 195.5,333.5 195.5,327.5C 194.448,327.649 193.448,327.483 192.5,327C 196.028,326.911 199.362,326.244 202.5,325C 197.177,324.501 191.844,324.334 186.5,324.5C 183.15,324.665 179.817,324.498 176.5,324C 175.505,321.945 176.338,320.779 179,320.5C 189.126,320.967 199.293,320.967 209.5,320.5 Z"/></g>
<g><path style="opacity:1" fill="#535fda" d="M 186.5,324.5 C 191.844,324.334 197.177,324.501 202.5,325C 199.362,326.244 196.028,326.911 192.5,327C 193.448,327.483 194.448,327.649 195.5,327.5C 195.5,333.5 195.5,339.5 195.5,345.5C 202.833,345.5 210.167,345.5 217.5,345.5C 212.265,347.45 206.598,348.117 200.5,347.5C 196.036,346.356 191.37,345.69 186.5,345.5C 186.657,344.127 186.49,342.793 186,341.5C 183.762,340.262 182.262,338.429 181.5,336C 182.51,331.736 184.176,327.902 186.5,324.5 Z"/></g>
<g><path style="opacity:1" fill="#626dc9" d="M 168.5,326.5 C 170.282,327.72 172.282,328.386 174.5,328.5C 174.5,329.833 174.5,331.167 174.5,332.5C 172.08,332.292 169.747,332.626 167.5,333.5C 166.571,334.689 166.238,336.022 166.5,337.5C 177.147,338.009 177.147,338.842 166.5,340C 169.473,341.632 172.14,343.465 174.5,345.5C 168.476,344.746 162.809,343.412 157.5,341.5C 157.5,340.5 157.5,339.5 157.5,338.5C 156.167,338.5 154.833,338.5 153.5,338.5C 153.369,337.624 153.702,336.957 154.5,336.5C 155.609,337.59 156.609,337.59 157.5,336.5C 156.311,335.571 154.978,335.238 153.5,335.5C 153.5,333.833 153.5,332.167 153.5,330.5C 158.839,329.608 163.839,328.274 168.5,326.5 Z"/></g>
<g><path style="opacity:1" fill="#1b1b5b" d="M 265.5,332.5 C 266.833,332.5 268.167,332.5 269.5,332.5C 264.467,336.156 258.801,338.489 252.5,339.5C 256.993,337.421 261.326,335.088 265.5,332.5 Z"/></g>
<g><path style="opacity:1" fill="#333d96" d="M 252.5,339.5 C 249.877,341.265 246.877,341.932 243.5,341.5C 245.988,339.612 248.988,338.945 252.5,339.5 Z"/></g>
<g><path style="opacity:1" fill="#383faf" d="M 243.5,341.5 C 241.268,343.195 238.601,344.362 235.5,345C 232.518,345.498 229.518,345.665 226.5,345.5C 228.831,343.915 231.497,342.749 234.5,342C 237.482,341.502 240.482,341.335 243.5,341.5 Z"/></g>
<g><path style="opacity:1" fill="#232864" d="M 217.5,345.5 C 219.167,345.5 220.833,345.5 222.5,345.5C 223.833,345.5 225.167,345.5 226.5,345.5C 224.695,347.197 222.361,348.03 219.5,348C 213.167,348.167 206.833,348.333 200.5,348.5C 191.609,348.713 182.942,348.046 174.5,346.5C 183.152,347.146 191.818,347.479 200.5,347.5C 206.598,348.117 212.265,347.45 217.5,345.5 Z"/></g>
</svg>
