<?xml version="1.0" encoding="UTF-8"?>
<!DOCTYPE svg PUBLIC "-//W3C//DTD SVG 1.1//EN" "http://www.w3.org/Graphics/SVG/1.1/DTD/svg11.dtd">
<svg xmlns="http://www.w3.org/2000/svg" version="1.1" width="400px" height="400px" style="shape-rendering:geometricPrecision; text-rendering:geometricPrecision; image-rendering:optimizeQuality; fill-rule:evenodd; clip-rule:evenodd" xmlns:xlink="http://www.w3.org/1999/xlink">
<g><path style="opacity:1" fill="#fefefd" d="M -0.5,-0.5 C 132.833,-0.5 266.167,-0.5 399.5,-0.5C 399.5,132.833 399.5,266.167 399.5,399.5C 266.167,399.5 132.833,399.5 -0.5,399.5C -0.5,266.167 -0.5,132.833 -0.5,-0.5 Z"/></g>
<g><path style="opacity:1" fill="#969495" d="M 215.5,25.5 C 215.5,25.1667 215.5,24.8333 215.5,24.5C 216.609,24.5569 217.609,24.8902 218.5,25.5C 219.6,26.6049 220.267,27.9382 220.5,29.5C 218.833,28.1667 217.167,26.8333 215.5,25.5 Z"/></g>
<g><path style="opacity:1" fill="#030206" d="M 181.5,25.5 C 182.833,25.5 184.167,25.5 185.5,25.5C 185.5,44.1667 185.5,62.8333 185.5,81.5C 185.887,85.4441 185.22,89.1108 183.5,92.5C 181.654,94.0301 180.654,96.0301 180.5,98.5C 179.032,99.7791 178.365,101.446 178.5,103.5C 177.094,103.973 176.427,104.973 176.5,106.5C 175.761,106.369 175.094,106.536 174.5,107C 171.635,110.692 168.635,114.192 165.5,117.5C 162.167,118.833 159.833,121.167 158.5,124.5C 156.205,125.136 154.539,126.469 153.5,128.5C 150.81,130.193 148.81,132.527 147.5,135.5C 143.833,136.5 141.5,138.833 140.5,142.5C 139.167,142.5 138.5,143.167 138.5,144.5C 135.833,145.167 134.167,146.833 133.5,149.5C 131.738,150.262 130.738,151.596 130.5,153.5C 128.824,154.183 128.157,155.517 128.5,157.5C 127.094,157.973 126.427,158.973 126.5,160.5C 125.326,161.514 124.66,162.847 124.5,164.5C 124.396,166.703 123.73,168.703 122.5,170.5C 121.539,172.265 121.205,174.265 121.5,176.5C 119.656,178.279 118.99,180.612 119.5,183.5C 119.5,184.167 119.5,184.833 119.5,185.5C 117.967,187.634 117.3,190.134 117.5,193C 117.667,194.833 117.833,196.667 118,198.5C 118.383,199.056 118.883,199.389 119.5,199.5C 119.5,200.833 119.5,202.167 119.5,203.5C 120.394,208.839 121.728,213.839 123.5,218.5C 125.284,220.948 126.617,223.615 127.5,226.5C 127.989,227.995 128.655,229.329 129.5,230.5C 129.833,231.167 130.167,231.833 130.5,232.5C 131.757,235.427 133.757,237.761 136.5,239.5C 137.833,241.5 139.5,243.167 141.5,244.5C 142.5,246.167 143.833,247.5 145.5,248.5C 146.833,250.5 148.5,252.167 150.5,253.5C 153.167,256.833 156.167,259.833 159.5,262.5C 167.221,271.222 175.554,279.222 184.5,286.5C 184.833,287.5 185.5,288.167 186.5,288.5C 186.833,289.167 187.167,289.833 187.5,290.5C 187.5,292.5 188.5,293.5 190.5,293.5C 190.722,295.607 191.722,297.274 193.5,298.5C 193.291,299.086 192.957,299.586 192.5,300C 195.06,300.384 197.394,301.217 199.5,302.5C 200.794,305.781 202.794,308.448 205.5,310.5C 207.648,314.135 209.648,317.802 211.5,321.5C 213.047,334.084 213.714,346.751 213.5,359.5C 213.5,369.006 213.166,378.339 212.5,387.5C 211.448,387.649 210.448,387.483 209.5,387C 205.905,382.896 201.905,379.396 197.5,376.5C 196.5,376.167 195.833,375.5 195.5,374.5C 191.167,368.167 185.833,362.833 179.5,358.5C 178.5,358.167 177.833,357.5 177.5,356.5C 166.781,344.78 155.448,333.78 143.5,323.5C 141.472,319.472 138.472,316.472 134.5,314.5C 133.167,311.167 130.833,308.833 127.5,307.5C 124.806,302.806 121.139,299.139 116.5,296.5C 115.833,293.833 114.167,292.167 111.5,291.5C 111.512,288.858 110.179,287.525 107.5,287.5C 106.271,284.026 103.938,281.693 100.5,280.5C 99.5265,277.865 97.8598,275.865 95.5,274.5C 94.1667,272.5 92.5,270.833 90.5,269.5C 90.5,269.167 90.5,268.833 90.5,268.5C 90.5,267.167 89.8333,266.5 88.5,266.5C 88.573,264.973 87.9063,263.973 86.5,263.5C 86.2671,261.938 85.6005,260.605 84.5,259.5C 84.2624,257.596 83.2624,256.262 81.5,255.5C 81.5,255.167 81.5,254.833 81.5,254.5C 80.5324,251.9 79.1991,249.566 77.5,247.5C 76.6108,243.163 74.9441,239.163 72.5,235.5C 72.5,235.167 72.5,234.833 72.5,234.5C 72.8432,232.517 72.1765,231.183 70.5,230.5C 70.8799,228.302 70.2132,226.635 68.5,225.5C 68.6658,220.821 68.4992,216.155 68,211.5C 67.7216,210.584 67.2216,209.918 66.5,209.5C 66.5,208.833 66.5,208.167 66.5,207.5C 66.251,195.469 66.5843,183.469 67.5,171.5C 68.2558,167.161 69.2558,162.827 70.5,158.5C 71.1174,158.389 71.6174,158.056 72,157.5C 72.4966,155.19 72.6633,152.857 72.5,150.5C 73.6737,149.486 74.3404,148.153 74.5,146.5C 74.5,145.833 74.5,145.167 74.5,144.5C 76.7593,143.656 77.7593,141.989 77.5,139.5C 78.9063,139.027 79.573,138.027 79.5,136.5C 79.5,135.833 79.5,135.167 79.5,134.5C 81.1042,133.713 81.7709,132.38 81.5,130.5C 83.7379,129.147 85.0713,127.147 85.5,124.5C 87.9,122.704 89.5667,120.37 90.5,117.5C 97.6556,110.256 104.322,102.59 110.5,94.5C 113.45,92.8847 116.116,90.8847 118.5,88.5C 120.833,86.8333 122.833,84.8333 124.5,82.5C 125.925,81.078 126.925,79.4113 127.5,77.5C 129.149,76.5272 130.816,75.5272 132.5,74.5C 135.5,72.1667 138.167,69.5 140.5,66.5C 141.167,65.1667 142.167,64.1667 143.5,63.5C 145.167,62.5 146.5,61.1667 147.5,59.5C 148.167,58.1667 149.167,57.1667 150.5,56.5C 152.833,54.8333 154.833,52.8333 156.5,50.5C 157.167,49.1667 158.167,48.1667 159.5,47.5C 161.833,45.8333 163.833,43.8333 165.5,41.5C 165.833,40.5 166.5,39.8333 167.5,39.5C 172.167,34.8333 176.833,30.1667 181.5,25.5 Z"/></g>
<g><path style="opacity:1" fill="#020205" d="M 215.5,25.5 C 217.167,26.8333 218.833,28.1667 220.5,29.5C 220.833,30.1667 221.167,30.8333 221.5,31.5C 221.92,33.0936 222.586,34.5936 223.5,36C 223.355,36.772 223.022,37.4387 222.5,38C 224.387,37.5771 226.387,37.7437 228.5,38.5C 228.833,38.5 229.167,38.5 229.5,38.5C 229.5,40.5 230.5,41.5 232.5,41.5C 233.833,44.8333 236.167,47.1667 239.5,48.5C 239.833,50.8333 241.167,52.1667 243.5,52.5C 244.833,55.8333 247.167,58.1667 250.5,59.5C 250.5,60.1667 250.5,60.8333 250.5,61.5C 249.597,64.9251 248.097,65.2584 246,62.5C 243.979,64.6512 244.479,66.1512 247.5,67C 246.892,67.8699 246.059,68.3699 245,68.5C 241.314,67.0093 239.814,68.3426 240.5,72.5C 236.76,71.7415 235.093,73.2415 235.5,77C 235.093,80.7585 236.76,82.2585 240.5,81.5C 240.167,84.5 241.5,85.8333 244.5,85.5C 244.187,88.2469 244.52,90.9135 245.5,93.5C 246.524,94.8532 247.857,95.5198 249.5,95.5C 249.33,96.8221 249.663,97.9887 250.5,99C 253.146,99.4974 255.813,99.6641 258.5,99.5C 258.286,101.144 258.62,102.644 259.5,104C 263.5,104.667 267.5,104.667 271.5,104C 272.833,100.667 272.833,97.3333 271.5,94C 274.359,92.3091 275.692,89.8091 275.5,86.5C 276.452,87.452 277.452,88.452 278.5,89.5C 277.674,90.451 277.508,91.451 278,92.5C 278.333,92.1667 278.667,91.8333 279,91.5C 279.948,95.3423 282.114,96.6756 285.5,95.5C 286.167,95.5 286.833,95.5 287.5,95.5C 289.118,97.785 291.118,99.785 293.5,101.5C 294.5,102.833 295.5,104.167 296.5,105.5C 298.43,109.1 301.097,112.1 304.5,114.5C 305.5,115.833 306.5,117.167 307.5,118.5C 310.905,125.363 314.738,132.029 319,138.5C 320.687,142.459 322.187,146.459 323.5,150.5C 324.546,154.084 325.379,157.75 326,161.5C 327.701,164.356 329.034,167.356 330,170.5C 330.5,185.496 330.667,200.496 330.5,215.5C 329.666,220.023 328.332,224.356 326.5,228.5C 324.014,233.185 322.347,238.185 321.5,243.5C 321.5,243.833 321.5,244.167 321.5,244.5C 319.824,245.183 319.157,246.517 319.5,248.5C 319.5,248.833 319.5,249.167 319.5,249.5C 318.624,249.369 317.957,249.702 317.5,250.5C 315.21,255.438 312.544,260.105 309.5,264.5C 309.068,265.71 308.401,266.71 307.5,267.5C 305.469,268.539 304.136,270.205 303.5,272.5C 301.086,273.911 299.419,275.911 298.5,278.5C 296.833,280.5 295.167,282.5 293.5,284.5C 291.81,284.856 290.81,285.856 290.5,287.5C 288.205,288.136 286.539,289.469 285.5,291.5C 285.5,291.833 285.5,292.167 285.5,292.5C 281.441,296.167 277.441,299.834 273.5,303.5C 273.389,304.117 273.056,304.617 272.5,305C 270.527,305.495 268.527,305.662 266.5,305.5C 265.167,304.5 263.833,303.5 262.5,302.5C 260.5,299.833 258.167,297.5 255.5,295.5C 251.167,290.5 246.5,285.833 241.5,281.5C 239.833,279.167 237.833,277.167 235.5,275.5C 231.833,271.167 227.833,267.167 223.5,263.5C 219.414,258.41 214.748,254.076 209.5,250.5C 205.167,244.167 199.833,238.833 193.5,234.5C 192.243,231.573 190.243,229.239 187.5,227.5C 185.322,225.142 183.655,222.475 182.5,219.5C 181.394,216.946 180.561,214.279 180,211.5C 179.329,210.748 178.496,210.414 177.5,210.5C 177.169,188.66 177.503,166.994 178.5,145.5C 178.5,146.5 178.5,147.5 178.5,148.5C 179.552,148.351 180.552,148.517 181.5,149C 183.417,151.423 185.75,153.256 188.5,154.5C 188.833,154.5 189.167,154.5 189.5,154.5C 189.183,157.546 190.516,159.213 193.5,159.5C 193.833,162.5 195.5,164.167 198.5,164.5C 199.167,164.833 199.833,165.167 200.5,165.5C 201.167,166.5 201.833,167.5 202.5,168.5C 202.539,169.583 202.873,170.583 203.5,171.5C 207.128,175.309 211.128,178.643 215.5,181.5C 217.833,183.5 220.167,185.5 222.5,187.5C 222.833,188.167 223.167,188.833 223.5,189.5C 224.684,193.022 226.684,196.022 229.5,198.5C 230.842,200.005 232.508,200.672 234.5,200.5C 235.167,200.833 235.833,201.167 236.5,201.5C 237.5,203.167 238.833,204.5 240.5,205.5C 240.842,206.338 241.508,206.672 242.5,206.5C 242.738,209.069 244.071,210.735 246.5,211.5C 247.167,211.833 247.833,212.167 248.5,212.5C 248.856,214.19 249.856,215.19 251.5,215.5C 251.285,217.179 251.952,218.179 253.5,218.5C 256.833,221.5 260.167,224.5 263.5,227.5C 265.011,229.441 267.011,229.941 269.5,229C 270.337,227.989 270.67,226.822 270.5,225.5C 272.104,224.713 272.771,223.38 272.5,221.5C 272.5,220.833 272.5,220.167 272.5,219.5C 274.104,218.713 274.771,217.38 274.5,215.5C 274.5,215.167 274.5,214.833 274.5,214.5C 275.558,213.4 276.392,212.066 277,210.5C 277.667,198.833 277.667,187.167 277,175.5C 275.764,169.035 273.431,163.035 270,157.5C 269.292,156.619 268.458,155.953 267.5,155.5C 266.454,153.264 265.121,151.264 263.5,149.5C 263.5,149.167 263.5,148.833 263.5,148.5C 262.956,146.42 262.122,144.42 261,142.5C 260.329,141.748 259.496,141.414 258.5,141.5C 257.05,139.39 255.05,138.057 252.5,137.5C 249.833,132.833 246.167,129.167 241.5,126.5C 241.167,123.5 239.5,121.833 236.5,121.5C 235.167,118.167 232.833,115.833 229.5,114.5C 229.167,112.167 227.833,110.833 225.5,110.5C 224.527,107.865 222.86,105.865 220.5,104.5C 219.075,103.078 218.075,101.411 217.5,99.5C 217.573,97.9731 216.906,96.9731 215.5,96.5C 215.5,95.8333 215.5,95.1667 215.5,94.5C 215.573,92.9731 214.906,91.9731 213.5,91.5C 213.5,91.1667 213.5,90.8333 213.5,90.5C 213.664,87.8127 213.497,85.146 213,82.5C 212.617,81.944 212.117,81.6107 211.5,81.5C 211.5,62.8333 211.5,44.1667 211.5,25.5C 212.833,25.5 214.167,25.5 215.5,25.5 Z"/></g>
<g><path style="opacity:1" fill="#a9a7aa" d="M 220.5,29.5 C 223.788,31.0198 226.454,33.3532 228.5,36.5C 225.907,35.2464 223.573,33.5798 221.5,31.5C 221.167,30.8333 220.833,30.1667 220.5,29.5 Z"/></g>
<g><path style="opacity:1" fill="#eeeeee" d="M 181.5,17.5 C 184.07,18.484 184.07,19.6507 181.5,21C 183.562,21.5639 185.395,21.0639 187,19.5C 187.945,19.9054 188.612,20.572 189,21.5C 189.833,42.1747 189.666,62.8414 188.5,83.5C 187.818,84.2427 187.151,84.9094 186.5,85.5C 186.5,84.1667 186.5,82.8333 186.5,81.5C 187.302,80.0484 187.802,78.3817 188,76.5C 188.5,58.5031 188.667,40.5031 188.5,22.5C 186.265,22.2053 184.265,22.5386 182.5,23.5C 182.5,23.8333 182.5,24.1667 182.5,24.5C 181.833,24.5 181.5,24.8333 181.5,25.5C 175.899,28.7653 171.233,33.0986 167.5,38.5C 165.205,39.1355 163.539,40.4689 162.5,42.5C 161.5,43.8333 160.5,45.1667 159.5,46.5C 157.5,47.5 155.5,48.5 153.5,49.5C 153.5,48.1667 153.5,46.8333 153.5,45.5C 155.696,45.4348 157.696,44.7681 159.5,43.5C 158.508,41.0193 159.508,39.5193 162.5,39C 161.207,38.51 159.873,38.3433 158.5,38.5C 158.5,37.5 158.5,36.5 158.5,35.5C 160.167,35.5 161.833,35.5 163.5,35.5C 163.01,30.4932 163.843,29.8265 166,33.5C 166.318,31.9391 167.151,30.7724 168.5,30C 167.663,28.9887 167.33,27.8221 167.5,26.5C 168.873,26.6567 170.207,26.49 171.5,26C 172.641,25.2588 172.641,24.4255 171.5,23.5C 173.5,22.8333 175.5,22.1667 177.5,21.5C 178.246,20.2638 178.579,18.9305 178.5,17.5C 179.5,17.5 180.5,17.5 181.5,17.5 Z"/></g>
<g><path style="opacity:1" fill="#59595d" d="M 181.5,25.5 C 176.833,30.1667 172.167,34.8333 167.5,39.5C 167.5,39.1667 167.5,38.8333 167.5,38.5C 171.233,33.0986 175.899,28.7653 181.5,25.5 Z"/></g>
<g><path style="opacity:1" fill="#262528" d="M 221.5,31.5 C 223.573,33.5798 225.907,35.2464 228.5,36.5C 228.5,37.1667 228.5,37.8333 228.5,38.5C 226.387,37.7437 224.387,37.5771 222.5,38C 223.022,37.4387 223.355,36.772 223.5,36C 222.586,34.5936 221.92,33.0936 221.5,31.5 Z"/></g>
<g><path style="opacity:1" fill="#b3b2b4" d="M 228.5,36.5 C 230.19,36.8564 231.19,37.8564 231.5,39.5C 230.833,39.1667 230.167,38.8333 229.5,38.5C 229.167,38.5 228.833,38.5 228.5,38.5C 228.5,37.8333 228.5,37.1667 228.5,36.5 Z"/></g>
<g><path style="opacity:1" fill="#8c8b8e" d="M 167.5,38.5 C 167.5,38.8333 167.5,39.1667 167.5,39.5C 166.5,39.8333 165.833,40.5 165.5,41.5C 164.391,41.5569 163.391,41.8902 162.5,42.5C 163.539,40.4689 165.205,39.1355 167.5,38.5 Z"/></g>
<g><path style="opacity:1" fill="#58575b" d="M 229.5,38.5 C 230.167,38.8333 230.833,39.1667 231.5,39.5C 231.833,40.1667 232.167,40.8333 232.5,41.5C 230.5,41.5 229.5,40.5 229.5,38.5 Z"/></g>
<g><path style="opacity:1" fill="#5a5a5d" d="M 232.5,41.5 C 233.833,42.5 235.167,43.5 236.5,44.5C 237.5,45.8333 238.5,47.1667 239.5,48.5C 236.167,47.1667 233.833,44.8333 232.5,41.5 Z"/></g>
<g><path style="opacity:1" fill="#d9d9d9" d="M 218.5,25.5 C 217.609,24.8902 216.609,24.5569 215.5,24.5C 213.958,23.6993 212.292,23.366 210.5,23.5C 210.5,42.8333 210.5,62.1667 210.5,81.5C 210.5,81.8333 210.5,82.1667 210.5,82.5C 209.579,62.9821 209.079,43.3155 209,23.5C 209.739,22.4258 210.739,21.7591 212,21.5C 213.811,22.0779 215.645,22.5779 217.5,23C 218.252,23.6708 218.586,24.5041 218.5,25.5 Z"/></g>
<g><path style="opacity:1" fill="#727271" d="M 215.5,24.5 C 215.5,24.8333 215.5,25.1667 215.5,25.5C 214.167,25.5 212.833,25.5 211.5,25.5C 211.5,44.1667 211.5,62.8333 211.5,81.5C 211.167,81.5 210.833,81.5 210.5,81.5C 210.5,62.1667 210.5,42.8333 210.5,23.5C 212.292,23.366 213.958,23.6993 215.5,24.5 Z"/></g>
<g><path style="opacity:1" fill="#fafaf4" d="M 181.5,17.5 C 180.5,17.5 179.5,17.5 178.5,17.5C 178.579,18.9305 178.246,20.2638 177.5,21.5C 175.5,22.1667 173.5,22.8333 171.5,23.5C 172.641,24.4255 172.641,25.2588 171.5,26C 170.207,26.49 168.873,26.6567 167.5,26.5C 167.33,27.8221 167.663,28.9887 168.5,30C 167.151,30.7724 166.318,31.9391 166,33.5C 163.843,29.8265 163.01,30.4932 163.5,35.5C 161.833,35.5 160.167,35.5 158.5,35.5C 158.5,36.5 158.5,37.5 158.5,38.5C 159.873,38.3433 161.207,38.51 162.5,39C 159.508,39.5193 158.508,41.0193 159.5,43.5C 157.696,44.7681 155.696,45.4348 153.5,45.5C 153.5,46.8333 153.5,48.1667 153.5,49.5C 153.5,50.1667 153.5,50.8333 153.5,51.5C 153.167,52.5 152.5,53.1667 151.5,53.5C 148.833,55.5 146.5,57.8333 144.5,60.5C 141.833,62.5 139.5,64.8333 137.5,67.5C 136.5,69.1667 135.167,70.5 133.5,71.5C 132.833,71.5 132.167,71.5 131.5,71.5C 129.8,71.3739 128.3,70.7073 127,69.5C 125.433,70.8561 123.6,71.5228 121.5,71.5C 120.414,74.1947 120.747,76.8613 122.5,79.5C 122.167,79.8333 121.833,80.1667 121.5,80.5C 120.5,79.8333 119.5,79.1667 118.5,78.5C 117.818,79.2427 117.151,79.9094 116.5,80.5C 117.187,73.1869 117.521,65.8536 117.5,58.5C 120.95,59.2436 122.616,57.9103 122.5,54.5C 125.588,54.8034 127.254,53.4701 127.5,50.5C 128.5,50.5 129.5,50.5 130.5,50.5C 130.261,48.5328 130.594,46.6995 131.5,45C 134.833,44.6667 138.167,44.3333 141.5,44C 142.9,42.5619 144.567,41.7286 146.5,41.5C 146.5,40.1667 146.5,38.8333 146.5,37.5C 148.5,37.5 150.5,37.5 152.5,37.5C 153.486,33.5568 154.152,29.5568 154.5,25.5C 156.167,25.5 157.833,25.5 159.5,25.5C 159.5,24.5 159.5,23.5 159.5,22.5C 162.95,23.2436 164.616,21.9103 164.5,18.5C 166.833,18.5 169.167,18.5 171.5,18.5C 171.183,15.4281 171.516,12.4281 172.5,9.5C 173.772,8.95401 175.106,8.62068 176.5,8.5C 179.771,9.4671 182.937,9.80043 186,9.5C 186.167,10 186.333,10.5 186.5,11C 185.491,12.1681 184.491,13.3348 183.5,14.5C 181.5,14.8333 179.5,15.1667 177.5,15.5C 178.949,16.1719 180.282,16.8386 181.5,17.5 Z"/></g>
<g><path style="opacity:1" fill="#505052" d="M 165.5,41.5 C 163.833,43.8333 161.833,45.8333 159.5,47.5C 159.5,47.1667 159.5,46.8333 159.5,46.5C 160.5,45.1667 161.5,43.8333 162.5,42.5C 163.391,41.8902 164.391,41.5569 165.5,41.5 Z"/></g>
<g><path style="opacity:1" fill="#8b8b8c" d="M 159.5,46.5 C 159.5,46.8333 159.5,47.1667 159.5,47.5C 158.167,48.1667 157.167,49.1667 156.5,50.5C 155.391,50.5569 154.391,50.8902 153.5,51.5C 153.5,50.8333 153.5,50.1667 153.5,49.5C 155.5,48.5 157.5,47.5 159.5,46.5 Z"/></g>
<g><path style="opacity:1" fill="#e1e2e3" d="M 236.5,44.5 C 238.838,45.4369 241.005,46.7703 243,48.5C 244.261,48.2409 245.261,47.5742 246,46.5C 246.692,47.0253 247.192,47.6919 247.5,48.5C 246.05,49.8498 245.383,51.5165 245.5,53.5C 244.833,53.1667 244.167,52.8333 243.5,52.5C 242.5,50.8333 241.167,49.5 239.5,48.5C 238.5,47.1667 237.5,45.8333 236.5,44.5 Z"/></g>
<g><path style="opacity:1" fill="#555658" d="M 239.5,48.5 C 241.167,49.5 242.5,50.8333 243.5,52.5C 241.167,52.1667 239.833,50.8333 239.5,48.5 Z"/></g>
<g><path style="opacity:1" fill="#7b7b7e" d="M 182.5,24.5 C 182.5,24.1667 182.5,23.8333 182.5,23.5C 184.167,23.5 185.833,23.5 187.5,23.5C 187.83,39.6754 187.496,55.6754 186.5,71.5C 186.5,55.8333 186.5,40.1667 186.5,24.5C 185.167,24.5 183.833,24.5 182.5,24.5 Z"/></g>
<g><path style="opacity:1" fill="#535456" d="M 243.5,52.5 C 244.167,52.8333 244.833,53.1667 245.5,53.5C 247.167,55.5 248.833,57.5 250.5,59.5C 247.167,58.1667 244.833,55.8333 243.5,52.5 Z"/></g>
<g><path style="opacity:1" fill="#505150" d="M 156.5,50.5 C 154.833,52.8333 152.833,54.8333 150.5,56.5C 150.557,55.391 150.89,54.391 151.5,53.5C 152.5,53.1667 153.167,52.5 153.5,51.5C 154.391,50.8902 155.391,50.5569 156.5,50.5 Z"/></g>
<g><path style="opacity:1" fill="#48484b" d="M 181.5,25.5 C 181.5,24.8333 181.833,24.5 182.5,24.5C 183.833,24.5 185.167,24.5 186.5,24.5C 186.5,40.1667 186.5,55.8333 186.5,71.5C 186.5,74.8333 186.5,78.1667 186.5,81.5C 186.167,81.5 185.833,81.5 185.5,81.5C 185.5,62.8333 185.5,44.1667 185.5,25.5C 184.167,25.5 182.833,25.5 181.5,25.5 Z"/></g>
<g><path style="opacity:1" fill="#e1e2e4" d="M 245.5,53.5 C 248.131,54.4776 250.798,55.4776 253.5,56.5C 254.466,58.396 254.799,60.396 254.5,62.5C 253.167,61.5 251.833,60.5 250.5,59.5C 248.833,57.5 247.167,55.5 245.5,53.5 Z"/></g>
<g><path style="opacity:1" fill="#b2b1b4" d="M 182.5,23.5 C 184.265,22.5386 186.265,22.2053 188.5,22.5C 188.667,40.5031 188.5,58.5031 188,76.5C 187.802,78.3817 187.302,80.0484 186.5,81.5C 186.5,78.1667 186.5,74.8333 186.5,71.5C 187.496,55.6754 187.83,39.6754 187.5,23.5C 185.833,23.5 184.167,23.5 182.5,23.5 Z"/></g>
<g><path style="opacity:1" fill="#8e8e8e" d="M 151.5,53.5 C 150.89,54.391 150.557,55.391 150.5,56.5C 149.167,57.1667 148.167,58.1667 147.5,59.5C 146.391,59.5569 145.391,59.8902 144.5,60.5C 146.5,57.8333 148.833,55.5 151.5,53.5 Z"/></g>
<g><path style="opacity:1" fill="#4d4d4f" d="M 147.5,59.5 C 146.5,61.1667 145.167,62.5 143.5,63.5C 143.557,62.391 143.89,61.391 144.5,60.5C 145.391,59.8902 146.391,59.5569 147.5,59.5 Z"/></g>
<g><path style="opacity:1" fill="#494a4f" d="M 250.5,59.5 C 251.833,60.5 253.167,61.5 254.5,62.5C 255.5,63.8333 256.5,65.1667 257.5,66.5C 254.907,65.2464 252.573,63.5798 250.5,61.5C 250.5,60.8333 250.5,60.1667 250.5,59.5 Z"/></g>
<g><path style="opacity:1" fill="#01010a" d="M 250.5,61.5 C 252.573,63.5798 254.907,65.2464 257.5,66.5C 259.472,70.4722 262.472,73.4722 266.5,75.5C 268.472,79.4722 271.472,82.4722 275.5,84.5C 275.5,85.1667 275.5,85.8333 275.5,86.5C 275.692,89.8091 274.359,92.3091 271.5,94C 272.833,97.3333 272.833,100.667 271.5,104C 267.5,104.667 263.5,104.667 259.5,104C 258.62,102.644 258.286,101.144 258.5,99.5C 255.813,99.6641 253.146,99.4974 250.5,99C 249.663,97.9887 249.33,96.8221 249.5,95.5C 247.857,95.5198 246.524,94.8532 245.5,93.5C 244.52,90.9135 244.187,88.2469 244.5,85.5C 241.5,85.8333 240.167,84.5 240.5,81.5C 236.76,82.2585 235.093,80.7585 235.5,77C 235.093,73.2415 236.76,71.7415 240.5,72.5C 239.814,68.3426 241.314,67.0093 245,68.5C 246.059,68.3699 246.892,67.8699 247.5,67C 244.479,66.1512 243.979,64.6512 246,62.5C 248.097,65.2584 249.597,64.9251 250.5,61.5 Z"/></g>
<g><path style="opacity:1" fill="#8d8d8e" d="M 144.5,60.5 C 143.89,61.391 143.557,62.391 143.5,63.5C 142.167,64.1667 141.167,65.1667 140.5,66.5C 139.391,66.5569 138.391,66.8902 137.5,67.5C 139.5,64.8333 141.833,62.5 144.5,60.5 Z"/></g>
<g><path style="opacity:1" fill="#c1c2c5" d="M 254.5,62.5 C 257.5,62.8333 259.167,64.5 259.5,67.5C 258.833,67.1667 258.167,66.8333 257.5,66.5C 256.5,65.1667 255.5,63.8333 254.5,62.5 Z"/></g>
<g><path style="opacity:1" fill="#e2e3e4" d="M 270.5,78.5 C 269.167,77.5 267.833,76.5 266.5,75.5C 264.167,72.8333 261.833,70.1667 259.5,67.5C 261.481,66.6525 263.481,66.1525 265.5,66C 266.167,67.3333 267.167,68.3333 268.5,69C 266.503,70.1531 266.17,71.6531 267.5,73.5C 268.086,73.2907 268.586,72.9574 269,72.5C 269.813,74.4357 270.313,76.4357 270.5,78.5 Z"/></g>
<g><path style="opacity:1" fill="#44444b" d="M 257.5,66.5 C 258.167,66.8333 258.833,67.1667 259.5,67.5C 261.833,70.1667 264.167,72.8333 266.5,75.5C 262.472,73.4722 259.472,70.4722 257.5,66.5 Z"/></g>
<g><path style="opacity:1" fill="#4a4a4b" d="M 140.5,66.5 C 138.167,69.5 135.5,72.1667 132.5,74.5C 132.557,73.391 132.89,72.391 133.5,71.5C 135.167,70.5 136.5,69.1667 137.5,67.5C 138.391,66.8902 139.391,66.5569 140.5,66.5 Z"/></g>
<g><path style="opacity:1" fill="#888888" d="M 131.5,71.5 C 132.167,71.5 132.833,71.5 133.5,71.5C 132.89,72.391 132.557,73.391 132.5,74.5C 130.816,75.5272 129.149,76.5272 127.5,77.5C 128.922,75.4883 130.255,73.4883 131.5,71.5 Z"/></g>
<g><path style="opacity:1" fill="#3f3f41" d="M 266.5,75.5 C 267.833,76.5 269.167,77.5 270.5,78.5C 272.167,80.5 273.833,82.5 275.5,84.5C 271.472,82.4722 268.472,79.4722 266.5,75.5 Z"/></g>
<g><path style="opacity:1" fill="#fcfcf5" d="M 113.5,80.5 C 113.5,81.5 113.5,82.5 113.5,83.5C 114.675,83.281 115.675,83.6143 116.5,84.5C 113.574,85.922 111.074,87.922 109,90.5C 106.544,93.6314 104.044,96.798 101.5,100C 101.011,101.138 100.678,102.305 100.5,103.5C 100.167,103.5 99.8333,103.5 99.5,103.5C 98.0695,103.579 96.7362,103.246 95.5,102.5C 93.5614,104.122 93.228,105.956 94.5,108C 91.715,110.112 90.0483,109.278 89.5,105.5C 88.6858,107.766 88.1858,110.1 88,112.5C 82.076,115.582 80.2426,120.249 82.5,126.5C 82.1667,127.833 81.8333,129.167 81.5,130.5C 80.8333,130.5 80.5,130.833 80.5,131.5C 78.281,132.828 76.9477,134.828 76.5,137.5C 75.5,137.5 74.5,137.5 73.5,137.5C 73.9086,140.855 73.2419,143.855 71.5,146.5C 67.7969,148.208 66.1302,151.208 66.5,155.5C 63.5299,155.254 62.1966,153.588 62.5,150.5C 66.5,149.833 66.5,149.167 62.5,148.5C 62.2339,143.328 63.4006,142.661 66,146.5C 66.1667,146 66.3333,145.5 66.5,145C 63.9745,142.273 63.9745,139.607 66.5,137C 64.8446,135.556 64.178,133.722 64.5,131.5C 67.9103,131.616 69.2436,129.95 68.5,126.5C 67.5,126.5 66.5,126.5 65.5,126.5C 66.1667,123.5 66.8333,120.5 67.5,117.5C 72.1667,117.5 76.8333,117.5 81.5,117.5C 80.489,110.189 80.489,102.855 81.5,95.5C 84.6008,95.3083 87.6008,94.6416 90.5,93.5C 92.5909,89.8215 94.2575,85.9882 95.5,82C 101.642,81.2832 107.642,80.7832 113.5,80.5 Z"/></g>
<g><path style="opacity:1" fill="#828380" d="M 127.5,77.5 C 126.925,79.4113 125.925,81.078 124.5,82.5C 123.391,82.5569 122.391,82.8902 121.5,83.5C 123.118,81.215 125.118,79.215 127.5,77.5 Z"/></g>
<g><path style="opacity:1" fill="#b8b7ba" d="M 270.5,78.5 C 273.789,79.7886 276.122,82.1219 277.5,85.5C 276.833,85.1667 276.167,84.8333 275.5,84.5C 273.833,82.5 272.167,80.5 270.5,78.5 Z"/></g>
<g><path style="opacity:1" fill="#454544" d="M 124.5,82.5 C 122.833,84.8333 120.833,86.8333 118.5,88.5C 118.557,87.391 118.89,86.391 119.5,85.5C 120.5,85.1667 121.167,84.5 121.5,83.5C 122.391,82.8902 123.391,82.5569 124.5,82.5 Z"/></g>
<g><path style="opacity:1" fill="#a5a5a5" d="M 210.5,81.5 C 210.833,81.5 211.167,81.5 211.5,81.5C 212.15,83.4352 212.483,85.4352 212.5,87.5C 211.069,86.2196 210.402,84.5529 210.5,82.5C 210.5,82.1667 210.5,81.8333 210.5,81.5 Z"/></g>
<g><path style="opacity:1" fill="#eeefec" d="M 131.5,71.5 C 130.255,73.4883 128.922,75.4883 127.5,77.5C 125.118,79.215 123.118,81.215 121.5,83.5C 121.167,84.5 120.5,85.1667 119.5,85.5C 116.167,88.1667 113.167,91.1667 110.5,94.5C 107.187,97.4778 103.853,100.478 100.5,103.5C 100.678,102.305 101.011,101.138 101.5,100C 104.044,96.798 106.544,93.6314 109,90.5C 111.074,87.922 113.574,85.922 116.5,84.5C 115.675,83.6143 114.675,83.281 113.5,83.5C 113.5,82.5 113.5,81.5 113.5,80.5C 114.5,80.5 115.5,80.5 116.5,80.5C 117.151,79.9094 117.818,79.2427 118.5,78.5C 119.5,79.1667 120.5,79.8333 121.5,80.5C 121.833,80.1667 122.167,79.8333 122.5,79.5C 120.747,76.8613 120.414,74.1947 121.5,71.5C 123.6,71.5228 125.433,70.8561 127,69.5C 128.3,70.7073 129.8,71.3739 131.5,71.5 Z"/></g>
<g><path style="opacity:1" fill="#cfcfd1" d="M 277.5,85.5 C 279.979,86.9744 282.646,87.9744 285.5,88.5C 285.433,89.9587 285.766,91.2921 286.5,92.5C 285.833,92.5 285.167,92.5 284.5,92.5C 281.833,90.5 279.5,88.1667 277.5,85.5 Z"/></g>
<g><path style="opacity:1" fill="#7f7f7e" d="M 119.5,85.5 C 118.89,86.391 118.557,87.391 118.5,88.5C 116.116,90.8847 113.45,92.8847 110.5,94.5C 113.167,91.1667 116.167,88.1667 119.5,85.5 Z"/></g>
<g><path style="opacity:1" fill="#666667" d="M 211.5,81.5 C 212.117,81.6107 212.617,81.944 213,82.5C 213.497,85.146 213.664,87.8127 213.5,90.5C 213.167,90.5 212.833,90.5 212.5,90.5C 212.5,89.5 212.5,88.5 212.5,87.5C 212.483,85.4352 212.15,83.4352 211.5,81.5 Z"/></g>
<g><path style="opacity:1" fill="#a1a1a2" d="M 185.5,81.5 C 185.833,81.5 186.167,81.5 186.5,81.5C 186.5,82.8333 186.5,84.1667 186.5,85.5C 187.123,90.8252 185.456,95.1585 181.5,98.5C 182.63,96.6854 183.296,94.6854 183.5,92.5C 185.22,89.1108 185.887,85.4441 185.5,81.5 Z"/></g>
<g><path style="opacity:1" fill="#a7a7a9" d="M 212.5,90.5 C 212.833,90.5 213.167,90.5 213.5,90.5C 213.5,90.8333 213.5,91.1667 213.5,91.5C 213.427,93.0269 214.094,94.0269 215.5,94.5C 215.5,95.1667 215.5,95.8333 215.5,96.5C 215.5,97.1667 215.5,97.8333 215.5,98.5C 215.167,98.5 214.833,98.5 214.5,98.5C 213.361,95.9963 212.694,93.3297 212.5,90.5 Z"/></g>
<g><path style="opacity:1" fill="#4c4c4e" d="M 213.5,91.5 C 214.906,91.9731 215.573,92.9731 215.5,94.5C 214.094,94.0269 213.427,93.0269 213.5,91.5 Z"/></g>
<g><path style="opacity:1" fill="#1a1a1d" d="M 275.5,84.5 C 276.167,84.8333 276.833,85.1667 277.5,85.5C 279.5,88.1667 281.833,90.5 284.5,92.5C 285.11,93.391 285.443,94.391 285.5,95.5C 282.114,96.6756 279.948,95.3423 279,91.5C 278.667,91.8333 278.333,92.1667 278,92.5C 277.508,91.451 277.674,90.451 278.5,89.5C 277.452,88.452 276.452,87.452 275.5,86.5C 275.5,85.8333 275.5,85.1667 275.5,84.5 Z"/></g>
<g><path style="opacity:1" fill="#e5e4e6" d="M 286.5,92.5 C 287.552,92.3505 288.552,92.5172 289.5,93C 290.682,95.2614 292.349,97.0947 294.5,98.5C 295.086,98.2907 295.586,97.9574 296,97.5C 296.252,99.378 296.919,101.378 298,103.5C 301.09,101.894 301.924,102.56 300.5,105.5C 301.187,107.177 301.854,108.844 302.5,110.5C 300.5,108.833 298.5,107.167 296.5,105.5C 295.5,104.167 294.5,102.833 293.5,101.5C 292.522,98.5222 290.522,96.5222 287.5,95.5C 286.89,94.609 286.557,93.609 286.5,92.5 Z"/></g>
<g><path style="opacity:1" fill="#7f7f81" d="M 284.5,92.5 C 285.167,92.5 285.833,92.5 286.5,92.5C 286.557,93.609 286.89,94.609 287.5,95.5C 286.833,95.5 286.167,95.5 285.5,95.5C 285.443,94.391 285.11,93.391 284.5,92.5 Z"/></g>
<g><path style="opacity:1" fill="#434345" d="M 183.5,92.5 C 183.296,94.6854 182.63,96.6854 181.5,98.5C 181.167,98.5 180.833,98.5 180.5,98.5C 180.654,96.0301 181.654,94.0301 183.5,92.5 Z"/></g>
<g><path style="opacity:1" fill="#97979a" d="M 287.5,95.5 C 290.522,96.5222 292.522,98.5222 293.5,101.5C 291.118,99.785 289.118,97.785 287.5,95.5 Z"/></g>
<g><path style="opacity:1" fill="#676769" d="M 215.5,96.5 C 216.906,96.9731 217.573,97.9731 217.5,99.5C 216.833,99.1667 216.167,98.8333 215.5,98.5C 215.5,97.8333 215.5,97.1667 215.5,96.5 Z"/></g>
<g><path style="opacity:1" fill="#dbdbdd" d="M 214.5,98.5 C 214.833,98.5 215.167,98.5 215.5,98.5C 216.167,98.8333 216.833,99.1667 217.5,99.5C 218.075,101.411 219.075,103.078 220.5,104.5C 221.075,106.411 222.075,108.078 223.5,109.5C 220.295,108.306 217.629,106.306 215.5,103.5C 214.691,101.929 214.357,100.262 214.5,98.5 Z"/></g>
<g><path style="opacity:1" fill="#7d7d7f" d="M 180.5,98.5 C 180.833,98.5 181.167,98.5 181.5,98.5C 181.608,100.514 180.942,102.18 179.5,103.5C 179.167,103.5 178.833,103.5 178.5,103.5C 178.365,101.446 179.032,99.7791 180.5,98.5 Z"/></g>
<g><path style="opacity:1" fill="#636365" d="M 220.5,104.5 C 222.86,105.865 224.527,107.865 225.5,110.5C 224.833,110.167 224.167,109.833 223.5,109.5C 222.075,108.078 221.075,106.411 220.5,104.5 Z"/></g>
<g><path style="opacity:1" fill="#5b5b5e" d="M 296.5,105.5 C 298.5,107.167 300.5,108.833 302.5,110.5C 302.833,111.5 303.5,112.167 304.5,112.5C 304.5,113.167 304.5,113.833 304.5,114.5C 301.097,112.1 298.43,109.1 296.5,105.5 Z"/></g>
<g><path style="opacity:1" fill="#eeefed" d="M 99.5,103.5 C 96.5,108.167 93.5,112.833 90.5,117.5C 88.1,119.296 86.4333,121.63 85.5,124.5C 84.2223,124.782 83.2223,125.449 82.5,126.5C 80.2426,120.249 82.076,115.582 88,112.5C 88.1858,110.1 88.6858,107.766 89.5,105.5C 90.0483,109.278 91.715,110.112 94.5,108C 93.228,105.956 93.5614,104.122 95.5,102.5C 96.7362,103.246 98.0695,103.579 99.5,103.5 Z"/></g>
<g><path style="opacity:1" fill="#ccccce" d="M 178.5,103.5 C 178.833,103.5 179.167,103.5 179.5,103.5C 178.458,106.93 176.458,109.597 173.5,111.5C 174.075,109.589 175.075,107.922 176.5,106.5C 176.427,104.973 177.094,103.973 178.5,103.5 Z"/></g>
<g><path style="opacity:1" fill="#606161" d="M 225.5,110.5 C 227.833,110.833 229.167,112.167 229.5,114.5C 227.833,113.5 226.5,112.167 225.5,110.5 Z"/></g>
<g><path style="opacity:1" fill="#858488" d="M 176.5,106.5 C 175.075,107.922 174.075,109.589 173.5,111.5C 171.155,114.177 168.488,116.51 165.5,118.5C 165.5,118.167 165.5,117.833 165.5,117.5C 168.635,114.192 171.635,110.692 174.5,107C 175.094,106.536 175.761,106.369 176.5,106.5 Z"/></g>
<g><path style="opacity:1" fill="#6a6a6c" d="M 110.5,94.5 C 104.322,102.59 97.6556,110.256 90.5,117.5C 93.5,112.833 96.5,108.167 99.5,103.5C 99.8333,103.5 100.167,103.5 100.5,103.5C 103.853,100.478 107.187,97.4778 110.5,94.5 Z"/></g>
<g><path style="opacity:1" fill="#cececf" d="M 304.5,112.5 C 305.5,112.5 306.5,112.5 307.5,112.5C 307.4,115.108 308.067,117.442 309.5,119.5C 308.833,119.167 308.167,118.833 307.5,118.5C 306.5,117.167 305.5,115.833 304.5,114.5C 304.5,113.833 304.5,113.167 304.5,112.5 Z"/></g>
<g><path style="opacity:1" fill="#616463" d="M 229.5,114.5 C 232.833,115.833 235.167,118.167 236.5,121.5C 233.833,119.5 231.5,117.167 229.5,114.5 Z"/></g>
<g><path style="opacity:1" fill="#6c6c6c" d="M 90.5,117.5 C 89.5667,120.37 87.9,122.704 85.5,124.5C 86.4333,121.63 88.1,119.296 90.5,117.5 Z"/></g>
<g><path style="opacity:1" fill="#ecefef" d="M 223.5,109.5 C 224.167,109.833 224.833,110.167 225.5,110.5C 226.5,112.167 227.833,113.5 229.5,114.5C 231.5,117.167 233.833,119.5 236.5,121.5C 237.833,123.5 239.5,125.167 241.5,126.5C 241.5,126.833 241.5,127.167 241.5,127.5C 238.34,127.338 235.84,126.004 234,123.5C 231.492,127.414 228.992,127.414 226.5,123.5C 227.522,120.243 226.522,117.576 223.5,115.5C 219.774,117.571 219.608,116.904 223,113.5C 223.49,112.207 223.657,110.873 223.5,109.5 Z"/></g>
<g><path style="opacity:1" fill="#535353" d="M 165.5,117.5 C 165.5,117.833 165.5,118.167 165.5,118.5C 163.833,119.5 162.5,120.833 161.5,122.5C 160.5,123.167 159.5,123.833 158.5,124.5C 159.833,121.167 162.167,118.833 165.5,117.5 Z"/></g>
<g><path style="opacity:1" fill="#dddce0" d="M 311.5,121.5 C 312.5,121.5 313.5,121.5 314.5,121.5C 316.107,123.529 316.94,126.529 317,130.5C 318.352,132.432 320.185,133.766 322.5,134.5C 321.807,135.518 321.141,136.518 320.5,137.5C 319.542,137.047 318.708,136.381 318,135.5C 315.999,130.693 313.832,126.027 311.5,121.5 Z"/></g>
<g><path style="opacity:1" fill="#4e5150" d="M 236.5,121.5 C 239.5,121.833 241.167,123.5 241.5,126.5C 239.5,125.167 237.833,123.5 236.5,121.5 Z"/></g>
<g><path style="opacity:1" fill="#5e5d62" d="M 307.5,118.5 C 308.167,118.833 308.833,119.167 309.5,119.5C 309.833,120.5 310.5,121.167 311.5,121.5C 313.832,126.027 315.999,130.693 318,135.5C 318.708,136.381 319.542,137.047 320.5,137.5C 321.088,140.063 322.088,142.396 323.5,144.5C 324.15,146.435 324.483,148.435 324.5,150.5C 324.167,150.5 323.833,150.5 323.5,150.5C 322.187,146.459 320.687,142.459 319,138.5C 314.738,132.029 310.905,125.363 307.5,118.5 Z"/></g>
<g><path style="opacity:1" fill="#4d4d4d" d="M 158.5,124.5 C 157.833,125.5 157.167,126.5 156.5,127.5C 155.391,127.557 154.391,127.89 153.5,128.5C 154.539,126.469 156.205,125.136 158.5,124.5 Z"/></g>
<g><path style="opacity:1" fill="#b7b7b7" d="M 161.5,122.5 C 160.833,125.167 159.167,126.833 156.5,127.5C 157.167,126.5 157.833,125.5 158.5,124.5C 159.5,123.833 160.5,123.167 161.5,122.5 Z"/></g>
<g><path style="opacity:1" fill="#6a6c6b" d="M 241.5,127.5 C 241.5,127.167 241.5,126.833 241.5,126.5C 246.167,129.167 249.833,132.833 252.5,137.5C 248.833,134.167 245.167,130.833 241.5,127.5 Z"/></g>
<g><path style="opacity:1" fill="#939294" d="M 156.5,127.5 C 155.5,129.167 154.167,130.5 152.5,131.5C 152.557,130.391 152.89,129.391 153.5,128.5C 154.391,127.89 155.391,127.557 156.5,127.5 Z"/></g>
<g><path style="opacity:1" fill="#7c7c7b" d="M 85.5,124.5 C 85.0713,127.147 83.7379,129.147 81.5,130.5C 81.8333,129.167 82.1667,127.833 82.5,126.5C 83.2223,125.449 84.2223,124.782 85.5,124.5 Z"/></g>
<g><path style="opacity:1" fill="#82807b" d="M 81.5,130.5 C 81.7709,132.38 81.1042,133.713 79.5,134.5C 79.5569,133.391 79.8902,132.391 80.5,131.5C 80.5,130.833 80.8333,130.5 81.5,130.5 Z"/></g>
<g><path style="opacity:1" fill="#5c5b60" d="M 153.5,128.5 C 152.89,129.391 152.557,130.391 152.5,131.5C 150.833,132.833 149.167,134.167 147.5,135.5C 148.81,132.527 150.81,130.193 153.5,128.5 Z"/></g>
<g><path style="opacity:1" fill="#dddad9" d="M 80.5,131.5 C 79.8902,132.391 79.5569,133.391 79.5,134.5C 79.5,135.167 79.5,135.833 79.5,136.5C 78.0937,136.973 77.427,137.973 77.5,139.5C 76.1103,140.899 75.1103,142.566 74.5,144.5C 74.5,145.167 74.5,145.833 74.5,146.5C 72.8235,147.183 72.1568,148.517 72.5,150.5C 72.1667,150.5 71.8333,150.5 71.5,150.5C 71.5,149.167 71.5,147.833 71.5,146.5C 73.2419,143.855 73.9086,140.855 73.5,137.5C 74.5,137.5 75.5,137.5 76.5,137.5C 76.9477,134.828 78.281,132.828 80.5,131.5 Z"/></g>
<g><path style="opacity:1" fill="#5a5655" d="M 79.5,136.5 C 79.573,138.027 78.9063,139.027 77.5,139.5C 77.427,137.973 78.0937,136.973 79.5,136.5 Z"/></g>
<g><path style="opacity:1" fill="#c9c9cb" d="M 152.5,131.5 C 149.21,137.491 144.543,142.158 138.5,145.5C 138.5,145.167 138.5,144.833 138.5,144.5C 138.5,143.167 139.167,142.5 140.5,142.5C 142.833,140.167 145.167,137.833 147.5,135.5C 149.167,134.167 150.833,132.833 152.5,131.5 Z"/></g>
<g><path style="opacity:1" fill="#5a5d5c" d="M 252.5,137.5 C 255.05,138.057 257.05,139.39 258.5,141.5C 259.11,142.391 259.443,143.391 259.5,144.5C 256.833,142.5 254.5,140.167 252.5,137.5 Z"/></g>
<g><path style="opacity:1" fill="#606063" d="M 147.5,135.5 C 145.167,137.833 142.833,140.167 140.5,142.5C 141.5,138.833 143.833,136.5 147.5,135.5 Z"/></g>
<g><path style="opacity:1" fill="#2b2f2e" d="M 258.5,141.5 C 259.496,141.414 260.329,141.748 261,142.5C 262.122,144.42 262.956,146.42 263.5,148.5C 261.833,147.5 260.5,146.167 259.5,144.5C 259.443,143.391 259.11,142.391 258.5,141.5 Z"/></g>
<g><path style="opacity:1" fill="#716e6f" d="M 77.5,139.5 C 77.7593,141.989 76.7593,143.656 74.5,144.5C 75.1103,142.566 76.1103,140.899 77.5,139.5 Z"/></g>
<g><path style="opacity:1" fill="#c4c4c4" d="M 186.5,151.5 C 184.468,150.952 183.468,149.619 183.5,147.5C 181.821,147.715 180.821,147.048 180.5,145.5C 179.01,143.72 177.01,143.054 174.5,143.5C 174.5,145.5 174.5,147.5 174.5,149.5C 174.167,149.5 173.833,149.5 173.5,149.5C 172.546,141.072 175.379,139.405 182,144.5C 184.02,146.551 185.52,148.884 186.5,151.5 Z"/></g>
<g><path style="opacity:1" fill="#5f5f62" d="M 138.5,144.5 C 138.5,144.833 138.5,145.167 138.5,145.5C 136.833,146.833 135.167,148.167 133.5,149.5C 134.167,146.833 135.833,145.167 138.5,144.5 Z"/></g>
<g><path style="opacity:1" fill="#2a2a2a" d="M 178.5,145.5 C 179.167,145.5 179.833,145.5 180.5,145.5C 180.821,147.048 181.821,147.715 183.5,147.5C 183.468,149.619 184.468,150.952 186.5,151.5C 187.167,152.5 187.833,153.5 188.5,154.5C 185.75,153.256 183.417,151.423 181.5,149C 180.552,148.517 179.552,148.351 178.5,148.5C 178.5,147.5 178.5,146.5 178.5,145.5 Z"/></g>
<g><path style="opacity:1" fill="#7a7579" d="M 74.5,146.5 C 74.3404,148.153 73.6737,149.486 72.5,150.5C 72.1568,148.517 72.8235,147.183 74.5,146.5 Z"/></g>
<g><path style="opacity:1" fill="#616065" d="M 133.5,149.5 C 133.443,150.609 133.11,151.609 132.5,152.5C 131.833,152.833 131.167,153.167 130.5,153.5C 130.738,151.596 131.738,150.262 133.5,149.5 Z"/></g>
<g><path style="opacity:1" fill="#dbdbdb" d="M 173.5,149.5 C 173.833,149.5 174.167,149.5 174.5,149.5C 174.333,166.17 174.5,182.837 175,199.5C 175.183,202.365 175.683,205.031 176.5,207.5C 176.5,208.5 176.5,209.5 176.5,210.5C 176.614,212.718 177.28,214.718 178.5,216.5C 177.504,216.586 176.671,216.252 176,215.5C 175.427,211.152 174.76,206.819 174,202.5C 173.5,184.836 173.333,167.17 173.5,149.5 Z"/></g>
<g><path style="opacity:1" fill="#b0b0b2" d="M 323.5,144.5 C 325.095,146.111 326.261,148.111 327,150.5C 327.495,152.473 327.662,154.473 327.5,156.5C 326.508,154.544 325.508,152.544 324.5,150.5C 324.483,148.435 324.15,146.435 323.5,144.5 Z"/></g>
<g><path style="opacity:1" fill="#bbbabb" d="M 71.5,151.5 C 71.0074,153.806 70.6741,156.139 70.5,158.5C 70.1667,158.5 69.8333,158.5 69.5,158.5C 69.1706,155.772 69.8372,153.438 71.5,151.5 Z"/></g>
<g><path style="opacity:1" fill="#353535" d="M 178.5,145.5 C 177.503,166.994 177.169,188.66 177.5,210.5C 177.167,210.5 176.833,210.5 176.5,210.5C 176.5,209.5 176.5,208.5 176.5,207.5C 176.775,186.477 176.442,165.477 175.5,144.5C 176.791,144.263 177.791,144.596 178.5,145.5 Z"/></g>
<g><path style="opacity:1" fill="#9d9d9c" d="M 263.5,149.5 C 265.121,151.264 266.454,153.264 267.5,155.5C 267.5,156.167 267.5,156.833 267.5,157.5C 265.229,155.388 263.896,152.721 263.5,149.5 Z"/></g>
<g><path style="opacity:1" fill="#9a9a98" d="M 190.5,155.5 C 192.5,155.5 193.5,156.5 193.5,158.5C 192.167,157.833 191.167,156.833 190.5,155.5 Z"/></g>
<g><path style="opacity:1" fill="#5c5c5d" d="M 130.5,153.5 C 130.011,154.995 129.345,156.329 128.5,157.5C 128.157,155.517 128.824,154.183 130.5,153.5 Z"/></g>
<g><path style="opacity:1" fill="#545355" d="M 71.5,150.5 C 71.8333,150.5 72.1667,150.5 72.5,150.5C 72.6633,152.857 72.4966,155.19 72,157.5C 71.6174,158.056 71.1174,158.389 70.5,158.5C 70.6741,156.139 71.0074,153.806 71.5,151.5C 71.5,151.167 71.5,150.833 71.5,150.5 Z"/></g>
<g><path style="opacity:1" fill="#333331" d="M 189.5,154.5 C 190.167,154.5 190.5,154.833 190.5,155.5C 191.167,156.833 192.167,157.833 193.5,158.5C 193.5,158.833 193.5,159.167 193.5,159.5C 190.516,159.213 189.183,157.546 189.5,154.5 Z"/></g>
<g><path style="opacity:1" fill="#656565" d="M 128.5,157.5 C 128.573,159.027 127.906,160.027 126.5,160.5C 126.427,158.973 127.094,157.973 128.5,157.5 Z"/></g>
<g><path style="opacity:1" fill="#bbbbbc" d="M 132.5,152.5 C 132.17,156.021 130.67,159.021 128,161.5C 126.012,165.296 124.512,169.296 123.5,173.5C 123.167,173.5 122.833,173.5 122.5,173.5C 122.5,172.5 122.5,171.5 122.5,170.5C 123.73,168.703 124.396,166.703 124.5,164.5C 126.104,163.713 126.771,162.38 126.5,160.5C 127.906,160.027 128.573,159.027 128.5,157.5C 129.345,156.329 130.011,154.995 130.5,153.5C 131.167,153.167 131.833,152.833 132.5,152.5 Z"/></g>
<g><path style="opacity:1" fill="#eeeeec" d="M 186.5,151.5 C 189.054,152.606 191.721,153.439 194.5,154C 195.329,155.816 196.163,157.649 197,159.5C 198.987,160.218 200.821,161.218 202.5,162.5C 205.267,159.906 207.6,160.406 209.5,164C 207.723,166.152 206.223,165.985 205,163.5C 204.517,164.448 204.351,165.448 204.5,166.5C 203.167,166.167 201.833,165.833 200.5,165.5C 200.5,163.5 199.5,162.5 197.5,162.5C 196.167,161.5 194.833,160.5 193.5,159.5C 193.5,159.167 193.5,158.833 193.5,158.5C 193.5,156.5 192.5,155.5 190.5,155.5C 190.5,154.833 190.167,154.5 189.5,154.5C 189.167,154.5 188.833,154.5 188.5,154.5C 187.833,153.5 187.167,152.5 186.5,151.5 Z"/></g>
<g><path style="opacity:1" fill="#9e9da1" d="M 327.5,158.5 C 329.213,159.635 329.88,161.302 329.5,163.5C 328.463,162.07 327.796,160.403 327.5,158.5 Z"/></g>
<g><path style="opacity:1" fill="#2e2e2d" d="M 193.5,159.5 C 194.833,160.5 196.167,161.5 197.5,162.5C 197.833,163.167 198.167,163.833 198.5,164.5C 195.5,164.167 193.833,162.5 193.5,159.5 Z"/></g>
<g><path style="opacity:1" fill="#a4a4a2" d="M 197.5,162.5 C 199.5,162.5 200.5,163.5 200.5,165.5C 199.833,165.167 199.167,164.833 198.5,164.5C 198.167,163.833 197.833,163.167 197.5,162.5 Z"/></g>
<g><path style="opacity:1" fill="#565656" d="M 126.5,160.5 C 126.771,162.38 126.104,163.713 124.5,164.5C 124.66,162.847 125.326,161.514 126.5,160.5 Z"/></g>
<g><path style="opacity:1" fill="#444447" d="M 323.5,150.5 C 323.833,150.5 324.167,150.5 324.5,150.5C 325.508,152.544 326.508,154.544 327.5,156.5C 327.5,157.167 327.5,157.833 327.5,158.5C 327.796,160.403 328.463,162.07 329.5,163.5C 329.5,163.833 329.5,164.167 329.5,164.5C 331.264,169.644 331.931,174.977 331.5,180.5C 332.089,187.485 332.422,194.485 332.5,201.5C 331.617,206.103 331.283,210.77 331.5,215.5C 331.167,215.5 330.833,215.5 330.5,215.5C 330.667,200.496 330.5,185.496 330,170.5C 329.034,167.356 327.701,164.356 326,161.5C 325.379,157.75 324.546,154.084 323.5,150.5 Z"/></g>
<g><path style="opacity:1" fill="#bbbbbb" d="M 69.5,159.5 C 67.7476,163.227 67.081,167.227 67.5,171.5C 66.7321,172.263 66.2321,173.263 66,174.5C 65.5002,184.161 65.3335,193.828 65.5,203.5C 64.5093,197.021 64.176,190.354 64.5,183.5C 64.14,175.999 64.9733,168.665 67,161.5C 67.7083,160.619 68.5416,159.953 69.5,159.5 Z"/></g>
<g><path style="opacity:1" fill="#6a6a6b" d="M 69.5,158.5 C 69.8333,158.5 70.1667,158.5 70.5,158.5C 69.2558,162.827 68.2558,167.161 67.5,171.5C 67.081,167.227 67.7476,163.227 69.5,159.5C 69.5,159.167 69.5,158.833 69.5,158.5 Z"/></g>
<g><path style="opacity:1" fill="#afafae" d="M 200.5,165.5 C 201.833,165.833 203.167,166.167 204.5,166.5C 204.5,167.5 204.5,168.5 204.5,169.5C 203.833,169.167 203.167,168.833 202.5,168.5C 201.833,167.5 201.167,166.5 200.5,165.5 Z"/></g>
<g><path style="opacity:1" fill="#313132" d="M 202.5,168.5 C 203.167,168.833 203.833,169.167 204.5,169.5C 205.262,171.262 206.596,172.262 208.5,172.5C 208.285,174.179 208.952,175.179 210.5,175.5C 210.833,175.5 211.167,175.5 211.5,175.5C 213.252,177.246 214.585,179.246 215.5,181.5C 211.128,178.643 207.128,175.309 203.5,171.5C 202.873,170.583 202.539,169.583 202.5,168.5 Z"/></g>
<g><path style="opacity:1" fill="#cbcbcb" d="M 204.5,169.5 C 206.58,170.044 208.58,170.878 210.5,172C 211.337,173.011 211.67,174.178 211.5,175.5C 211.167,175.5 210.833,175.5 210.5,175.5C 210.068,174.29 209.401,173.29 208.5,172.5C 206.596,172.262 205.262,171.262 204.5,169.5 Z"/></g>
<g><path style="opacity:1" fill="#727272" d="M 208.5,172.5 C 209.401,173.29 210.068,174.29 210.5,175.5C 208.952,175.179 208.285,174.179 208.5,172.5 Z"/></g>
<g><path style="opacity:1" fill="#909090" d="M 180.5,145.5 C 179.833,145.5 179.167,145.5 178.5,145.5C 177.791,144.596 176.791,144.263 175.5,144.5C 176.442,165.477 176.775,186.477 176.5,207.5C 175.683,205.031 175.183,202.365 175,199.5C 174.5,182.837 174.333,166.17 174.5,149.5C 174.5,147.5 174.5,145.5 174.5,143.5C 177.01,143.054 179.01,143.72 180.5,145.5 Z"/></g>
<g><path style="opacity:1" fill="#5f5f5f" d="M 67.5,171.5 C 66.5843,183.469 66.251,195.469 66.5,207.5C 66.1667,207.5 65.8333,207.5 65.5,207.5C 65.5,206.167 65.5,204.833 65.5,203.5C 65.3335,193.828 65.5002,184.161 66,174.5C 66.2321,173.263 66.7321,172.263 67.5,171.5 Z"/></g>
<g><path style="opacity:1" fill="#818181" d="M 122.5,170.5 C 122.5,171.5 122.5,172.5 122.5,173.5C 122.663,175.857 122.497,178.19 122,180.5C 121.617,181.056 121.117,181.389 120.5,181.5C 120.366,179.708 120.699,178.042 121.5,176.5C 121.205,174.265 121.539,172.265 122.5,170.5 Z"/></g>
<g><path style="opacity:1" fill="#d8d8da" d="M 211.5,175.5 C 214.735,176.267 216.901,178.267 218,181.5C 219.587,180.273 220.921,180.606 222,182.5C 222.494,184.134 222.66,185.801 222.5,187.5C 220.167,185.5 217.833,183.5 215.5,181.5C 214.585,179.246 213.252,177.246 211.5,175.5 Z"/></g>
<g><path style="opacity:1" fill="#4e4e4e" d="M 121.5,176.5 C 120.699,178.042 120.366,179.708 120.5,181.5C 120.5,182.167 120.5,182.833 120.5,183.5C 120.167,183.5 119.833,183.5 119.5,183.5C 118.99,180.612 119.656,178.279 121.5,176.5 Z"/></g>
<g><path style="opacity:1" fill="#cbcbcb" d="M 271.5,166.5 C 272.315,167.429 273.148,168.429 274,169.5C 277.13,184.37 277.296,199.37 274.5,214.5C 274.5,214.833 274.5,215.167 274.5,215.5C 274.167,215.5 273.833,215.5 273.5,215.5C 273.684,208.049 274.35,200.716 275.5,193.5C 274.645,184.435 273.312,175.435 271.5,166.5 Z"/></g>
<g><path style="opacity:1" fill="#c8c8ca" d="M 222.5,187.5 C 223.833,187.5 225.167,187.5 226.5,187.5C 226.5,188.5 226.5,189.5 226.5,190.5C 225.391,190.443 224.391,190.11 223.5,189.5C 223.167,188.833 222.833,188.167 222.5,187.5 Z"/></g>
<g><path style="opacity:1" fill="#636363" d="M 267.5,155.5 C 268.458,155.953 269.292,156.619 270,157.5C 273.431,163.035 275.764,169.035 277,175.5C 277.667,187.167 277.667,198.833 277,210.5C 276.392,212.066 275.558,213.4 274.5,214.5C 277.296,199.37 277.13,184.37 274,169.5C 273.148,168.429 272.315,167.429 271.5,166.5C 270.941,163.057 269.607,160.057 267.5,157.5C 267.5,156.833 267.5,156.167 267.5,155.5 Z"/></g>
<g><path style="opacity:1" fill="#2f2f30" d="M 119.5,185.5 C 118.327,190.191 118.327,194.858 119.5,199.5C 118.883,199.389 118.383,199.056 118,198.5C 117.833,196.667 117.667,194.833 117.5,193C 117.3,190.134 117.967,187.634 119.5,185.5 Z"/></g>
<g><path style="opacity:1" fill="#d9d9da" d="M 329.5,164.5 C 330.931,164.881 331.764,165.881 332,167.5C 334.372,182.741 335.039,198.074 334,213.5C 333.057,216.251 332.224,218.917 331.5,221.5C 331.5,219.5 331.5,217.5 331.5,215.5C 331.283,210.77 331.617,206.103 332.5,201.5C 333.164,199.022 333.497,196.355 333.5,193.5C 333.621,188.907 332.954,184.574 331.5,180.5C 331.931,174.977 331.264,169.644 329.5,164.5 Z"/></g>
<g><path style="opacity:1" fill="#717171" d="M 119.5,183.5 C 119.833,183.5 120.167,183.5 120.5,183.5C 120.5,190.167 120.5,196.833 120.5,203.5C 120.167,203.5 119.833,203.5 119.5,203.5C 119.5,202.167 119.5,200.833 119.5,199.5C 118.327,194.858 118.327,190.191 119.5,185.5C 119.5,184.833 119.5,184.167 119.5,183.5 Z"/></g>
<g><path style="opacity:1" fill="#27272a" d="M 223.5,189.5 C 224.391,190.11 225.391,190.443 226.5,190.5C 226.285,192.179 226.952,193.179 228.5,193.5C 229.833,194.167 230.833,195.167 231.5,196.5C 232.5,197.833 233.5,199.167 234.5,200.5C 232.508,200.672 230.842,200.005 229.5,198.5C 226.684,196.022 224.684,193.022 223.5,189.5 Z"/></g>
<g><path style="opacity:1" fill="#7a7a7d" d="M 226.5,190.5 C 227.401,191.29 228.068,192.29 228.5,193.5C 226.952,193.179 226.285,192.179 226.5,190.5 Z"/></g>
<g><path style="opacity:1" fill="#98989b" d="M 331.5,180.5 C 332.954,184.574 333.621,188.907 333.5,193.5C 333.497,196.355 333.164,199.022 332.5,201.5C 332.422,194.485 332.089,187.485 331.5,180.5 Z"/></g>
<g><path style="opacity:1" fill="#e0e0e0" d="M 64.5,183.5 C 64.176,190.354 64.5093,197.021 65.5,203.5C 65.5,204.833 65.5,206.167 65.5,207.5C 64.9455,211.012 65.6122,214.012 67.5,216.5C 67.5,219.5 67.5,222.5 67.5,225.5C 66.5902,223.981 65.7568,222.315 65,220.5C 64.3204,212.32 63.4871,204.153 62.5,196C 62.6667,192.833 62.8333,189.667 63,186.5C 63.2321,185.263 63.7321,184.263 64.5,183.5 Z"/></g>
<g><path style="opacity:1" fill="#dfdfdf" d="M 122.5,173.5 C 122.833,173.5 123.167,173.5 123.5,173.5C 122.987,180.022 122.32,186.522 121.5,193C 122.624,200.134 123.29,207.301 123.5,214.5C 123.167,214.5 122.833,214.5 122.5,214.5C 122.758,210.633 122.092,206.966 120.5,203.5C 120.5,196.833 120.5,190.167 120.5,183.5C 120.5,182.833 120.5,182.167 120.5,181.5C 121.117,181.389 121.617,181.056 122,180.5C 122.497,178.19 122.663,175.857 122.5,173.5 Z"/></g>
<g><path style="opacity:1" fill="#99999b" d="M 231.5,196.5 C 233.749,197.08 235.415,198.413 236.5,200.5C 236.5,200.833 236.5,201.167 236.5,201.5C 235.833,201.167 235.167,200.833 234.5,200.5C 233.5,199.167 232.5,197.833 231.5,196.5 Z"/></g>
<g><path style="opacity:1" fill="#dcdcde" d="M 236.5,201.5 C 236.5,201.167 236.5,200.833 236.5,200.5C 240.991,201.316 243.991,203.982 245.5,208.5C 244.5,207.833 243.5,207.167 242.5,206.5C 241.508,206.672 240.842,206.338 240.5,205.5C 240.167,203.167 238.833,201.833 236.5,201.5 Z"/></g>
<g><path style="opacity:1" fill="#8a8a8c" d="M 236.5,201.5 C 238.833,201.833 240.167,203.167 240.5,205.5C 238.833,204.5 237.5,203.167 236.5,201.5 Z"/></g>
<g><path style="opacity:1" fill="#414141" d="M 119.5,203.5 C 119.833,203.5 120.167,203.5 120.5,203.5C 122.092,206.966 122.758,210.633 122.5,214.5C 122.833,215.833 123.167,217.167 123.5,218.5C 121.728,213.839 120.394,208.839 119.5,203.5 Z"/></g>
<g><path style="opacity:1" fill="#616163" d="M 242.5,206.5 C 243.5,207.167 244.5,207.833 245.5,208.5C 245.557,209.609 245.89,210.609 246.5,211.5C 244.071,210.735 242.738,209.069 242.5,206.5 Z"/></g>
<g><path style="opacity:1" fill="#202022" d="M 177.5,210.5 C 178.496,210.414 179.329,210.748 180,211.5C 180.561,214.279 181.394,216.946 182.5,219.5C 181.5,218.833 180.5,218.167 179.5,217.5C 179.6,214.892 178.933,212.558 177.5,210.5 Z"/></g>
<g><path style="opacity:1" fill="#99999a" d="M 248.5,212.5 C 250.144,212.81 251.144,213.81 251.5,215.5C 249.856,215.19 248.856,214.19 248.5,212.5 Z"/></g>
<g><path style="opacity:1" fill="#9d9d9d" d="M 65.5,207.5 C 65.8333,207.5 66.1667,207.5 66.5,207.5C 66.5,208.167 66.5,208.833 66.5,209.5C 66.9926,211.806 67.3259,214.139 67.5,216.5C 65.6122,214.012 64.9455,211.012 65.5,207.5 Z"/></g>
<g><path style="opacity:1" fill="#939395" d="M 176.5,210.5 C 176.833,210.5 177.167,210.5 177.5,210.5C 178.933,212.558 179.6,214.892 179.5,217.5C 178.833,217.5 178.5,217.167 178.5,216.5C 177.28,214.718 176.614,212.718 176.5,210.5 Z"/></g>
<g><path style="opacity:1" fill="#9a9a9c" d="M 252.5,216.5 C 256.438,219.098 260.105,222.098 263.5,225.5C 265.265,226.461 267.265,226.795 269.5,226.5C 267.735,227.461 265.735,227.795 263.5,227.5C 260.167,224.5 256.833,221.5 253.5,218.5C 253.167,217.833 252.833,217.167 252.5,216.5 Z"/></g>
<g><path style="opacity:1" fill="#4f4f51" d="M 251.5,215.5 C 252.167,215.5 252.5,215.833 252.5,216.5C 252.833,217.167 253.167,217.833 253.5,218.5C 251.952,218.179 251.285,217.179 251.5,215.5 Z"/></g>
<g><path style="opacity:1" fill="#5b5b5d" d="M 66.5,209.5 C 67.2216,209.918 67.7216,210.584 68,211.5C 68.4992,216.155 68.6658,220.821 68.5,225.5C 68.1667,225.5 67.8333,225.5 67.5,225.5C 67.5,222.5 67.5,219.5 67.5,216.5C 67.3259,214.139 66.9926,211.806 66.5,209.5 Z"/></g>
<g><path style="opacity:1" fill="#5c5c5e" d="M 273.5,215.5 C 273.833,215.5 274.167,215.5 274.5,215.5C 274.771,217.38 274.104,218.713 272.5,219.5C 272.833,218.167 273.167,216.833 273.5,215.5 Z"/></g>
<g><path style="opacity:1" fill="#cdcdcf" d="M 273.5,215.5 C 273.167,216.833 272.833,218.167 272.5,219.5C 272.5,220.167 272.5,220.833 272.5,221.5C 271.326,222.514 270.66,223.847 270.5,225.5C 269.833,225.5 269.5,225.833 269.5,226.5C 267.265,226.795 265.265,226.461 263.5,225.5C 265.288,225.785 266.955,225.452 268.5,224.5C 269.422,220.981 271.088,217.981 273.5,215.5 Z"/></g>
<g><path style="opacity:1" fill="#949494" d="M 330.5,215.5 C 330.833,215.5 331.167,215.5 331.5,215.5C 331.5,217.5 331.5,219.5 331.5,221.5C 329.668,225.64 328.335,229.973 327.5,234.5C 327.167,234.5 326.833,234.5 326.5,234.5C 326.5,232.5 326.5,230.5 326.5,228.5C 328.332,224.356 329.666,220.023 330.5,215.5 Z"/></g>
<g><path style="opacity:1" fill="#919191" d="M 122.5,214.5 C 122.833,214.5 123.167,214.5 123.5,214.5C 124.823,217.457 126.157,220.457 127.5,223.5C 127.5,224.5 127.5,225.5 127.5,226.5C 126.617,223.615 125.284,220.948 123.5,218.5C 123.167,217.167 122.833,215.833 122.5,214.5 Z"/></g>
<g><path style="opacity:1" fill="#9b9b9c" d="M 179.5,217.5 C 180.5,218.167 181.5,218.833 182.5,219.5C 183.655,222.475 185.322,225.142 187.5,227.5C 186.833,227.5 186.167,227.5 185.5,227.5C 182.319,224.962 180.319,221.629 179.5,217.5 Z"/></g>
<g><path style="opacity:1" fill="#d9d9d9" d="M 127.5,223.5 C 128.496,223.414 129.329,223.748 130,224.5C 131.383,227.368 132.216,230.368 132.5,233.5C 131.833,233.167 131.167,232.833 130.5,232.5C 130.167,231.833 129.833,231.167 129.5,230.5C 129.843,228.517 129.176,227.183 127.5,226.5C 127.5,225.5 127.5,224.5 127.5,223.5 Z"/></g>
<g><path style="opacity:1" fill="#575759" d="M 272.5,221.5 C 272.771,223.38 272.104,224.713 270.5,225.5C 270.66,223.847 271.326,222.514 272.5,221.5 Z"/></g>
<g><path style="opacity:1" fill="#7e7e80" d="M 68.5,225.5 C 70.2132,226.635 70.8799,228.302 70.5,230.5C 70.1667,230.5 69.8333,230.5 69.5,230.5C 69.3713,228.784 69.038,227.117 68.5,225.5 Z"/></g>
<g><path style="opacity:1" fill="#69696b" d="M 187.5,227.5 C 190.243,229.239 192.243,231.573 193.5,234.5C 193.167,234.5 192.833,234.5 192.5,234.5C 190.42,232.427 188.754,230.093 187.5,227.5 Z"/></g>
<g><path style="opacity:1" fill="#403f47" d="M 270.5,225.5 C 270.67,226.822 270.337,227.989 269.5,229C 267.011,229.941 265.011,229.441 263.5,227.5C 265.735,227.795 267.735,227.461 269.5,226.5C 269.5,225.833 269.833,225.5 270.5,225.5 Z"/></g>
<g><path style="opacity:1" fill="#707070" d="M 127.5,226.5 C 129.176,227.183 129.843,228.517 129.5,230.5C 128.655,229.329 127.989,227.995 127.5,226.5 Z"/></g>
<g><path style="opacity:1" fill="#d4d4d4" d="M 185.5,227.5 C 186.167,227.5 186.833,227.5 187.5,227.5C 188.754,230.093 190.42,232.427 192.5,234.5C 188.48,233.69 186.146,231.357 185.5,227.5 Z"/></g>
<g><path style="opacity:1" fill="#616163" d="M 70.5,230.5 C 72.1765,231.183 72.8432,232.517 72.5,234.5C 71.3263,233.486 70.6596,232.153 70.5,230.5 Z"/></g>
<g><path style="opacity:1" fill="#343434" d="M 326.5,228.5 C 326.5,230.5 326.5,232.5 326.5,234.5C 325.094,234.973 324.427,235.973 324.5,237.5C 323.492,239.544 322.492,241.544 321.5,243.5C 322.347,238.185 324.014,233.185 326.5,228.5 Z"/></g>
<g><path style="opacity:1" fill="#5f5f60" d="M 130.5,232.5 C 131.167,232.833 131.833,233.167 132.5,233.5C 134.252,235.246 135.585,237.246 136.5,239.5C 133.757,237.761 131.757,235.427 130.5,232.5 Z"/></g>
<g><path style="opacity:1" fill="#636465" d="M 193.5,234.5 C 199.833,238.833 205.167,244.167 209.5,250.5C 207.46,248.823 205.46,247.156 203.5,245.5C 201.5,242.833 199.167,240.5 196.5,238.5C 195.5,237.167 194.5,235.833 193.5,234.5 Z"/></g>
<g><path style="opacity:1" fill="#949494" d="M 326.5,234.5 C 326.573,236.027 325.906,237.027 324.5,237.5C 324.427,235.973 325.094,234.973 326.5,234.5 Z"/></g>
<g><path style="opacity:1" fill="#c8c8c8" d="M 326.5,234.5 C 326.833,234.5 327.167,234.5 327.5,234.5C 326.469,239.564 324.136,243.897 320.5,247.5C 320.557,246.391 320.89,245.391 321.5,244.5C 321.5,244.167 321.5,243.833 321.5,243.5C 322.492,241.544 323.492,239.544 324.5,237.5C 325.906,237.027 326.573,236.027 326.5,234.5 Z"/></g>
<g><path style="opacity:1" fill="#969696" d="M 136.5,239.5 C 139.5,239.833 141.167,241.5 141.5,244.5C 139.5,243.167 137.833,241.5 136.5,239.5 Z"/></g>
<g><path style="opacity:1" fill="#727274" d="M 72.5,235.5 C 74.9441,239.163 76.6108,243.163 77.5,247.5C 74.7719,244.032 73.1052,240.032 72.5,235.5 Z"/></g>
<g><path style="opacity:1" fill="#d9dadb" d="M 196.5,238.5 C 199.167,240.5 201.5,242.833 203.5,245.5C 201.263,244.551 198.929,243.884 196.5,243.5C 196.5,241.833 196.5,240.167 196.5,238.5 Z"/></g>
<g><path style="opacity:1" fill="#aaaaaa" d="M 141.5,244.5 C 144.179,244.525 145.512,245.858 145.5,248.5C 143.833,247.5 142.5,246.167 141.5,244.5 Z"/></g>
<g><path style="opacity:1" fill="#6b6b6d" d="M 321.5,244.5 C 320.89,245.391 320.557,246.391 320.5,247.5C 320.5,248.167 320.167,248.5 319.5,248.5C 319.157,246.517 319.824,245.183 321.5,244.5 Z"/></g>
<g><path style="opacity:1" fill="#8d8d8e" d="M 145.5,248.5 C 148.167,249.167 149.833,250.833 150.5,253.5C 148.5,252.167 146.833,250.5 145.5,248.5 Z"/></g>
<g><path style="opacity:1" fill="#d9dbda" d="M 203.5,245.5 C 205.46,247.156 207.46,248.823 209.5,250.5C 210.5,251.833 211.5,253.167 212.5,254.5C 210.425,254.698 208.425,254.865 206.5,255C 209.22,252.24 208.554,250.406 204.5,249.5C 203.571,248.311 203.238,246.978 203.5,245.5 Z"/></g>
<g><path style="opacity:1" fill="#7a7a7c" d="M 77.5,247.5 C 79.1991,249.566 80.5324,251.9 81.5,254.5C 81.1667,254.5 80.8333,254.5 80.5,254.5C 78.9255,252.453 77.9255,250.119 77.5,247.5 Z"/></g>
<g><path style="opacity:1" fill="#5e5f62" d="M 209.5,250.5 C 214.748,254.076 219.414,258.41 223.5,263.5C 219.562,260.902 215.895,257.902 212.5,254.5C 211.5,253.167 210.5,251.833 209.5,250.5 Z"/></g>
<g><path style="opacity:1" fill="#69696b" d="M 319.5,249.5 C 318.766,250.708 318.433,252.041 318.5,253.5C 316.103,255.662 314.436,258.329 313.5,261.5C 313.167,262.5 312.5,263.167 311.5,263.5C 310.833,263.833 310.167,264.167 309.5,264.5C 312.544,260.105 315.21,255.438 317.5,250.5C 317.957,249.702 318.624,249.369 319.5,249.5 Z"/></g>
<g><path style="opacity:1" fill="#909091" d="M 150.5,253.5 C 154.472,255.472 157.472,258.472 159.5,262.5C 156.167,259.833 153.167,256.833 150.5,253.5 Z"/></g>
<g><path style="opacity:1" fill="#78787a" d="M 81.5,255.5 C 83.2624,256.262 84.2624,257.596 84.5,259.5C 82.7376,258.738 81.7376,257.404 81.5,255.5 Z"/></g>
<g><path style="opacity:1" fill="#bebec0" d="M 80.5,254.5 C 80.8333,254.5 81.1667,254.5 81.5,254.5C 81.5,254.833 81.5,255.167 81.5,255.5C 81.7376,257.404 82.7376,258.738 84.5,259.5C 85.6005,260.605 86.2671,261.938 86.5,263.5C 82.911,261.575 80.911,258.575 80.5,254.5 Z"/></g>
<g><path style="opacity:1" fill="#dbdbdc" d="M 318.5,253.5 C 317.833,256.167 317.167,258.833 316.5,261.5C 315.5,261.5 314.5,261.5 313.5,261.5C 314.436,258.329 316.103,255.662 318.5,253.5 Z"/></g>
<g><path style="opacity:1" fill="#f0f4f4" d="M 69.5,230.5 C 69.8333,230.5 70.1667,230.5 70.5,230.5C 70.6596,232.153 71.3263,233.486 72.5,234.5C 72.5,234.833 72.5,235.167 72.5,235.5C 73.1052,240.032 74.7719,244.032 77.5,247.5C 77.9255,250.119 78.9255,252.453 80.5,254.5C 80.911,258.575 82.911,261.575 86.5,263.5C 86.427,265.027 87.0937,266.027 88.5,266.5C 89.8333,266.5 90.5,267.167 90.5,268.5C 90.5,268.833 90.5,269.167 90.5,269.5C 91.4194,272.089 93.086,274.089 95.5,275.5C 96.8333,277.5 98.5,279.167 100.5,280.5C 102.5,283.167 104.833,285.5 107.5,287.5C 108.5,289.167 109.833,290.5 111.5,291.5C 112.833,293.5 114.5,295.167 116.5,296.5C 117.5,297.833 118.5,299.167 119.5,300.5C 115.758,301.274 113.258,299.941 112,296.5C 111.517,297.448 111.351,298.448 111.5,299.5C 110.167,299.5 108.833,299.5 107.5,299.5C 107.626,297.8 108.293,296.3 109.5,295C 108.66,293.829 107.827,292.662 107,291.5C 105.921,294.063 105.421,296.729 105.5,299.5C 101.651,299.981 99.6509,298.314 99.5,294.5C 104.422,294.89 104.756,293.723 100.5,291C 98.9751,289.991 97.3084,289.491 95.5,289.5C 95.2542,286.53 93.5876,285.197 90.5,285.5C 91.3843,279.807 90.2176,278.807 87,282.5C 85.2219,280.993 83.3886,280.16 81.5,280C 82.3943,278.604 83.0609,277.104 83.5,275.5C 82.019,271.267 80.8523,266.933 80,262.5C 78.6667,261.167 77.3333,261.167 76,262.5C 75.4054,261.101 75.5721,259.768 76.5,258.5C 75.218,256.821 74.218,254.987 73.5,253C 75.9478,249.858 75.7811,246.692 73,243.5C 71.9015,246.044 70.7348,246.044 69.5,243.5C 70.5437,242.377 71.2104,241.044 71.5,239.5C 70.2048,236.621 69.5382,233.621 69.5,230.5 Z"/></g>
<g><path style="opacity:1" fill="#7a7a7b" d="M 159.5,262.5 C 168.446,269.778 176.779,277.778 184.5,286.5C 175.554,279.222 167.221,271.222 159.5,262.5 Z"/></g>
<g><path style="opacity:1" fill="#79797a" d="M 223.5,263.5 C 227.833,267.167 231.833,271.167 235.5,275.5C 230.5,272.5 226.5,268.5 223.5,263.5 Z"/></g>
<g><path style="opacity:1" fill="#9aa0a0" d="M 86.5,263.5 C 87.9063,263.973 88.573,264.973 88.5,266.5C 87.0937,266.027 86.427,265.027 86.5,263.5 Z"/></g>
<g><path style="opacity:1" fill="#7c8181" d="M 88.5,266.5 C 89.8333,266.5 90.5,267.167 90.5,268.5C 89.1667,268.5 88.5,267.833 88.5,266.5 Z"/></g>
<g><path style="opacity:1" fill="#c3c3c3" d="M 311.5,263.5 C 310.067,265.558 309.4,267.892 309.5,270.5C 308.5,270.5 307.5,270.5 306.5,270.5C 306.557,269.391 306.89,268.391 307.5,267.5C 308.401,266.71 309.068,265.71 309.5,264.5C 310.167,264.167 310.833,263.833 311.5,263.5 Z"/></g>
<g><path style="opacity:1" fill="#8a8e8e" d="M 90.5,269.5 C 92.5,270.833 94.1667,272.5 95.5,274.5C 95.5,274.833 95.5,275.167 95.5,275.5C 93.086,274.089 91.4194,272.089 90.5,269.5 Z"/></g>
<g><path style="opacity:1" fill="#535353" d="M 307.5,267.5 C 306.89,268.391 306.557,269.391 306.5,270.5C 305.5,271.167 304.5,271.833 303.5,272.5C 304.136,270.205 305.469,268.539 307.5,267.5 Z"/></g>
<g><path style="opacity:1" fill="#5b5e5f" d="M 95.5,274.5 C 97.8598,275.865 99.5265,277.865 100.5,280.5C 98.5,279.167 96.8333,277.5 95.5,275.5C 95.5,275.167 95.5,274.833 95.5,274.5 Z"/></g>
<g><path style="opacity:1" fill="#616161" d="M 303.5,272.5 C 302.925,274.411 301.925,276.078 300.5,277.5C 299.833,277.833 299.167,278.167 298.5,278.5C 299.419,275.911 301.086,273.911 303.5,272.5 Z"/></g>
<g><path style="opacity:1" fill="#8a8a8c" d="M 235.5,275.5 C 237.833,277.167 239.833,279.167 241.5,281.5C 238.167,280.833 236.167,278.833 235.5,275.5 Z"/></g>
<g><path style="opacity:1" fill="#a8a8aa" d="M 300.5,277.5 C 300.5,278.167 300.5,278.833 300.5,279.5C 298.427,281.58 296.093,283.246 293.5,284.5C 295.167,282.5 296.833,280.5 298.5,278.5C 299.167,278.167 299.833,277.833 300.5,277.5 Z"/></g>
<g><path style="opacity:1" fill="#515455" d="M 100.5,280.5 C 103.938,281.693 106.271,284.026 107.5,287.5C 104.833,285.5 102.5,283.167 100.5,280.5 Z"/></g>
<g><path style="opacity:1" fill="#7f7f81" d="M 241.5,281.5 C 246.5,285.833 251.167,290.5 255.5,295.5C 254.833,295.5 254.167,295.5 253.5,295.5C 249.103,291.108 245.103,286.442 241.5,281.5 Z"/></g>
<g><path style="opacity:1" fill="#969698" d="M 293.5,284.5 C 293.19,286.144 292.19,287.144 290.5,287.5C 290.81,285.856 291.81,284.856 293.5,284.5 Z"/></g>
<g><path style="opacity:1" fill="#3e4343" d="M 107.5,287.5 C 110.179,287.525 111.512,288.858 111.5,291.5C 109.833,290.5 108.5,289.167 107.5,287.5 Z"/></g>
<g><path style="opacity:1" fill="#a4a3a6" d="M 186.5,288.5 C 189.833,289.833 192.167,292.167 193.5,295.5C 192.5,294.833 191.5,294.167 190.5,293.5C 189.833,292.167 188.833,291.167 187.5,290.5C 187.167,289.833 186.833,289.167 186.5,288.5 Z"/></g>
<g><path style="opacity:1" fill="#686869" d="M 290.5,287.5 C 289.421,289.543 287.754,290.876 285.5,291.5C 286.539,289.469 288.205,288.136 290.5,287.5 Z"/></g>
<g><path style="opacity:1" fill="#555c5b" d="M 111.5,291.5 C 114.167,292.167 115.833,293.833 116.5,296.5C 114.5,295.167 112.833,293.5 111.5,291.5 Z"/></g>
<g><path style="opacity:1" fill="#414044" d="M 187.5,290.5 C 188.833,291.167 189.833,292.167 190.5,293.5C 188.5,293.5 187.5,292.5 187.5,290.5 Z"/></g>
<g><path style="opacity:1" fill="#f1f1f3" d="M 300.5,279.5 C 300.079,281.91 298.746,283.743 296.5,285C 299.482,286.335 299.982,288.168 298,290.5C 297.28,288.745 296.113,287.911 294.5,288C 293.872,290.37 293.539,292.703 293.5,295C 290.932,296.57 288.266,298.07 285.5,299.5C 284.833,299.167 284.167,298.833 283.5,298.5C 282.378,299.63 281.044,300.297 279.5,300.5C 281.115,297.55 283.115,294.884 285.5,292.5C 285.5,292.167 285.5,291.833 285.5,291.5C 287.754,290.876 289.421,289.543 290.5,287.5C 292.19,287.144 293.19,286.144 293.5,284.5C 296.093,283.246 298.427,281.58 300.5,279.5 Z"/></g>
<g><path style="opacity:1" fill="#a3a3a5" d="M 193.5,295.5 C 197.5,297.5 200.5,300.5 202.5,304.5C 201.5,303.833 200.5,303.167 199.5,302.5C 197.5,300.167 195.5,297.833 193.5,295.5 Z"/></g>
<g><path style="opacity:1" fill="#7b7b7c" d="M 255.5,295.5 C 258.167,297.5 260.5,299.833 262.5,302.5C 259.167,301.167 256.833,298.833 255.5,295.5 Z"/></g>
<g><path style="opacity:1" fill="#595c5e" d="M 116.5,296.5 C 121.139,299.139 124.806,302.806 127.5,307.5C 124.833,305.167 122.167,302.833 119.5,300.5C 118.5,299.167 117.5,297.833 116.5,296.5 Z"/></g>
<g><path style="opacity:1" fill="#272729" d="M 190.5,293.5 C 191.5,294.167 192.5,294.833 193.5,295.5C 195.5,297.833 197.5,300.167 199.5,302.5C 197.394,301.217 195.06,300.384 192.5,300C 192.957,299.586 193.291,299.086 193.5,298.5C 191.722,297.274 190.722,295.607 190.5,293.5 Z"/></g>
<g><path style="opacity:1" fill="#dadada" d="M 253.5,295.5 C 254.167,295.5 254.833,295.5 255.5,295.5C 256.833,298.833 259.167,301.167 262.5,302.5C 262.5,303.167 262.5,303.833 262.5,304.5C 259.626,302.984 256.959,300.984 254.5,298.5C 253.614,297.675 253.281,296.675 253.5,295.5 Z"/></g>
<g><path style="opacity:1" fill="#6a6a6b" d="M 285.5,292.5 C 283.115,294.884 281.115,297.55 279.5,300.5C 277.973,300.427 276.973,301.094 276.5,302.5C 275.391,302.557 274.391,302.89 273.5,303.5C 277.441,299.834 281.441,296.167 285.5,292.5 Z"/></g>
<g><path style="opacity:1" fill="#8c8c8c" d="M 276.5,302.5 C 275.415,304.587 273.749,305.92 271.5,306.5C 269.585,306.784 267.919,306.451 266.5,305.5C 268.527,305.662 270.527,305.495 272.5,305C 273.056,304.617 273.389,304.117 273.5,303.5C 274.391,302.89 275.391,302.557 276.5,302.5 Z"/></g>
<g><path style="opacity:1" fill="#353539" d="M 199.5,302.5 C 200.5,303.167 201.5,303.833 202.5,304.5C 203.752,306.001 204.752,307.668 205.5,309.5C 205.5,309.833 205.5,310.167 205.5,310.5C 202.794,308.448 200.794,305.781 199.5,302.5 Z"/></g>
<g><path style="opacity:1" fill="#a8a8a8" d="M 262.5,302.5 C 263.833,303.5 265.167,304.5 266.5,305.5C 267.919,306.451 269.585,306.784 271.5,306.5C 268.056,308.09 265.056,307.424 262.5,304.5C 262.5,303.833 262.5,303.167 262.5,302.5 Z"/></g>
<g><path style="opacity:1" fill="#636567" d="M 127.5,307.5 C 130.833,308.833 133.167,311.167 134.5,314.5C 131.833,312.5 129.5,310.167 127.5,307.5 Z"/></g>
<g><path style="opacity:1" fill="#7d7d7f" d="M 205.5,309.5 C 206.794,310.29 207.961,311.29 209,312.5C 210.131,315.445 210.964,318.445 211.5,321.5C 209.648,317.802 207.648,314.135 205.5,310.5C 205.5,310.167 205.5,309.833 205.5,309.5 Z"/></g>
<g><path style="opacity:1" fill="#616264" d="M 134.5,314.5 C 138.472,316.472 141.472,319.472 143.5,323.5C 142.167,322.5 140.833,321.5 139.5,320.5C 137.833,318.5 136.167,316.5 134.5,314.5 Z"/></g>
<g><path style="opacity:1" fill="#6e7172" d="M 143.5,323.5 C 155.448,333.78 166.781,344.78 177.5,356.5C 177.167,356.5 176.833,356.5 176.5,356.5C 171.833,352.167 167.167,347.833 162.5,343.5C 156.167,336.833 149.833,330.167 143.5,323.5 Z"/></g>
<g><path style="opacity:1" fill="#eff3f3" d="M 139.5,320.5 C 140.833,321.5 142.167,322.5 143.5,323.5C 149.833,330.167 156.167,336.833 162.5,343.5C 161.448,343.351 160.448,343.517 159.5,344C 160.951,347.028 160.284,349.528 157.5,351.5C 156.919,348.625 155.919,345.958 154.5,343.5C 155.202,341.224 155.035,338.891 154,336.5C 151.633,335.953 149.467,334.953 147.5,333.5C 146.167,334.167 144.833,334.833 143.5,335.5C 142.479,334.998 142.312,334.332 143,333.5C 143.833,332 145,330.833 146.5,330C 144.018,329.323 142.185,330.156 141,332.5C 139.535,329.991 140.035,327.658 142.5,325.5C 140.722,324.274 139.722,322.607 139.5,320.5 Z"/></g>
<g><path style="opacity:1" fill="#868687" d="M 211.5,321.5 C 212.117,321.611 212.617,321.944 213,322.5C 213.183,325.365 213.683,328.031 214.5,330.5C 214.667,349.836 214.5,369.17 214,388.5C 212.384,389.801 210.884,389.801 209.5,388.5C 210.791,388.737 211.791,388.404 212.5,387.5C 213.166,378.339 213.5,369.006 213.5,359.5C 213.714,346.751 213.047,334.084 211.5,321.5 Z"/></g>
<g><path style="opacity:1" fill="#4c4f51" d="M 179.5,358.5 C 185.833,362.833 191.167,368.167 195.5,374.5C 195.167,374.5 194.833,374.5 194.5,374.5C 193.5,372.833 192.167,371.5 190.5,370.5C 186.833,366.5 183.167,362.5 179.5,358.5 Z"/></g>
<g><path style="opacity:1" fill="#d5d8d8" d="M 176.5,356.5 C 176.833,356.5 177.167,356.5 177.5,356.5C 177.833,357.5 178.5,358.167 179.5,358.5C 183.167,362.5 186.833,366.5 190.5,370.5C 188.906,370.08 187.406,369.414 186,368.5C 184.943,369.627 183.777,370.127 182.5,370C 183.815,368.605 183.481,367.605 181.5,367C 182.517,365.951 182.684,364.784 182,363.5C 179.177,361.855 177.344,359.521 176.5,356.5 Z"/></g>
<g><path style="opacity:1" fill="#c4c3c7" d="M 190.5,370.5 C 192.167,371.5 193.5,372.833 194.5,374.5C 191.858,374.512 190.525,373.179 190.5,370.5 Z"/></g>
<g><path style="opacity:1" fill="#adacb0" d="M 194.5,374.5 C 194.833,374.5 195.167,374.5 195.5,374.5C 195.833,375.5 196.5,376.167 197.5,376.5C 198.167,377.5 198.833,378.5 199.5,379.5C 196.833,378.833 195.167,377.167 194.5,374.5 Z"/></g>
<g><path style="opacity:1" fill="#58575b" d="M 197.5,376.5 C 201.905,379.396 205.905,382.896 209.5,387C 210.448,387.483 211.448,387.649 212.5,387.5C 211.791,388.404 210.791,388.737 209.5,388.5C 207.5,386.833 205.5,385.167 203.5,383.5C 202.5,381.833 201.167,380.5 199.5,379.5C 198.833,378.5 198.167,377.5 197.5,376.5 Z"/></g>
<g><path style="opacity:1" fill="#d7d6d8" d="M 214.5,330.5 C 215.222,330.918 215.722,331.584 216,332.5C 216.667,351.167 216.667,369.833 216,388.5C 213.294,391.978 210.294,392.311 207,389.5C 206.586,389.957 206.086,390.291 205.5,390.5C 205.942,387.969 205.275,385.635 203.5,383.5C 205.5,385.167 207.5,386.833 209.5,388.5C 210.884,389.801 212.384,389.801 214,388.5C 214.5,369.17 214.667,349.836 214.5,330.5 Z"/></g>
</svg>
