<svg version="1.1" id="Layer_1" xmlns="http://www.w3.org/2000/svg" xmlns:xlink="http://www.w3.org/1999/xlink" x="0px" y="0px"
	 width="100%" viewBox="0 0 922 897" enable-background="new 0 0 922 897" xml:space="preserve">
<path fill="#FEFFFE" opacity="1.000000" stroke="none" 
	d="
M498.000000,898.000000 
	C332.000000,898.000000 166.500000,898.000000 1.000000,898.000000 
	C1.000000,599.000000 1.000000,300.000000 1.000000,1.000000 
	C308.333344,1.000000 615.666687,1.000000 923.000000,1.000000 
	C923.000000,300.000000 923.000000,599.000000 923.000000,898.000000 
	C781.500000,898.000000 640.000000,898.000000 498.000000,898.000000 
M492.324951,11.198401 
	C455.319458,10.255049 418.369171,10.013742 381.777740,17.139318 
	C344.363556,24.425117 308.294769,35.762119 273.869080,52.183956 
	C218.088348,78.792625 169.885223,115.412231 129.515411,162.195892 
	C75.004128,225.367783 41.028030,298.265900 27.845592,380.615936 
	C21.439892,420.632019 22.255905,461.011475 25.794106,501.219574 
	C29.334362,541.451050 40.119759,580.093994 55.649231,617.289124 
	C87.379364,693.287048 136.544281,755.796997 202.947052,804.508606 
	C273.177979,856.028564 352.313080,883.220520 438.942230,888.841370 
	C473.662109,891.094116 508.193420,888.044312 542.381409,881.744690 
	C579.704712,874.867493 615.646973,863.455322 649.835632,846.938599 
	C742.290833,802.273193 811.481506,733.919800 857.198730,641.973755 
	C875.082092,606.007019 887.682007,568.138916 894.339417,528.547546 
	C897.999939,506.778595 900.534912,484.724884 901.884949,462.695892 
	C902.813660,447.541199 901.583557,432.129211 899.975464,416.974670 
	C897.801575,396.487610 895.206421,375.967346 891.248474,355.763733 
	C883.226868,314.817078 868.424500,276.132355 848.260132,239.673157 
	C801.165710,154.521973 733.564697,91.034950 645.240601,49.987854 
	C597.059937,27.596722 546.370605,14.596985 492.324951,11.198401 
z"/>
<path fill="#01AE36" opacity="1.000000" stroke="none" 
	d="
M492.802002,11.220782 
	C546.370605,14.596985 597.059937,27.596722 645.240601,49.987854 
	C733.564697,91.034950 801.165710,154.521973 848.260132,239.673157 
	C868.424500,276.132355 883.226868,314.817078 891.248474,355.763733 
	C895.206421,375.967346 897.801575,396.487610 899.975464,416.974670 
	C901.583557,432.129211 902.813660,447.541199 901.884949,462.695892 
	C900.534912,484.724884 897.999939,506.778595 894.339417,528.547546 
	C887.682007,568.138916 875.082092,606.007019 857.198730,641.973755 
	C811.481506,733.919800 742.290833,802.273193 649.835632,846.938599 
	C615.646973,863.455322 579.704712,874.867493 542.381409,881.744690 
	C508.193420,888.044312 473.662109,891.094116 438.942230,888.841370 
	C352.313080,883.220520 273.177979,856.028564 202.947052,804.508606 
	C136.544281,755.796997 87.379364,693.287048 55.649231,617.289124 
	C40.119759,580.093994 29.334362,541.451050 25.794106,501.219574 
	C22.255905,461.011475 21.439892,420.632019 27.845592,380.615936 
	C41.028030,298.265900 75.004128,225.367783 129.515411,162.195892 
	C169.885223,115.412231 218.088348,78.792625 273.869080,52.183956 
	C308.294769,35.762119 344.363556,24.425117 381.777740,17.139318 
	C418.369171,10.013742 455.319458,10.255049 492.802002,11.220782 
M431.383759,660.833130 
	C434.162994,659.328491 436.846802,657.598206 439.744110,656.372803 
	C443.956726,654.591064 445.367920,651.852905 445.319550,647.158936 
	C445.060242,622.004272 445.196869,596.845581 445.197754,571.688232 
	C445.197998,564.544006 445.199646,564.539673 452.125214,564.538696 
	C476.449524,564.535278 500.773926,564.578308 525.098145,564.523315 
	C559.464783,564.445618 591.726990,556.124451 619.634277,535.919678 
	C675.103943,495.759827 698.948608,441.461945 689.014160,373.105438 
	C688.767029,371.404602 688.379761,369.724121 687.965942,367.552032 
	C685.501831,368.822540 683.701477,369.660339 681.987427,370.647949 
	C646.374451,391.167664 610.793457,411.743134 575.140625,432.193298 
	C570.123291,435.071198 566.406189,438.841949 562.989746,443.566925 
	C550.281372,461.142853 533.094360,471.466919 511.308411,473.946777 
	C506.610962,474.481445 501.463593,475.100677 497.492798,477.373993 
	C441.465027,509.450684 385.621704,541.849426 329.664001,574.048950 
	C326.179108,576.054260 324.893219,578.308228 324.906555,582.343445 
	C325.050415,625.826843 324.996124,669.310913 324.996033,712.794800 
	C324.996033,714.421204 324.996033,716.047546 324.996033,719.271301 
	C360.932709,699.518494 395.827789,680.338135 431.383759,660.833130 
M325.023956,331.500000 
	C325.023956,362.260406 325.023956,393.020844 325.023956,424.667969 
	C327.311584,423.697540 328.846100,423.226471 330.201965,422.445221 
	C367.403412,401.009613 404.609161,379.580994 441.701294,357.957489 
	C443.412170,356.960052 444.917236,354.229797 445.069153,352.198212 
	C445.515259,346.233124 445.229218,340.213318 445.231262,334.214935 
	C445.233673,327.022278 445.234253,327.019043 452.191315,327.017334 
	C465.021210,327.014252 477.853912,327.159485 490.678864,326.908142 
	C493.685699,326.849182 497.014404,326.063538 499.606506,324.582367 
	C535.293640,304.190002 570.879333,283.620178 606.479858,263.076416 
	C607.696899,262.374115 608.808594,261.489075 609.921631,260.722076 
	C609.519043,259.938416 609.447449,259.535004 609.215027,259.390533 
	C607.945129,258.601440 606.644592,257.859894 605.338440,257.130951 
	C580.468445,243.250946 553.523987,237.322601 525.318420,237.222733 
	C460.503326,236.993210 395.686798,237.188538 330.871185,237.057602 
	C326.267212,237.048309 324.898987,238.410751 324.928864,243.024155 
	C325.117859,272.181732 325.024292,301.341187 325.023956,331.500000 
M714.694031,246.800217 
	C710.228638,242.082626 705.584839,237.517960 701.363525,232.591232 
	C698.746582,229.536987 696.571228,229.632965 693.283997,231.535522 
	C638.555420,263.211426 583.762329,294.775787 528.994080,326.383270 
	C527.511047,327.239166 526.145325,328.298492 523.748596,329.925842 
	C541.903442,336.201294 555.655945,346.306183 565.399963,361.659180 
	C575.157227,377.032959 578.376160,393.767517 575.919128,413.360931 
	C640.350464,376.202972 703.482605,339.794281 767.296631,302.992340 
	C749.481567,283.958923 732.331299,265.635864 714.694031,246.800217 
M367.814148,419.380859 
	C329.019867,441.786346 290.225555,464.191833 251.431274,486.597290 
	C251.540314,487.032074 251.649353,487.466858 251.758392,487.901611 
	C253.659882,487.999847 255.561264,488.181519 257.462830,488.183502 
	C278.123047,488.205078 298.784424,488.313080 319.442596,488.107269 
	C323.816650,488.063690 325.167480,489.311523 325.116425,493.742798 
	C324.893768,513.067566 325.014465,532.396301 325.033142,551.723633 
	C325.034790,553.442322 325.199768,555.160950 325.351654,558.089050 
	C373.140015,530.499939 419.956787,503.471710 466.773560,476.443512 
	C466.648712,475.942291 466.523834,475.441101 466.398987,474.939880 
	C461.832520,474.939880 457.266022,474.940643 452.699554,474.939667 
	C445.242676,474.938080 445.235931,474.937622 445.235138,467.695160 
	C445.232056,439.037415 445.239044,410.379700 445.220886,381.721954 
	C445.219696,379.833252 445.039825,377.944672 444.885559,374.933136 
	C418.774261,389.990814 393.611572,404.501465 367.814148,419.380859 
M197.428894,621.867371 
	C200.896103,621.874451 204.405487,622.236938 207.823700,621.831299 
	C230.950256,619.086426 247.793106,601.101868 248.646683,577.418457 
	C249.401047,556.487366 234.556168,536.334229 212.343475,531.626770 
	C186.390686,526.126648 161.808136,542.968628 157.194794,569.957642 
	C153.038147,594.275024 171.488464,618.549622 197.428894,621.867371 
z"/>
<path fill="#FCFEFD" opacity="1.000000" stroke="none" 
	d="
M431.053314,660.995483 
	C395.827789,680.338135 360.932709,699.518494 324.996033,719.271301 
	C324.996033,716.047546 324.996033,714.421204 324.996033,712.794800 
	C324.996124,669.310913 325.050415,625.826843 324.906555,582.343445 
	C324.893219,578.308228 326.179108,576.054260 329.664001,574.048950 
	C385.621704,541.849426 441.465027,509.450684 497.492798,477.373993 
	C501.463593,475.100677 506.610962,474.481445 511.308411,473.946777 
	C533.094360,471.466919 550.281372,461.142853 562.989746,443.566925 
	C566.406189,438.841949 570.123291,435.071198 575.140625,432.193298 
	C610.793457,411.743134 646.374451,391.167664 681.987427,370.647949 
	C683.701477,369.660339 685.501831,368.822540 687.965942,367.552032 
	C688.379761,369.724121 688.767029,371.404602 689.014160,373.105438 
	C698.948608,441.461945 675.103943,495.759827 619.634277,535.919678 
	C591.726990,556.124451 559.464783,564.445618 525.098145,564.523315 
	C500.773926,564.578308 476.449524,564.535278 452.125214,564.538696 
	C445.199646,564.539673 445.197998,564.544006 445.197754,571.688232 
	C445.196869,596.845581 445.060242,622.004272 445.319550,647.158936 
	C445.367920,651.852905 443.956726,654.591064 439.744110,656.372803 
	C436.846802,657.598206 434.162994,659.328491 431.053314,660.995483 
z"/>
<path fill="#FCFEFC" opacity="1.000000" stroke="none" 
	d="
M325.023987,331.000000 
	C325.024292,301.341187 325.117859,272.181732 324.928864,243.024155 
	C324.898987,238.410751 326.267212,237.048309 330.871185,237.057602 
	C395.686798,237.188538 460.503326,236.993210 525.318420,237.222733 
	C553.523987,237.322601 580.468445,243.250946 605.338440,257.130951 
	C606.644592,257.859894 607.945129,258.601440 609.215027,259.390533 
	C609.447449,259.535004 609.519043,259.938416 609.921631,260.722076 
	C608.808594,261.489075 607.696899,262.374115 606.479858,263.076416 
	C570.879333,283.620178 535.293640,304.190002 499.606506,324.582367 
	C497.014404,326.063538 493.685699,326.849182 490.678864,326.908142 
	C477.853912,327.159485 465.021210,327.014252 452.191315,327.017334 
	C445.234253,327.019043 445.233673,327.022278 445.231262,334.214935 
	C445.229218,340.213318 445.515259,346.233124 445.069153,352.198212 
	C444.917236,354.229797 443.412170,356.960052 441.701294,357.957489 
	C404.609161,379.580994 367.403412,401.009613 330.201965,422.445221 
	C328.846100,423.226471 327.311584,423.697540 325.023956,424.667969 
	C325.023956,393.020844 325.023956,362.260406 325.023987,331.000000 
z"/>
<path fill="#FCFEFC" opacity="1.000000" stroke="none" 
	d="
M714.937561,247.056503 
	C732.331299,265.635864 749.481567,283.958923 767.296631,302.992340 
	C703.482605,339.794281 640.350464,376.202972 575.919128,413.360931 
	C578.376160,393.767517 575.157227,377.032959 565.399963,361.659180 
	C555.655945,346.306183 541.903442,336.201294 523.748596,329.925842 
	C526.145325,328.298492 527.511047,327.239166 528.994080,326.383270 
	C583.762329,294.775787 638.555420,263.211426 693.283997,231.535522 
	C696.571228,229.632965 698.746582,229.536987 701.363525,232.591232 
	C705.584839,237.517960 710.228638,242.082626 714.937561,247.056503 
z"/>
<path fill="#FBFEFC" opacity="1.000000" stroke="none" 
	d="
M368.131531,419.196472 
	C393.611572,404.501465 418.774261,389.990814 444.885559,374.933136 
	C445.039825,377.944672 445.219696,379.833252 445.220886,381.721954 
	C445.239044,410.379700 445.232056,439.037415 445.235138,467.695160 
	C445.235931,474.937622 445.242676,474.938080 452.699554,474.939667 
	C457.266022,474.940643 461.832520,474.939880 466.398987,474.939880 
	C466.523834,475.441101 466.648712,475.942291 466.773560,476.443512 
	C419.956787,503.471710 373.140015,530.499939 325.351654,558.089050 
	C325.199768,555.160950 325.034790,553.442322 325.033142,551.723633 
	C325.014465,532.396301 324.893768,513.067566 325.116425,493.742798 
	C325.167480,489.311523 323.816650,488.063690 319.442596,488.107269 
	C298.784424,488.313080 278.123047,488.205078 257.462830,488.183502 
	C255.561264,488.181519 253.659882,487.999847 251.758392,487.901611 
	C251.649353,487.466858 251.540314,487.032074 251.431274,486.597290 
	C290.225555,464.191833 329.019867,441.786346 368.131531,419.196472 
z"/>
<path fill="#FBFDFB" opacity="1.000000" stroke="none" 
	d="
M197.004959,621.822205 
	C171.488464,618.549622 153.038147,594.275024 157.194794,569.957642 
	C161.808136,542.968628 186.390686,526.126648 212.343475,531.626770 
	C234.556168,536.334229 249.401047,556.487366 248.646683,577.418457 
	C247.793106,601.101868 230.950256,619.086426 207.823700,621.831299 
	C204.405487,622.236938 200.896103,621.874451 197.004959,621.822205 
z"/>
</svg>