<?xml version="1.0" standalone="no"?>
<!DOCTYPE svg PUBLIC "-//W3C//DTD SVG 20010904//EN"
 "http://www.w3.org/TR/2001/REC-SVG-20010904/DTD/svg10.dtd">
<svg version="1.0" xmlns="http://www.w3.org/2000/svg"
 width="634.000000pt" height="634.000000pt" viewBox="0 0 634.000000 634.000000"
 preserveAspectRatio="xMidYMid meet">

<g transform="translate(0.000000,634.000000) scale(0.100000,-0.100000)"
fill="#000000" stroke="none">
<path d="M1989 5406 c-31 -12 -70 -33 -88 -45 l-31 -23 29 -36 c16 -20 43 -50
60 -66 23 -23 28 -32 20 -43 -6 -7 -9 -13 -6 -13 4 0 -3 -21 -14 -47 -13 -30
-46 -73 -87 -113 -59 -57 -85 -73 -217 -134 -194 -89 -272 -145 -244 -173 6
-6 9 -77 7 -180 -2 -141 -1 -167 10 -154 9 12 9 8 -1 -14 -20 -42 -28 -93 -17
-100 13 -8 13 -732 0 -740 -14 -9 5 -50 49 -103 21 -26 46 -60 54 -77 11 -19
16 -24 17 -13 0 27 30 37 75 24 38 -11 40 -14 60 -81 18 -63 20 -99 20 -370 1
-308 8 -375 41 -375 12 0 12 4 -2 25 -22 34 -13 136 33 353 13 65 17 72 39 72
13 0 24 -4 24 -9 0 -4 23 -39 51 -76 100 -134 131 -210 148 -365 9 -78 3 -321
-6 -292 -3 6 -9 9 -14 6 -6 -4 -5 -12 2 -22 6 -10 -11 8 -39 38 -29 30 -54 62
-57 70 -3 8 -24 29 -46 45 -160 118 -250 141 -405 103 l-41 -10 5 -77 c3 -47
0 -81 -6 -85 -6 -4 -5 -29 5 -73 8 -38 15 -118 16 -179 2 -101 4 -114 28 -150
14 -21 33 -51 43 -66 9 -16 23 -28 31 -28 8 0 15 -8 15 -17 0 -10 18 -45 41
-78 22 -33 49 -78 61 -100 12 -22 28 -46 37 -52 32 -26 184 -103 201 -103 9 0
25 -9 35 -20 10 -11 53 -40 97 -65 43 -25 78 -49 78 -54 0 -5 15 -15 33 -22
25 -11 92 -13 305 -12 257 3 275 4 299 23 14 11 31 20 38 20 24 0 110 43 139
69 16 14 26 20 21 13 -8 -15 52 22 125 76 55 41 214 211 233 249 8 15 19 56
26 89 29 151 217 629 252 642 5 2 7 8 3 13 -3 5 6 19 19 31 25 24 97 139 97
155 0 16 35 42 46 35 6 -4 34 -50 62 -102 l52 -95 0 205 0 205 -136 160 c-74
88 -157 185 -184 215 l-49 55 0 -102 c-1 -57 1 -103 4 -103 2 0 11 12 20 28
15 26 16 26 9 2 -4 -14 -13 -37 -20 -52 -11 -21 -14 -95 -14 -343 l0 -315 -89
0 c-82 0 -89 -1 -84 -19 10 -39 -56 -121 -98 -121 -28 0 -32 35 -10 86 12 26
21 48 21 50 0 2 -22 4 -50 4 l-50 0 -1 78 c-1 108 -4 123 -22 134 -15 8 -17
31 -17 182 0 142 -3 176 -15 186 -9 8 -15 8 -15 2 0 -6 6 -13 13 -15 10 -4 10
-6 0 -6 -10 -1 -13 -64 -13 -278 l0 -278 -111 -85 c-61 -47 -170 -131 -243
-188 -269 -212 -266 -209 -266 -174 -1 9 0 96 0 193 1 157 -1 177 -16 183 -32
12 -164 19 -164 9 0 -6 30 -38 66 -72 106 -100 133 -191 74 -251 -16 -16 -34
-30 -40 -30 -5 0 -10 -4 -10 -10 0 -5 5 -10 11 -10 6 0 17 -7 25 -15 14 -13 8
-15 -53 -15 -80 0 -115 18 -222 116 l-63 59 13 130 c23 216 15 471 -15 504
-14 15 -16 51 -16 252 0 174 -3 238 -12 248 -10 11 -10 13 0 7 8 -5 12 0 12
13 0 14 -6 21 -20 21 -11 0 -20 6 -21 13 0 6 -2 19 -3 27 -6 27 12 60 29 54
13 -5 15 25 15 265 0 271 1 277 32 272 4 0 5 5 3 12 -2 6 -6 29 -9 51 -4 34 0
42 31 70 l34 32 -35 53 c-29 43 -73 151 -63 156 1 0 16 13 34 27 41 33 125 47
148 25 8 -9 15 -19 15 -23 0 -4 21 -61 46 -127 38 -101 46 -132 47 -197 1 -43
3 -77 5 -75 2 2 16 0 31 -5 l28 -8 12 92 c6 50 21 129 33 176 19 68 27 86 43
88 19 3 20 -3 19 -103 0 -106 8 -135 20 -70 9 47 42 63 88 44 49 -20 134 -110
143 -150 11 -58 16 -69 28 -66 7 1 15 11 19 22 5 18 6 18 7 -3 1 -23 2 -23
132 -21 71 0 132 -1 135 -3 2 -3 5 -30 5 -61 1 -46 5 -57 18 -57 9 0 22 -5 29
-12 13 -13 16 13 12 94 -1 36 0 37 37 40 21 2 89 1 150 -2 l113 -5 96 -115
c53 -63 111 -131 128 -151 17 -19 40 -46 51 -60 66 -81 159 -189 162 -189 2 0
3 88 2 195 -1 154 -4 195 -14 195 -8 0 -18 21 -24 53 -20 92 -51 174 -90 234
-43 66 -103 133 -120 133 -7 0 -11 -21 -11 -57 0 -114 -43 -189 -113 -200 -51
-8 -168 50 -242 120 l-55 52 -6 85 c-9 157 -24 254 -66 425 -39 162 -41 172
-29 230 7 33 21 74 32 92 22 35 13 50 -17 29 -15 -11 -22 -12 -33 -3 -12 10
-14 9 -8 -5 3 -10 2 -18 -3 -18 -13 0 -13 43 0 133 22 147 29 170 68 210 36
38 37 39 17 53 -15 11 -39 15 -91 12 -59 -3 -85 -10 -145 -41 -41 -20 -87 -49
-103 -62 -16 -14 -33 -25 -37 -25 -4 0 -14 -19 -21 -42 -18 -53 -62 -80 -126
-76 -34 3 -41 0 -37 -12 4 -8 3 -11 -1 -8 -4 4 -14 3 -23 -2 -13 -6 -27 1 -57
28 -22 20 -46 46 -54 57 -24 33 -187 146 -241 166 -66 26 -141 24 -210 -5z
m56 -246 c10 -11 16 -20 13 -20 -3 0 -13 9 -23 20 -10 11 -16 20 -13 20 3 0
13 -9 23 -20z m955 4 c0 -8 -5 -12 -10 -9 -6 4 -8 11 -5 16 9 14 15 11 15 -7z
m-869 -59 c28 -13 30 -15 7 -10 -49 10 -79 25 -73 35 5 8 11 8 19 1 7 -6 28
-18 47 -26z m589 -7 c12 -8 11 -8 -3 -4 -10 3 -27 6 -38 6 -10 0 -19 5 -19 11
0 11 33 4 60 -13z m268 -30 c-3 -48 -5 -53 -27 -53 -18 0 -25 7 -28 25 -5 36
16 80 39 80 17 0 19 -6 16 -52z m-785 15 c-7 -2 -19 -2 -25 0 -7 3 -2 5 12 5
14 0 19 -2 13 -5z m243 -161 c42 -35 97 -142 73 -142 -6 0 -7 -4 -4 -10 15
-24 -24 -7 -51 23 -50 53 -74 93 -72 121 3 30 23 34 54 8z m280 -150 c-3 -5 4
-16 15 -25 10 -9 19 -20 19 -25 0 -14 -51 -12 -56 2 -5 14 11 56 22 56 3 0 3
-4 0 -8z m-709 -214 c-3 -8 -6 -5 -6 6 -1 11 2 17 5 13 3 -3 4 -12 1 -19z m-7
-157 c-6 -11 -9 11 -8 64 l1 80 8 -64 c5 -38 4 -71 -1 -80z m1110 72 c19 -62
25 -179 10 -188 -9 -5 -20 0 -32 15 -24 30 -27 210 -3 210 8 0 19 -17 25 -37z
m-1385 -33 c-3 -5 1 -10 10 -10 35 0 50 -114 16 -123 -15 -4 -21 3 -31 37 -6
23 -9 55 -6 71 5 37 5 35 12 35 3 0 2 -4 -1 -10z m640 -2 c29 -13 30 -26 10
-96 -12 -40 -20 -52 -35 -52 -15 0 -20 7 -20 28 0 35 12 132 16 132 2 0 15 -5
29 -12z m-100 -8 c-3 -5 -12 -10 -18 -10 -7 0 -6 4 3 10 19 12 23 12 15 0z m4
-67 c0 -25 -1 -26 -9 -8 -12 27 -12 35 0 35 6 0 10 -12 9 -27z m448 -75 c-3
-7 -5 -2 -5 12 0 14 2 19 5 13 2 -7 2 -19 0 -25z m-963 -13 c-4 -8 -11 -12
-16 -9 -6 4 -5 10 3 15 19 12 19 11 13 -6z m985 -69 c7 -37 7 -64 1 -75 -7
-13 -9 -10 -10 15 0 17 -3 53 -6 80 -9 67 2 53 15 -20z m-402 -18 c-3 -7 -5
-2 -5 12 0 14 2 19 5 13 2 -7 2 -19 0 -25z m-555 -89 c77 -26 84 -32 149 -126
48 -70 53 -82 62 -160 7 -60 7 -87 -1 -95 -8 -8 -9 -5 -5 11 3 12 1 21 -6 21
-6 0 -28 35 -50 78 -75 148 -123 192 -210 193 -62 0 -85 7 -89 27 -1 8 2 11 8
7 5 -3 10 3 10 14 0 12 11 27 28 35 35 19 31 20 104 -5z m975 -31 c-3 -7 -5
-2 -5 12 0 14 2 19 5 13 2 -7 2 -19 0 -25z m394 -45 c13 -16 12 -17 -3 -4 -10
7 -18 15 -18 17 0 8 8 3 21 -13z m-1531 2 c0 -2 -13 -11 -30 -20 -38 -19 -40
-11 -2 9 31 17 32 18 32 11z m370 -26 c0 -11 -4 -18 -10 -14 -5 3 -7 12 -3 20
7 21 13 19 13 -6z m-284 -377 c-3 -2 1 -11 9 -19 19 -19 20 -63 1 -63 -8 0
-22 10 -30 22 -14 20 -14 24 -1 45 9 13 11 23 5 23 -5 0 -10 5 -10 11 0 8 5 7
15 -1 9 -7 13 -15 11 -18z m60 -446 c9 -37 1 -61 -21 -61 -16 0 -21 8 -23 43
-3 37 -1 42 17 42 13 0 23 -9 27 -24z m27 -169 c3 -8 -1 -14 -8 -14 -7 0 -11
6 -8 14 3 7 6 13 8 13 2 0 5 -6 8 -13z m1847 -21 c-7 -7 -13 -7 -20 0 -6 6 -3
10 10 10 13 0 16 -4 10 -10z m-2147 -858 c6 -22 5 -22 -8 -4 -17 22 -20 40 -6
32 5 -3 11 -16 14 -28z m-11 -145 c2 -39 0 -69 -4 -67 -4 3 -7 42 -7 87 1 94
6 85 11 -20z m396 -22 c72 -47 124 -107 120 -139 -2 -16 -10 -28 -21 -30 -19
-4 -52 28 -62 59 -6 19 -54 52 -95 64 -40 13 -53 31 -38 55 18 28 45 25 96 -9z
m1132 -74 c0 -2 -10 -12 -22 -23 l-23 -19 19 23 c18 21 26 27 26 19z m-1483
-29 c-3 -8 -6 -5 -6 6 -1 11 2 17 5 13 3 -3 4 -12 1 -19z m1698 -10 c-4 -18
-12 -42 -17 -52 -10 -18 -11 -19 -23 -2 -17 23 -7 56 16 56 11 0 19 7 19 15 0
8 3 15 6 15 3 0 2 -15 -1 -32z m-312 -39 c-40 -27 -49 -24 -16 5 15 13 32 22
36 19 5 -3 -4 -14 -20 -24z m-413 -144 c-7 -8 -17 -12 -22 -9 -6 4 -5 10 3 15
22 14 33 10 19 -6z m-390 -240 c8 -2 -22 -3 -67 -2 -45 0 -80 4 -78 7 4 6 115
2 145 -5z"/>
<path d="M4708 5137 c-97 -113 -162 -241 -201 -398 -13 -52 -26 -87 -30 -79
-4 11 -6 10 -6 -4 -1 -11 -4 -16 -7 -13 -4 4 -22 -19 -41 -51 -36 -60 -66 -92
-89 -92 -20 0 -18 61 5 148 10 40 15 75 10 78 -13 8 -122 -90 -168 -151 -73
-96 -155 -283 -206 -467 -38 -139 -47 -128 110 -128 l135 0 2 -394 c2 -251 -1
-400 -7 -411 -7 -11 -6 -18 5 -25 8 -5 11 -10 5 -10 -7 0 -8 -177 -5 -520 4
-458 3 -520 -10 -520 -14 1 -33 17 -157 131 -23 22 -52 39 -65 39 -16 0 -19 3
-10 9 10 6 10 10 -3 21 -13 10 -15 9 -15 -8 0 -17 -6 -21 -37 -20 -60 0 -119
-29 -143 -70 -21 -34 -21 -37 -4 -49 10 -7 37 -13 61 -13 52 0 108 -27 164
-77 87 -79 206 -277 248 -415 25 -82 33 -96 86 -149 33 -33 62 -59 67 -59 4 0
31 -18 60 -40 71 -54 146 -81 233 -83 l70 -2 3 155 3 155 -33 26 c-22 19 -32
36 -34 59 -2 31 -1 32 32 25 l34 -6 0 270 c0 257 -1 271 -19 281 -11 5 -30 10
-43 10 -46 0 -142 56 -199 117 -83 88 -111 153 -117 271 -5 105 10 272 32 361
20 80 29 181 17 181 -6 0 -20 -19 -32 -42 -26 -53 -50 -76 -82 -82 l-25 -4 -1
191 -1 192 63 190 c65 192 116 317 135 329 12 7 71 -64 101 -123 13 -24 36
-101 52 -173 27 -119 93 -298 110 -298 4 0 7 116 7 258 1 156 -2 249 -8 237
-8 -19 -9 -18 -10 5 -2 22 -3 22 -8 5 -3 -11 -13 41 -23 115 -9 74 -19 142
-23 150 -4 11 6 20 34 32 l40 17 0 131 c0 117 -2 135 -20 157 -21 27 -27 73
-10 73 6 0 9 6 8 13 -2 6 3 11 10 9 9 -1 12 61 12 287 0 160 -4 292 -8 295 -5
3 -29 -18 -54 -47z m-231 -529 c-3 -8 -6 -5 -6 6 -1 11 2 17 5 13 3 -3 4 -12
1 -19z m-47 -151 c-25 -72 -50 -130 -55 -126 -6 7 59 187 67 183 4 -2 -2 -28
-12 -57z m-70 -157 c-6 -11 -13 -20 -16 -20 -2 0 0 9 6 20 6 11 13 20 16 20 2
0 0 -9 -6 -20z m-29 -48 c-5 -10 -18 -25 -27 -33 -11 -9 -9 -2 6 19 26 35 36
42 21 14z m340 -243 c21 -118 21 -128 6 -143 -15 -16 -17 -15 -23 11 -10 42
-43 104 -75 141 -16 18 -29 37 -29 42 0 16 83 91 91 83 4 -4 17 -65 30 -134z
m-286 -38 c-9 -8 -36 -10 -30 -2 2 4 11 8 20 8 8 0 13 -3 10 -6z m-25 -66 c0
-7 -8 -23 -18 -35 l-18 -22 -2 32 c-1 17 0 35 3 40 8 13 35 1 35 -15z m387
-87 c-2 -13 -4 -5 -4 17 -1 22 1 32 4 23 2 -10 2 -28 0 -40z m-50 10 c-3 -7
-5 -2 -5 12 0 14 2 19 5 13 2 -7 2 -19 0 -25z m7 -92 c-3 -21 -9 -35 -11 -32
-3 3 -2 21 1 42 4 20 10 34 12 31 3 -3 2 -21 -2 -41z m13 -38 c-3 -8 -6 -5 -6
6 -1 11 2 17 5 13 3 -3 4 -12 1 -19z m-10 -60 c-3 -7 -5 -2 -5 12 0 14 2 19 5
13 2 -7 2 -19 0 -25z m20 10 c-3 -8 -6 -5 -6 6 -1 11 2 17 5 13 3 -3 4 -12 1
-19z m29 -123 c11 -27 -2 -37 -14 -11 -7 16 -8 26 -1 26 5 0 12 -7 15 -15z
m-509 -227 c-3 -8 -6 -5 -6 6 -1 11 2 17 5 13 3 -3 4 -12 1 -19z m0 -180 c-3
-8 -6 -5 -6 6 -1 11 2 17 5 13 3 -3 4 -12 1 -19z m92 -1591 c12 -15 12 -17 -3
-11 -9 3 -16 13 -16 22 0 8 1 13 3 11 1 -2 9 -12 16 -22z"/>
<path d="M2360 3597 l0 -236 28 -16 27 -16 -27 6 -28 5 0 -105 c0 -58 4 -105
9 -105 5 0 28 21 51 48 24 26 85 90 135 143 79 82 90 97 76 106 -30 19 -75
169 -78 258 -3 127 -29 105 -58 -50 -13 -71 -18 -84 -51 -112 -21 -18 -40 -33
-44 -33 -3 0 -7 21 -8 48 -3 73 -24 286 -28 291 -2 2 -4 -102 -4 -232z m87
-273 c-3 -3 -12 -4 -19 -1 -8 3 -5 6 6 6 11 1 17 -2 13 -5z"/>
<path d="M3050 3696 l0 -105 30 -16 c17 -9 30 -14 30 -13 1 2 1 55 2 118 l1
115 -31 3 -32 3 0 -105z"/>
<path d="M3052 3413 c2 -82 7 -157 12 -168 6 -16 6 -17 -3 -5 -9 12 -11 10
-11 -12 0 -18 5 -28 14 -28 8 0 22 -10 30 -22 l16 -22 1 29 c4 97 -1 357 -6
365 -3 6 -17 10 -31 10 l-25 0 3 -147z"/>
<path d="M2697 3019 c-3 -12 -10 -18 -15 -15 -12 7 -263 -254 -256 -266 3 -4
9 -6 13 -4 4 3 5 -24 3 -60 -2 -35 -1 -98 3 -139 l7 -75 29 17 c25 15 27 19
14 33 -8 9 -13 19 -11 21 2 2 6 25 9 51 10 85 37 166 58 171 10 3 18 2 17 -2
-1 -3 4 -19 10 -34 7 -16 13 -55 15 -88 1 -32 4 -59 6 -59 2 0 28 19 58 41
l53 41 0 194 c0 107 -2 194 -4 194 -2 0 -6 -9 -9 -21z"/>
<path d="M2110 2726 c0 -2 8 -10 18 -17 15 -13 16 -12 3 4 -13 16 -21 21 -21
13z"/>
</g>
</svg>
