<?xml version="1.0" encoding="UTF-8"?>
<!DOCTYPE svg PUBLIC "-//W3C//DTD SVG 1.1//EN" "http://www.w3.org/Graphics/SVG/1.1/DTD/svg11.dtd">
<svg xmlns="http://www.w3.org/2000/svg" version="1.1" width="596px" height="596px" style="shape-rendering:geometricPrecision; text-rendering:geometricPrecision; image-rendering:optimizeQuality; fill-rule:evenodd; clip-rule:evenodd" xmlns:xlink="http://www.w3.org/1999/xlink">
<g><path style="opacity:0.997" fill="#000f0d" d="M 273.5,-0.5 C 289.5,-0.5 305.5,-0.5 321.5,-0.5C 437.401,13.2716 520.567,72.605 571,177.5C 584.211,208.347 592.378,240.347 595.5,273.5C 595.5,289.5 595.5,305.5 595.5,321.5C 581.728,437.401 522.395,520.567 417.5,571C 386.653,584.211 354.653,592.378 321.5,595.5C 305.5,595.5 289.5,595.5 273.5,595.5C 157.599,581.728 74.4328,522.395 24,417.5C 10.7889,386.653 2.62228,354.653 -0.5,321.5C -0.5,305.5 -0.5,289.5 -0.5,273.5C 13.2716,157.599 72.605,74.4328 177.5,24C 208.347,10.7889 240.347,2.62228 273.5,-0.5 Z"/></g>
<g><path style="opacity:1" fill="#fefefe" d="M 318.5,231.5 C 318.5,251.167 318.5,270.833 318.5,290.5C 313.833,290.5 309.167,290.5 304.5,290.5C 303.514,294.97 303.181,299.637 303.5,304.5C 298.833,304.5 294.167,304.5 289.5,304.5C 289.5,309.5 289.5,314.5 289.5,319.5C 284.305,319.179 279.305,319.513 274.5,320.5C 274.5,325.167 274.5,329.833 274.5,334.5C 269.5,334.5 264.5,334.5 259.5,334.5C 259.5,339.5 259.5,344.5 259.5,349.5C 254.833,349.5 250.167,349.5 245.5,349.5C 244.514,353.97 244.181,358.637 244.5,363.5C 239.637,363.181 234.97,363.514 230.5,364.5C 230.5,369.167 230.5,373.833 230.5,378.5C 191.167,378.5 151.833,378.5 112.5,378.5C 112.5,344.167 112.5,309.833 112.5,275.5C 117.5,275.5 122.5,275.5 127.5,275.5C 127.5,270.5 127.5,265.5 127.5,260.5C 132.167,260.5 136.833,260.5 141.5,260.5C 141.5,255.5 141.5,250.5 141.5,245.5C 146.5,245.5 151.5,245.5 156.5,245.5C 156.5,240.833 156.5,236.167 156.5,231.5C 161.5,231.5 166.5,231.5 171.5,231.5C 171.5,226.5 171.5,221.5 171.5,216.5C 176.5,216.5 181.5,216.5 186.5,216.5C 186.5,211.5 186.5,206.5 186.5,201.5C 191.167,201.5 195.833,201.5 200.5,201.5C 200.5,196.5 200.5,191.5 200.5,186.5C 205.5,186.5 210.5,186.5 215.5,186.5C 215.5,181.833 215.5,177.167 215.5,172.5C 249.833,172.5 284.167,172.5 318.5,172.5C 318.5,192.167 318.5,211.833 318.5,231.5 Z"/></g>
<g><path style="opacity:1" fill="#79dcab" d="M 478.5,173.5 C 478.666,179.176 478.499,184.843 478,190.5C 474.2,189.801 470.367,189.135 466.5,188.5C 459.551,189.553 452.884,189.553 446.5,188.5C 445.318,190.645 443.818,190.645 442,188.5C 427.806,188.64 413.973,188.64 400.5,188.5C 399.808,189.025 399.308,189.692 399,190.5C 396,189.833 393,189.167 390,188.5C 381.794,189.54 373.294,189.707 364.5,189C 368.833,188.667 373.167,188.333 377.5,188C 372.511,187.501 367.511,187.334 362.5,187.5C 367.305,186.513 372.305,186.179 377.5,186.5C 378.485,182.366 378.818,178.032 378.5,173.5C 411.833,173.5 445.167,173.5 478.5,173.5 Z"/></g>
<g><path style="opacity:1" fill="#79deb2" d="M 478.5,173.5 C 479.49,179.645 479.823,185.978 479.5,192.5C 478.672,198.653 478.172,204.987 478,211.5C 475,210.833 472,210.167 469,209.5C 429.967,210.468 390.467,210.802 350.5,210.5C 350.662,212.527 350.495,214.527 350,216.5C 349.501,212.179 349.334,207.846 349.5,203.5C 354.294,204.097 358.627,203.43 362.5,201.5C 362.5,196.833 362.5,192.167 362.5,187.5C 367.511,187.334 372.511,187.501 377.5,188C 373.167,188.333 368.833,188.667 364.5,189C 373.294,189.707 381.794,189.54 390,188.5C 393,189.167 396,189.833 399,190.5C 399.308,189.692 399.808,189.025 400.5,188.5C 413.973,188.64 427.806,188.64 442,188.5C 443.818,190.645 445.318,190.645 446.5,188.5C 452.884,189.553 459.551,189.553 466.5,188.5C 470.367,189.135 474.2,189.801 478,190.5C 478.499,184.843 478.666,179.176 478.5,173.5 Z"/></g>
<g><path style="opacity:1" fill="#77dfb8" d="M 479.5,192.5 C 479.5,199.5 479.5,206.5 479.5,213.5C 478.834,218.349 478.167,223.349 477.5,228.5C 429.111,227.899 381.944,227.565 336,227.5C 335.667,228.833 335.333,230.167 335,231.5C 334.501,226.845 334.334,222.179 334.5,217.5C 339.032,217.818 343.366,217.485 347.5,216.5C 347.5,211.5 347.5,206.5 347.5,201.5C 352.5,201.5 357.5,201.5 362.5,201.5C 358.627,203.43 354.294,204.097 349.5,203.5C 349.334,207.846 349.501,212.179 350,216.5C 350.495,214.527 350.662,212.527 350.5,210.5C 390.467,210.802 429.967,210.468 469,209.5C 472,210.167 475,210.833 478,211.5C 478.172,204.987 478.672,198.653 479.5,192.5 Z"/></g>
<g><path style="opacity:1" fill="#b4eed8" d="M 480.5,289.5 C 475.489,289.666 470.489,289.499 465.5,289C 469.821,288.501 474.154,288.334 478.5,288.5C 479.496,275.344 479.829,262.01 479.5,248.5C 479.5,236.833 479.5,225.167 479.5,213.5C 479.5,206.5 479.5,199.5 479.5,192.5C 479.823,185.978 479.49,179.645 478.5,173.5C 445.167,173.5 411.833,173.5 378.5,173.5C 378.818,178.032 378.485,182.366 377.5,186.5C 377.5,181.833 377.5,177.167 377.5,172.5C 411.833,172.5 446.167,172.5 480.5,172.5C 480.5,211.5 480.5,250.5 480.5,289.5 Z"/></g>
<g><path style="opacity:1" fill="#75e0bf" d="M 479.5,213.5 C 479.5,225.167 479.5,236.833 479.5,248.5C 479.167,248.5 478.833,248.5 478.5,248.5C 477.685,247.163 476.518,246.163 475,245.5C 424.976,245.209 375.143,245.542 325.5,246.5C 323.566,246.099 322.066,245.099 321,243.5C 320.501,239.848 320.335,236.182 320.5,232.5C 325.032,232.818 329.366,232.485 333.5,231.5C 333.5,226.5 333.5,221.5 333.5,216.5C 338.167,216.5 342.833,216.5 347.5,216.5C 343.366,217.485 339.032,217.818 334.5,217.5C 334.334,222.179 334.501,226.845 335,231.5C 335.333,230.167 335.667,228.833 336,227.5C 381.944,227.565 429.111,227.899 477.5,228.5C 478.167,223.349 478.834,218.349 479.5,213.5 Z"/></g>
<g><path style="opacity:1" fill="#73e1c4" d="M 320.5,232.5 C 320.335,236.182 320.501,239.848 321,243.5C 322.066,245.099 323.566,246.099 325.5,246.5C 375.143,245.542 424.976,245.209 475,245.5C 476.518,246.163 477.685,247.163 478.5,248.5C 478.666,254.176 478.499,259.843 478,265.5C 476.915,264.707 475.748,264.04 474.5,263.5C 424.652,264.355 373.985,264.689 322.5,264.5C 321.749,263.624 321.249,262.624 321,261.5C 320.5,268.492 320.334,275.492 320.5,282.5C 319.221,271.018 319.221,254.352 320.5,232.5 Z"/></g>
<g><path style="opacity:1" fill="#050606" d="M 141.5,245.5 C 141.5,250.5 141.5,255.5 141.5,260.5C 136.833,260.5 132.167,260.5 127.5,260.5C 127.5,265.5 127.5,270.5 127.5,275.5C 122.5,275.5 117.5,275.5 112.5,275.5C 112.5,309.833 112.5,344.167 112.5,378.5C 151.833,378.5 191.167,378.5 230.5,378.5C 230.5,373.833 230.5,369.167 230.5,364.5C 235.5,364.5 240.5,364.5 245.5,364.5C 241.018,365.326 236.351,365.826 231.5,366C 232.629,370.079 232.796,374.245 232,378.5C 231.5,379 231,379.5 230.5,380C 190.833,380.667 151.167,380.667 111.5,380C 110.338,344.905 110.171,309.738 111,274.5C 115.737,273.531 120.57,273.197 125.5,273.5C 125.334,268.821 125.501,264.155 126,259.5C 130.667,258.167 135.333,258.167 140,259.5C 140.174,254.649 140.674,249.982 141.5,245.5 Z"/></g>
<g><path style="opacity:1" fill="#72e2cb" d="M 478.5,248.5 C 478.833,248.5 479.167,248.5 479.5,248.5C 479.829,262.01 479.496,275.344 478.5,288.5C 478.778,286.654 478.111,285.32 476.5,284.5C 426.197,285.445 375.697,285.779 325,285.5C 323.249,284.778 321.749,283.778 320.5,282.5C 320.334,275.492 320.5,268.492 321,261.5C 321.249,262.624 321.749,263.624 322.5,264.5C 373.985,264.689 424.652,264.355 474.5,263.5C 475.748,264.04 476.915,264.707 478,265.5C 478.499,259.843 478.666,254.176 478.5,248.5 Z"/></g>
<g><path style="opacity:1" fill="#70e3d1" d="M 318.5,231.5 C 323.5,231.5 328.5,231.5 333.5,231.5C 329.366,232.485 325.032,232.818 320.5,232.5C 319.221,254.352 319.221,271.018 320.5,282.5C 321.749,283.778 323.249,284.778 325,285.5C 375.697,285.779 426.197,285.445 476.5,284.5C 478.111,285.32 478.778,286.654 478.5,288.5C 474.154,288.334 469.821,288.501 465.5,289C 470.489,289.499 475.489,289.666 480.5,289.5C 475.695,290.487 470.695,290.821 465.5,290.5C 464.515,294.634 464.182,298.968 464.5,303.5C 412.062,302.543 359.729,302.21 307.5,302.5C 306.833,303.167 306.167,303.833 305.5,304.5C 304.507,299.88 304.173,295.214 304.5,290.5C 309.167,290.5 313.833,290.5 318.5,290.5C 318.5,270.833 318.5,251.167 318.5,231.5 Z"/></g>
<g><path style="opacity:1" fill="#70e4d7" d="M 304.5,290.5 C 304.173,295.214 304.507,299.88 305.5,304.5C 306.167,303.833 306.833,303.167 307.5,302.5C 359.729,302.21 412.062,302.543 464.5,303.5C 464.182,298.968 464.515,294.634 465.5,290.5C 465.5,295.167 465.5,299.833 465.5,304.5C 460.833,304.5 456.167,304.5 451.5,304.5C 451.5,309.5 451.5,314.5 451.5,319.5C 446.5,319.5 441.5,319.5 436.5,319.5C 435.069,319.881 434.236,320.881 434,322.5C 433.333,321.833 432.667,321.167 432,320.5C 380.458,320.805 327.958,320.805 274.5,320.5C 279.305,319.513 284.305,319.179 289.5,319.5C 289.5,314.5 289.5,309.5 289.5,304.5C 294.167,304.5 298.833,304.5 303.5,304.5C 303.181,299.637 303.514,294.97 304.5,290.5 Z"/></g>
<g><path style="opacity:1" fill="#6de5dd" d="M 436.5,319.5 C 436.5,324.5 436.5,329.5 436.5,334.5C 431.5,334.5 426.5,334.5 421.5,334.5C 419.836,335.949 419.002,337.949 419,340.5C 414.923,339.202 410.589,338.536 406,338.5C 363.135,339.025 319.968,339.025 276.5,338.5C 276.784,340.415 276.451,342.081 275.5,343.5C 275.81,340.287 275.477,337.287 274.5,334.5C 274.5,329.833 274.5,325.167 274.5,320.5C 327.958,320.805 380.458,320.805 432,320.5C 432.667,321.167 433.333,321.833 434,322.5C 434.236,320.881 435.069,319.881 436.5,319.5 Z"/></g>
<g><path style="opacity:1" fill="#6be6e3" d="M 421.5,334.5 C 421.5,339.5 421.5,344.5 421.5,349.5C 416.5,349.5 411.5,349.5 406.5,349.5C 405.515,353.634 405.182,357.968 405.5,362.5C 400.821,362.666 396.155,362.499 391.5,362C 395.833,361.667 400.167,361.333 404.5,361C 403.234,360.691 402.067,360.191 401,359.5C 393.1,359.733 385.433,359.733 378,359.5C 376.527,359.903 375.194,360.57 374,361.5C 372.806,360.57 371.473,359.903 370,359.5C 368.467,360.695 366.967,360.695 365.5,359.5C 364.808,360.025 364.308,360.692 364,361.5C 363.326,360.422 362.326,359.755 361,359.5C 356.628,360.242 352.461,360.242 348.5,359.5C 347.006,359.709 345.839,360.376 345,361.5C 344.692,360.692 344.192,360.025 343.5,359.5C 339.468,360.106 335.635,360.106 332,359.5C 330.527,359.903 329.194,360.57 328,361.5C 326.806,360.57 325.473,359.903 324,359.5C 322.467,360.695 320.967,360.695 319.5,359.5C 318.808,360.025 318.308,360.692 318,361.5C 317.481,360.484 316.647,359.818 315.5,359.5C 305.56,359.663 295.727,359.663 286,359.5C 284.527,359.903 283.194,360.57 282,361.5C 280.559,360.74 279.059,360.074 277.5,359.5C 276.833,362.642 276.166,365.642 275.5,368.5C 275.5,360.167 275.5,351.833 275.5,343.5C 276.451,342.081 276.784,340.415 276.5,338.5C 319.968,339.025 363.135,339.025 406,338.5C 410.589,338.536 414.923,339.202 419,340.5C 419.002,337.949 419.836,335.949 421.5,334.5 Z"/></g>
<g><path style="opacity:1" fill="#6ae7ea" d="M 406.5,349.5 C 406.5,354.167 406.5,358.833 406.5,363.5C 401.833,363.5 397.167,363.5 392.5,363.5C 392.821,368.695 392.487,373.695 391.5,378.5C 391.666,373.489 391.499,368.489 391,363.5C 390.501,368.155 390.334,372.821 390.5,377.5C 352.167,377.5 313.833,377.5 275.5,377.5C 275.5,374.5 275.5,371.5 275.5,368.5C 276.166,365.642 276.833,362.642 277.5,359.5C 279.059,360.074 280.559,360.74 282,361.5C 283.194,360.57 284.527,359.903 286,359.5C 295.727,359.663 305.56,359.663 315.5,359.5C 316.647,359.818 317.481,360.484 318,361.5C 318.308,360.692 318.808,360.025 319.5,359.5C 320.967,360.695 322.467,360.695 324,359.5C 325.473,359.903 326.806,360.57 328,361.5C 329.194,360.57 330.527,359.903 332,359.5C 335.635,360.106 339.468,360.106 343.5,359.5C 344.192,360.025 344.692,360.692 345,361.5C 345.839,360.376 347.006,359.709 348.5,359.5C 352.461,360.242 356.628,360.242 361,359.5C 362.326,359.755 363.326,360.422 364,361.5C 364.308,360.692 364.808,360.025 365.5,359.5C 366.967,360.695 368.467,360.695 370,359.5C 371.473,359.903 372.806,360.57 374,361.5C 375.194,360.57 376.527,359.903 378,359.5C 385.433,359.733 393.1,359.733 401,359.5C 402.067,360.191 403.234,360.691 404.5,361C 400.167,361.333 395.833,361.667 391.5,362C 396.155,362.499 400.821,362.666 405.5,362.5C 405.182,357.968 405.515,353.634 406.5,349.5 Z"/></g>
<g><path style="opacity:1" fill="#69716f" d="M 245.5,349.5 C 245.5,354.5 245.5,359.5 245.5,364.5C 240.5,364.5 235.5,364.5 230.5,364.5C 234.97,363.514 239.637,363.181 244.5,363.5C 244.181,358.637 244.514,353.97 245.5,349.5 Z"/></g>
<g><path style="opacity:1" fill="#aef5f7" d="M 274.5,334.5 C 275.477,337.287 275.81,340.287 275.5,343.5C 275.5,351.833 275.5,360.167 275.5,368.5C 275.5,371.5 275.5,374.5 275.5,377.5C 313.833,377.5 352.167,377.5 390.5,377.5C 390.334,372.821 390.501,368.155 391,363.5C 391.499,368.489 391.666,373.489 391.5,378.5C 352.5,378.5 313.5,378.5 274.5,378.5C 274.5,363.833 274.5,349.167 274.5,334.5 Z"/></g>
<g><path style="opacity:1" fill="#f1f2f2" d="M 112.5,414.5 C 114.5,414.5 116.5,414.5 118.5,414.5C 118.5,415.5 118.5,416.5 118.5,417.5C 119.5,417.5 120.5,417.5 121.5,417.5C 121.5,419.5 121.5,421.5 121.5,423.5C 122.5,423.5 123.5,423.5 124.5,423.5C 124.5,424.5 124.5,425.5 124.5,426.5C 125.5,426.5 126.5,426.5 127.5,426.5C 127.5,428.833 127.5,431.167 127.5,433.5C 128.5,433.5 129.5,433.5 130.5,433.5C 130.5,432.5 130.5,431.5 130.5,430.5C 131.5,430.5 132.5,430.5 133.5,430.5C 133.5,429.167 133.5,427.833 133.5,426.5C 134.5,426.5 135.5,426.5 136.5,426.5C 136.5,424.5 136.5,422.5 136.5,420.5C 137.5,420.5 138.5,420.5 139.5,420.5C 139.5,418.5 139.5,416.5 139.5,414.5C 141.833,414.5 144.167,414.5 146.5,414.5C 146.5,424.833 146.5,435.167 146.5,445.5C 144.167,445.5 141.833,445.5 139.5,445.5C 139.5,440.5 139.5,435.5 139.5,430.5C 138.5,430.5 137.5,430.5 136.5,430.5C 136.5,432.5 136.5,434.5 136.5,436.5C 135.5,436.5 134.5,436.5 133.5,436.5C 133.5,437.5 133.5,438.5 133.5,439.5C 132.5,439.5 131.5,439.5 130.5,439.5C 130.5,440.5 130.5,441.5 130.5,442.5C 129.5,442.5 128.5,442.5 127.5,442.5C 127.5,441.5 127.5,440.5 127.5,439.5C 126.5,439.5 125.5,439.5 124.5,439.5C 124.5,437.5 124.5,435.5 124.5,433.5C 123.5,433.5 122.5,433.5 121.5,433.5C 121.5,431.5 121.5,429.5 121.5,427.5C 120.5,427.5 119.5,427.5 118.5,427.5C 118.5,433.5 118.5,439.5 118.5,445.5C 116.5,445.5 114.5,445.5 112.5,445.5C 112.5,435.167 112.5,424.833 112.5,414.5 Z"/></g>
<g><path style="opacity:1" fill="#fefefe" d="M 155.5,414.5 C 157.5,414.5 159.5,414.5 161.5,414.5C 161.5,424.833 161.5,435.167 161.5,445.5C 159.5,445.5 157.5,445.5 155.5,445.5C 155.5,435.167 155.5,424.833 155.5,414.5 Z"/></g>
<g><path style="opacity:1" fill="#f7f7f7" d="M 167.5,414.5 C 169.5,414.5 171.5,414.5 173.5,414.5C 173.5,415.5 173.5,416.5 173.5,417.5C 174.833,417.5 176.167,417.5 177.5,417.5C 177.5,418.5 177.5,419.5 177.5,420.5C 178.5,420.5 179.5,420.5 180.5,420.5C 180.5,422.5 180.5,424.5 180.5,426.5C 181.5,426.5 182.5,426.5 183.5,426.5C 183.5,427.833 183.5,429.167 183.5,430.5C 184.5,430.5 185.5,430.5 186.5,430.5C 186.5,431.5 186.5,432.5 186.5,433.5C 187.5,433.5 188.5,433.5 189.5,433.5C 189.5,427.167 189.5,420.833 189.5,414.5C 191.5,414.5 193.5,414.5 195.5,414.5C 195.5,424.833 195.5,435.167 195.5,445.5C 193.5,445.5 191.5,445.5 189.5,445.5C 189.5,444.5 189.5,443.5 189.5,442.5C 188.5,442.5 187.5,442.5 186.5,442.5C 186.5,441.5 186.5,440.5 186.5,439.5C 185.5,439.5 184.5,439.5 183.5,439.5C 183.5,438.5 183.5,437.5 183.5,436.5C 182.5,436.5 181.5,436.5 180.5,436.5C 180.5,434.5 180.5,432.5 180.5,430.5C 179.167,430.5 177.833,430.5 176.5,430.5C 176.762,429.022 176.429,427.689 175.5,426.5C 174.914,426.709 174.414,427.043 174,427.5C 173.501,433.491 173.334,439.491 173.5,445.5C 171.5,445.5 169.5,445.5 167.5,445.5C 167.5,435.167 167.5,424.833 167.5,414.5 Z"/></g>
<g><path style="opacity:1" fill="#fcfcfc" d="M 201.5,414.5 C 209.833,414.5 218.167,414.5 226.5,414.5C 226.5,415.5 226.5,416.5 226.5,417.5C 227.5,417.5 228.5,417.5 229.5,417.5C 229.5,418.5 229.5,419.5 229.5,420.5C 230.5,420.5 231.5,420.5 232.5,420.5C 232.5,426.833 232.5,433.167 232.5,439.5C 231.5,439.5 230.5,439.5 229.5,439.5C 229.5,440.5 229.5,441.5 229.5,442.5C 227.5,442.5 225.5,442.5 223.5,442.5C 223.5,443.5 223.5,444.5 223.5,445.5C 216.167,445.5 208.833,445.5 201.5,445.5C 201.5,435.167 201.5,424.833 201.5,414.5 Z"/></g>
<g><path style="opacity:1" fill="#f8f8f8" d="M 261.5,420.5 C 262.806,421.467 263.473,422.801 263.5,424.5C 264.833,424.5 266.167,424.5 267.5,424.5C 267.5,425.5 267.5,426.5 267.5,427.5C 268.5,427.5 269.5,427.5 270.5,427.5C 270.5,429.5 270.5,431.5 270.5,433.5C 271.5,433.5 272.5,433.5 273.5,433.5C 273.5,427.167 273.5,420.833 273.5,414.5C 275.5,414.5 277.5,414.5 279.5,414.5C 279.5,424.833 279.5,435.167 279.5,445.5C 277.5,445.5 275.5,445.5 273.5,445.5C 273.5,443.5 273.5,441.5 273.5,439.5C 272.5,439.5 271.5,439.5 270.5,439.5C 270.5,438.5 270.5,437.5 270.5,436.5C 269.5,436.5 268.5,436.5 267.5,436.5C 267.5,435.5 267.5,434.5 267.5,433.5C 266.167,433.5 264.833,433.5 263.5,433.5C 263.5,432.5 263.5,431.5 263.5,430.5C 262.5,430.5 261.5,430.5 260.5,430.5C 260.5,428.5 260.5,426.5 260.5,424.5C 259.5,424.5 258.5,424.5 257.5,424.5C 257.5,431.5 257.5,438.5 257.5,445.5C 255.5,445.5 253.5,445.5 251.5,445.5C 251.5,435.167 251.5,424.833 251.5,414.5C 253.5,414.5 255.5,414.5 257.5,414.5C 257.5,415.5 257.5,416.5 257.5,417.5C 258.5,417.5 259.5,417.5 260.5,417.5C 260.263,418.791 260.596,419.791 261.5,420.5 Z"/></g>
<g><path style="opacity:1" fill="#f7f8f8" d="M 365.5,414.5 C 365.5,417.833 365.5,421.167 365.5,424.5C 366.5,424.5 367.5,424.5 368.5,424.5C 368.19,427.713 368.523,430.713 369.5,433.5C 371.048,433.179 371.715,432.179 371.5,430.5C 372.833,430.5 374.167,430.5 375.5,430.5C 375.5,427.167 375.5,423.833 375.5,420.5C 376.5,420.5 377.5,420.5 378.5,420.5C 378.5,418.5 378.5,416.5 378.5,414.5C 380.5,414.5 382.5,414.5 384.5,414.5C 384.5,416.5 384.5,418.5 384.5,420.5C 383.5,420.5 382.5,420.5 381.5,420.5C 381.5,423.833 381.5,427.167 381.5,430.5C 380.5,430.5 379.5,430.5 378.5,430.5C 378.5,433.5 378.5,436.5 378.5,439.5C 377.5,439.5 376.5,439.5 375.5,439.5C 375.5,441.5 375.5,443.5 375.5,445.5C 373.167,445.5 370.833,445.5 368.5,445.5C 368.5,444.5 368.5,443.5 368.5,442.5C 367.5,442.5 366.5,442.5 365.5,442.5C 365.5,439.5 365.5,436.5 365.5,433.5C 364.5,433.5 363.5,433.5 362.5,433.5C 362.5,430.5 362.5,427.5 362.5,424.5C 361.5,424.5 360.5,424.5 359.5,424.5C 359.5,426.5 359.5,428.5 359.5,430.5C 358.5,430.5 357.5,430.5 356.5,430.5C 356.5,433.5 356.5,436.5 356.5,439.5C 355.5,439.5 354.5,439.5 353.5,439.5C 353.5,441.5 353.5,443.5 353.5,445.5C 351.5,445.5 349.5,445.5 347.5,445.5C 347.5,443.5 347.5,441.5 347.5,439.5C 346.5,439.5 345.5,439.5 344.5,439.5C 344.5,436.5 344.5,433.5 344.5,430.5C 343.5,430.5 342.5,430.5 341.5,430.5C 341.5,427.5 341.5,424.5 341.5,421.5C 340.791,420.596 339.791,420.263 338.5,420.5C 338.5,419.5 338.5,418.5 338.5,417.5C 334.958,417.187 331.625,417.521 328.5,418.5C 328.5,427.5 328.5,436.5 328.5,445.5C 326.5,445.5 324.5,445.5 322.5,445.5C 322.5,436.167 322.5,426.833 322.5,417.5C 312.167,417.5 301.833,417.5 291.5,417.5C 291.5,418.5 291.5,419.5 291.5,420.5C 292.791,420.263 293.791,420.596 294.5,421.5C 294.5,423.5 294.5,425.5 294.5,427.5C 299.833,427.5 305.167,427.5 310.5,427.5C 310.5,428.5 310.5,429.5 310.5,430.5C 309.5,430.5 308.5,430.5 307.5,430.5C 307.5,431.5 307.5,432.5 307.5,433.5C 303.167,433.5 298.833,433.5 294.5,433.5C 294.5,435.5 294.5,437.5 294.5,439.5C 299.833,439.5 305.167,439.5 310.5,439.5C 310.5,441.5 310.5,443.5 310.5,445.5C 303.167,445.5 295.833,445.5 288.5,445.5C 288.5,435.167 288.5,424.833 288.5,414.5C 307.167,414.5 325.833,414.5 344.5,414.5C 344.5,416.5 344.5,418.5 344.5,420.5C 345.5,420.5 346.5,420.5 347.5,420.5C 347.5,423.833 347.5,427.167 347.5,430.5C 348.5,430.5 349.5,430.5 350.5,430.5C 350.5,431.5 350.5,432.5 350.5,433.5C 351.5,433.5 352.5,433.5 353.5,433.5C 353.5,430.5 353.5,427.5 353.5,424.5C 354.5,424.5 355.5,424.5 356.5,424.5C 356.5,421.167 356.5,417.833 356.5,414.5C 359.5,414.5 362.5,414.5 365.5,414.5 Z"/></g>
<g><path style="opacity:1" fill="#303433" d="M 365.5,414.5 C 367.08,416.717 368.08,419.384 368.5,422.5C 369.489,426.107 369.823,429.774 369.5,433.5C 368.523,430.713 368.19,427.713 368.5,424.5C 367.5,424.5 366.5,424.5 365.5,424.5C 365.5,421.167 365.5,417.833 365.5,414.5 Z"/></g>
<g><path style="opacity:1" fill="#f5f6f6" d="M 393.5,414.5 C 399.833,414.5 406.167,414.5 412.5,414.5C 412.5,415.5 412.5,416.5 412.5,417.5C 413.5,417.5 414.5,417.5 415.5,417.5C 415.5,418.5 415.5,419.5 415.5,420.5C 416.5,420.5 417.5,420.5 418.5,420.5C 418.5,426.833 418.5,433.167 418.5,439.5C 417.5,439.5 416.5,439.5 415.5,439.5C 415.5,440.5 415.5,441.5 415.5,442.5C 413.5,442.5 411.5,442.5 409.5,442.5C 409.5,443.5 409.5,444.5 409.5,445.5C 404.167,445.5 398.833,445.5 393.5,445.5C 393.5,444.5 393.5,443.5 393.5,442.5C 392.5,442.5 391.5,442.5 390.5,442.5C 390.5,441.5 390.5,440.5 390.5,439.5C 389.5,439.5 388.5,439.5 387.5,439.5C 387.5,438.5 387.5,437.5 387.5,436.5C 386.5,436.5 385.5,436.5 384.5,436.5C 384.5,432.5 384.5,428.5 384.5,424.5C 385.5,424.5 386.5,424.5 387.5,424.5C 387.5,422.167 387.5,419.833 387.5,417.5C 389.5,417.5 391.5,417.5 393.5,417.5C 393.5,416.5 393.5,415.5 393.5,414.5 Z"/></g>
<g><path style="opacity:1" fill="#f1f2f2" d="M 424.5,414.5 C 431.833,414.5 439.167,414.5 446.5,414.5C 446.5,415.5 446.5,416.5 446.5,417.5C 447.5,417.5 448.5,417.5 449.5,417.5C 449.5,421.833 449.5,426.167 449.5,430.5C 448.5,430.5 447.5,430.5 446.5,430.5C 446.5,431.5 446.5,432.5 446.5,433.5C 445.167,433.5 443.833,433.5 442.5,433.5C 442.5,434.5 442.5,435.5 442.5,436.5C 443.833,436.5 445.167,436.5 446.5,436.5C 446.5,438.5 446.5,440.5 446.5,442.5C 447.5,442.5 448.5,442.5 449.5,442.5C 449.5,443.5 449.5,444.5 449.5,445.5C 447.167,445.5 444.833,445.5 442.5,445.5C 442.5,444.5 442.5,443.5 442.5,442.5C 441.5,442.5 440.5,442.5 439.5,442.5C 439.5,440.5 439.5,438.5 439.5,436.5C 436.5,436.5 433.5,436.5 430.5,436.5C 430.5,439.5 430.5,442.5 430.5,445.5C 428.5,445.5 426.5,445.5 424.5,445.5C 424.5,435.167 424.5,424.833 424.5,414.5 Z"/></g>
<g><path style="opacity:1" fill="#f7f7f7" d="M 455.5,414.5 C 457.5,414.5 459.5,414.5 461.5,414.5C 461.5,418.833 461.5,423.167 461.5,427.5C 462.5,427.5 463.5,427.5 464.5,427.5C 464.5,426.5 464.5,425.5 464.5,424.5C 465.5,424.5 466.5,424.5 467.5,424.5C 467.5,423.167 467.5,421.833 467.5,420.5C 468.5,420.5 469.5,420.5 470.5,420.5C 470.5,419.5 470.5,418.5 470.5,417.5C 471.5,417.5 472.5,417.5 473.5,417.5C 473.5,416.5 473.5,415.5 473.5,414.5C 475.833,414.5 478.167,414.5 480.5,414.5C 480.5,415.5 480.5,416.5 480.5,417.5C 478.005,418.199 475.672,419.199 473.5,420.5C 473.5,421.833 473.5,423.167 473.5,424.5C 472.5,424.5 471.5,424.5 470.5,424.5C 470.5,427.5 470.5,430.5 470.5,433.5C 471.5,433.5 472.5,433.5 473.5,433.5C 473.5,434.5 473.5,435.5 473.5,436.5C 474.5,436.5 475.5,436.5 476.5,436.5C 476.5,437.5 476.5,438.5 476.5,439.5C 477.833,439.5 479.167,439.5 480.5,439.5C 480.5,441.5 480.5,443.5 480.5,445.5C 479.167,445.5 477.833,445.5 476.5,445.5C 476.5,444.5 476.5,443.5 476.5,442.5C 475.5,442.5 474.5,442.5 473.5,442.5C 473.5,441.5 473.5,440.5 473.5,439.5C 472.5,439.5 471.5,439.5 470.5,439.5C 470.5,438.5 470.5,437.5 470.5,436.5C 469.5,436.5 468.5,436.5 467.5,436.5C 467.5,435.5 467.5,434.5 467.5,433.5C 465.5,433.5 463.5,433.5 461.5,433.5C 461.5,437.5 461.5,441.5 461.5,445.5C 459.5,445.5 457.5,445.5 455.5,445.5C 455.5,435.167 455.5,424.833 455.5,414.5 Z"/></g>
<g><path style="opacity:1" fill="#5f6564" d="M 328.5,418.5 C 331.625,417.521 334.958,417.187 338.5,417.5C 338.5,418.5 338.5,419.5 338.5,420.5C 339.791,420.263 340.791,420.596 341.5,421.5C 340.167,421.5 338.833,421.5 337.5,421.5C 337.5,420.5 337.5,419.5 337.5,418.5C 334.5,418.5 331.5,418.5 328.5,418.5 Z"/></g>
<g><path style="opacity:1" fill="#0c1513" d="M 207.5,417.5 C 211.833,417.5 216.167,417.5 220.5,417.5C 220.5,418.5 220.5,419.5 220.5,420.5C 221.5,420.5 222.5,420.5 223.5,420.5C 223.5,421.5 223.5,422.5 223.5,423.5C 224.5,423.5 225.5,423.5 226.5,423.5C 226.5,427.833 226.5,432.167 226.5,436.5C 225.5,436.5 224.5,436.5 223.5,436.5C 223.5,437.5 223.5,438.5 223.5,439.5C 221.5,439.5 219.5,439.5 217.5,439.5C 217.5,440.5 217.5,441.5 217.5,442.5C 214.167,442.5 210.833,442.5 207.5,442.5C 207.5,434.167 207.5,425.833 207.5,417.5 Z"/></g>
<g><path style="opacity:1" fill="#0e1615" d="M 427.5,417.5 C 431.5,417.5 435.5,417.5 439.5,417.5C 439.5,418.5 439.5,419.5 439.5,420.5C 440.5,420.5 441.5,420.5 442.5,420.5C 442.5,423.833 442.5,427.167 442.5,430.5C 438.5,430.5 434.5,430.5 430.5,430.5C 430.5,427.167 430.5,423.833 430.5,420.5C 429.5,420.5 428.5,420.5 427.5,420.5C 427.5,419.5 427.5,418.5 427.5,417.5 Z"/></g>
<g><path style="opacity:1" fill="#848a89" d="M 261.5,420.5 C 262.5,420.5 263.5,420.5 264.5,420.5C 264.5,421.5 264.5,422.5 264.5,423.5C 265.791,423.263 266.791,423.596 267.5,424.5C 266.167,424.5 264.833,424.5 263.5,424.5C 263.473,422.801 262.806,421.467 261.5,420.5 Z"/></g>
<g><path style="opacity:1" fill="#040f0e" d="M 405.5,418.5 C 405.5,419.5 405.5,420.5 405.5,421.5C 407.5,421.5 409.5,421.5 411.5,421.5C 411.5,426.5 411.5,431.5 411.5,436.5C 410.5,436.5 409.5,436.5 408.5,436.5C 408.5,437.5 408.5,438.5 408.5,439.5C 406.5,439.5 404.5,439.5 402.5,439.5C 402.5,440.5 402.5,441.5 402.5,442.5C 401.5,442.5 400.5,442.5 399.5,442.5C 399.5,441.5 399.5,440.5 399.5,439.5C 397.5,439.5 395.5,439.5 393.5,439.5C 393.5,438.5 393.5,437.5 393.5,436.5C 392.5,436.5 391.5,436.5 390.5,436.5C 390.5,432.5 390.5,428.5 390.5,424.5C 391.5,424.5 392.5,424.5 393.5,424.5C 393.5,423.167 393.5,421.833 393.5,420.5C 394.5,420.5 395.5,420.5 396.5,420.5C 396.5,419.5 396.5,418.5 396.5,417.5C 399.713,417.19 402.713,417.523 405.5,418.5 Z"/></g>
<g><path style="opacity:1" fill="#5d6564" d="M 405.5,418.5 C 407.456,420.148 409.789,420.815 412.5,420.5C 412.821,426.026 412.488,431.36 411.5,436.5C 411.5,431.5 411.5,426.5 411.5,421.5C 409.5,421.5 407.5,421.5 405.5,421.5C 405.5,420.5 405.5,419.5 405.5,418.5 Z"/></g>
<g><path style="opacity:1" fill="#535b59" d="M 294.5,421.5 C 295.451,422.919 295.784,424.585 295.5,426.5C 300.695,426.179 305.695,426.513 310.5,427.5C 305.167,427.5 299.833,427.5 294.5,427.5C 294.5,425.5 294.5,423.5 294.5,421.5 Z"/></g>
</svg>
