<?xml version="1.0" encoding="UTF-8"?>
<!DOCTYPE svg PUBLIC "-//W3C//DTD SVG 1.1//EN" "http://www.w3.org/Graphics/SVG/1.1/DTD/svg11.dtd">
<svg xmlns="http://www.w3.org/2000/svg" version="1.1" width="400px" height="400px" style="shape-rendering:geometricPrecision; text-rendering:geometricPrecision; image-rendering:optimizeQuality; fill-rule:evenodd; clip-rule:evenodd" xmlns:xlink="http://www.w3.org/1999/xlink">
<g><path style="opacity:1" fill="#fffefd" d="M -0.5,-0.5 C 62.5,-0.5 125.5,-0.5 188.5,-0.5C 108.419,7.08644 50.9193,47.0864 16,119.5C 6.84206,141.769 1.34206,164.769 -0.5,188.5C -0.5,125.5 -0.5,62.5 -0.5,-0.5 Z"/></g>
<g><path style="opacity:1" fill="#fd6056" d="M 188.5,-0.5 C 195.167,-0.5 201.833,-0.5 208.5,-0.5C 289.481,6.40118 347.647,46.4012 383,119.5C 392.158,141.769 397.658,164.769 399.5,188.5C 399.5,197.5 399.5,206.5 399.5,215.5C 389.17,296.678 346.504,353.511 271.5,386C 251,393.531 230,398.031 208.5,399.5C 200.5,399.5 192.5,399.5 184.5,399.5C 104.842,390.333 48.3418,349.333 15,276.5C 6.83727,256.79 1.67061,236.456 -0.5,215.5C -0.5,206.5 -0.5,197.5 -0.5,188.5C 1.34206,164.769 6.84206,141.769 16,119.5C 50.9193,47.0864 108.419,7.08644 188.5,-0.5 Z"/></g>
<g><path style="opacity:1" fill="#fffefe" d="M 208.5,-0.5 C 272.167,-0.5 335.833,-0.5 399.5,-0.5C 399.5,62.5 399.5,125.5 399.5,188.5C 397.658,164.769 392.158,141.769 383,119.5C 347.647,46.4012 289.481,6.40118 208.5,-0.5 Z"/></g>
<g><path style="opacity:1" fill="#f16560" d="M 238.5,95.5 C 235.457,91.4564 231.791,88.1231 227.5,85.5C 223.03,84.5139 218.363,84.1805 213.5,84.5C 217.97,83.5139 222.637,83.1805 227.5,83.5C 227.587,80.4017 227.087,80.0684 226,82.5C 225.075,81.9535 224.242,81.2868 223.5,80.5C 226.833,79.1667 230.167,79.1667 233.5,80.5C 231.955,81.4519 230.288,81.7852 228.5,81.5C 228.77,85.2056 230.603,86.5389 234,85.5C 235.274,88.9389 236.774,92.2723 238.5,95.5 Z"/></g>
<g><path style="opacity:1" fill="#df8179" d="M 213.5,84.5 C 218.363,84.1805 223.03,84.5139 227.5,85.5C 221.641,85.0508 215.975,85.7175 210.5,87.5C 210.5,85.5 211.5,84.5 213.5,84.5 Z"/></g>
<g><path style="opacity:1" fill="#fbfafa" d="M 227.5,85.5 C 231.791,88.1231 235.457,91.4564 238.5,95.5C 239.486,99.97 239.819,104.637 239.5,109.5C 237.668,113.681 235.002,117.348 231.5,120.5C 229.847,120.66 228.514,121.326 227.5,122.5C 212.585,125.384 203.919,119.384 201.5,104.5C 201.768,101.483 202.102,98.4825 202.5,95.5C 204.833,92.5 207.5,89.8333 210.5,87.5C 215.975,85.7175 221.641,85.0508 227.5,85.5 Z"/></g>
<g><path style="opacity:1" fill="#d87a76" d="M 239.5,109.5 C 239.191,114.819 236.524,118.485 231.5,120.5C 235.002,117.348 237.668,113.681 239.5,109.5 Z"/></g>
<g><path style="opacity:1" fill="#eb6b67" d="M 202.5,95.5 C 202.102,98.4825 201.768,101.483 201.5,104.5C 203.919,119.384 212.585,125.384 227.5,122.5C 227.389,123.117 227.056,123.617 226.5,124C 220.583,124.168 215.083,124.334 210,124.5C 208.108,123.383 207.275,121.716 207.5,119.5C 205.61,119.703 204.11,119.037 203,117.5C 200.058,109.945 199.891,102.611 202.5,95.5 Z"/></g>
<g><path style="opacity:1" fill="#dd6e64" d="M 95.5,135.5 C 102.989,134.344 110.655,134.178 118.5,135C 119.416,135.278 120.082,135.778 120.5,136.5C 112.2,135.629 103.867,135.295 95.5,135.5 Z"/></g>
<g><path style="opacity:1" fill="#df6e6b" d="M 303.5,137.5 C 292.907,135.276 282.24,134.943 271.5,136.5C 275.445,135.175 279.778,134.508 284.5,134.5C 288.833,134.667 293.167,134.833 297.5,135C 300.051,135.002 302.051,135.836 303.5,137.5 Z"/></g>
<g><path style="opacity:1" fill="#d8766c" d="M 94.5,136.5 C 90.6589,138.003 86.6589,139.336 82.5,140.5C 85.9215,137.804 89.9215,136.47 94.5,136.5 Z"/></g>
<g><path style="opacity:1" fill="#e46d65" d="M 121.5,136.5 C 125.534,136.672 129.534,137.172 133.5,138C 137.08,140.918 140.913,143.418 145,145.5C 146.057,144.373 147.223,143.873 148.5,144C 147.446,145.388 147.28,146.888 148,148.5C 150.782,150.771 152.949,153.437 154.5,156.5C 145.152,146.998 134.152,140.331 121.5,136.5 Z"/></g>
<g><path style="opacity:1" fill="#fbfaf8" d="M 221.5,135.5 C 221.833,135.5 222.167,135.5 222.5,135.5C 218.502,152.495 214.502,169.495 210.5,186.5C 208.071,193.221 206.404,200.221 205.5,207.5C 200.852,223.412 196.185,239.412 191.5,255.5C 191.5,255.833 191.5,256.167 191.5,256.5C 188.208,261.46 184.208,265.793 179.5,269.5C 177.5,270.167 175.5,270.833 173.5,271.5C 168.535,274.677 163.868,274.677 159.5,271.5C 159.5,271.167 159.5,270.833 159.5,270.5C 157.973,267.281 156.307,264.115 154.5,261C 162.003,259.603 167.669,255.77 171.5,249.5C 173.572,247.65 174.905,245.317 175.5,242.5C 175.5,241.5 175.5,240.5 175.5,239.5C 176.945,236.063 177.945,232.397 178.5,228.5C 178.5,228.167 178.5,227.833 178.5,227.5C 180.77,221.085 182.437,214.418 183.5,207.5C 185.749,202.503 187.083,197.17 187.5,191.5C 188.975,187.969 190.308,184.302 191.5,180.5C 191.751,176.751 192.417,173.085 193.5,169.5C 196.789,158.351 199.789,147.018 202.5,135.5C 208.833,135.5 215.167,135.5 221.5,135.5 Z"/></g>
<g><path style="opacity:1" fill="#e66c67" d="M 221.5,135.5 C 215.167,135.5 208.833,135.5 202.5,135.5C 199.789,147.018 196.789,158.351 193.5,169.5C 194.003,162.464 194.837,155.464 196,148.5C 196.639,143.861 198.473,139.528 201.5,135.5C 208.322,134.182 214.989,134.182 221.5,135.5 Z"/></g>
<g><path style="opacity:1" fill="#f6635b" d="M 82.5,140.5 C 67.1211,149.211 56.4544,161.878 50.5,178.5C 49.8333,179.167 49.1667,179.833 48.5,180.5C 48.7239,178.213 49.3906,176.047 50.5,174C 47.6815,170.654 46.8482,166.821 48,162.5C 48.6667,165.167 49.3333,165.167 50,162.5C 50.414,162.957 50.914,163.291 51.5,163.5C 53.202,161.586 55.202,160.086 57.5,159C 56.4366,157.812 55.1033,157.312 53.5,157.5C 53.2011,155.396 53.5344,153.396 54.5,151.5C 56.1881,149.971 57.5214,148.137 58.5,146C 59.448,145.517 60.448,145.351 61.5,145.5C 61.683,147.936 61.0163,150.103 59.5,152C 63.8219,153.014 65.3219,151.514 64,147.5C 64.8261,149.405 65.9928,149.739 67.5,148.5C 66.3595,147.575 66.3595,146.741 67.5,146C 66.5,145.667 65.5,145.333 64.5,145C 67.4302,143.341 70.4302,143.008 73.5,144C 72.4829,142.951 72.3162,141.784 73,140.5C 74.5707,138.077 76.7374,136.744 79.5,136.5C 79.5,137.833 79.5,139.167 79.5,140.5C 80.5,140.5 81.5,140.5 82.5,140.5 Z"/></g>
<g><path style="opacity:1" fill="#ee685b" d="M 249.5,147.5 C 242.666,153.656 236.999,160.656 232.5,168.5C 232.083,165.921 232.75,163.754 234.5,162C 232.299,158.022 233.632,155.356 238.5,154C 240.007,149.922 242.674,148.422 246.5,149.5C 246.338,147.473 246.505,145.473 247,143.5C 248.688,144.325 248.855,145.325 247.5,146.5C 247.957,147.298 248.624,147.631 249.5,147.5 Z"/></g>
<g><path style="opacity:1" fill="#fbfaf9" d="M 95.5,135.5 C 103.867,135.295 112.2,135.629 120.5,136.5C 120.833,136.5 121.167,136.5 121.5,136.5C 134.152,140.331 145.152,146.998 154.5,156.5C 157.174,160.838 159.841,165.172 162.5,169.5C 164.425,173.379 165.758,177.379 166.5,181.5C 169.196,196.68 166.863,211.013 159.5,224.5C 157.833,227.167 156.167,229.833 154.5,232.5C 149.437,237.568 144.104,242.235 138.5,246.5C 127.479,251.838 115.812,254.505 103.5,254.5C 96.8357,253.288 90.1691,251.621 83.5,249.5C 76.2915,245.301 69.6249,240.301 63.5,234.5C 55.1957,224.564 50.1957,213.231 48.5,200.5C 48.5,200.167 48.5,199.833 48.5,199.5C 48.3407,192.41 49.0074,185.41 50.5,178.5C 56.4544,161.878 67.1211,149.211 82.5,140.5C 86.6589,139.336 90.6589,138.003 94.5,136.5C 95.1667,136.5 95.5,136.167 95.5,135.5 Z"/></g>
<g><path style="opacity:1" fill="#dc706e" d="M 121.5,157.5 C 110.666,155.754 99.9993,156.421 89.5,159.5C 98.8942,154.4 108.894,153.233 119.5,156C 120.416,156.278 121.082,156.778 121.5,157.5 Z"/></g>
<g><path style="opacity:1" fill="#fc6056" d="M 121.5,157.5 C 131.93,160.265 139.264,166.598 143.5,176.5C 145.324,181.65 146.324,186.983 146.5,192.5C 145.419,199.479 144.419,206.479 143.5,213.5C 142.167,213.5 140.833,213.5 139.5,213.5C 139.236,216.757 137.57,218.757 134.5,219.5C 134.617,224.766 132.617,226.099 128.5,223.5C 127.614,224.325 127.281,225.325 127.5,226.5C 124.169,227.256 120.835,226.756 117.5,225C 113.789,224.561 110.122,224.894 106.5,226C 112.362,226.046 118.029,227.046 123.5,229C 122.449,230.385 121.116,231.385 119.5,232C 111.507,232.5 103.507,232.666 95.5,232.5C 88.8586,231.179 83.5252,227.846 79.5,222.5C 79.5278,218.845 77.8611,216.178 74.5,214.5C 73.6023,211.721 72.269,209.388 70.5,207.5C 67.9944,201.439 67.3277,195.106 68.5,188.5C 70.411,184.767 71.7444,180.767 72.5,176.5C 76.1832,168.756 81.8499,163.089 89.5,159.5C 99.9993,156.421 110.666,155.754 121.5,157.5 Z"/></g>
<g><path style="opacity:1" fill="#e76b61" d="M 154.5,156.5 C 155.5,156.5 156.5,156.5 157.5,156.5C 157.324,160.192 158.991,162.192 162.5,162.5C 162.5,164.833 162.5,167.167 162.5,169.5C 159.841,165.172 157.174,160.838 154.5,156.5 Z"/></g>
<g><path style="opacity:1" fill="#db7877" d="M 72.5,176.5 C 71.7444,180.767 70.411,184.767 68.5,188.5C 68.8606,184.085 70.1939,180.085 72.5,176.5 Z"/></g>
<g><path style="opacity:1" fill="#d47368" d="M 50.5,178.5 C 49.0074,185.41 48.3407,192.41 48.5,199.5C 47.4498,193.326 47.4498,186.993 48.5,180.5C 49.1667,179.833 49.8333,179.167 50.5,178.5 Z"/></g>
<g><path style="opacity:1" fill="#d7716f" d="M 191.5,180.5 C 190.308,184.302 188.975,187.969 187.5,191.5C 187.301,187.079 188.635,183.413 191.5,180.5 Z"/></g>
<g><path style="opacity:1" fill="#f76359" d="M 222.5,135.5 C 222.303,139.671 222.636,144.004 223.5,148.5C 223.333,150.167 223.167,151.833 223,153.5C 222.667,151.5 222.333,149.5 222,147.5C 220.63,152.352 220.464,157.185 221.5,162C 221.253,166.073 220.586,170.073 219.5,174C 221.769,177.01 222.936,180.51 223,184.5C 223.333,180.167 223.667,175.833 224,171.5C 224.45,174.106 225.95,175.439 228.5,175.5C 228.64,173.876 227.973,172.71 226.5,172C 228.641,171.015 230.641,169.848 232.5,168.5C 226.883,182.098 225.55,196.098 228.5,210.5C 228.5,212.5 228.5,214.5 228.5,216.5C 228.659,219.187 227.825,221.52 226,223.5C 226.156,219.494 226.656,215.494 227.5,211.5C 226.167,211.5 224.833,211.5 223.5,211.5C 223.5,208.5 223.5,205.5 223.5,202.5C 222.167,202.5 220.833,202.5 219.5,202.5C 219.657,201.127 219.49,199.793 219,198.5C 218.275,200.158 217.108,200.658 215.5,200C 216.627,198.247 217.627,196.413 218.5,194.5C 217.27,191.477 216.103,188.477 215,185.5C 214.331,192.47 213.831,192.804 213.5,186.5C 212.5,186.5 211.5,186.5 210.5,186.5C 214.502,169.495 218.502,152.495 222.5,135.5 Z"/></g>
<g><path style="opacity:1" fill="#ea6a62" d="M 210.5,186.5 C 211.08,190.81 211.414,195.143 211.5,199.5C 210.167,199.5 208.833,199.5 207.5,199.5C 207.198,202.373 206.531,205.039 205.5,207.5C 206.404,200.221 208.071,193.221 210.5,186.5 Z"/></g>
<g><path style="opacity:1" fill="#e16e6a" d="M 143.5,176.5 C 150.053,188.79 150.053,201.124 143.5,213.5C 144.419,206.479 145.419,199.479 146.5,192.5C 146.324,186.983 145.324,181.65 143.5,176.5 Z"/></g>
<g><path style="opacity:1" fill="#fbfaf8" d="M 303.5,137.5 C 324.295,144.963 337.961,159.296 344.5,180.5C 346.036,190.907 345.703,201.241 343.5,211.5C 334.545,236.446 316.878,250.779 290.5,254.5C 284.171,254.1 277.838,253.767 271.5,253.5C 266.409,250.791 261.075,248.291 255.5,246C 250.043,242.375 245.043,238.209 240.5,233.5C 235.701,226.235 231.701,218.568 228.5,210.5C 225.55,196.098 226.883,182.098 232.5,168.5C 236.999,160.656 242.666,153.656 249.5,147.5C 256.407,142.912 263.741,139.246 271.5,136.5C 282.24,134.943 292.907,135.276 303.5,137.5 Z"/></g>
<g><path style="opacity:1" fill="#d97165" d="M 247.5,202.5 C 248.167,202.833 248.833,203.167 249.5,203.5C 249.523,205.927 250.023,208.26 251,210.5C 252.761,213.411 254.261,216.411 255.5,219.5C 250.967,214.765 248.301,209.099 247.5,202.5 Z"/></g>
<g><path style="opacity:1" fill="#e66c69" d="M 324.5,183.5 C 327.12,191.158 327.12,198.824 324.5,206.5C 324.5,198.833 324.5,191.167 324.5,183.5 Z"/></g>
<g><path style="opacity:1" fill="#ec695d" d="M 267.5,159.5 C 266.151,161.578 264.484,163.411 262.5,165C 262.667,165.5 262.833,166 263,166.5C 264.919,165.029 265.919,165.362 266,167.5C 262.138,171.049 257.804,173.715 253,175.5C 253.61,183.497 253.443,191.497 252.5,199.5C 251.109,197.39 250.442,195.057 250.5,192.5C 251.286,188.844 251.453,185.177 251,181.5C 250.581,182.672 249.915,183.672 249,184.5C 248.249,190.884 248.416,197.217 249.5,203.5C 248.833,203.167 248.167,202.833 247.5,202.5C 244.124,183.581 250.791,169.248 267.5,159.5 Z"/></g>
<g><path style="opacity:1" fill="#dd726d" d="M 319.5,172.5 C 322.201,175.235 323.868,178.569 324.5,182.5C 321.264,180.029 319.598,176.696 319.5,172.5 Z"/></g>
<g><path style="opacity:1" fill="#e96d68" d="M 305.5,159.5 C 311.469,162.47 316.136,166.804 319.5,172.5C 318.167,172.5 316.833,172.5 315.5,172.5C 315.657,171.127 315.49,169.793 315,168.5C 312.226,165.642 309.226,163.975 306,163.5C 305.51,162.207 305.343,160.873 305.5,159.5 Z"/></g>
<g><path style="opacity:1" fill="#fc6056" d="M 297.5,156.5 C 300.509,156.723 303.176,157.723 305.5,159.5C 305.343,160.873 305.51,162.207 306,163.5C 309.226,163.975 312.226,165.642 315,168.5C 315.49,169.793 315.657,171.127 315.5,172.5C 316.833,172.5 318.167,172.5 319.5,172.5C 319.598,176.696 321.264,180.029 324.5,182.5C 324.5,182.833 324.5,183.167 324.5,183.5C 324.5,191.167 324.5,198.833 324.5,206.5C 324.567,207.959 324.234,209.292 323.5,210.5C 321.983,210.511 320.816,211.177 320,212.5C 318.934,215.218 317.267,217.551 315,219.5C 314.51,220.793 314.343,222.127 314.5,223.5C 311.35,226.579 307.683,228.913 303.5,230.5C 293.288,233.088 282.955,233.755 272.5,232.5C 269.683,231.905 267.35,230.572 265.5,228.5C 263.469,226.094 261.802,223.427 260.5,220.5C 258.929,219.691 257.262,219.357 255.5,219.5C 254.261,216.411 252.761,213.411 251,210.5C 250.023,208.26 249.523,205.927 249.5,203.5C 248.416,197.217 248.249,190.884 249,184.5C 249.915,183.672 250.581,182.672 251,181.5C 251.453,185.177 251.286,188.844 250.5,192.5C 250.442,195.057 251.109,197.39 252.5,199.5C 253.443,191.497 253.61,183.497 253,175.5C 257.804,173.715 262.138,171.049 266,167.5C 265.919,165.362 264.919,165.029 263,166.5C 262.833,166 262.667,165.5 262.5,165C 264.484,163.411 266.151,161.578 267.5,159.5C 271.056,159.358 274.39,158.524 277.5,157C 284.237,157.233 290.903,157.066 297.5,156.5 Z"/></g>
<g><path style="opacity:1" fill="#e36c67" d="M 297.5,156.5 C 290.903,157.066 284.237,157.233 277.5,157C 274.39,158.524 271.056,159.358 267.5,159.5C 277.093,154.201 287.093,153.201 297.5,156.5 Z"/></g>
<g><path style="opacity:1" fill="#de766e" d="M 344.5,180.5 C 345.222,180.918 345.722,181.584 346,182.5C 346.667,190.833 346.667,199.167 346,207.5C 345.878,209.437 345.045,210.77 343.5,211.5C 345.703,201.241 346.036,190.907 344.5,180.5 Z"/></g>
<g><path style="opacity:1" fill="#e56968" d="M 323.5,210.5 C 321.227,215.394 318.227,219.727 314.5,223.5C 314.343,222.127 314.51,220.793 315,219.5C 317.267,217.551 318.934,215.218 320,212.5C 320.816,211.177 321.983,210.511 323.5,210.5 Z"/></g>
<g><path style="opacity:1" fill="#ec6968" d="M 205.5,207.5 C 205.664,210.187 205.497,212.854 205,215.5C 200.36,228.061 196.86,241.394 194.5,255.5C 193.5,255.5 192.5,255.5 191.5,255.5C 196.185,239.412 200.852,223.412 205.5,207.5 Z"/></g>
<g><path style="opacity:1" fill="#e46f68" d="M 228.5,210.5 C 231.701,218.568 235.701,226.235 240.5,233.5C 239.312,232.316 238.145,232.316 237,233.5C 234.906,227.443 232.073,221.776 228.5,216.5C 228.5,214.5 228.5,212.5 228.5,210.5 Z"/></g>
<g><path style="opacity:1" fill="#ea696b" d="M 183.5,207.5 C 182.437,214.418 180.77,221.085 178.5,227.5C 178.518,220.276 180.184,213.609 183.5,207.5 Z"/></g>
<g><path style="opacity:1" fill="#e3696b" d="M 70.5,207.5 C 72.269,209.388 73.6023,211.721 74.5,214.5C 77.8611,216.178 79.5278,218.845 79.5,222.5C 74.7252,218.626 71.7252,213.626 70.5,207.5 Z"/></g>
<g><path style="opacity:1" fill="#fffefe" d="M -0.5,215.5 C 1.67061,236.456 6.83727,256.79 15,276.5C 48.3418,349.333 104.842,390.333 184.5,399.5C 122.833,399.5 61.1667,399.5 -0.5,399.5C -0.5,338.167 -0.5,276.833 -0.5,215.5 Z"/></g>
<g><path style="opacity:1" fill="#e76f68" d="M 166.5,181.5 C 167.825,185.445 168.492,189.778 168.5,194.5C 168.333,198.833 168.167,203.167 168,207.5C 166.407,211.703 165.074,216.036 164,220.5C 163.124,222.635 161.624,223.969 159.5,224.5C 166.863,211.013 169.196,196.68 166.5,181.5 Z"/></g>
<g><path style="opacity:1" fill="#fffefd" d="M 399.5,215.5 C 399.5,276.833 399.5,338.167 399.5,399.5C 335.833,399.5 272.167,399.5 208.5,399.5C 230,398.031 251,393.531 271.5,386C 346.504,353.511 389.17,296.678 399.5,215.5 Z"/></g>
<g><path style="opacity:1" fill="#e96c67" d="M 255.5,219.5 C 257.262,219.357 258.929,219.691 260.5,220.5C 261.802,223.427 263.469,226.094 265.5,228.5C 260.911,226.876 257.577,223.876 255.5,219.5 Z"/></g>
<g><path style="opacity:1" fill="#ee685f" d="M 143.5,213.5 C 132.295,232.012 116.295,238.345 95.5,232.5C 103.507,232.666 111.507,232.5 119.5,232C 121.116,231.385 122.449,230.385 123.5,229C 118.029,227.046 112.362,226.046 106.5,226C 110.122,224.894 113.789,224.561 117.5,225C 120.835,226.756 124.169,227.256 127.5,226.5C 127.281,225.325 127.614,224.325 128.5,223.5C 132.617,226.099 134.617,224.766 134.5,219.5C 137.57,218.757 139.236,216.757 139.5,213.5C 140.833,213.5 142.167,213.5 143.5,213.5 Z"/></g>
<g><path style="opacity:1" fill="#f4635e" d="M 48.5,200.5 C 50.1957,213.231 55.1957,224.564 63.5,234.5C 61.2729,235.401 60.2729,237.067 60.5,239.5C 58.8333,239.5 57.1667,239.5 55.5,239.5C 55.2771,236.886 56.4438,235.219 59,234.5C 59.49,233.207 59.6567,231.873 59.5,230.5C 57.8333,230.5 56.1667,230.5 54.5,230.5C 54.2865,232.144 54.6198,233.644 55.5,235C 54.5761,236.489 53.5761,236.656 52.5,235.5C 54.1389,232.96 53.8056,230.793 51.5,229C 52.428,228.612 53.0946,227.945 53.5,227C 52.3394,221.009 50.3394,215.342 47.5,210C 48.256,206.875 48.5893,203.709 48.5,200.5 Z"/></g>
<g><path style="opacity:1" fill="#da716e" d="M 178.5,228.5 C 177.945,232.397 176.945,236.063 175.5,239.5C 174.945,235.294 175.945,231.627 178.5,228.5 Z"/></g>
<g><path style="opacity:1" fill="#e1716e" d="M 303.5,230.5 C 301.142,232.129 298.476,233.295 295.5,234C 289.5,234.667 283.5,234.667 277.5,234C 275.618,233.802 273.952,233.302 272.5,232.5C 282.955,233.755 293.288,233.088 303.5,230.5 Z"/></g>
<g><path style="opacity:1" fill="#e66e69" d="M 154.5,232.5 C 153.287,235.225 151.454,237.559 149,239.5C 148.727,241.101 148.227,242.601 147.5,244C 144.555,245.131 141.555,245.964 138.5,246.5C 144.104,242.235 149.437,237.568 154.5,232.5 Z"/></g>
<g><path style="opacity:1" fill="#d7807d" d="M 175.5,242.5 C 174.905,245.317 173.572,247.65 171.5,249.5C 172.108,246.594 173.441,244.26 175.5,242.5 Z"/></g>
<g><path style="opacity:1" fill="#f26560" d="M 171.5,249.5 C 167.669,255.77 162.003,259.603 154.5,261C 156.307,264.115 157.973,267.281 159.5,270.5C 158.417,270.539 157.417,270.873 156.5,271.5C 155.636,269.803 154.303,268.637 152.5,268C 153.804,267.196 154.471,266.029 154.5,264.5C 153.554,262.742 153.554,261.075 154.5,259.5C 158.055,258.162 161.388,256.329 164.5,254C 163.246,248.911 161.579,244.078 159.5,239.5C 160.5,239.5 161.5,239.5 162.5,239.5C 162.5,240.833 162.5,242.167 162.5,243.5C 163.833,243.5 165.167,243.5 166.5,243.5C 166.687,245.564 167.187,247.564 168,249.5C 169.145,250.684 170.312,250.684 171.5,249.5 Z"/></g>
<g><path style="opacity:1" fill="#ee6a67" d="M 83.5,249.5 C 90.1691,251.621 96.8357,253.288 103.5,254.5C 99.5633,254.207 95.73,254.54 92,255.5C 88.7389,254.118 85.9056,252.118 83.5,249.5 Z"/></g>
<g><path style="opacity:1" fill="#db6f66" d="M 271.5,253.5 C 277.838,253.767 284.171,254.1 290.5,254.5C 284.109,255.774 277.776,255.44 271.5,253.5 Z"/></g>
<g><path style="opacity:1" fill="#ef6660" d="M 191.5,256.5 C 190.495,259.721 189.661,263.054 189,266.5C 187.438,266.259 185.938,266.759 184.5,268C 186.332,268.748 187.999,269.748 189.5,271C 186.833,271.667 184.167,271.667 181.5,271C 181.833,270.667 182.167,270.333 182.5,270C 181.552,269.517 180.552,269.351 179.5,269.5C 184.208,265.793 188.208,261.46 191.5,256.5 Z"/></g>
<g><path style="opacity:1" fill="#e96d61" d="M 159.5,271.5 C 163.868,274.677 168.535,274.677 173.5,271.5C 173.5,272.833 173.5,274.167 173.5,275.5C 168.807,275.54 164.141,275.873 159.5,276.5C 159.5,274.833 159.5,273.167 159.5,271.5 Z"/></g>
</svg>
