<?xml version="1.0" standalone="yes"?>
<svg xmlns="http://www.w3.org/2000/svg" width="346" height="346">
<path style="fill:#040701; stroke:none;" d="M0 0L0 346L346 346L346 163C327.225 167.458 310.746 173.178 291 170.816C279.233 169.408 267.213 162.132 256 162C256 182.899 250.673 202.057 233 215.076C199.529 239.731 152.241 217.581 147 177L175 177C180.603 208.413 228.417 202.329 227.981 171C227.59 142.825 181.765 133.202 176 163L147 163C153.271 140.9 167.556 122.762 190.961 117.619C195.713 116.574 206.164 114.373 210 117L211 117L213 116L213 115L205 114L205 113L207 112L204 111L196.403 88.1698L194 80C186.929 61.5846 189.604 37.6251 195.086 19.0895C196.993 12.6421 201.166 6.63525 202 0L0 0z"/>
<path style="fill:#39600a; stroke:none;" d="M202 0C200.64 6.2695 196.972 11.9783 195.086 18.1698C190.854 32.0703 189.93 45.6813 190.91 60C191.389 66.9806 190.641 73.586 194 80L196.403 89.0887L204 111L207 112L205 113L205 114L213 115L213 116L210 117L203 116L203 117C235.216 118.387 255 145.786 255 176L256 176L256 162C263.405 162.236 269.678 167.46 277 169.035C292.884 172.45 309.396 172.35 325 168.598C330.502 167.275 342.406 167.716 345.397 161.582C349.38 153.413 346 136.09 346 127C346 119.19 349.668 97.8087 343 93C338.795 99.7603 327.801 104.447 320 105L320 108C306.996 109.026 292.055 110.261 281 102L277 104C276.647 96.015 263.419 92.1625 259.538 85.0749C251.91 71.1437 252.956 59.4802 251 44C253.54 43.6345 253.99 41.6387 252 40L253 36L256 37L256 32C260.881 30.5733 263.921 22.7973 264 18L272 14L283 0L202 0z"/>
<path style="fill:#488a22; stroke:none;" d="M272 14L264 18C263.625 22.9167 260.232 29.4234 256 32L256 37L253 36L252 40C254.264 41.6977 253.442 44.6105 251 44C252.243 59.7506 251.558 72.003 259.477 85.9637C263.361 92.8117 276.085 96.3274 277 104L281 102C289.596 111.119 308.635 109.436 320 108L320 105C327.601 104.8 339.867 100.392 343 93L346 94L346 0L305 0C298.913 0 291.054 -1.32266 285.174 0.317902C280.434 1.64011 273.382 9.40091 272 14z"/>
<path style="fill:#39600a; stroke:none;" d="M265 19L266 20L265 19M255 39L256 40L255 39M126 88L132 88C129.546 85.7029 128.454 85.7029 126 88z"/>
<path style="fill:#c2ea48; stroke:none;" d="M125 90C129.31 88.2904 131.239 89.5911 135 92C131.902 87.7604 128.9 85.4969 125 90z"/>
<path style="fill:#c0fc08; stroke:none;" d="M128.04 88.2515C123.893 89.0102 113.543 99.3911 115.327 103.671C116.602 106.729 121.496 108.952 124 110.92C126.751 113.081 131.074 117.594 134.961 116.522C149.633 112.472 145.003 101.067 137.285 94C134.882 91.799 131.748 87.5733 128.04 88.2515z"/>
<path style="fill:#488a22; stroke:none;" d="M125 88L126 89L125 88M132 88L133 89L132 88M124 89L125 90L124 89M133 89L134 90L133 89M123 90L122 92L123 90M134 90L135 91L134 90z"/>
<path style="fill:#c2ea48; stroke:none;" d="M123 91L124 92L123 91z"/>
<path style="fill:#488a22; stroke:none;" d="M135 91L136 92L135 91M121 92L119 95L121 92M136 92L137 93L136 92z"/>
<path style="fill:#c2ea48; stroke:none;" d="M121 93L122 94L121 93M136 93L142 98L136 93M120 94L121 95L120 94z"/>
<path style="fill:#39600a; stroke:none;" d="M118 95L115 99L118 95z"/>
<path style="fill:#c2ea48; stroke:none;" d="M119 95L120 96L119 95z"/>
<path style="fill:#39600a; stroke:none;" d="M140 95L141 96L140 95z"/>
<path style="fill:#c2ea48; stroke:none;" d="M118 96L119 97L118 96z"/>
<path style="fill:#39600a; stroke:none;" d="M141 96L142 97L141 96z"/>
<path style="fill:#c2ea48; stroke:none;" d="M117 97L118 98L117 97M116 98L117 99L116 98M142 98C144.773 102.2 146.27 104.22 144 109L149 105L149 104L142 98z"/>
<path style="fill:#39600a; stroke:none;" d="M143 98L144 99L143 98z"/>
<path style="fill:#c2ea48; stroke:none;" d="M115 99L116 100L115 99z"/>
<path style="fill:#39600a; stroke:none;" d="M144 99L145 100L144 99z"/>
<path style="fill:#c2ea48; stroke:none;" d="M114 100L115 101L114 100z"/>
<path style="fill:#39600a; stroke:none;" d="M145 100L146 101L145 100z"/>
<path style="fill:#488a22; stroke:none;" d="M113 101L112 103L113 101z"/>
<path style="fill:#39600a; stroke:none;" d="M146 101L147 102L146 101z"/>
<path style="fill:#c2ea48; stroke:none;" d="M113 102L115 105L113 102z"/>
<path style="fill:#39600a; stroke:none;" d="M147 102L148 103L147 102M112 103L113 104L112 103z"/>
<path style="fill:#488a22; stroke:none;" d="M148 103L149 104L148 103z"/>
<path style="fill:#39600a; stroke:none;" d="M113 104L114 105L113 104M149 104L150 105L149 104z"/>
<path style="fill:#488a22; stroke:none;" d="M115 105L116 106L115 105z"/>
<path style="fill:#c2ea48; stroke:none;" d="M116 105L118 107L116 105z"/>
<path style="fill:#488a22; stroke:none;" d="M148 105L149 106L148 105z"/>
<path style="fill:#39600a; stroke:none;" d="M116 106L117 107L116 106M147 106L148 107L147 106z"/>
<path style="fill:#c2ea48; stroke:none;" d="M118 107L118 108L125 112L118 107z"/>
<path style="fill:#39600a; stroke:none;" d="M146 107L147 108L146 107z"/>
<path style="fill:#488a22; stroke:none;" d="M119 108L120 109L119 108z"/>
<path style="fill:#39600a; stroke:none;" d="M145 108L146 109L145 108M120 109L121 110L120 109z"/>
<path style="fill:#c2ea48; stroke:none;" d="M142 109L142 111L144 109L142 109z"/>
<path style="fill:#488a22; stroke:none;" d="M122 110L123 111L122 110z"/>
<path style="fill:#39600a; stroke:none;" d="M123 111L124 112L123 111z"/>
<path style="fill:#c2ea48; stroke:none;" d="M141 111L142 112L141 111z"/>
<path style="fill:#39600a; stroke:none;" d="M124 112L125 113L124 112z"/>
<path style="fill:#488a22; stroke:none;" d="M125 112L126 113L125 112z"/>
<path style="fill:#c2ea48; stroke:none;" d="M138 115L141 112L138 115z"/>
<path style="fill:#39600a; stroke:none;" d="M105 113L106 114L105 113z"/>
<path style="fill:#488a22; stroke:none;" d="M126 113L127 114L126 113z"/>
<path style="fill:#c2ea48; stroke:none;" d="M127 113L129 115L127 113z"/>
<path style="fill:#488a22; stroke:none;" d="M104 114L105 115L104 114z"/>
<path style="fill:#c2ea48; stroke:none;" d="M100 123L101 123L105 115L113 120C107.019 113.297 103.175 115.434 100 123z"/>
<path style="fill:#488a22; stroke:none;" d="M106 114L107 115L106 114z"/>
<path style="fill:#39600a; stroke:none;" d="M127 114L128 115L127 114M139 114L140 115L139 114M103 115L104 116L103 115z"/>
<path style="fill:#c0fc08; stroke:none;" d="M105 115L98 131L123 139C125.884 126.191 116.407 120.65 105 115z"/>
<path style="fill:#c2ea48; stroke:none;" d="M129 115L129 116L133 118L129 115M137 115L134 119L137 115z"/>
<path style="fill:#39600a; stroke:none;" d="M109 116L110 117L109 116M130 116L131 117L130 116M137 116L138 117L137 116M194 116L192 117L192 118L194 116M102 117L103 118L102 117z"/>
<path style="fill:#488a22; stroke:none;" d="M110 117L111 118L110 117z"/>
<path style="fill:#39600a; stroke:none;" d="M131 117L132 118L131 117M136 117L137 118L136 117M187 118L187 119L191 118L187 118z"/>
<path style="fill:#488a22; stroke:none;" d="M194 117L194 118L197 118L194 117z"/>
<path style="fill:#c2ea48; stroke:none;" d="M197 117L197 118L205 118L197 117z"/>
<path style="fill:#488a22; stroke:none;" d="M205 117L205 118L209 118L205 117z"/>
<path style="fill:#39600a; stroke:none;" d="M112 118L113 119L112 118z"/>
<path style="fill:#488a22; stroke:none;" d="M133 118L134 119L133 118M135 118L136 119L135 118M189 118L190 119L189 118z"/>
<path style="fill:#c2ea48; stroke:none;" d="M190 118L190 119L193 119L190 118z"/>
<path style="fill:#c0fc08; stroke:none;" d="M149 161L175 162C177.246 156.643 180.159 152.277 185.001 148.904C188.692 146.333 192.534 144.448 197 143.772C236.404 137.816 238.76 201.831 199.255 199.217C191.633 198.713 184.421 194.965 179.681 188.985C177.381 186.083 175.954 181.137 172.725 179.183C167.52 176.032 154.821 177.991 149 179C151.59 238.409 247.591 238.037 253.826 180C255.202 167.194 253.293 152.954 246.164 142C220.409 102.427 157.927 114.996 149 161z"/>
<path style="fill:#c2ea48; stroke:none;" d="M211 118L212 119L211 118z"/>
<path style="fill:#488a22; stroke:none;" d="M212.667 118.333L213.333 118.667L212.667 118.333z"/>
<path style="fill:#39600a; stroke:none;" d="M101 119L102 120L101 119M113 119L114 120L113 119M134 119L135 120L134 119M184 119L185 120L184 119z"/>
<path style="fill:#488a22; stroke:none;" d="M185 119L186 120L185 119z"/>
<path style="fill:#c2ea48; stroke:none;" d="M186.667 119.333L187.333 119.667L186.667 119.333M214.667 119.333L215.333 119.667L214.667 119.333z"/>
<path style="fill:#488a22; stroke:none;" d="M216.667 119.333L217.333 119.667L216.667 119.333M114 120L115 121L114 120z"/>
<path style="fill:#39600a; stroke:none;" d="M181 120L182 121L181 120z"/>
<path style="fill:#488a22; stroke:none;" d="M182 120L183 121L182 120z"/>
<path style="fill:#c2ea48; stroke:none;" d="M183.667 120.333L184.333 120.667L183.667 120.333M218 120L219 121L218 120z"/>
<path style="fill:#488a22; stroke:none;" d="M219 120L220 121L219 120z"/>
<path style="fill:#39600a; stroke:none;" d="M100 121L101 122L100 121z"/>
<path style="fill:#c2ea48; stroke:none;" d="M115 121L121 126L115 121z"/>
<path style="fill:#39600a; stroke:none;" d="M116 121L117 122L116 121M178.667 121.333L179.333 121.667L178.667 121.333z"/>
<path style="fill:#c2ea48; stroke:none;" d="M180.667 121.333L181.333 121.667L180.667 121.333M220.667 121.333L221.333 121.667L220.667 121.333z"/>
<path style="fill:#488a22; stroke:none;" d="M222 121L223 122L222 121M117 122L118 123L117 122M177 122L178 123L177 122z"/>
<path style="fill:#c2ea48; stroke:none;" d="M178.667 122.333L179.333 122.667L178.667 122.333M223 122L224 123L223 122z"/>
<path style="fill:#488a22; stroke:none;" d="M224 122L225 123L224 122z"/>
<path style="fill:#39600a; stroke:none;" d="M99 123L100 124L99 123M119 123L120 124L119 123M175 123L176 124L175 123z"/>
<path style="fill:#c2ea48; stroke:none;" d="M176 123L177 124L176 123M225 123L226 124L225 123z"/>
<path style="fill:#488a22; stroke:none;" d="M226 123L227 124L226 123z"/>
<path style="fill:#c2ea48; stroke:none;" d="M99.3333 124.667L99.6667 125.333L99.3333 124.667z"/>
<path style="fill:#39600a; stroke:none;" d="M120 124L121 125L120 124M173 124L174 125L173 124z"/>
<path style="fill:#c2ea48; stroke:none;" d="M174 124L175 125L174 124M227 124L230 126L230 125L227 124z"/>
<path style="fill:#488a22; stroke:none;" d="M228 124L229 125L228 124z"/>
<path style="fill:#39600a; stroke:none;" d="M98 125L99 126L98 125z"/>
<path style="fill:#488a22; stroke:none;" d="M121 125L122 126L121 125M172 125L173 126L172 125z"/>
<path style="fill:#c2ea48; stroke:none;" d="M173 125L174 126L173 125z"/>
<path style="fill:#488a22; stroke:none;" d="M98 126L99 127L98 126z"/>
<path style="fill:#c2ea48; stroke:none;" d="M122 126C124.676 130.654 124.078 132.965 123 138L124 138C126.199 132.593 127.529 129.467 122 126z"/>
<path style="fill:#39600a; stroke:none;" d="M123 126L124 127L123 126M170 126L171 127L170 126z"/>
<path style="fill:#c2ea48; stroke:none;" d="M171 126L172 127L171 126M230 126L231 127L230 126z"/>
<path style="fill:#488a22; stroke:none;" d="M231 126L232 127L231 126z"/>
<path style="fill:#c2ea48; stroke:none;" d="M98 127L97 132L102 133L102 132L98 131L98 127z"/>
<path style="fill:#488a22; stroke:none;" d="M124 127L125 128L124 127M169 127L170 128L169 127z"/>
<path style="fill:#c2ea48; stroke:none;" d="M232 127L233 128L232 127z"/>
<path style="fill:#488a22; stroke:none;" d="M97 128L98 129L97 128z"/>
<path style="fill:#39600a; stroke:none;" d="M167 128L166 130L167 128z"/>
<path style="fill:#c2ea48; stroke:none;" d="M168 128L169 129L168 128M233 128L234 129L233 128z"/>
<path style="fill:#488a22; stroke:none;" d="M234 128L235 129L234 128z"/>
<path style="fill:#39600a; stroke:none;" d="M127.333 129.667L127.667 130.333L127.333 129.667z"/>
<path style="fill:#c2ea48; stroke:none;" d="M167 129L168 130L167 129z"/>
<path style="fill:#488a22; stroke:none;" d="M235 129L236 130L235 129z"/>
<path style="fill:#39600a; stroke:none;" d="M96.3333 130.667L96.6667 131.333L96.3333 130.667z"/>
<path style="fill:#488a22; stroke:none;" d="M165 130L159 137L165 130z"/>
<path style="fill:#c2ea48; stroke:none;" d="M166 130L167 131L166 130z"/>
<path style="fill:#488a22; stroke:none;" d="M236 130L237 131L236 130z"/>
<path style="fill:#c2ea48; stroke:none;" d="M165 131L166 132L165 131M236.667 131.333L237.333 131.667L236.667 131.333z"/>
<path style="fill:#39600a; stroke:none;" d="M98 132L99 133L98 132z"/>
<path style="fill:#488a22; stroke:none;" d="M99 132L100 133L99 132z"/>
<path style="fill:#39600a; stroke:none;" d="M126 132L127 133L126 132z"/>
<path style="fill:#c2ea48; stroke:none;" d="M164 132L165 133L164 132M238 132L239 133L238 132z"/>
<path style="fill:#39600a; stroke:none;" d="M102 133L103 134L102 133z"/>
<path style="fill:#c2ea48; stroke:none;" d="M103 133L103 134L106 134L103 133M163 133L164 134L163 133M239 133L240 134L239 133z"/>
<path style="fill:#39600a; stroke:none;" d="M105 134L106 135L105 134z"/>
<path style="fill:#488a22; stroke:none;" d="M106 134L107 135L106 134z"/>
<path style="fill:#c2ea48; stroke:none;" d="M107.667 134.333L108.333 134.667L107.667 134.333z"/>
<path style="fill:#39600a; stroke:none;" d="M125 134L126 135L125 134z"/>
<path style="fill:#c2ea48; stroke:none;" d="M162 134L163 135L162 134M240 134L241 135L240 134z"/>
<path style="fill:#39600a; stroke:none;" d="M108 135L109 136L108 135z"/>
<path style="fill:#488a22; stroke:none;" d="M109 135L110 136L109 135z"/>
<path style="fill:#c2ea48; stroke:none;" d="M110 135L111 136L110 135M161 135L162 136L161 135z"/>
<path style="fill:#488a22; stroke:none;" d="M241 135L242 136L241 135z"/>
<path style="fill:#39600a; stroke:none;" d="M111 136L112 137L111 136z"/>
<path style="fill:#488a22; stroke:none;" d="M112 136L113 137L112 136z"/>
<path style="fill:#c2ea48; stroke:none;" d="M113.667 136.333L114.333 136.667L113.667 136.333z"/>
<path style="fill:#488a22; stroke:none;" d="M124 136L125 137L124 136z"/>
<path style="fill:#c2ea48; stroke:none;" d="M160 136L161 137L160 136z"/>
<path style="fill:#488a22; stroke:none;" d="M242 136L244 138L242 136z"/>
<path style="fill:#39600a; stroke:none;" d="M114 137L115 138L114 137z"/>
<path style="fill:#488a22; stroke:none;" d="M115 137L116 138L115 137z"/>
<path style="fill:#c2ea48; stroke:none;" d="M116 137L116 138L120 139L120 138L116 137z"/>
<path style="fill:#39600a; stroke:none;" d="M158 137L159 138L158 137z"/>
<path style="fill:#c2ea48; stroke:none;" d="M159 137L160 138L159 137M242 137L243 138L242 137z"/>
<path style="fill:#39600a; stroke:none;" d="M117 138L118 139L117 138z"/>
<path style="fill:#488a22; stroke:none;" d="M118 138L119 139L118 138M123 138L124 139L123 138z"/>
<path style="fill:#c2ea48; stroke:none;" d="M158 138L156 142L158 138M243 138L244 139L243 138z"/>
<path style="fill:#39600a; stroke:none;" d="M120 139L121 140L120 139z"/>
<path style="fill:#488a22; stroke:none;" d="M121 139L122 140L121 139z"/>
<path style="fill:#c2ea48; stroke:none;" d="M122 139L123 140L122 139z"/>
<path style="fill:#488a22; stroke:none;" d="M157 139L158 140L157 139z"/>
<path style="fill:#c2ea48; stroke:none;" d="M244 139L245 140L244 139z"/>
<path style="fill:#488a22; stroke:none;" d="M156 140L157 141L156 140M245 140L246 141L245 140M246 141L247 142L246 141z"/>
<path style="fill:#c2ea48; stroke:none;" d="M155 142L154 145L155 142M246 142L247 143L246 142z"/>
<path style="fill:#39600a; stroke:none;" d="M92.6667 143.333L93.3333 143.667L92.6667 143.333M154 143L155 144L154 143z"/>
<path style="fill:#c2ea48; stroke:none;" d="M198 143L198 144L203 144L198 143z"/>
<path style="fill:#488a22; stroke:none;" d="M247 143L248 144L247 143z"/>
<path style="fill:#c2ea48; stroke:none;" d="M92 147L93 147L98 146C95.5127 143.826 92.7931 143.299 92 147z"/>
<path style="fill:#39600a; stroke:none;" d="M96 144L97 145L96 144z"/>
<path style="fill:#c2ea48; stroke:none;" d="M190 145L190 146L195 145L190 145z"/>
<path style="fill:#488a22; stroke:none;" d="M195.667 144.333L196.333 144.667L195.667 144.333z"/>
<path style="fill:#39600a; stroke:none;" d="M197.667 144.333L198.333 144.667L197.667 144.333M203 144L203 145L206 145L203 144z"/>
<path style="fill:#488a22; stroke:none;" d="M206 144L207 145L206 144z"/>
<path style="fill:#c2ea48; stroke:none;" d="M207.667 144.333L208.333 144.667L207.667 144.333z"/>
<path style="fill:#c0fc08; stroke:none;" d="M93 145C92.1072 148.624 88.8516 157.11 91.2184 160.397C93.5747 163.669 112.337 163.269 115.436 160.972C120.538 157.191 116.247 151.726 111.995 150.21C109.379 149.277 106.651 148.634 104 147.809C100.325 146.664 96.8234 145.517 93 145z"/>
<path style="fill:#488a22; stroke:none;" d="M98 145L99 146L98 145z"/>
<path style="fill:#39600a; stroke:none;" d="M99 145L100 146L99 145z"/>
<path style="fill:#488a22; stroke:none;" d="M153 145L154 146L153 145z"/>
<path style="fill:#39600a; stroke:none;" d="M192.667 145.333L193.333 145.667L192.667 145.333M208.667 145.333L209.333 145.667L208.667 145.333z"/>
<path style="fill:#488a22; stroke:none;" d="M210 145L211 146L210 145z"/>
<path style="fill:#c2ea48; stroke:none;" d="M211 145L212 146L211 145M248 145L249 149L250 149L248 145z"/>
<path style="fill:#39600a; stroke:none;" d="M91 146L92 147L91 146z"/>
<path style="fill:#c2ea48; stroke:none;" d="M100 146L100 147L105 148L105 147L100 146z"/>
<path style="fill:#488a22; stroke:none;" d="M102 146L103 147L102 146z"/>
<path style="fill:#c2ea48; stroke:none;" d="M153 146L152 149L153 146M188 146L189 147L188 146z"/>
<path style="fill:#488a22; stroke:none;" d="M189 146L190 147L189 146z"/>
<path style="fill:#39600a; stroke:none;" d="M190 146L191 147L190 146M211 146L212 147L211 146z"/>
<path style="fill:#488a22; stroke:none;" d="M212 146L213 147L212 146z"/>
<path style="fill:#c2ea48; stroke:none;" d="M213 146L214 147L213 146z"/>
<path style="fill:#488a22; stroke:none;" d="M249 146L250 147L249 146M91.3333 147.667L91.6667 148.333L91.3333 147.667z"/>
<path style="fill:#39600a; stroke:none;" d="M105 147L106 148L105 147z"/>
<path style="fill:#488a22; stroke:none;" d="M152 147L153 148L152 147M187 147L188 148L187 147z"/>
<path style="fill:#39600a; stroke:none;" d="M188 147L189 148L188 147M213 147L214 148L213 147z"/>
<path style="fill:#488a22; stroke:none;" d="M214 147L215 148L214 147z"/>
<path style="fill:#c2ea48; stroke:none;" d="M215 147L216 148L215 147M106.667 148.333L107.333 148.667L106.667 148.333z"/>
<path style="fill:#488a22; stroke:none;" d="M108 148L109 149L108 148z"/>
<path style="fill:#c2ea48; stroke:none;" d="M185 148L186 149L185 148z"/>
<path style="fill:#39600a; stroke:none;" d="M186 148L187 149L186 148M215 148L217 150L215 148z"/>
<path style="fill:#488a22; stroke:none;" d="M216 148L218 150L216 148z"/>
<path style="fill:#c2ea48; stroke:none;" d="M217 148L218 149L217 148M91 149L91 153L92 153L91 149M109.667 149.333L110.333 149.667L109.667 149.333z"/>
<path style="fill:#488a22; stroke:none;" d="M111 149L112 150L111 149M151 149L152 150L151 149z"/>
<path style="fill:#c2ea48; stroke:none;" d="M183 149L177 157L178 157L183 149z"/>
<path style="fill:#488a22; stroke:none;" d="M184 149L185 150L184 149z"/>
<path style="fill:#c2ea48; stroke:none;" d="M218 149L224 155L218 149M250.333 149.667L250.667 150.333L250.333 149.667M113 150L114 151L113 150z"/>
<path style="fill:#488a22; stroke:none;" d="M114 150L115 151L114 150z"/>
<path style="fill:#39600a; stroke:none;" d="M115 150L116 151L115 150z"/>
<path style="fill:#c2ea48; stroke:none;" d="M151 150L152 151L151 150z"/>
<path style="fill:#488a22; stroke:none;" d="M183 150L184 151L183 150z"/>
<path style="fill:#39600a; stroke:none;" d="M218 150L219 151L218 150M90 151L91 152L90 151z"/>
<path style="fill:#c2ea48; stroke:none;" d="M115 151L115 152L119 154L115 151z"/>
<path style="fill:#488a22; stroke:none;" d="M117 151L118 152L117 151z"/>
<path style="fill:#39600a; stroke:none;" d="M118 151L119 152L118 151M150 151L151 152L150 151M182 151L183 152L182 151M219 151L220 152L219 151z"/>
<path style="fill:#488a22; stroke:none;" d="M251 151L252 152L251 151M90.3333 152.667L90.6667 153.333L90.3333 152.667z"/>
<path style="fill:#c2ea48; stroke:none;" d="M150.333 152.667L150.667 153.333L150.333 152.667z"/>
<path style="fill:#39600a; stroke:none;" d="M181 152L182 153L181 152M220 152L220 154L222 154L220 152z"/>
<path style="fill:#c2ea48; stroke:none;" d="M251.333 152.667L251.667 153.333L251.333 152.667z"/>
<path style="fill:#39600a; stroke:none;" d="M180 153L181 154L180 153z"/>
<path style="fill:#c2ea48; stroke:none;" d="M90 154L90 157L91 157L90 154z"/>
<path style="fill:#488a22; stroke:none;" d="M118 154L119 155L118 154z"/>
<path style="fill:#39600a; stroke:none;" d="M149 154L150 155L149 154z"/>
<path style="fill:#488a22; stroke:none;" d="M179 154L180 155L179 154M222 154L223 155L222 154M252 154L253 155L252 154z"/>
<path style="fill:#39600a; stroke:none;" d="M118 155L119 156L118 155z"/>
<path style="fill:#c2ea48; stroke:none;" d="M149 155L148 163L175 163L175 162L149 161L149 155z"/>
<path style="fill:#488a22; stroke:none;" d="M223 155L224 156L223 155z"/>
<path style="fill:#c2ea48; stroke:none;" d="M252.333 155.667L252.667 156.333L252.333 155.667z"/>
<path style="fill:#39600a; stroke:none;" d="M178 156L179 157L178 156M223 156L224 157L223 156z"/>
<path style="fill:#c2ea48; stroke:none;" d="M224 156L226 161L227 161L224 156z"/>
<path style="fill:#39600a; stroke:none;" d="M89 157L89 160L90 160L89 157z"/>
<path style="fill:#c2ea48; stroke:none;" d="M117.333 157.667L117.667 158.333L117.333 157.667z"/>
<path style="fill:#39600a; stroke:none;" d="M148 157L149 158L148 157z"/>
<path style="fill:#488a22; stroke:none;" d="M177 157L178 158L177 157M224 157L225 158L224 157M253 157L254 158L253 157M148 158L149 159L148 158z"/>
<path style="fill:#c2ea48; stroke:none;" d="M176 158L177 159L176 158M253 158L254 179L255 179L253 158z"/>
<path style="fill:#488a22; stroke:none;" d="M117.333 159.667L117.667 160.333L117.333 159.667M176 159L177 160L176 159z"/>
<path style="fill:#39600a; stroke:none;" d="M225.333 159.667L225.667 160.333L225.333 159.667z"/>
<path style="fill:#488a22; stroke:none;" d="M89 160L89 163L90 163L89 160z"/>
<path style="fill:#c2ea48; stroke:none;" d="M90 160C91.0202 164.761 114.692 165.006 117 161C109.437 162.801 96.949 163.865 90 160M175 160L176 161L175 160z"/>
<path style="fill:#39600a; stroke:none;" d="M117.333 161.667L117.667 162.333L117.333 161.667M147.333 161.667L147.667 162.333L147.333 161.667z"/>
<path style="fill:#488a22; stroke:none;" d="M175 161L176 162L175 161M226 161L227 162L226 161M254.333 161.667L254.667 162.333L254.333 161.667z"/>
<path style="fill:#39600a; stroke:none;" d="M175 162L176 163L175 162M226 162L227 163L226 162z"/>
<path style="fill:#c2ea48; stroke:none;" d="M227.333 162.667L227.667 163.333L227.333 162.667z"/>
<path style="fill:#488a22; stroke:none;" d="M227 164L228 165L227 164z"/>
<path style="fill:#39600a; stroke:none;" d="M227 165L228 166L227 165z"/>
<path style="fill:#c2ea48; stroke:none;" d="M228 165L228 169L229 169L228 165z"/>
<path style="fill:#488a22; stroke:none;" d="M228 169L228 174L229 174L228 169z"/>
<path style="fill:#c2ea48; stroke:none;" d="M228 174L228 177L229 177L228 174z"/>
<path style="fill:#39600a; stroke:none;" d="M89 177L89 178C95.7617 178 113.051 174.909 117 181C118.447 174.555 93.7575 177 89 177M147 177L147 178L175 178L147 177M227 177L228 178L227 177z"/>
<path style="fill:#c2ea48; stroke:none;" d="M89 178L90 181L93 179L89 178z"/>
<path style="fill:#c0fc08; stroke:none;" d="M92 194C95.8373 193.825 99.3405 192.971 103 191.806C105.688 190.95 108.326 189.935 110.995 189.024C114.608 187.791 120.77 182.108 114.852 178.858C110.853 176.662 95.0158 176.444 91.7431 179.742C88.3725 183.139 91.4581 189.976 92 194z"/>
<path style="fill:#c2ea48; stroke:none;" d="M113 178L114 179L113 178M115.667 178.333L116.333 178.667L115.667 178.333z"/>
<path style="fill:#488a22; stroke:none;" d="M147 178L148 179L147 178z"/>
<path style="fill:#c2ea48; stroke:none;" d="M148 178L148 183L149 183L152 179L148 178M155.667 178.333L156.333 178.667L155.667 178.333M163 178L163 179L167 179L163 178M172 178L172 179L175 180L172 178z"/>
<path style="fill:#488a22; stroke:none;" d="M227 178L228 179L227 178M89 179L89 183L90 183L89 179z"/>
<path style="fill:#39600a; stroke:none;" d="M147.333 179.667L147.667 180.333L147.333 179.667z"/>
<path style="fill:#c2ea48; stroke:none;" d="M227.333 179.667L227.667 180.333L227.333 179.667z"/>
<path style="fill:#488a22; stroke:none;" d="M254.333 179.667L254.667 180.333L254.333 179.667M175 180L176 181L175 180z"/>
<path style="fill:#39600a; stroke:none;" d="M226 180L227 181L226 180z"/>
<path style="fill:#488a22; stroke:none;" d="M117.333 181.667L117.667 182.333L117.333 181.667z"/>
<path style="fill:#c2ea48; stroke:none;" d="M175.333 181.667L175.667 182.333L175.333 181.667z"/>
<path style="fill:#488a22; stroke:none;" d="M226 181L227 182L226 181z"/>
<path style="fill:#39600a; stroke:none;" d="M254.333 181.667L254.667 182.333L254.333 181.667M176 182L177 183L176 182M225 182L226 183L225 182z"/>
<path style="fill:#c2ea48; stroke:none;" d="M226 182L227 183L226 182M253.333 182.667L253.667 183.333L253.333 182.667z"/>
<path style="fill:#39600a; stroke:none;" d="M89.3333 183.667L89.6667 184.333L89.3333 183.667z"/>
<path style="fill:#c2ea48; stroke:none;" d="M117 183L116 188L117 183z"/>
<path style="fill:#488a22; stroke:none;" d="M148 183L149 184L148 183M176 183L177 184L176 183M225 183L226 184L225 183z"/>
<path style="fill:#39600a; stroke:none;" d="M148.333 184.667L148.667 185.333L148.333 184.667z"/>
<path style="fill:#c2ea48; stroke:none;" d="M149 184L149 187L150 187L149 184M176 184L177 185L176 184z"/>
<path style="fill:#39600a; stroke:none;" d="M177 184L178 185L177 184z"/>
<path style="fill:#c2ea48; stroke:none;" d="M225 184L226 185L225 184z"/>
<path style="fill:#488a22; stroke:none;" d="M253.333 184.667L253.667 185.333L253.333 184.667M177 185L178 186L177 185M224 185L225 186L224 185z"/>
<path style="fill:#c2ea48; stroke:none;" d="M90 186L90 189L91 189L90 186z"/>
<path style="fill:#39600a; stroke:none;" d="M118.333 186.667L118.667 187.333L118.333 186.667z"/>
<path style="fill:#c2ea48; stroke:none;" d="M177 186L180 189L177 186z"/>
<path style="fill:#39600a; stroke:none;" d="M178 186L179 187L178 186M223 186L224 187L223 186z"/>
<path style="fill:#c2ea48; stroke:none;" d="M224 186L225 187L224 186M252.333 186.667L252.667 187.333L252.333 186.667z"/>
<path style="fill:#39600a; stroke:none;" d="M253 186L254 187L253 186z"/>
<path style="fill:#488a22; stroke:none;" d="M149 187L150 188L149 187z"/>
<path style="fill:#39600a; stroke:none;" d="M179 187L180 188L179 187z"/>
<path style="fill:#c2ea48; stroke:none;" d="M223 187L224 188L223 187M106 190L106 191L115 189L106 190z"/>
<path style="fill:#488a22; stroke:none;" d="M115 188L116 189L115 188z"/>
<path style="fill:#39600a; stroke:none;" d="M149 188L150 189L149 188z"/>
<path style="fill:#c2ea48; stroke:none;" d="M150 188L151 192L152 192L150 188z"/>
<path style="fill:#488a22; stroke:none;" d="M222 188L223 189L222 188M252 188L253 189L252 188M90 189L91 190L90 189z"/>
<path style="fill:#39600a; stroke:none;" d="M112.667 189.333L113.333 189.667L112.667 189.333z"/>
<path style="fill:#c2ea48; stroke:none;" d="M180 189L186 195L180 189z"/>
<path style="fill:#488a22; stroke:none;" d="M221 189L218 193L221 189z"/>
<path style="fill:#c2ea48; stroke:none;" d="M251.333 189.667L251.667 190.333L251.333 189.667z"/>
<path style="fill:#39600a; stroke:none;" d="M252 189L253 190L252 189M90.3333 190.667L90.6667 191.333L90.3333 190.667z"/>
<path style="fill:#c2ea48; stroke:none;" d="M91 190L92 196L96 195L96 194L92 194L91 190z"/>
<path style="fill:#39600a; stroke:none;" d="M109 190L110 191L109 190z"/>
<path style="fill:#488a22; stroke:none;" d="M150 190L151 191L150 190M181 190L182 191L181 190z"/>
<path style="fill:#c2ea48; stroke:none;" d="M221 190L222 191L221 190M104 191L105 192L104 191z"/>
<path style="fill:#488a22; stroke:none;" d="M105 191L106 192L105 191z"/>
<path style="fill:#39600a; stroke:none;" d="M106 191L107 192L106 191z"/>
<path style="fill:#488a22; stroke:none;" d="M182 191L183 192L182 191z"/>
<path style="fill:#c2ea48; stroke:none;" d="M220 191L221 192L220 191z"/>
<path style="fill:#488a22; stroke:none;" d="M251 191L252 192L251 191z"/>
<path style="fill:#c2ea48; stroke:none;" d="M100.667 192.333L101.333 192.667L100.667 192.333z"/>
<path style="fill:#488a22; stroke:none;" d="M102 192L103 193L102 192z"/>
<path style="fill:#39600a; stroke:none;" d="M103 192L104 193L103 192z"/>
<path style="fill:#488a22; stroke:none;" d="M151 192L152 193L151 192z"/>
<path style="fill:#c2ea48; stroke:none;" d="M219 192L220 193L219 192M250 192L251 193L250 192M97.6667 193.333L98.3333 193.667L97.6667 193.333z"/>
<path style="fill:#488a22; stroke:none;" d="M99 193L100 194L99 193z"/>
<path style="fill:#39600a; stroke:none;" d="M100 193L101 194L100 193M151 193L152 194L151 193z"/>
<path style="fill:#c2ea48; stroke:none;" d="M152 193L154 198L155 198L152 193z"/>
<path style="fill:#39600a; stroke:none;" d="M185 193L186 194L185 193M216 193L215 195L216 193z"/>
<path style="fill:#c2ea48; stroke:none;" d="M217 193L218 194L217 193z"/>
<path style="fill:#488a22; stroke:none;" d="M250 193L251 194L250 193M91.3333 194.667L91.6667 195.333L91.3333 194.667M96 194L97 195L96 194z"/>
<path style="fill:#39600a; stroke:none;" d="M97 194L98 195L97 194z"/>
<path style="fill:#488a22; stroke:none;" d="M186 194L187 195L186 194z"/>
<path style="fill:#c2ea48; stroke:none;" d="M216 194L217 195L216 194M249 194L250 195L249 194z"/>
<path style="fill:#488a22; stroke:none;" d="M93 195L94 196L93 195z"/>
<path style="fill:#39600a; stroke:none;" d="M94 195L95 196L94 195M152 195L153 196L152 195z"/>
<path style="fill:#c2ea48; stroke:none;" d="M187 195L187 196L192 198L192 197L187 195z"/>
<path style="fill:#39600a; stroke:none;" d="M188 195L189 196L188 195M213 195L214 196L213 195z"/>
<path style="fill:#c2ea48; stroke:none;" d="M214 195L212 196L212 197L214 195z"/>
<path style="fill:#488a22; stroke:none;" d="M249 195L250 196L249 195M190 196L191 197L190 196z"/>
<path style="fill:#39600a; stroke:none;" d="M211 196L212 197L211 196z"/>
<path style="fill:#c2ea48; stroke:none;" d="M248 196L249 197L248 196z"/>
<path style="fill:#39600a; stroke:none;" d="M249 196L250 197L249 196M153 197L154 198L153 197z"/>
<path style="fill:#488a22; stroke:none;" d="M192.667 197.333L193.333 197.667L192.667 197.333z"/>
<path style="fill:#39600a; stroke:none;" d="M208 197L209 198L208 197z"/>
<path style="fill:#488a22; stroke:none;" d="M209 197L210 198L209 197z"/>
<path style="fill:#c2ea48; stroke:none;" d="M210 197L211 198L210 197z"/>
<path style="fill:#488a22; stroke:none;" d="M248 197L249 198L248 197M154 198L155 199L154 198z"/>
<path style="fill:#c2ea48; stroke:none;" d="M194.667 198.333L195.333 198.667L194.667 198.333z"/>
<path style="fill:#488a22; stroke:none;" d="M196 198L196 199L199 199L196 198z"/>
<path style="fill:#39600a; stroke:none;" d="M199 198L199 199L203 199L199 198z"/>
<path style="fill:#488a22; stroke:none;" d="M203.667 198.333L204.333 198.667L203.667 198.333z"/>
<path style="fill:#c2ea48; stroke:none;" d="M205 198L205 199L208 199L205 198M247 198L244 203L247 198z"/>
<path style="fill:#39600a; stroke:none;" d="M121 199L122 200L121 199M154 199L155 200L154 199z"/>
<path style="fill:#c2ea48; stroke:none;" d="M155 199L156 200L155 199M199 199L200 200L199 199M201 199L202 200L201 199z"/>
<path style="fill:#39600a; stroke:none;" d="M247 199L248 200L247 199M118 200L119 201L118 200z"/>
<path style="fill:#488a22; stroke:none;" d="M119 200L120 201L119 200z"/>
<path style="fill:#c2ea48; stroke:none;" d="M120 200L122 204L123 204L120 200z"/>
<path style="fill:#488a22; stroke:none;" d="M155 200L156 201L155 200z"/>
<path style="fill:#39600a; stroke:none;" d="M115 201L116 202L115 201z"/>
<path style="fill:#488a22; stroke:none;" d="M116 201L117 202L116 201z"/>
<path style="fill:#c2ea48; stroke:none;" d="M117.667 201.333L118.333 201.667L117.667 201.333z"/>
<path style="fill:#c0fc08; stroke:none;" d="M96 209L104 225L105 225C113.722 218.61 127.93 213.374 121 201L96 209z"/>
<path style="fill:#39600a; stroke:none;" d="M122 201L123 202L122 201z"/>
<path style="fill:#c2ea48; stroke:none;" d="M156 201L159 206L160 206L156 201z"/>
<path style="fill:#39600a; stroke:none;" d="M246 201L247 202L246 201z"/>
<path style="fill:#488a22; stroke:none;" d="M112.667 202.333L113.333 202.667L112.667 202.333z"/>
<path style="fill:#c2ea48; stroke:none;" d="M114 202L115 203L114 202z"/>
<path style="fill:#39600a; stroke:none;" d="M156 202L157 203L156 202z"/>
<path style="fill:#488a22; stroke:none;" d="M245 202L246 203L245 202M109 203L110 204L109 203z"/>
<path style="fill:#c2ea48; stroke:none;" d="M110 203L110 204L113 204L110 203z"/>
<path style="fill:#39600a; stroke:none;" d="M123 203L124 204L123 203z"/>
<path style="fill:#488a22; stroke:none;" d="M157 203L158 204L157 203M244 203L245 204L244 203M106 204L107 205L106 204z"/>
<path style="fill:#c2ea48; stroke:none;" d="M107.667 204.333L108.333 204.667L107.667 204.333z"/>
<path style="fill:#488a22; stroke:none;" d="M123 204L124 205L123 204M158 204L159 205L158 204z"/>
<path style="fill:#c2ea48; stroke:none;" d="M243 204L240 208L243 204z"/>
<path style="fill:#39600a; stroke:none;" d="M102 205L103 206L102 205z"/>
<path style="fill:#488a22; stroke:none;" d="M103 205L104 206L103 205z"/>
<path style="fill:#c2ea48; stroke:none;" d="M104.667 205.333L105.333 205.667L104.667 205.333M123 205L124 206L123 205z"/>
<path style="fill:#39600a; stroke:none;" d="M243 205L244 206L243 205M99 206L100 207L99 206z"/>
<path style="fill:#488a22; stroke:none;" d="M100 206L101 207L100 206z"/>
<path style="fill:#c2ea48; stroke:none;" d="M101.667 206.333L102.333 206.667L101.667 206.333z"/>
<path style="fill:#488a22; stroke:none;" d="M124 206L125 207L124 206z"/>
<path style="fill:#c2ea48; stroke:none;" d="M160 206L167 213L160 206z"/>
<path style="fill:#39600a; stroke:none;" d="M242 206L243 207L242 206M96 207L97 208L96 207z"/>
<path style="fill:#488a22; stroke:none;" d="M97 207L98 208L97 207z"/>
<path style="fill:#c2ea48; stroke:none;" d="M98 207L98 208L101 208L98 207M124 207L121 214L126 211L124 207z"/>
<path style="fill:#39600a; stroke:none;" d="M160 207L161 208L160 207M241 207L242 208L241 207z"/>
<path style="fill:#488a22; stroke:none;" d="M95 208L96 209L95 208z"/>
<path style="fill:#c2ea48; stroke:none;" d="M96 208L97 209L96 208z"/>
<path style="fill:#488a22; stroke:none;" d="M125 208L126 209L125 208z"/>
<path style="fill:#39600a; stroke:none;" d="M161 208L162 209L161 208z"/>
<path style="fill:#488a22; stroke:none;" d="M240 208L241 209L240 208z"/>
<path style="fill:#39600a; stroke:none;" d="M95 209L96 210L95 209M162 209L163 210L162 209z"/>
<path style="fill:#488a22; stroke:none;" d="M239 209L240 210L239 209z"/>
<path style="fill:#c2ea48; stroke:none;" d="M96 210L97 211L96 210z"/>
<path style="fill:#39600a; stroke:none;" d="M126 210L127 211L126 210M163 210L164 211L163 210z"/>
<path style="fill:#c2ea48; stroke:none;" d="M237 210L234 214L237 210z"/>
<path style="fill:#488a22; stroke:none;" d="M238 210L239 211L238 210M96 211L97 212L96 211M124 211L125 212L124 211z"/>
<path style="fill:#39600a; stroke:none;" d="M164 211L165 212L164 211M237 211L238 212L237 211M96 212L97 213L96 212z"/>
<path style="fill:#c2ea48; stroke:none;" d="M97 212L98 216L99 216L97 212z"/>
<path style="fill:#39600a; stroke:none;" d="M123 212L124 213L123 212M165 212L166 213L165 212M236 212L237 213L236 212M122 213L123 214L122 213z"/>
<path style="fill:#c2ea48; stroke:none;" d="M167 213L168 214L167 213z"/>
<path style="fill:#39600a; stroke:none;" d="M235 213L236 214L235 213M97 214L98 215L97 214z"/>
<path style="fill:#c2ea48; stroke:none;" d="M119 214L118 216L119 214z"/>
<path style="fill:#488a22; stroke:none;" d="M120 214L121 215L120 214M168 214L169 215L168 214z"/>
<path style="fill:#c2ea48; stroke:none;" d="M169 214L171 216L169 214M232 214L230 217L232 214z"/>
<path style="fill:#488a22; stroke:none;" d="M233 214L234 215L233 214z"/>
<path style="fill:#39600a; stroke:none;" d="M119 215L120 216L119 215M169 215L170 216L169 215z"/>
<path style="fill:#488a22; stroke:none;" d="M232 215L233 216L232 215M98 216L99 217L98 216z"/>
<path style="fill:#c2ea48; stroke:none;" d="M116 216L114 219L116 216z"/>
<path style="fill:#488a22; stroke:none;" d="M117 216L118 217L117 216z"/>
<path style="fill:#39600a; stroke:none;" d="M170 216L171 217L170 216z"/>
<path style="fill:#488a22; stroke:none;" d="M171 216L172 217L171 216z"/>
<path style="fill:#c2ea48; stroke:none;" d="M172 216L174 218L172 216z"/>
<path style="fill:#39600a; stroke:none;" d="M231 216L232 217L231 216z"/>
<path style="fill:#c2ea48; stroke:none;" d="M99 217L100 218L99 217z"/>
<path style="fill:#488a22; stroke:none;" d="M116 217L117 218L116 217z"/>
<path style="fill:#39600a; stroke:none;" d="M172 217L173 218L172 217z"/>
<path style="fill:#c2ea48; stroke:none;" d="M228 217L229 218L228 217z"/>
<path style="fill:#488a22; stroke:none;" d="M229 217L230 218L229 217M99 218L100 219L99 218z"/>
<path style="fill:#39600a; stroke:none;" d="M115 218L116 219L115 218z"/>
<path style="fill:#488a22; stroke:none;" d="M174 218L175 219L174 218z"/>
<path style="fill:#c2ea48; stroke:none;" d="M175 218L176 219L175 218M226 218L227 219L226 218z"/>
<path style="fill:#488a22; stroke:none;" d="M227 218L228 219L227 218z"/>
<path style="fill:#39600a; stroke:none;" d="M99 219L100 220L99 219z"/>
<path style="fill:#c2ea48; stroke:none;" d="M100 219L101 222L102 222L100 219M112 219L110 222L112 219z"/>
<path style="fill:#488a22; stroke:none;" d="M113 219L114 220L113 219M176 219L177 220L176 219z"/>
<path style="fill:#c2ea48; stroke:none;" d="M177 219L177 220L183 222L183 221L177 219M224 219L225 220L224 219z"/>
<path style="fill:#488a22; stroke:none;" d="M225 219L226 220L225 219z"/>
<path style="fill:#39600a; stroke:none;" d="M226 219L227 220L226 219z"/>
<path style="fill:#488a22; stroke:none;" d="M100 220L101 221L100 220z"/>
<path style="fill:#39600a; stroke:none;" d="M112 220L113 221L112 220z"/>
<path style="fill:#488a22; stroke:none;" d="M178 220L179 221L178 220z"/>
<path style="fill:#c2ea48; stroke:none;" d="M222 220L223 221L222 220z"/>
<path style="fill:#488a22; stroke:none;" d="M223 220L224 221L223 220z"/>
<path style="fill:#39600a; stroke:none;" d="M100 221L101 222L100 221M111 221L112 222L111 221z"/>
<path style="fill:#488a22; stroke:none;" d="M132.667 221.333L133.333 221.667L132.667 221.333M180 221L181 222L180 221z"/>
<path style="fill:#c2ea48; stroke:none;" d="M216 222L216 223L221 222L216 222z"/>
<path style="fill:#488a22; stroke:none;" d="M221 221L222 222L221 221z"/>
<path style="fill:#39600a; stroke:none;" d="M222 221L223 222L222 221z"/>
<path style="fill:#488a22; stroke:none;" d="M101 222L102 223L101 222z"/>
<path style="fill:#c2ea48; stroke:none;" d="M108 222L105 225L104 225L102 223L103 226L109 223L108 222z"/>
<path style="fill:#488a22; stroke:none;" d="M109 222L110 223L109 222z"/>
<path style="fill:#39600a; stroke:none;" d="M130 222L131 223L130 222z"/>
<path style="fill:#c2ea48; stroke:none;" d="M130 223L130 224L147 237L147 238C142.705 241.026 132.841 255.002 127.424 253.364C123.064 252.046 119.955 246.349 116 244C124.875 256.599 129.642 256.14 140 246.015C142.011 244.049 146.793 241.075 146.793 237.91C146.793 232.445 135.077 222.268 130 223z"/>
<path style="fill:#39600a; stroke:none;" d="M134 222L135 223L134 222M182 222L183 223L182 222z"/>
<path style="fill:#488a22; stroke:none;" d="M183 222L184 223L183 222z"/>
<path style="fill:#c2ea48; stroke:none;" d="M184.667 222.333L185.333 222.667L184.667 222.333z"/>
<path style="fill:#488a22; stroke:none;" d="M218 222L219 223L218 222z"/>
<path style="fill:#39600a; stroke:none;" d="M219 222L220 223L219 222M101 223L102 224L101 223M108 223L109 224L108 223z"/>
<path style="fill:#488a22; stroke:none;" d="M129 223L130 224L129 223z"/>
<path style="fill:#c0fc08; stroke:none;" d="M147 238C138.481 225.906 133.203 221.049 121 230.421C118.712 232.177 113.374 234.773 113.331 238.103C113.263 243.406 125.729 256.43 131.039 253.342C137.048 249.847 142.103 242.897 147 238z"/>
<path style="fill:#39600a; stroke:none;" d="M185 223L186 224L185 223z"/>
<path style="fill:#488a22; stroke:none;" d="M186 223L187 224L186 223z"/>
<path style="fill:#c2ea48; stroke:none;" d="M187 223L187 224L190 224L187 223M213.667 223.333L214.333 223.667L213.667 223.333z"/>
<path style="fill:#488a22; stroke:none;" d="M215 223L216 224L215 223z"/>
<path style="fill:#39600a; stroke:none;" d="M216 223L217 224L216 223z"/>
<path style="fill:#488a22; stroke:none;" d="M102 224L103 225L102 224M106 224L107 225L106 224z"/>
<path style="fill:#c2ea48; stroke:none;" d="M128 224L129 225L128 224z"/>
<path style="fill:#39600a; stroke:none;" d="M189.667 224.333L190.333 224.667L189.667 224.333z"/>
<path style="fill:#488a22; stroke:none;" d="M191 224L192 225L191 224z"/>
<path style="fill:#c2ea48; stroke:none;" d="M192 224L192 225L199 225L192 224M201 224L201 225L210 225L201 224z"/>
<path style="fill:#488a22; stroke:none;" d="M210.667 224.333L211.333 224.667L210.667 224.333z"/>
<path style="fill:#39600a; stroke:none;" d="M212 224L213 225L212 224z"/>
<path style="fill:#488a22; stroke:none;" d="M105 225L106 226L105 225z"/>
<path style="fill:#39600a; stroke:none;" d="M126 225L127 226L126 225z"/>
<path style="fill:#c2ea48; stroke:none;" d="M127 225L128 226L127 225z"/>
<path style="fill:#488a22; stroke:none;" d="M136 225L137 226L136 225z"/>
<path style="fill:#39600a; stroke:none;" d="M195 225L195 226L199 226L195 225z"/>
<path style="fill:#488a22; stroke:none;" d="M199 225L199 226L204 226L199 225z"/>
<path style="fill:#39600a; stroke:none;" d="M204 225L204 226L207 226L204 225M103.667 226.333L104.333 226.667L103.667 226.333z"/>
<path style="fill:#488a22; stroke:none;" d="M125 226L126 227L125 226z"/>
<path style="fill:#c2ea48; stroke:none;" d="M126 226L127 227L126 226z"/>
<path style="fill:#488a22; stroke:none;" d="M137 226L138 227L137 226z"/>
<path style="fill:#c2ea48; stroke:none;" d="M124 227L125 228L124 227z"/>
<path style="fill:#39600a; stroke:none;" d="M138 227L139 228L138 227M122 228L123 229L122 228z"/>
<path style="fill:#c2ea48; stroke:none;" d="M123 228L124 229L123 228z"/>
<path style="fill:#39600a; stroke:none;" d="M139 228L140 229L139 228z"/>
<path style="fill:#488a22; stroke:none;" d="M121 229L122 230L121 229z"/>
<path style="fill:#c2ea48; stroke:none;" d="M122 229L123 230L122 229z"/>
<path style="fill:#39600a; stroke:none;" d="M140 229L141 230L140 229M119 230L120 231L119 230z"/>
<path style="fill:#c2ea48; stroke:none;" d="M120 230L121 231L120 230z"/>
<path style="fill:#39600a; stroke:none;" d="M141 230L142 231L141 230z"/>
<path style="fill:#488a22; stroke:none;" d="M118 231L119 232L118 231z"/>
<path style="fill:#c2ea48; stroke:none;" d="M119 231L120 232L119 231z"/>
<path style="fill:#39600a; stroke:none;" d="M142 231L143 232L142 231z"/>
<path style="fill:#c2ea48; stroke:none;" d="M115 235L119 233L115 235z"/>
<path style="fill:#39600a; stroke:none;" d="M143 232L144 233L143 232M115 233L116 234L115 233M144 233L145 234L144 233z"/>
<path style="fill:#488a22; stroke:none;" d="M114 234L115 235L114 234z"/>
<path style="fill:#39600a; stroke:none;" d="M145 234L146 235L145 234M112 235L110 238L112 235z"/>
<path style="fill:#c2ea48; stroke:none;" d="M113 235L114 236L113 235z"/>
<path style="fill:#488a22; stroke:none;" d="M146 235L147 236L146 235z"/>
<path style="fill:#c2ea48; stroke:none;" d="M112 236L113 237L112 236z"/>
<path style="fill:#488a22; stroke:none;" d="M147 236L148 237L147 236z"/>
<path style="fill:#c2ea48; stroke:none;" d="M111 237L116 243L111 237z"/>
<path style="fill:#488a22; stroke:none;" d="M148 237L149 238L148 237M111 238L112 239L111 238z"/>
<path style="fill:#39600a; stroke:none;" d="M112 240L113 241L112 240M113 241L114 242L113 241z"/>
<path style="fill:#488a22; stroke:none;" d="M144 241L145 242L144 241M114 242L115 243L114 242M143 242L144 243L143 242M115 243L116 244L115 243M142 243L143 244L142 243M141 244L142 245L141 244M140 245L141 246L140 245z"/>
<path style="fill:#39600a; stroke:none;" d="M117 246L118 247L117 246M139 246L140 247L139 246M118 247L119 248L118 247M138 247L139 248L138 247M119 248L120 249L119 248M137 248L138 249L137 248M120 249L121 250L120 249M136 249L137 250L136 249M121 250L122 251L121 250M135 250L136 251L135 250M122 251L123 252L122 251M134 251L135 252L134 251M123 252L124 253L123 252M133 252L134 253L133 252M124 253L125 254L124 253M132 253L133 254L132 253M125 254L126 255L125 254z"/>
<path style="fill:#488a22; stroke:none;" d="M128 256L129 257L128 256z"/>
</svg>
