<?xml version="1.0" standalone="no"?>
<!DOCTYPE svg PUBLIC "-//W3C//DTD SVG 20010904//EN"
 "http://www.w3.org/TR/2001/REC-SVG-20010904/DTD/svg10.dtd">
<svg version="1.0" xmlns="http://www.w3.org/2000/svg"
 width="800.000000pt" height="800.000000pt" viewBox="0 0 800.000000 800.000000"
 preserveAspectRatio="xMidYMid meet">
<metadata>
Created by potrace 1.16, written by Peter Selinger 2001-2019
</metadata>
<g transform="translate(0.000000,800.000000) scale(0.100000,-0.100000)"
fill="#000000" stroke="none">
<path d="M7980 7990 c0 -5 5 -10 10 -10 6 0 10 5 10 10 0 6 -4 10 -10 10 -5 0
-10 -4 -10 -10z"/>
<path d="M3670 7659 c-25 -5 -97 -13 -159 -19 -63 -5 -135 -16 -160 -24 -26
-8 -73 -17 -106 -20 -33 -4 -69 -13 -80 -20 -11 -7 -47 -16 -80 -21 -33 -4
-72 -13 -87 -21 -15 -8 -40 -14 -55 -14 -16 0 -46 -9 -67 -19 -21 -11 -52 -23
-69 -26 -18 -4 -41 -13 -53 -20 -12 -8 -37 -17 -57 -20 -20 -4 -41 -13 -47
-20 -6 -8 -29 -16 -50 -20 -21 -4 -44 -13 -50 -20 -6 -7 -29 -16 -50 -20 -21
-4 -41 -12 -43 -19 -3 -8 -21 -16 -40 -20 -19 -4 -38 -13 -41 -21 -3 -8 -21
-17 -40 -20 -19 -4 -37 -13 -40 -20 -2 -7 -18 -16 -35 -20 -16 -3 -35 -13 -42
-21 -6 -8 -17 -14 -24 -14 -6 0 -20 -9 -29 -19 -10 -11 -31 -23 -47 -26 -16
-4 -29 -11 -29 -16 0 -5 -15 -16 -32 -24 -40 -19 -64 -33 -105 -62 -17 -13
-34 -23 -37 -23 -3 0 -15 -8 -25 -17 -43 -41 -73 -63 -84 -63 -5 0 -17 -7 -26
-15 -43 -40 -75 -65 -82 -65 -5 0 -9 -7 -9 -15 0 -8 -5 -15 -11 -15 -15 0 -79
-48 -120 -92 -20 -21 -39 -38 -43 -38 -10 0 -252 -246 -259 -263 -3 -10 -13
-17 -22 -17 -8 0 -15 -6 -15 -12 0 -7 -18 -31 -40 -52 -22 -22 -42 -47 -45
-57 -4 -10 -24 -38 -45 -61 -60 -66 -64 -70 -100 -126 -18 -29 -37 -52 -42
-52 -4 0 -8 -5 -8 -12 0 -6 -10 -25 -23 -42 -13 -17 -26 -39 -30 -48 -3 -10
-11 -18 -16 -18 -5 0 -12 -12 -15 -26 -4 -14 -22 -48 -42 -75 -19 -28 -39 -61
-44 -75 -5 -13 -14 -24 -19 -24 -5 0 -13 -15 -17 -32 -3 -18 -15 -44 -25 -57
-11 -13 -19 -32 -19 -43 0 -10 -6 -21 -14 -24 -8 -3 -18 -20 -22 -37 -3 -18
-15 -43 -25 -56 -11 -13 -19 -29 -19 -35 0 -7 -9 -29 -20 -51 -11 -22 -20 -49
-20 -61 0 -12 -6 -27 -14 -33 -8 -7 -18 -27 -21 -44 -4 -18 -13 -41 -20 -52
-7 -11 -16 -40 -20 -64 -4 -25 -16 -58 -26 -75 -10 -17 -19 -40 -19 -51 0 -12
-9 -46 -20 -78 -11 -31 -20 -74 -20 -95 0 -20 -7 -47 -15 -59 -8 -12 -18 -50
-21 -85 -3 -35 -12 -77 -20 -95 -8 -17 -17 -67 -20 -110 -3 -43 -13 -116 -22
-163 -13 -69 -17 -145 -16 -400 0 -212 4 -330 12 -360 7 -25 16 -95 21 -157 5
-61 15 -122 21 -134 7 -12 16 -56 22 -97 5 -41 15 -86 22 -101 7 -14 16 -53
20 -85 4 -33 11 -65 16 -71 6 -7 14 -36 20 -65 6 -30 16 -61 24 -69 8 -9 17
-36 21 -61 4 -25 13 -54 20 -65 7 -11 16 -35 19 -52 4 -17 14 -37 22 -44 8 -6
14 -21 14 -33 0 -12 9 -39 19 -60 11 -21 23 -51 26 -66 3 -16 12 -31 19 -33 8
-3 16 -21 20 -40 4 -19 13 -37 20 -40 7 -3 16 -21 20 -40 4 -19 13 -40 21 -47
7 -6 17 -25 20 -41 4 -16 11 -29 16 -29 5 0 16 -15 24 -32 30 -63 48 -93 60
-100 7 -4 16 -20 20 -35 3 -15 19 -43 35 -63 16 -20 34 -48 41 -63 7 -15 15
-27 19 -27 9 0 70 -95 70 -109 0 -6 7 -11 15 -11 8 0 15 -6 15 -14 0 -7 20
-34 45 -59 25 -26 45 -50 45 -54 0 -5 18 -28 40 -52 22 -25 40 -48 40 -53 0
-4 6 -8 13 -8 8 0 19 -11 25 -25 6 -14 16 -25 22 -25 5 0 10 -7 10 -15 0 -8 4
-15 9 -15 12 0 147 -135 154 -155 4 -8 13 -15 22 -15 8 0 15 -5 15 -10 0 -6
11 -16 25 -22 14 -6 25 -16 25 -22 1 -6 28 -31 61 -56 33 -25 79 -62 102 -83
23 -21 76 -61 117 -89 41 -27 77 -53 80 -58 3 -4 16 -13 30 -20 14 -7 41 -25
61 -41 19 -15 47 -31 62 -34 15 -4 32 -16 38 -26 5 -11 18 -19 29 -19 10 0 22
-5 26 -11 3 -6 21 -17 38 -25 17 -8 53 -28 79 -44 26 -16 60 -33 75 -36 15 -4
32 -12 37 -19 6 -6 27 -17 48 -24 20 -7 37 -16 37 -21 0 -5 15 -12 32 -15 18
-4 40 -13 48 -20 8 -7 35 -18 60 -25 24 -7 53 -18 64 -26 11 -8 27 -14 36 -14
9 0 33 -9 55 -20 22 -11 50 -20 62 -20 13 0 34 -7 47 -15 26 -17 207 -65 246
-65 14 0 35 -7 47 -15 12 -9 55 -20 95 -25 40 -5 95 -16 122 -25 27 -8 74 -15
105 -15 31 -1 88 -7 126 -15 93 -20 525 -30 670 -16 218 20 321 34 397 52 43
11 92 19 110 19 18 1 51 9 73 20 22 11 52 19 67 20 41 0 216 48 241 65 12 8
33 15 47 15 14 0 41 8 60 19 19 10 50 22 69 26 19 4 41 14 49 21 7 8 23 14 35
14 12 0 37 9 55 20 18 11 39 20 46 20 7 0 24 8 37 19 13 10 38 22 56 25 17 4
34 14 37 22 3 8 12 14 19 14 20 0 131 51 135 62 2 5 20 15 40 24 20 8 39 18
42 22 5 7 47 32 90 54 14 7 29 18 33 25 4 7 13 13 19 13 12 0 85 47 103 66 12
12 92 64 100 64 3 0 21 16 41 35 19 19 39 35 44 35 5 0 13 6 17 13 4 7 28 28
53 47 58 44 60 45 159 140 46 44 87 80 92 80 4 0 10 9 14 19 3 11 15 23 26 26
10 4 19 9 19 13 0 4 26 35 58 69 31 34 68 76 82 94 14 17 33 39 43 48 9 8 17
20 17 25 0 5 7 16 16 25 51 52 87 99 99 128 8 18 19 33 25 33 6 0 15 11 20 25
5 14 14 25 19 25 5 0 17 13 25 30 9 16 23 43 32 60 8 16 19 30 23 30 3 0 12
12 19 27 18 39 48 91 64 111 15 19 43 74 57 115 6 15 15 27 20 27 5 0 12 12
16 27 3 14 15 38 26 51 10 14 19 33 19 42 0 10 6 23 14 29 8 7 18 27 22 44 4
18 15 48 25 67 11 19 19 40 19 47 0 7 9 30 20 50 11 21 20 47 20 59 0 12 7 27
15 34 8 7 17 28 21 49 3 20 12 45 19 56 7 11 16 45 20 75 4 30 13 65 21 77 7
11 18 49 23 83 6 34 15 68 21 75 5 7 14 46 20 87 5 41 14 87 20 102 6 16 15
78 20 140 5 61 15 138 21 171 19 94 16 606 -4 725 -8 52 -18 131 -21 176 -3
44 -10 93 -16 109 -6 15 -15 61 -21 101 -5 41 -17 86 -24 101 -8 16 -15 42
-15 58 0 17 -8 47 -19 67 -10 20 -21 61 -25 90 -4 29 -13 62 -20 73 -7 11 -16
37 -19 59 -3 21 -12 46 -20 55 -8 9 -17 30 -21 46 -7 31 -18 58 -55 135 -11
25 -21 50 -21 57 0 7 -11 33 -25 59 -14 26 -25 53 -25 59 0 7 -7 15 -15 19 -8
3 -15 15 -15 26 0 11 -8 28 -18 38 -10 10 -22 33 -28 52 -8 30 -15 35 -42 38
-18 2 -32 -1 -32 -7 0 -10 -32 -30 -107 -66 -24 -11 -33 -22 -33 -40 0 -13 5
-27 10 -30 6 -3 10 -13 10 -22 0 -8 9 -26 20 -40 11 -14 20 -34 20 -43 0 -10
6 -23 14 -29 8 -7 18 -27 21 -44 4 -18 13 -39 20 -47 7 -8 18 -34 24 -57 7
-24 16 -43 21 -43 5 0 14 -19 21 -42 6 -24 15 -48 20 -53 4 -6 11 -31 15 -55
4 -25 13 -52 21 -61 8 -9 17 -34 20 -55 3 -22 14 -56 24 -76 11 -21 19 -48 19
-60 0 -13 9 -49 20 -81 11 -31 20 -69 20 -85 0 -16 9 -64 20 -107 11 -43 20
-100 20 -126 0 -26 8 -78 17 -116 26 -102 26 -728 0 -821 -9 -35 -17 -87 -17
-115 0 -29 -5 -70 -11 -92 -6 -22 -15 -67 -21 -100 -5 -33 -18 -87 -29 -121
-10 -33 -19 -71 -19 -85 0 -13 -8 -40 -18 -59 -11 -19 -22 -55 -26 -80 -4 -24
-11 -47 -17 -51 -6 -3 -16 -30 -24 -60 -19 -75 -44 -141 -61 -160 -8 -8 -14
-24 -14 -33 0 -10 -9 -35 -20 -55 -11 -20 -24 -47 -30 -61 -5 -14 -14 -32 -19
-40 -5 -8 -23 -44 -41 -80 -41 -84 -53 -106 -72 -127 -9 -10 -19 -29 -23 -43
-4 -14 -23 -46 -41 -73 -19 -26 -34 -51 -34 -55 0 -5 -9 -17 -20 -27 -11 -10
-20 -22 -20 -28 0 -5 -10 -22 -22 -37 -13 -15 -30 -37 -38 -50 -19 -29 -66
-91 -83 -110 -7 -8 -33 -40 -57 -70 -48 -60 -101 -120 -167 -187 -24 -23 -43
-47 -43 -53 0 -5 -4 -10 -9 -10 -5 0 -39 -29 -76 -65 -36 -36 -70 -65 -74 -65
-4 0 -35 -27 -69 -60 -33 -33 -64 -60 -69 -60 -5 0 -16 -8 -25 -17 -9 -10 -33
-29 -53 -43 -20 -14 -44 -33 -53 -42 -9 -10 -21 -18 -27 -19 -5 0 -30 -16 -55
-35 -25 -18 -55 -38 -67 -44 -13 -5 -23 -13 -23 -18 0 -4 -16 -14 -35 -21 -19
-7 -35 -16 -35 -21 0 -4 -28 -22 -62 -39 -35 -17 -76 -39 -93 -48 -16 -9 -37
-20 -45 -24 -74 -41 -135 -69 -149 -69 -10 0 -26 -9 -36 -20 -10 -11 -26 -20
-37 -20 -10 0 -35 -9 -55 -20 -21 -11 -44 -20 -52 -20 -7 0 -28 -9 -45 -19
-17 -10 -47 -22 -66 -26 -19 -4 -40 -11 -46 -16 -6 -5 -33 -12 -60 -15 -27 -4
-56 -13 -65 -21 -9 -8 -34 -16 -55 -19 -22 -3 -66 -14 -99 -24 -84 -27 -261
-60 -315 -60 -25 0 -73 -8 -105 -17 -51 -15 -110 -17 -410 -18 -300 0 -360 2
-422 18 -40 9 -95 17 -123 17 -46 0 -166 22 -275 51 -22 6 -69 17 -105 25 -35
8 -72 22 -81 30 -8 7 -26 14 -39 14 -31 0 -145 36 -192 61 -20 10 -43 19 -49
19 -12 0 -52 16 -144 60 -22 10 -70 32 -106 48 -37 17 -70 35 -73 41 -4 6 -16
11 -27 11 -10 0 -28 9 -39 20 -11 11 -24 20 -29 20 -12 0 -94 43 -113 59 -24
21 -89 61 -98 61 -5 0 -13 6 -17 13 -4 8 -32 27 -61 42 -29 16 -58 37 -63 47
-5 10 -16 18 -23 18 -7 0 -23 11 -36 25 -13 14 -27 25 -32 25 -16 0 -68 43
-68 56 0 7 -6 14 -14 16 -42 9 -447 411 -465 459 -2 6 -18 26 -37 44 -19 19
-34 38 -34 43 0 5 -11 19 -25 32 -14 13 -25 29 -25 36 0 7 -9 18 -20 24 -11 6
-20 17 -20 24 0 8 -6 16 -14 19 -8 3 -17 19 -21 36 -4 17 -12 34 -18 38 -17
11 -67 87 -67 101 0 6 -9 16 -20 22 -11 6 -20 19 -20 29 0 10 -9 30 -20 44
-11 14 -20 31 -20 39 0 7 -9 21 -20 31 -11 9 -20 24 -20 33 0 9 -9 27 -20 41
-11 14 -20 31 -20 38 0 7 -6 18 -14 24 -8 7 -17 28 -21 48 -4 20 -15 48 -26
61 -10 14 -19 31 -19 38 0 8 -9 31 -20 51 -11 21 -20 46 -20 56 0 10 -9 30
-20 44 -11 14 -20 35 -20 47 0 11 -7 34 -16 51 -8 16 -18 50 -21 75 -3 25 -12
52 -19 60 -7 9 -16 36 -19 60 -4 25 -15 66 -26 92 -10 26 -19 64 -19 85 -1 21
-7 56 -16 78 -8 22 -17 83 -20 135 -3 52 -13 120 -22 150 -24 82 -24 708 0
790 9 30 19 96 22 146 3 51 10 104 16 119 6 15 15 59 20 98 6 39 15 76 21 83
5 6 14 38 19 69 5 32 16 65 25 75 8 9 15 27 15 41 0 31 49 190 65 209 7 8 16
31 20 50 4 19 14 44 21 55 8 11 14 27 14 36 0 9 9 28 20 42 11 14 20 30 20 36
0 13 49 116 84 176 47 80 76 137 76 149 0 6 9 17 20 24 11 7 20 18 20 24 0 14
50 90 66 100 7 4 15 20 19 35 3 15 12 32 19 37 17 15 86 103 121 155 16 24 35
45 42 48 7 3 13 10 13 16 0 6 20 30 45 54 25 23 45 46 45 50 0 9 206 216 277
278 25 22 55 50 68 63 12 12 26 22 31 22 5 0 15 9 22 20 7 11 16 20 22 20 5 0
22 12 37 26 15 15 44 37 63 50 59 41 134 93 147 104 7 6 24 15 38 20 14 5 25
14 25 19 0 5 14 14 30 21 17 7 30 16 30 21 0 5 8 9 19 9 10 0 30 9 43 20 14
11 36 24 49 30 13 6 42 22 64 35 22 14 51 30 65 36 14 6 42 19 62 30 20 10 42
19 48 19 7 0 23 9 37 20 14 11 36 20 49 20 12 0 29 7 38 15 8 8 29 18 46 21
17 4 48 15 68 25 20 11 47 19 61 19 13 0 32 7 42 16 10 9 37 18 61 21 24 3 50
11 58 18 8 7 38 16 65 20 28 4 62 13 76 21 14 7 54 16 90 20 35 4 81 13 102
20 21 8 75 16 120 20 45 3 107 13 137 22 84 25 720 24 802 -1 31 -9 78 -17
105 -17 26 0 77 -7 113 -15 36 -8 99 -20 140 -26 41 -5 79 -14 86 -20 6 -5 35
-14 65 -19 29 -6 73 -20 96 -31 l43 -21 0 -93 c0 -67 4 -96 14 -104 8 -7 17
-28 21 -47 7 -39 75 -133 106 -148 10 -5 19 -12 19 -16 0 -13 75 -57 108 -65
18 -3 46 -14 63 -22 36 -18 198 -15 221 4 7 6 30 14 50 18 54 10 128 68 206
161 17 20 32 53 32 70 0 10 7 25 16 35 23 26 24 185 1 231 -8 18 -21 48 -28
66 -16 45 -121 162 -145 162 -6 0 -17 7 -24 15 -7 8 -28 17 -49 21 -20 4 -44
14 -55 23 -26 23 -217 22 -243 -1 -10 -9 -34 -19 -53 -23 -19 -4 -46 -16 -59
-26 -13 -11 -28 -19 -33 -19 -5 0 -16 -7 -24 -15 -13 -13 -18 -13 -38 0 -12 8
-49 20 -82 26 -32 6 -63 14 -69 19 -5 4 -35 11 -65 15 -30 4 -68 13 -84 21
-16 8 -55 17 -85 20 -31 3 -74 12 -96 20 -22 8 -94 19 -160 24 -66 5 -142 14
-170 19 -62 12 -623 12 -685 0z"/>
<path d="M3350 5779 c-14 -6 -63 -15 -110 -20 -46 -5 -91 -16 -100 -24 -8 -8
-34 -17 -57 -21 -23 -3 -50 -15 -59 -25 -9 -11 -23 -19 -31 -19 -8 0 -20 -6
-28 -12 -7 -7 -36 -26 -64 -43 -28 -16 -51 -33 -51 -37 0 -11 -61 -68 -71 -68
-5 0 -9 -7 -9 -15 0 -8 -6 -15 -13 -15 -8 0 -19 -11 -25 -25 -6 -14 -16 -25
-22 -25 -5 0 -10 -6 -10 -14 0 -7 -7 -20 -17 -27 -9 -8 -22 -29 -30 -46 -7
-18 -17 -33 -22 -33 -5 0 -12 -12 -16 -27 -3 -16 -12 -35 -19 -43 -17 -20 -45
-101 -61 -178 -7 -34 -19 -69 -26 -79 -11 -13 -14 -71 -14 -282 0 -232 2 -269
17 -291 9 -14 20 -51 23 -83 4 -31 11 -60 16 -63 5 -2 13 -24 20 -47 6 -23 17
-49 24 -57 7 -8 16 -26 20 -40 4 -14 16 -33 26 -43 11 -10 19 -23 19 -30 0 -7
9 -20 20 -30 11 -9 20 -23 20 -30 0 -7 8 -20 18 -29 9 -9 29 -29 43 -45 14
-16 33 -32 42 -36 9 -3 17 -11 17 -18 0 -15 38 -47 78 -65 17 -8 32 -19 32
-24 0 -5 11 -12 24 -16 14 -3 27 -12 30 -20 3 -8 11 -14 18 -14 7 0 36 -12 63
-25 28 -14 58 -25 68 -25 10 0 32 -8 50 -17 29 -17 89 -18 712 -23 518 -4 685
-8 702 -17 12 -7 35 -13 52 -13 32 0 110 -62 136 -109 35 -64 38 -80 38 -199
0 -110 -2 -126 -22 -152 -11 -16 -21 -35 -21 -42 0 -8 -21 -34 -47 -59 -87
-84 -24 -79 -1112 -79 l-961 0 2 -377 3 -378 1020 -3 c883 -2 1028 0 1081 13
33 8 85 15 115 15 30 1 72 8 94 16 22 9 59 20 83 26 23 5 42 13 42 18 0 4 15
13 33 21 17 7 36 19 40 26 4 7 13 13 19 13 27 0 129 83 141 114 4 9 13 16 21
16 7 0 16 9 19 20 3 11 11 20 19 20 7 0 27 26 43 58 17 31 33 59 37 62 18 14
57 82 63 111 4 19 13 41 20 49 6 8 18 36 25 63 7 26 16 50 20 52 5 3 11 37 15
77 4 39 14 86 21 104 20 47 19 347 0 406 -8 24 -17 71 -21 105 -4 34 -15 79
-26 100 -10 20 -19 47 -19 59 0 12 -6 27 -14 33 -7 6 -16 25 -20 42 -3 17 -15
43 -26 59 -11 15 -20 33 -20 39 0 6 -4 11 -9 11 -5 0 -16 12 -24 28 -33 62
-43 78 -70 105 -15 15 -32 27 -37 27 -6 0 -10 4 -10 9 0 8 -20 29 -90 95 -8 8
-28 18 -43 21 -15 4 -27 11 -27 15 0 13 -81 57 -120 65 -19 4 -39 13 -45 20
-5 7 -55 21 -110 31 -88 16 -180 19 -768 24 -623 5 -669 6 -678 23 -6 9 -15
17 -20 17 -19 0 -96 87 -120 136 -20 42 -23 63 -23 147 1 75 5 101 18 115 9
10 16 26 16 35 0 15 12 30 73 97 13 14 43 35 68 48 l44 22 957 0 c597 0 966 4
982 10 l26 10 0 350 c0 223 -4 358 -10 371 -10 19 -32 19 -1053 18 -672 0
-1051 -4 -1067 -10z"/>
</g>
</svg>
