<?xml version="1.0" standalone="no"?>
<!DOCTYPE svg PUBLIC "-//W3C//DTD SVG 20010904//EN"
 "http://www.w3.org/TR/2001/REC-SVG-20010904/DTD/svg10.dtd">
<svg version="1.0" xmlns="http://www.w3.org/2000/svg"
 width="634.000000pt" height="634.000000pt" viewBox="0 0 634.000000 634.000000"
 preserveAspectRatio="xMidYMid meet">

<g transform="translate(0.000000,634.000000) scale(0.100000,-0.100000)"
fill="#000000" stroke="none">
<path d="M2870 6129 c-388 -40 -797 -166 -1125 -346 -271 -149 -477 -303 -681
-507 -449 -450 -735 -1021 -836 -1669 -30 -193 -33 -655 -5 -842 133 -886 604
-1631 1324 -2091 137 -88 371 -208 524 -269 189 -76 496 -156 714 -185 137
-18 489 -24 646 -11 375 32 710 127 1064 301 316 155 546 318 780 554 493 495
789 1133 856 1839 16 179 7 532 -20 704 -129 844 -597 1586 -1284 2036 -234
154 -436 253 -686 337 -240 81 -446 126 -690 150 -121 12 -459 11 -581 -1z
m-675 -707 c67 -23 197 -114 265 -185 53 -56 135 -115 146 -104 3 2 -11 15
-30 27 -50 31 -45 41 17 34 78 -9 123 12 137 65 9 35 21 47 86 90 95 63 169
91 240 91 61 0 116 -22 108 -44 -3 -7 -18 -23 -35 -35 -16 -12 -34 -34 -40
-48 -10 -26 -39 -219 -39 -259 l0 -23 36 21 c45 27 66 13 39 -28 -9 -15 -25
-55 -35 -89 -16 -56 -16 -69 -4 -121 14 -62 17 -91 6 -62 -10 24 -7 -151 2
-179 5 -14 3 -23 -3 -23 -16 0 -15 -222 2 -239 7 -8 7 -11 1 -8 -20 11 -5
-152 17 -187 13 -21 19 -26 19 -13 0 9 6 17 13 17 9 0 8 3 -2 9 -8 5 -10 14
-6 21 14 22 7 69 -14 99 -27 37 -27 54 0 22 l20 -24 -6 69 c-4 38 -13 102 -22
142 -17 81 -12 111 6 35 15 -60 30 -87 28 -50 -1 15 -4 27 -7 27 -3 0 -5 17
-4 37 1 20 -7 75 -18 121 -10 47 -17 90 -15 96 8 24 57 -217 68 -334 19 -225
13 -204 82 -262 70 -58 168 -108 212 -108 71 0 114 71 115 187 0 40 5 75 11
78 13 9 92 -72 136 -139 45 -67 71 -142 97 -271 l21 -110 3 113 3 112 43 0 43
0 12 56 c26 116 83 273 143 394 54 110 72 134 148 212 118 120 141 119 110 -3
-21 -79 -26 -139 -11 -139 17 0 59 51 90 110 18 33 36 58 41 55 5 -3 14 13 20
35 5 22 15 59 21 83 31 122 134 300 223 386 l45 45 0 -316 c0 -306 0 -316 -19
-321 -26 -7 -26 -48 0 -72 18 -17 20 -31 20 -165 l0 -148 -35 -6 c-19 -4 -35
-12 -34 -19 0 -7 8 -75 18 -152 l17 -140 13 93 c7 50 15 92 17 92 2 0 4 -168
3 -372 0 -213 -4 -364 -9 -352 -4 11 -28 65 -53 120 -30 64 -56 145 -76 232
-30 133 -57 197 -110 261 l-29 35 -26 -52 c-14 -28 -58 -145 -98 -259 l-71
-208 0 -183 c0 -101 3 -185 6 -188 15 -15 51 13 78 62 17 30 40 59 51 65 19
10 19 8 13 -63 -4 -40 -13 -98 -21 -128 -35 -142 -44 -372 -18 -461 42 -145
174 -264 317 -284 l47 -7 0 -290 c-1 -268 -2 -289 -18 -283 -43 18 -52 17 -52
-2 0 -20 45 -73 62 -73 5 0 8 -75 8 -170 l-2 -170 -31 0 c-56 0 -160 21 -202
39 -54 24 -138 89 -161 122 -10 15 -22 25 -26 23 -5 -3 -12 5 -17 18 -6 13
-10 19 -11 13 0 -5 -17 17 -36 50 -20 33 -33 51 -29 40 4 -13 3 -16 -3 -10 -6
6 -19 39 -30 75 -36 118 -140 290 -227 375 -59 58 -107 81 -188 90 -70 8 -78
22 -44 74 29 44 92 71 165 71 38 0 43 2 32 15 -7 8 -21 15 -31 15 -11 0 -25
14 -35 33 -9 17 -25 38 -35 45 -13 9 -19 26 -19 54 0 28 -11 61 -34 104 -19
34 -32 65 -29 68 4 3 2 6 -4 6 -5 0 -18 18 -28 40 -21 46 -30 47 -53 5 -31
-56 -115 -190 -123 -195 -10 -7 -89 -172 -89 -187 0 -6 -4 -13 -10 -15 -12 -4
-146 -396 -161 -471 -6 -33 -19 -67 -30 -78 -10 -10 -19 -23 -19 -28 0 -13
-169 -188 -170 -175 0 6 9 23 20 36 10 14 16 28 13 32 -3 3 0 6 8 6 11 0 11 2
-1 10 -8 5 -10 10 -4 10 10 0 11 152 0 205 -2 11 0 27 5 36 5 10 3 21 -4 29
-10 10 -9 12 5 7 10 -3 20 -2 23 4 4 5 1 8 -7 7 -7 -2 -13 4 -13 12 0 8 6 14
13 12 8 -1 11 2 7 7 -3 6 -13 7 -22 4 -10 -4 -14 -2 -10 4 12 19 -4 75 -20 69
-8 -3 -11 -1 -8 4 3 6 1 10 -4 10 -10 0 -17 -47 -12 -74 1 -5 -4 -13 -11 -17
-7 -5 -8 -9 -3 -9 6 0 10 -63 10 -169 0 -156 -2 -172 -24 -219 -13 -28 -27
-51 -30 -50 -19 2 -31 -3 -31 -13 0 -23 -99 -101 -133 -106 -12 -2 -39 -12
-61 -22 -61 -29 -79 -34 -100 -32 -10 2 -22 -3 -26 -9 -11 -18 -197 -23 -375
-11 -191 14 -190 14 -223 37 -15 11 -57 37 -94 58 -38 21 -68 42 -68 47 0 6
-15 16 -33 24 -39 16 -60 38 -49 51 4 4 0 3 -9 -4 -14 -11 -29 -5 -94 34 -42
25 -79 54 -83 63 -3 9 -13 27 -23 41 -63 92 -89 140 -89 164 0 32 -20 35 -21
4 -1 -14 -6 -5 -12 20 -5 23 -14 42 -18 42 -5 0 -9 12 -9 28 -1 31 -24 67 -39
58 -14 -9 -23 46 -16 96 7 50 -10 170 -31 212 -18 36 -18 47 0 40 16 -6 28 48
24 109 -2 31 -5 37 -20 34 -11 -3 -18 0 -18 9 0 22 79 39 190 39 100 0 109 -2
175 -34 54 -27 92 -57 166 -133 l96 -98 6 109 c14 241 -27 392 -148 551 -23
30 -49 68 -57 84 l-15 29 -16 -49 c-21 -63 -48 -220 -53 -307 -3 -50 0 -74 11
-90 20 -29 19 -37 -5 -37 -49 0 -64 102 -50 332 12 191 7 274 -25 415 -15 68
-17 71 -54 83 -52 17 -64 8 -55 -43 6 -37 5 -40 -9 -29 -9 8 -18 26 -22 40 -3
15 -35 63 -70 107 -35 44 -64 89 -65 99 0 19 0 19 22 0 20 -18 21 -18 15 -1
-4 10 -2 28 4 39 6 11 7 18 2 15 -4 -3 -8 152 -8 343 0 205 4 346 9 343 5 -4
6 -1 2 5 -12 20 -23 13 -34 -20 -9 -31 -10 -30 -11 26 -1 40 5 68 17 90 16 26
19 52 18 173 -1 124 1 140 14 130 9 -7 8 -4 -2 9 -19 21 -24 39 -10 30 5 -3 9
1 9 9 0 13 -4 13 -24 0 -20 -13 -23 -13 -23 -1 0 24 89 95 164 130 39 19 116
55 170 81 136 64 228 153 245 236 l6 29 40 -27 c30 -19 16 -1 -52 70 -51 53
-93 101 -93 106 0 14 84 62 145 83 64 22 126 22 190 0z m2582 -2834 c-3 -7 -5
-2 -5 12 0 14 2 19 5 13 2 -7 2 -19 0 -25z"/>
<path d="M2849 5338 c12 -16 11 -18 -3 -18 -9 0 -16 4 -16 10 0 5 -7 7 -16 3
-12 -4 -14 -14 -9 -40 11 -59 45 -136 82 -188 l36 -49 12 34 c7 19 8 37 3 38
-4 2 -5 9 -1 15 4 6 0 8 -9 4 -12 -4 -14 -1 -10 15 3 13 1 19 -5 15 -6 -4 -16
12 -23 38 -7 25 -16 45 -21 45 -5 0 -6 6 -3 14 3 8 0 17 -6 21 -8 5 -8 11 0
20 7 9 6 16 -7 26 -16 13 -17 12 -4 -3z"/>
<path d="M2054 5180 c0 -13 4 -16 10 -10 7 7 7 13 0 20 -6 6 -10 3 -10 -10z"/>
<path d="M2465 5181 c-3 -5 -1 -12 5 -16 6 -4 7 -11 4 -17 -4 -7 -2 -8 5 -4 8
6 9 12 2 20 -6 7 -8 16 -4 19 3 4 4 7 0 7 -3 0 -8 -4 -12 -9z"/>
<path d="M2954 5098 l-26 -52 22 -18 c12 -10 25 -18 29 -18 3 0 6 32 6 70 0
39 -1 70 -2 70 -2 0 -15 -23 -29 -52z"/>
<path d="M1976 5077 c3 -10 9 -15 12 -12 3 3 0 11 -7 18 -10 9 -11 8 -5 -6z"/>
<path d="M3013 5023 c-7 -2 -13 -11 -13 -19 0 -8 -6 -11 -15 -8 -21 8 -19 0
12 -49 15 -23 40 -71 55 -107 25 -56 28 -59 21 -25 -4 22 -8 58 -9 80 0 22 -5
48 -9 58 -4 9 -4 24 -1 33 5 14 4 15 -9 4 -13 -11 -14 -10 -9 5 6 14 4 16 -6
10 -10 -6 -12 -4 -7 8 3 10 5 17 4 16 -1 0 -8 -3 -14 -6z"/>
<path d="M3061 4964 c0 -11 3 -14 6 -6 3 7 2 16 -1 19 -3 4 -6 -2 -5 -13z"/>
<path d="M2400 4905 c0 -13 18 -46 41 -75 58 -74 91 -82 70 -18 -24 73 -111
146 -111 93z"/>
<path d="M2714 4747 c-8 -22 -1 -30 21 -25 14 3 14 5 1 23 -14 19 -15 19 -22
2z"/>
<path d="M2346 4417 c-7 -28 -8 -182 -1 -175 3 3 16 44 29 91 l22 85 -22 11
c-19 8 -23 6 -28 -12z"/>
<path d="M1730 4403 c0 -38 24 -115 33 -107 11 11 8 81 -5 109 -15 33 -28 32
-28 -2z"/>
<path d="M2095 4399 c-16 -5 -41 -18 -53 -29 -23 -19 -23 -20 -8 -67 16 -48
31 -75 74 -132 l23 -30 -41 -27 c-33 -22 -40 -32 -40 -60 0 -64 0 -64 133 -64
l120 0 -6 78 c-5 58 -19 109 -56 207 -49 129 -50 130 -83 132 -18 1 -46 -3
-63 -8z"/>
<path d="M2431 4273 c-53 -180 -63 -339 -39 -625 l12 -147 27 19 c30 22 43 51
60 135 15 80 35 125 53 125 13 0 16 -14 16 -75 0 -56 8 -98 30 -167 42 -130
43 -131 85 -86 l35 38 0 249 c0 176 3 250 11 253 18 6 1 62 -32 108 -31 43
-111 100 -139 100 -25 0 -50 -33 -57 -74 -12 -75 -26 -28 -27 91 -1 67 -4 124
-7 127 -3 4 -16 -28 -28 -71z"/>
<path d="M3155 4200 c3 -5 8 -10 11 -10 2 0 4 5 4 10 0 6 -5 10 -11 10 -5 0
-7 -4 -4 -10z"/>
<path d="M4595 4100 l-38 -39 30 -38 c43 -55 62 -91 83 -158 10 -33 19 -52 19
-43 1 18 -47 310 -52 314 -2 2 -20 -14 -42 -36z"/>
<path d="M2696 4118 c3 -5 10 -6 15 -3 13 9 11 12 -6 12 -8 0 -12 -4 -9 -9z"/>
<path d="M3076 4105 c-5 -16 -11 -44 -15 -60 -12 -44 -1 -145 14 -145 8 0 12
10 10 25 -1 14 2 25 8 25 5 0 7 11 5 25 -3 13 -1 22 3 19 5 -3 9 4 9 15 0 12
6 21 13 21 8 0 7 4 -3 10 -8 5 -11 10 -6 10 4 0 2 10 -7 23 -8 13 -17 32 -19
42 -4 16 -6 14 -12 -10z"/>
<path d="M1678 4081 c-18 -17 -27 -31 -20 -31 18 0 15 -18 -5 -23 -10 -2 14
-2 54 1 61 4 76 2 107 -17 50 -31 90 -86 142 -193 l45 -93 -6 80 c-6 77 -8 83
-63 164 -31 46 -64 87 -72 91 -40 20 -88 38 -117 44 -26 6 -37 2 -65 -23z"/>
<path d="M1960 4052 c0 -5 7 -17 15 -28 15 -19 20 -8 9 20 -6 17 -24 22 -24 8z"/>
<path d="M2762 4015 c0 -16 2 -22 5 -12 2 9 2 23 0 30 -3 6 -5 -1 -5 -18z"/>
<path d="M4346 3935 c-26 -40 -39 -78 -24 -73 11 4 53 98 44 98 -2 0 -11 -11
-20 -25z"/>
<path d="M3060 3846 c0 -29 4 -36 20 -36 11 0 20 5 20 11 0 6 -9 22 -20 36
l-20 26 0 -37z"/>
<path d="M4702 3710 c0 -14 2 -19 5 -12 2 6 2 18 0 25 -3 6 -5 1 -5 -13z"/>
<path d="M4712 3655 c0 -11 4 -31 8 -45 6 -20 8 -21 8 -5 0 11 -4 31 -8 45 -6
20 -8 21 -8 5z"/>
<path d="M1700 3600 c-11 -7 -12 -14 -4 -27 15 -24 34 -28 34 -6 0 29 -14 43
-30 33z"/>
<path d="M2465 3510 c6 -9 -8 -14 -28 -11 -5 1 -6 -3 -2 -9 4 -7 12 -7 26 0
17 9 19 30 3 30 -3 0 -2 -4 1 -10z"/>
<path d="M1984 3414 c-4 -16 -1 -38 9 -58 l16 -31 0 52 c1 57 -14 80 -25 37z"/>
<path d="M1734 3205 c3 -22 6 -62 7 -90 l1 -50 13 30 c19 42 18 74 -6 115
l-20 35 5 -40z"/>
<path d="M2383 3205 c0 -8 4 -12 9 -9 5 3 6 10 3 15 -9 13 -12 11 -12 -6z"/>
<path d="M3060 3126 c0 -78 3 -96 13 -88 9 8 12 -77 11 -422 l0 -431 -39 -90
c-23 -55 -41 -113 -44 -152 -7 -61 -7 -62 12 -45 30 27 70 100 70 129 0 15 8
42 18 60 22 39 24 47 8 37 -7 -4 -2 7 11 24 17 23 21 40 19 76 -2 25 -2 46 1
46 3 0 6 18 7 40 1 23 -2 38 -8 35 -5 -4 -9 -1 -9 4 0 6 7 11 16 11 14 0 14 2
-1 16 -10 10 -13 20 -7 26 13 13 2 58 -14 58 -11 0 -14 21 -14 99 0 70 -4 101
-12 104 -10 4 -10 6 0 6 9 1 12 54 12 234 -1 226 -2 233 -25 277 l-24 45 -1
-99z"/>
<path d="M4220 3157 c0 -14 5 -29 10 -32 7 -4 8 3 4 22 -9 38 -14 42 -14 10z"/>
<path d="M3630 3000 c0 -5 5 -10 10 -10 6 0 10 5 10 10 0 6 -4 10 -10 10 -5 0
-10 -4 -10 -10z"/>
<path d="M3765 2990 c10 -11 20 -20 23 -20 3 0 -3 9 -13 20 -10 11 -20 20 -23
20 -3 0 3 -9 13 -20z"/>
<path d="M2054 2753 c30 -95 32 -174 9 -402 l-17 -173 74 -69 c41 -37 89 -75
107 -84 33 -16 153 -20 188 -6 11 5 -9 6 -47 3 -81 -6 -89 8 -24 37 24 10 49
28 55 39 18 34 13 85 -14 139 -23 45 -47 71 -138 148 -10 9 -15 20 -12 25 8
13 72 13 135 -1 28 -6 54 -8 57 -5 8 8 11 346 4 346 -3 0 -45 -39 -93 -87
l-87 -86 -91 96 c-90 95 -117 115 -106 80z"/>
<path d="M2540 2735 c-28 -74 -59 -235 -45 -235 4 0 24 12 46 28 26 18 41 37
45 58 6 33 -9 134 -25 162 -8 15 -11 13 -21 -13z"/>
<path d="M3211 2411 c-26 -62 -27 -81 -2 -81 24 0 79 54 87 85 8 32 -2 45 -35
45 -25 0 -32 -7 -50 -49z"/>
<path d="M1425 2291 c-3 -5 -2 -12 3 -15 5 -3 9 1 9 9 0 17 -3 19 -12 6z"/>
<path d="M1491 2030 c0 -56 3 -78 9 -65 5 11 9 40 9 65 0 25 -4 54 -9 65 -6
13 -9 -9 -9 -65z"/>
<path d="M2116 2047 c3 -10 9 -15 12 -12 3 3 0 11 -7 18 -10 9 -11 8 -5 -6z"/>
<path d="M4236 2028 c3 -5 10 -6 15 -3 13 9 11 12 -6 12 -8 0 -12 -4 -9 -9z"/>
<path d="M4145 1999 c-4 -6 -5 -12 -2 -15 2 -3 7 2 10 11 7 17 1 20 -8 4z"/>
<path d="M1797 1973 c-13 -12 -7 -34 11 -40 67 -22 104 -48 128 -89 27 -45 52
-56 73 -30 10 11 1 25 -42 69 -78 80 -145 116 -170 90z"/>
<path d="M3202 1845 c-7 -14 -12 -33 -12 -43 0 -14 2 -14 14 -2 18 18 32 70
19 70 -6 0 -15 -11 -21 -25z"/>
<path d="M3150 1845 c0 -2 6 -8 13 -14 10 -8 14 -7 14 2 0 8 -6 14 -14 14 -7
0 -13 -1 -13 -2z"/>
<path d="M2971 1826 c-9 -11 -9 -16 1 -22 7 -4 10 -4 6 1 -4 4 -3 14 3 22 6 7
9 13 6 13 -2 0 -10 -6 -16 -14z"/>
<path d="M4686 1757 c3 -10 9 -15 12 -12 3 3 0 11 -7 18 -10 9 -11 8 -5 -6z"/>
<path d="M2511 1637 c-8 -10 -7 -14 2 -14 8 0 14 6 14 14 0 7 -1 13 -2 13 -2
0 -8 -6 -14 -13z"/>
<path d="M2890 1436 c0 -2 8 -10 18 -17 15 -13 16 -12 3 4 -13 16 -21 21 -21
13z"/>
</g>
</svg>
