<?xml version="1.0" standalone="yes"?>
<svg xmlns="http://www.w3.org/2000/svg" width="1238" height="1238">
<path style="fill:#fffeff; stroke:none;" d="M0 0L1 1L0 0z"/>
<path style="fill:#a49cb4; stroke:none;" d="M0 264L1 264L1 1L246 1L228 0L190 0L58 0L16 0L1.02778 1.60339L0 20L0 70L0 264z"/>
<path style="fill:#652eff; stroke:none;" d="M246 0L246 1L254 1L246 0z"/>
<path style="fill:#0a090a; stroke:none;" d="M1 1L1 1237L1238 1237L1237 1195L1237 1114L1238 847L1237 1L1 1z"/>
<path style="fill:#652eff; stroke:none;" d="M985 0L985 1L992 1L985 0z"/>
<path style="fill:#a49cb4; stroke:none;" d="M992 0L992 1L1238 1L1215 0L1165 0L992 0z"/>
<path style="fill:#652eff; stroke:none;" d="M1237 1L1237 243L1238 243L1238 72L1238 23L1237 1M249 2L249 3L256 3L249 2z"/>
<path style="fill:#a49cb4; stroke:none;" d="M256 2L256 3L982 3L962 2L920 2L771 2L256 2z"/>
<path style="fill:#652eff; stroke:none;" d="M982 2L982 3L988 3L982 2M235 3L236 4L235 3z"/>
<path style="fill:#a49cb4; stroke:none;" d="M236 3L236 4L241 4L236 3z"/>
<path style="fill:#fffeff; stroke:none;" d="M241 3L241 4L997 4L976 3L932 3L777 3L241 3z"/>
<path style="fill:#a49cb4; stroke:none;" d="M997 3L997 4L1002 4L997 3z"/>
<path style="fill:#652eff; stroke:none;" d="M616 4L616 5L648 5L648 6L632 6L632 7L648 7C643.983 20.5894 647 38.8273 647 53L647 150L647 469L647 564C647 578.205 650.113 596.656 645 610L644 610L642 608L644 613L643 613L641 608L640 608L644 620L646 624L648 624L648 625L647 626L650 625L648 627L651 636L653 635L652 638L654 638C652.677 649.22 664.967 666.542 669.201 677C683.718 712.859 704.537 747.945 715.717 785C719.229 796.642 706.381 808.256 708 820C703.471 820.664 701.769 832.899 700.194 837C695.127 850.202 690.844 863.702 686.042 877C683.991 882.68 679.948 890.012 681 896L679 902C675.332 904.512 675.005 908.987 673.565 913C670.409 921.796 663.944 933.542 665 943C660.826 943.567 661.245 948.577 662 952C657.01 952.773 652.168 972.189 653 977L651 976C651.983 978.95 652.487 979.622 650 979L651 983L644 996L645 999L643 1008L644 1000L645 1000C650.32 1025.79 647 1054.68 647 1081L647 1232L640 1232L640 1233L648 1233L648 1235L249 1235C255.194 1237.6 264.314 1236 271 1236L318 1236L483 1236L877 1236C921.576 1236 967.754 1239.36 1012 1233.71C1085.39 1224.35 1153.16 1181.93 1193.66 1120C1239.55 1049.82 1236 973.27 1236 893L1236 584L1236 353C1236 310.691 1239.08 267 1233.71 225C1225.66 161.889 1192.39 103.214 1144 62.2963C1106.31 30.428 1059.01 9.95947 1010 4.15515C974.782 -0.0159912 936.545 4 901 4L616 4M226 4L226 5L229 5L226 4z"/>
<path style="fill:#ca38ff; stroke:none;" d="M648 1235L648 1233L640 1233L640 1232L647 1232L647 1077C647 1052.84 651.551 1023.31 645 1000L644 1000L643 1008L643 1000L642 1000L642 1006L640 1012L637 1020L635 1020L636 1023L632 1023L631 1021C631.599 1017.25 630.159 1012.64 626 1012C626.88 1008.86 626.978 1006.72 624 1005L622 1000C622.114 994.834 619.378 986.987 615 984L612 977L610 973L608 968L599.862 946L580.306 901L517.424 757L358.86 394L281 216L418 215L453 215L467.582 216.028L475.694 232L494.281 275L561.15 429L579.306 471L588 487C587.775 490.878 588.688 493.811 592 496C591.695 501.252 594.503 509.029 599 512L603 523L609 540L611 540L614 547L615 554L617 553L617 554L622 570L624 569L623 572L628 584L629 582L630 582L629 586L635 600L637 598L636 601L636 602L639 609L641 608L643 613L644 613L642 608L644 610L645 610C651.059 598.355 647 577.012 647 564L647 453L647 150L647 55C647 39.7438 644.461 21.8635 648 7L632 7L632 6L648 6C641.805 3.40027 632.687 5.00256 626 5C612.037 4.99463 598.028 4 584 4L437 4L295 4C254.17 4 215.186 2.78589 176 16.3441C152.501 24.4746 130.189 36.087 110 50.5795C93.0765 62.7275 77.1404 76.9991 63.7539 93C36.3146 125.798 16.5672 165.002 8.00386 207C-3.52446 263.54 3 325.504 3 383L3 687L3 899C3 937.352 0.157228 976.954 5.28241 1015C11.9686 1064.63 34.2837 1111.52 67.2855 1149C106.673 1193.74 162.779 1224.74 222 1232.72C264.86 1238.49 309.784 1235 353 1235L648 1235z"/>
<path style="fill:#652eff; stroke:none;" d="M219.667 5.33337L220.333 5.66663L219.667 5.33337z"/>
<path style="fill:#ca38ff; stroke:none;" d="M656 5L657 6L656 5z"/>
<path style="fill:#652eff; stroke:none;" d="M213.667 6.33337L214.333 6.66663L213.667 6.33337M208.667 7.33337L209.333 7.66663L208.667 7.33337z"/>
<path style="fill:#ca38ff; stroke:none;" d="M656 7L657 8L656 7z"/>
<path style="fill:#652eff; stroke:none;" d="M204 8L205 9L204 8M199 9L200 10L199 9M195 10L196 11L195 10M192 11L193 12L192 11M188 12L189 13L188 12M184.667 13.3334L185.333 13.6666L184.667 13.3334M178 15L179 16L178 15M175 16L176 17L175 16M170 18L171 19L170 18M167 19L168 20L167 19M165 20L166 21L165 20M162 21L163 22L162 21M160 22L161 23L160 22M157 23L158 24L157 23M155 24L156 25L155 24M153 25L154 26L153 25M151 26L152 27L151 26M139 32L140 33L139 32M137 33L138 34L137 33M135 34L136 35L135 34M133 35L134 36L133 35M130 37L131 38L130 37M128 38L129 39L128 38M126 39L127 40L126 39M125 40L126 41L125 40M123 41L124 42L123 41M120 43L121 44L120 43M117 45L118 46L117 45M114 47L115 48L114 47M111 49L112 50L111 49M110 50L111 51L110 50M107 52L108 53L107 52M103 55L104 56L103 55M102 56L103 57L102 56M99 58L100 59L99 58M98 59L99 60L98 59M93 63L94 64L93 63M92 64L93 65L92 64M85 70L86 71L85 70M84 71L85 72L84 71M83 72L84 73L83 72M82 73L83 74L82 73M81 74L82 75L81 74M80 75L81 76L80 75M79 76L80 77L79 76M78 77L79 78L78 77M77 78L78 79L77 78M76 79L77 80L76 79M75 80L76 81L75 80M74 81L75 82L74 81M73 82L74 83L73 82M72 83L73 84L72 83M71 84L72 85L71 84M70 85L71 86L70 85M64 92L65 93L64 92M63 93L64 94L63 93M59 98L60 99L59 98M58 99L59 100L58 99M56 102L57 103L56 102M55 103L56 104L55 103M52 107L53 108L52 107M50 110L51 111L50 110M47 114L48 115L47 114M45 117L46 118L45 117M43 120L44 121L43 120M42 122L43 123L42 122M41 123L42 124L41 123M40 125L41 126L40 125M38 128L39 129L38 128M37 130L38 131L37 130M34 135L35 136L34 135M33 137L34 138L33 137M32 139L33 140L32 139M30 143L31 144L30 143M29 145L30 146L29 145M26 151L27 152L26 151M25 153L26 154L25 153M24 155L25 156L24 155M22 160L23 161L22 160M21 162L22 163L21 162M20 165L21 166L20 165M18 170L19 171L18 170M17 173L18 174L17 173M15 179L16 180L15 179M14 182L15 183L14 182M13 185L14 186L13 185M12 188L13 189L12 188M11 192L12 193L11 192M10 196L11 197L10 196M9 200L10 201L9 200M8 204L9 205L8 204M7 209L8 210L7 209M6.33333 214.667L6.66667 215.333L6.33333 214.667z"/>
<path style="fill:#a49cb4; stroke:none;" d="M768.333 214.667L768.667 215.333L768.333 214.667z"/>
<path style="fill:#fffeff; stroke:none;" d="M769 214C770.644 223.225 776.577 232.646 780.753 241C787.539 254.574 793.985 268.326 800.576 282C813.905 309.654 827.881 337.102 840.691 365C847.788 380.455 854.135 400.887 865 414L928.309 277L956 216C894.549 208.172 830.777 218.816 769 214z"/>
<path style="fill:#a49cb4; stroke:none;" d="M772 214L773 215L772 214M774 214L774 215L856 215L831 214L774 214z"/>
<path style="fill:#ca38ff; stroke:none;" d="M856 214L856 215L864 215L856 214z"/>
<path style="fill:#a49cb4; stroke:none;" d="M392 215L392 216L465 216L442 215L392 215z"/>
<path style="fill:#fffeff; stroke:none;" d="M282 216C285.667 236.573 299.683 258.86 308.14 278C326.961 320.599 345.317 363.397 364.14 406C424.552 542.739 484.497 679.74 543.719 817C564.891 866.071 587.236 914.677 607.81 964C613.555 977.773 619.959 991.286 625.85 1005C628.133 1010.32 630.12 1018.67 635 1022C640.133 1000.33 649.841 978.979 657.308 958C669.856 922.744 682.069 887.351 694.344 852C699.092 838.327 703.839 824.637 708.692 811C711.112 804.202 715.503 796.238 716.062 789C716.875 778.492 705.609 761.548 701.306 752C688.621 723.859 676.537 695.394 664.421 667C619.072 560.72 571.883 455.238 526.421 349C512.41 316.257 497.904 283.722 483.85 251C480.264 242.653 476.556 234.361 473 226C471.75 223.062 470.543 217.959 467.582 216.269C464.184 214.329 456.883 216 453 216L417 216C372.595 216 326.183 219.906 282 216z"/>
<path style="fill:#a49cb4; stroke:none;" d="M467.667 215.333L468.333 215.667L467.667 215.333M949 215L949 216L952 216L949 215M953 215L953 216L957 217L953 215M281 216L282 217L281 216M283.667 216.333L284.333 216.667L283.667 216.333M286.667 216.333L287.333 216.667L286.667 216.333M469 217L470 218L469 217M769 217L770 218L769 217M955 218L956 219L955 218M282 219L283 220L282 219M770 219L771 220L770 219z"/>
<path style="fill:#652eff; stroke:none;" d="M5.33333 220.667L5.66667 221.333L5.33333 220.667z"/>
<path style="fill:#a49cb4; stroke:none;" d="M470 220L471 221L470 220z"/>
<path style="fill:#ca38ff; stroke:none;" d="M770 220L771 221L770 220z"/>
<path style="fill:#a49cb4; stroke:none;" d="M954 220L955 221L954 220M283 221L284 222L283 221M771 221L772 222L771 221M471 222L472 223L471 222z"/>
<path style="fill:#ca38ff; stroke:none;" d="M771 222L772 223L771 222z"/>
<path style="fill:#a49cb4; stroke:none;" d="M953 222L954 223L953 222M284 223L285 224L284 223M772 223L773 224L772 223M472 224L473 225L472 224z"/>
<path style="fill:#ca38ff; stroke:none;" d="M772 224L773 225L772 224z"/>
<path style="fill:#a49cb4; stroke:none;" d="M952.333 224.667L952.667 225.333L952.333 224.667M285 225L286 226L285 225M773 225L774 226L773 225z"/>
<path style="fill:#ca38ff; stroke:none;" d="M773 226L774 227L773 226z"/>
<path style="fill:#652eff; stroke:none;" d="M4.33333 227.667L4.66667 228.333L4.33333 227.667z"/>
<path style="fill:#a49cb4; stroke:none;" d="M473 227L474 228L473 227M951 227L952 228L951 227M286 228L287 229L286 228M774 228L775 229L774 228M474 229L475 230L474 229M775.333 229.667L775.667 230.333L775.333 229.667M950 229L951 230L950 229M287 230L288 231L287 230M475 231L476 232L475 231M949 231L950 232L949 231M288 232L289 233L288 232z"/>
<path style="fill:#ca38ff; stroke:none;" d="M776 232L777 233L776 232z"/>
<path style="fill:#a49cb4; stroke:none;" d="M476.333 233.667L476.667 234.333L476.333 233.667M948 233L949 234L948 233M777 234L778 235L777 234M289 235L290 236L289 235M947 235L948 236L947 235z"/>
<path style="fill:#652eff; stroke:none;" d="M3 236L3 240L4 240L3 236z"/>
<path style="fill:#a49cb4; stroke:none;" d="M477 236L478 237L477 236M778 236L779 237L778 236M290 237L291 238L290 237M946.333 237.667L946.667 238.333L946.333 237.667M478 238L479 239L478 238M779 238L780 239L779 238M291 239L292 240L291 239M479.333 240.667L479.667 241.333L479.333 240.667M780 240L781 241L780 240z"/>
<path style="fill:#ca38ff; stroke:none;" d="M945 240L946 241L945 240z"/>
<path style="fill:#a49cb4; stroke:none;" d="M781 242L782 243L781 242M944 242L945 243L944 242M480 243L481 244L480 243M293 244L294 245L293 244M782 244L783 245L782 244M943 244L944 245L943 244M481 245L482 246L481 245z"/>
<path style="fill:#ca38ff; stroke:none;" d="M782 245L783 246L782 245z"/>
<path style="fill:#a49cb4; stroke:none;" d="M294 246L295 247L294 246M783 246L784 247L783 246M942 246L943 247L942 246M295.333 248.667L295.667 249.333L295.333 248.667M784 248L785 249L784 248M941 248L942 249L941 248z"/>
<path style="fill:#ca38ff; stroke:none;" d="M784 249L785 250L784 249M941 249L942 250L941 249z"/>
<path style="fill:#a49cb4; stroke:none;" d="M483 250L484 251L483 250M785 250L786 251L785 250M940.333 250.667L940.667 251.333L940.333 250.667M296 251L297 252L296 251z"/>
<path style="fill:#ca38ff; stroke:none;" d="M785 251L786 252L785 251z"/>
<path style="fill:#a49cb4; stroke:none;" d="M484 252L485 253L484 252M786 252L787 253L786 252M297 253L298 254L297 253z"/>
<path style="fill:#ca38ff; stroke:none;" d="M786 253L787 254L786 253z"/>
<path style="fill:#a49cb4; stroke:none;" d="M939 253L940 254L939 253M485 254L486 255L485 254M787 254L788 255L787 254z"/>
<path style="fill:#ca38ff; stroke:none;" d="M787 255L788 256L787 255z"/>
<path style="fill:#a49cb4; stroke:none;" d="M938 255L939 256L938 255M486 257L487 258L486 257M788 257L789 258L788 257M937 257L938 258L937 257M487 259L488 260L487 259M789 259L790 260L789 259M936 259L937 260L936 259M300 260L301 261L300 260M488 261L489 262L488 261M790 261L791 262L790 261M935 261L936 262L935 261M301 262L302 263L301 262M791 263L792 264L791 263z"/>
<path style="fill:#652eff; stroke:none;" d="M0 264L0 979L1 979L1 472L1 326L1 284L0 264z"/>
<path style="fill:#a49cb4; stroke:none;" d="M302.333 264.667L302.667 265.333L302.333 264.667M792 265L793 266L792 265M490 266L491 267L490 266M933 266L934 267L933 266M303 267L304 268L303 267M793 267L794 268L793 267M491 268L492 269L491 268M932 268L933 269L932 268M304 269L305 270L304 269M794 269L795 270L794 269M492.333 270.667L492.667 271.333L492.333 270.667M931 270L932 271L931 270M795 271L796 272L795 271M930 272L931 273L930 272M493 273L494 274L493 273M796 273L797 274L796 273M306 274L307 275L306 274z"/>
<path style="fill:#ca38ff; stroke:none;" d="M796 274L797 275L796 274z"/>
<path style="fill:#a49cb4; stroke:none;" d="M929 274L930 275L929 274M494 275L495 276L494 275M797 275L798 276L797 275M307 276L308 277L307 276M928 276L929 277L928 276M495 277L496 278L495 277M798.333 277.667L798.667 278.333L798.333 277.667z"/>
<path style="fill:#ca38ff; stroke:none;" d="M928 277L929 278L928 277z"/>
<path style="fill:#a49cb4; stroke:none;" d="M308 278L309 279L308 278M927.333 278.667L927.667 279.333L927.333 278.667M496 280L497 281L496 280M800.333 281.667L800.667 282.333L800.333 281.667M926 281L927 282L926 281M497 282L498 283L497 282M310 283L311 284L310 283M801 283L802 284L801 283M925 283L926 284L925 283M498 284L499 285L498 284z"/>
<path style="fill:#ca38ff; stroke:none;" d="M801 284L802 285L801 284z"/>
<path style="fill:#a49cb4; stroke:none;" d="M311 285L312 286L311 285M924 285L925 286L924 285M499.333 286.667L499.667 287.333L499.333 286.667M802 286L803 287L802 286M923 287L924 288L923 287M803 288L804 289L803 288M500 289L501 290L500 289M922 289L923 290L922 289M804 290L805 291L804 290M501 291L502 292L501 291M314 292L315 293L314 292M805 292L806 293L805 292M921 292L922 293L921 292M315 294L316 295L315 294M502 294L503 295L502 294M806 294L807 295L806 294M920 294L921 295L920 294M316 296L317 297L316 296M503 296L504 297L503 296M807 296L808 297L807 296M919 296L920 297L919 296M504 298L505 299L504 298M808 298L809 299L808 298M918 298L919 299L918 298M317 299L318 300L317 299M505 300L506 301L505 300M809 300L810 301L809 300M917 300L918 301L917 300M318 301L319 302L318 301z"/>
<path style="fill:#ca38ff; stroke:none;" d="M809 301L810 302L809 301z"/>
<path style="fill:#a49cb4; stroke:none;" d="M810 302L811 303L810 302M916 302L917 303L916 302M319 303L320 304L319 303M506 303L507 304L506 303M811.333 304.667L811.667 305.333L811.333 304.667M507 305L508 306L507 305M915 305L916 306L915 305M320 306L321 307L320 306M812 306L813 307L812 306M508 307L509 308L508 307z"/>
<path style="fill:#ca38ff; stroke:none;" d="M812 307L813 308L812 307z"/>
<path style="fill:#a49cb4; stroke:none;" d="M914 307L915 308L914 307M321 308L322 309L321 308M813 308L814 309L813 308z"/>
<path style="fill:#ca38ff; stroke:none;" d="M813 309L814 310L813 309z"/>
<path style="fill:#a49cb4; stroke:none;" d="M913 309L914 310L913 309M322 310L323 311L322 310M509 310L510 311L509 310M814.333 310.667L814.667 311.333L814.333 310.667M912 311L913 312L912 311M323.333 312.667L323.667 313.333L323.333 312.667M510 312L511 313L510 312M815 313L816 314L815 313M911 313L912 314L911 313M511 314L512 315L511 314M324 315L325 316L324 315M816 315L817 316L816 315M910 315L911 316L910 315M512.333 316.667L512.667 317.333L512.333 316.667M325 317L326 318L325 317M817 317L818 318L817 317M909 318L910 319L909 318M513 319L514 320L513 319M818 319L819 320L818 319M908 320L909 321L908 320M514 321L515 322L514 321M819 321L820 322L819 321M327 322L328 323L327 322M907 322L908 323L907 322M515 323L516 324L515 323M820 323L821 324L820 323M328 324L329 325L328 324M906 324L907 325L906 324M821 325L822 326L821 325M329 326L330 327L329 326M516 326L517 327L516 326z"/>
<path style="fill:#ca38ff; stroke:none;" d="M821 326L822 327L821 326z"/>
<path style="fill:#a49cb4; stroke:none;" d="M905 326L906 327L905 326M822 327L823 328L822 327M330.333 328.667L330.667 329.333L330.333 328.667M517 328L518 329L517 328z"/>
<path style="fill:#ca38ff; stroke:none;" d="M822 328L823 329L822 328z"/>
<path style="fill:#a49cb4; stroke:none;" d="M904.333 328.667L904.667 329.333L904.333 328.667M823 329L824 330L823 329M518 330L519 331L518 330M903 330L904 331L903 330M331 331L332 332L331 331M824 331L825 332L824 331z"/>
<path style="fill:#ca38ff; stroke:none;" d="M903 331L904 332L903 331M824 332L825 333L824 332z"/>
<path style="fill:#a49cb4; stroke:none;" d="M332 333L333 334L332 333M519 333L520 334L519 333M825 333L826 334L825 333M902 333L903 334L902 333z"/>
<path style="fill:#ca38ff; stroke:none;" d="M825 334L826 335L825 334z"/>
<path style="fill:#a49cb4; stroke:none;" d="M520 335L521 336L520 335M901 335L902 336L901 335M521 337L522 338L521 337M827.333 337.667L827.667 338.333L827.333 337.667M900 337L901 338L900 337M334 338L335 339L334 338M899 339L900 340L899 339M335 340L336 341L335 340M522 340L523 341L522 340M828 340L829 341L828 340M898 341L899 342L898 341M336 342L337 343L336 342M523 342L524 343L523 342M829 342L830 343L829 342M524 344L525 345L524 344M830 344L831 345L830 344M337 345L338 346L337 345M896.333 345.667L896.667 346.333L896.333 345.667M831 346L832 347L831 346M338 347L339 348L338 347M832 348L833 349L832 348M895 348L896 349L895 348M339 349L340 350L339 349M526 349L527 350L526 349M833 350L834 351L833 350M894 350L895 351L894 350M527 351L528 352L527 351M834 352L835 353L834 352M893 352L894 353L893 352M528 353L529 354L528 353z"/>
<path style="fill:#ca38ff; stroke:none;" d="M834 353L835 354L834 353z"/>
<path style="fill:#a49cb4; stroke:none;" d="M341 354L342 355L341 354M835 354L836 355L835 354M892 354L893 355L892 354M342 356L343 357L342 356M529 356L530 357L529 356M836 356L837 357L836 356M891 356L892 357L891 356z"/>
<path style="fill:#ca38ff; stroke:none;" d="M891 357L892 358L891 357z"/>
<path style="fill:#a49cb4; stroke:none;" d="M343 358L344 359L343 358M530 358L531 359L530 358M837 358L838 359L837 358M890.333 358.667L890.667 359.333L890.333 358.667M531 360L532 361L531 360M838.333 360.667L838.667 361.333L838.333 360.667M344 361L345 362L344 361M889 361L890 362L889 361M839 362L840 363L839 362M345 363L346 364L345 363M532 363L533 364L532 363z"/>
<path style="fill:#ca38ff; stroke:none;" d="M839 363L840 364L839 363z"/>
<path style="fill:#a49cb4; stroke:none;" d="M888 363L889 364L888 363M840.333 364.667L840.667 365.333L840.333 364.667M346 365L347 366L346 365M533 365L534 366L533 365M887 365L888 366L887 365M841.333 366.667L841.667 367.333L841.333 366.667M347.333 367.667L347.667 368.333L347.333 367.667M534 367L535 368L534 367M886 367L887 368L886 367M535.333 369.667L535.667 370.333L535.333 369.667M842 369L843 370L842 369M885 369L886 370L885 369M348 370L349 371L348 370z"/>
<path style="fill:#ca38ff; stroke:none;" d="M885 370L886 371L885 370z"/>
<path style="fill:#a49cb4; stroke:none;" d="M843 371L844 372L843 371M884.333 371.667L884.667 372.333L884.333 371.667M349 372L350 373L349 372M536 372L537 373L536 372M844 373L845 374L844 373M350 374L351 375L350 374M537 374L538 375L537 374M883 374L884 375L883 374M845 375L846 376L845 375M351.333 376.667L351.667 377.333L351.333 376.667M538.333 376.667L538.667 377.333L538.333 376.667M882 376L883 377L882 376M846 377L847 378L846 377M881 378L882 379L881 378M352 379L353 380L352 379M539 379L540 380L539 379M847 379L848 380L847 379M880 380L881 381L880 380M353 381L354 382L353 381M540 381L541 382L540 381M848 381L849 382L848 381z"/>
<path style="fill:#ca38ff; stroke:none;" d="M848 382L849 383L848 382z"/>
<path style="fill:#a49cb4; stroke:none;" d="M879 382L880 383L879 382M541 383L542 384L541 383M849 383L850 384L849 383M850 385L851 386L850 385M878 385L879 386L878 385M355 386L356 387L355 386M542 386L543 387L542 386z"/>
<path style="fill:#ca38ff; stroke:none;" d="M850 386L851 387L850 386z"/>
<path style="fill:#a49cb4; stroke:none;" d="M851 387L852 388L851 387M877 387L878 388L877 387M356 388L357 389L356 388M543 388L544 389L543 388z"/>
<path style="fill:#ca38ff; stroke:none;" d="M851 388L852 389L851 388z"/>
<path style="fill:#a49cb4; stroke:none;" d="M852 389L853 390L852 389M876 389L877 390L876 389M357 390L358 391L357 390M544 390L545 391L544 390z"/>
<path style="fill:#ca38ff; stroke:none;" d="M852 390L853 391L852 390z"/>
<path style="fill:#a49cb4; stroke:none;" d="M875 391L876 392L875 391M358 393L359 394L358 393M545 393L546 394L545 393M874 393L875 394L874 393M854 394L855 395L854 394M359 395L360 396L359 395M546 395L547 396L546 395M873 395L874 396L873 395M855 396L856 397L855 396M360 397L361 398L360 397M547 397L548 398L547 397M872 397L873 398L872 397M856 398L857 399L856 398z"/>
<path style="fill:#ca38ff; stroke:none;" d="M872 398L873 399L872 398z"/>
<path style="fill:#a49cb4; stroke:none;" d="M548 399L549 400L548 399M857 400L858 401L857 400z"/>
<path style="fill:#ca38ff; stroke:none;" d="M871 400L872 401L871 400z"/>
<path style="fill:#a49cb4; stroke:none;" d="M362 402L363 403L362 402M549 402L550 403L549 402M858 402L859 403L858 402M870 402L871 403L870 402M363 404L364 405L363 404M550 404L551 405L550 404M859 404L860 405L859 404M869 404L870 405L869 404M364 406L365 407L364 406M551 406L552 407L551 406M860 406L861 407L860 406M868 406L869 407L868 406M861 408L862 409L861 408M867 408L868 409L867 408M365 409L366 410L365 409M552 409L553 410L552 409z"/>
<path style="fill:#ca38ff; stroke:none;" d="M867 409L868 410L867 409z"/>
<path style="fill:#a49cb4; stroke:none;" d="M862 410L863 411L862 410M866 410L867 411L866 410M366 411L367 412L366 411M553 411L554 412L553 411z"/>
<path style="fill:#ca38ff; stroke:none;" d="M862 411L863 412L862 411z"/>
<path style="fill:#a49cb4; stroke:none;" d="M863 412L864 413L863 412M367 413L368 414L367 413M554 413L555 414L554 413M865 413L866 414L865 413M864 414L865 415L864 414M555 416L556 417L555 416M369 418L370 419L369 418M556 418L557 419L556 418M370 420L371 421L370 420M557 420L558 421L557 420M371 422L372 423L371 422M558.333 422.667L558.667 423.333L558.333 422.667M372 425L373 426L372 425M559 425L560 426L559 425M373 427L374 428L373 427M560 427L561 428L560 427M374 429L375 430L374 429M561 429L562 430L561 429M562 432L563 433L562 432M376 434L377 435L376 434M563 434L564 435L563 434M377 436L378 437L377 436M564 436L565 437L564 436M378 438L379 439L378 438M565 439L566 440L565 439M379 441L380 442L379 441M566 441L567 442L566 441M380 443L381 444L380 443M567 443L568 444L567 443M381 445L382 446L381 445M568.333 445.667L568.667 446.333L568.333 445.667M569 448L570 449L569 448M383 450L384 451L383 450M570 450L571 451L570 450M384 452L385 453L384 452M571 452L572 453L571 452M385 454L386 455L385 454M572 455L573 456L572 455M386 457L387 458L386 457M573 457L574 458L573 457M387 459L388 460L387 459M574 459L575 460L574 459M388 461L389 462L388 461M575 462L576 463L575 462M576 464L577 465L576 464M390 466L391 467L390 466M577 466L578 467L577 466M391 468L392 469L391 468M578 469L579 470L578 469M392 470L393 471L392 470M579 471L580 472L579 471M393 473L394 474L393 473M580 473L581 474L580 473M394 475L395 476L394 475M581.333 475.667L581.667 476.333L581.333 475.667M395 477L396 478L395 477M582 478L583 479L582 478M396 480L397 481L396 480M583 480L584 481L583 480M397 482L398 483L397 482M584 482L585 483L584 482M398 484L399 485L398 484M585 485L586 486L585 485M399 486L400 487L399 486M586 487L587 488L586 487z"/>
<path style="fill:#652eff; stroke:none;" d="M587 487L588 488L587 487z"/>
<path style="fill:#a49cb4; stroke:none;" d="M400 489L401 490L400 489M587 489L588 490L587 489M401 491L402 492L401 491M588 492L589 493L588 492M402 493L403 494L402 493M589 494L590 495L589 494M403 496L404 497L403 496M590 496L591 497L590 496z"/>
<path style="fill:#652eff; stroke:none;" d="M591 496L592 497L591 496z"/>
<path style="fill:#a49cb4; stroke:none;" d="M404 498L405 499L404 498M591.333 498.667L591.667 499.333L591.333 498.667M405 500L406 501L405 500M592 501L593 502L592 501M406.333 502.667L406.667 503.333L406.333 502.667M593 503L594 504L593 503M407 505L408 506L407 505M594 505L595 506L594 505M408 507L409 508L408 507M595 508L596 509L595 508M409 509L410 510L409 509z"/>
<path style="fill:#652eff; stroke:none;" d="M598 509L599 510L598 509z"/>
<path style="fill:#a49cb4; stroke:none;" d="M596 510L597 511L596 510M597 512L598 513L597 512z"/>
<path style="fill:#652eff; stroke:none;" d="M598 512L599 513L598 512z"/>
<path style="fill:#a49cb4; stroke:none;" d="M411 514L412 515L411 514M598 515L599 516L598 515M412 516L413 517L412 516M599 517L600 518L599 517M413.333 518.667L413.667 519.333L413.333 518.667M600 519L601 520L600 519z"/>
<path style="fill:#652eff; stroke:none;" d="M603 520L604 521L603 520M606 520L607 521L606 520z"/>
<path style="fill:#a49cb4; stroke:none;" d="M414 521L415 522L414 521M601 521L602 522L601 521z"/>
<path style="fill:#652eff; stroke:none;" d="M602 522L603 523L602 522M605.333 522.667L605.667 523.333L605.333 522.667z"/>
<path style="fill:#a49cb4; stroke:none;" d="M415 523L416 524L415 523M602 524L603 525L602 524M416 525L417 526L416 525M603 526L604 527L603 526M417 528L418 529L417 528M604.333 528.667L604.667 529.333L604.333 528.667M418 530L419 531L418 530M605 531L606 532L605 531M419 532L420 533L419 532M606 533L607 534L606 533M420 535L421 536L420 535M607 535L608 536L607 535z"/>
<path style="fill:#652eff; stroke:none;" d="M610 536L611 537L610 536z"/>
<path style="fill:#a49cb4; stroke:none;" d="M421 537L422 538L421 537M608 538L609 539L608 538z"/>
<path style="fill:#652eff; stroke:none;" d="M609 538L610 539L609 538M611 538L612 539L611 538z"/>
<path style="fill:#a49cb4; stroke:none;" d="M422 539L423 540L422 539M609 540L610 541L609 540z"/>
<path style="fill:#652eff; stroke:none;" d="M610 540L611 541L610 540z"/>
<path style="fill:#a49cb4; stroke:none;" d="M423.333 541.667L423.667 542.333L423.333 541.667M610 542L611 543L610 542z"/>
<path style="fill:#652eff; stroke:none;" d="M611 543L612 544L611 543M614 543L615 544L614 543z"/>
<path style="fill:#a49cb4; stroke:none;" d="M424 544L425 545L424 544M611 545L612 546L611 545M425 546L426 547L425 546M612 547L613 548L612 547z"/>
<path style="fill:#652eff; stroke:none;" d="M613 547L614 548L613 547z"/>
<path style="fill:#a49cb4; stroke:none;" d="M426 548L427 549L426 548M613 549L614 550L613 549M427 551L428 552L427 551z"/>
<path style="fill:#652eff; stroke:none;" d="M615 552L616 553L615 552M617.667 552.333L618.333 552.667L617.667 552.333z"/>
<path style="fill:#a49cb4; stroke:none;" d="M428 553L429 554L428 553z"/>
<path style="fill:#652eff; stroke:none;" d="M616.333 553.667L616.667 554.333L616.333 553.667z"/>
<path style="fill:#a49cb4; stroke:none;" d="M615 554L616 555L615 554z"/>
<path style="fill:#652eff; stroke:none;" d="M620.333 554.667L620.667 555.333L620.333 554.667z"/>
<path style="fill:#a49cb4; stroke:none;" d="M429 555L430 556L429 555M616 556L617 557L616 556z"/>
<path style="fill:#652eff; stroke:none;" d="M618.333 556.667L618.667 557.333L618.333 556.667M621 557L622 558L621 557z"/>
<path style="fill:#a49cb4; stroke:none;" d="M430 558L431 559L430 558M617 558L618 559L617 558M431 560L432 561L431 560z"/>
<path style="fill:#652eff; stroke:none;" d="M622 560L623 561L622 560z"/>
<path style="fill:#a49cb4; stroke:none;" d="M618 561L619 562L618 561M432 562L433 563L432 562M619 563L620 564L619 563M433 564L434 565L433 564z"/>
<path style="fill:#652eff; stroke:none;" d="M622.333 564.667L622.667 565.333L622.333 564.667z"/>
<path style="fill:#a49cb4; stroke:none;" d="M620 565L621 566L620 565z"/>
<path style="fill:#652eff; stroke:none;" d="M623 567L624 568L623 567M622 568L623 569L622 568M629 568L630 569L629 568z"/>
<path style="fill:#a49cb4; stroke:none;" d="M435 569L436 570L435 569z"/>
<path style="fill:#652eff; stroke:none;" d="M623.333 569.667L623.667 570.333L623.333 569.667z"/>
<path style="fill:#a49cb4; stroke:none;" d="M622 570L623 571L622 570z"/>
<path style="fill:#652eff; stroke:none;" d="M627 570L628 571L627 570z"/>
<path style="fill:#a49cb4; stroke:none;" d="M436 571L437 572L436 571M623 572L624 573L623 572z"/>
<path style="fill:#652eff; stroke:none;" d="M624 572L625 573L624 572M625 573L627 577L628 577L625 573z"/>
<path style="fill:#a49cb4; stroke:none;" d="M624.333 574.667L624.667 575.333L624.333 574.667z"/>
<path style="fill:#652eff; stroke:none;" d="M629.333 574.667L629.667 575.333L629.333 574.667z"/>
<path style="fill:#a49cb4; stroke:none;" d="M438 576L439 577L438 576M625 577L626 578L625 577M439 578L440 579L439 578z"/>
<path style="fill:#652eff; stroke:none;" d="M628.333 578.667L628.667 579.333L628.333 578.667z"/>
<path style="fill:#a49cb4; stroke:none;" d="M626 579L627 580L626 579M440 580L441 581L440 580z"/>
<path style="fill:#652eff; stroke:none;" d="M630.333 580.667L630.667 581.333L630.333 580.667z"/>
<path style="fill:#a49cb4; stroke:none;" d="M441.333 582.667L441.667 583.333L441.333 582.667M627 582L628 583L627 582z"/>
<path style="fill:#652eff; stroke:none;" d="M629 582L629 585L630 585L629 582z"/>
<path style="fill:#a49cb4; stroke:none;" d="M628 584L629 585L628 584M442 585L443 586L442 585M629 586L630 587L629 586z"/>
<path style="fill:#652eff; stroke:none;" d="M630 586L631 587L630 586z"/>
<path style="fill:#a49cb4; stroke:none;" d="M443 587L444 588L443 587M630 588L631 589L630 588M444 590L445 591L444 590M631 591L632 592L631 591M445 592L446 593L445 592z"/>
<path style="fill:#652eff; stroke:none;" d="M634 592L635 593L634 592M637 592L636 596L637 596L637 592z"/>
<path style="fill:#a49cb4; stroke:none;" d="M632 593L633 594L632 593z"/>
<path style="fill:#652eff; stroke:none;" d="M639 593L639 601L640 601L639 593z"/>
<path style="fill:#a49cb4; stroke:none;" d="M446 594L447 595L446 594M633 595L634 596L633 595M447 596L448 597L447 596z"/>
<path style="fill:#652eff; stroke:none;" d="M634 596L635 597L634 596z"/>
<path style="fill:#a49cb4; stroke:none;" d="M634 598L635 599L634 598z"/>
<path style="fill:#652eff; stroke:none;" d="M636 598L638 601L636 598z"/>
<path style="fill:#a49cb4; stroke:none;" d="M448 599L449 600L448 599M635 600L636 601L635 600M449 601L450 602L449 601M636 602L637 603L636 602z"/>
<path style="fill:#652eff; stroke:none;" d="M638 602L639 607L640 607L638 602z"/>
<path style="fill:#a49cb4; stroke:none;" d="M450 603L451 604L450 603M637.333 604.667L637.667 605.333L637.333 604.667M451 606L452 607L451 606M638 607L639 608L638 607M452 608L453 609L452 608z"/>
<path style="fill:#ca38ff; stroke:none;" d="M647 608C643.713 613.396 645.271 616.365 647 622L648 622L648 613L647 613L646 616L645 616L647 608z"/>
<path style="fill:#a49cb4; stroke:none;" d="M639 609L640 610L639 609M453 610L454 611L453 610z"/>
<path style="fill:#ca38ff; stroke:none;" d="M640 610L641 611L640 610z"/>
<path style="fill:#a49cb4; stroke:none;" d="M640 611L641 612L640 611M454 612L455 613L454 612z"/>
<path style="fill:#ca38ff; stroke:none;" d="M641 613L645 618L641 613z"/>
<path style="fill:#a49cb4; stroke:none;" d="M641 614L642 615L641 614M455 615L456 616L455 615M642 616L643 617L642 616z"/>
<path style="fill:#652eff; stroke:none;" d="M646 616L647 617L646 616z"/>
<path style="fill:#a49cb4; stroke:none;" d="M456 617L457 618L456 617M643 618L644 619L643 618M457 619L458 620L457 619z"/>
<path style="fill:#ca38ff; stroke:none;" d="M645 619L647 623L645 619z"/>
<path style="fill:#a49cb4; stroke:none;" d="M644 621L645 622L644 621M458 622L459 623L458 622M645 623L646 624L645 623M459 624L460 625L459 624z"/>
<path style="fill:#ca38ff; stroke:none;" d="M646.667 624.333L647.333 624.667L646.667 624.333M652 624L654 627L652 624M655.333 624.667L655.667 625.333L655.333 624.667z"/>
<path style="fill:#a49cb4; stroke:none;" d="M646 625L647 626L646 625z"/>
<path style="fill:#ca38ff; stroke:none;" d="M647 628L650 625L647 628z"/>
<path style="fill:#a49cb4; stroke:none;" d="M460 626L461 627L460 626z"/>
<path style="fill:#ca38ff; stroke:none;" d="M650 627L655 643L656 643L656 634L650 627z"/>
<path style="fill:#a49cb4; stroke:none;" d="M647 628L648 629L647 628z"/>
<path style="fill:#ca38ff; stroke:none;" d="M654 628L654 632L655 632L654 628M648 629L652 634L648 629z"/>
<path style="fill:#a49cb4; stroke:none;" d="M648 630L649 631L648 630M462 631L463 632L462 631M649 632L650 633L649 632M463 633L464 634L463 633M650 634L651 635L650 634M464 635L465 636L464 635z"/>
<path style="fill:#ca38ff; stroke:none;" d="M652 635L651 637L653 637L652 635z"/>
<path style="fill:#a49cb4; stroke:none;" d="M651 637L652 638L651 637M465 638L466 639L465 638z"/>
<path style="fill:#ca38ff; stroke:none;" d="M652.667 638.333L653.333 638.667L652.667 638.333z"/>
<path style="fill:#a49cb4; stroke:none;" d="M652 639L653 640L652 639M466 640L467 641L466 640M653 641L654 642L653 641M467 642L468 643L467 642z"/>
<path style="fill:#ca38ff; stroke:none;" d="M654 643L655 644L654 643z"/>
<path style="fill:#a49cb4; stroke:none;" d="M468 644L469 645L468 644M654 644L655 645L654 644z"/>
<path style="fill:#ca38ff; stroke:none;" d="M655 645L656 646L655 645z"/>
<path style="fill:#a49cb4; stroke:none;" d="M655 646L656 647L655 646M469 647L470 648L469 647M656 648L657 649L656 648z"/>
<path style="fill:#ca38ff; stroke:none;" d="M658 648L659 649L658 648M662 648L663 649L662 648z"/>
<path style="fill:#a49cb4; stroke:none;" d="M470 649L471 650L470 649z"/>
<path style="fill:#ca38ff; stroke:none;" d="M657.333 649.667L657.667 650.333L657.333 649.667z"/>
<path style="fill:#a49cb4; stroke:none;" d="M471 651L472 652L471 651M657 651L658 652L657 651z"/>
<path style="fill:#ca38ff; stroke:none;" d="M658 652L659 653L658 652M661 652L661 655L662 655L661 652z"/>
<path style="fill:#a49cb4; stroke:none;" d="M658 653L659 654L658 653M472 654L473 655L472 654z"/>
<path style="fill:#ca38ff; stroke:none;" d="M659 654L661 656L659 654z"/>
<path style="fill:#a49cb4; stroke:none;" d="M659 655L660 656L659 655M473 656L474 657L473 656z"/>
<path style="fill:#ca38ff; stroke:none;" d="M661 656L662 657L661 656M663 656L664 657L663 656z"/>
<path style="fill:#a49cb4; stroke:none;" d="M660 657L661 658L660 657M474 658L475 659L474 658z"/>
<path style="fill:#ca38ff; stroke:none;" d="M662 658L663 659L662 658M661 659L662 660L661 659z"/>
<path style="fill:#a49cb4; stroke:none;" d="M475 660L476 661L475 660M661 660L662 661L661 660z"/>
<path style="fill:#ca38ff; stroke:none;" d="M662 661L663 662L662 661z"/>
<path style="fill:#a49cb4; stroke:none;" d="M662 662L663 663L662 662M476 663L477 664L476 663M663 664L664 665L663 664z"/>
<path style="fill:#ca38ff; stroke:none;" d="M668 664L669 665L668 664z"/>
<path style="fill:#a49cb4; stroke:none;" d="M477 665L478 666L477 665z"/>
<path style="fill:#ca38ff; stroke:none;" d="M664 666L665 667L664 666M666 666L667 667L666 666M669 666L668 672L669 672L669 666z"/>
<path style="fill:#a49cb4; stroke:none;" d="M478 667L479 668L478 667M664 667L665 668L664 667z"/>
<path style="fill:#ca38ff; stroke:none;" d="M665 668L666 669L665 668M671.333 668.667L671.667 669.333L671.333 668.667z"/>
<path style="fill:#a49cb4; stroke:none;" d="M665 669L666 670L665 669M479 670L480 671L479 670z"/>
<path style="fill:#ca38ff; stroke:none;" d="M666 670L667 671L666 670z"/>
<path style="fill:#a49cb4; stroke:none;" d="M666 671L667 672L666 671z"/>
<path style="fill:#ca38ff; stroke:none;" d="M670 671L671 672L670 671z"/>
<path style="fill:#a49cb4; stroke:none;" d="M480 672L481 673L480 672z"/>
<path style="fill:#ca38ff; stroke:none;" d="M667 672L668 673L667 672z"/>
<path style="fill:#a49cb4; stroke:none;" d="M667.333 673.667L667.667 674.333L667.333 673.667z"/>
<path style="fill:#ca38ff; stroke:none;" d="M670 673L670 676L671 676L670 673z"/>
<path style="fill:#a49cb4; stroke:none;" d="M481 674L482 675L481 674z"/>
<path style="fill:#ca38ff; stroke:none;" d="M668 675L669 676L668 675z"/>
<path style="fill:#a49cb4; stroke:none;" d="M668 676L669 677L668 676z"/>
<path style="fill:#ca38ff; stroke:none;" d="M669 677L670 678L669 677z"/>
<path style="fill:#a49cb4; stroke:none;" d="M669 678L670 679L669 678M483 679L484 680L483 679z"/>
<path style="fill:#ca38ff; stroke:none;" d="M670 680L671 681L670 680M676 680L677 681L676 680z"/>
<path style="fill:#a49cb4; stroke:none;" d="M484 681L485 682L484 681M670 681L671 682L670 681z"/>
<path style="fill:#ca38ff; stroke:none;" d="M671 682L672 683L671 682z"/>
<path style="fill:#a49cb4; stroke:none;" d="M485 683L486 684L485 683M671 683L672 684L671 683z"/>
<path style="fill:#ca38ff; stroke:none;" d="M672 684L673 685L672 684z"/>
<path style="fill:#a49cb4; stroke:none;" d="M672 685L673 686L672 685M486 686L487 687L486 686z"/>
<path style="fill:#ca38ff; stroke:none;" d="M673.333 686.667L673.667 687.333L673.333 686.667z"/>
<path style="fill:#a49cb4; stroke:none;" d="M487 688L488 689L487 688z"/>
<path style="fill:#ca38ff; stroke:none;" d="M675 688L676 689L675 688M678 688L679 689L678 688M674 689L675 690L674 689z"/>
<path style="fill:#a49cb4; stroke:none;" d="M488 690L489 691L488 690M674 690L675 691L674 690z"/>
<path style="fill:#ca38ff; stroke:none;" d="M676 690L677 691L676 690M679.333 690.667L679.667 691.333L679.333 690.667M675 691L676 692L675 691z"/>
<path style="fill:#a49cb4; stroke:none;" d="M675 692L676 693L675 692M489 693L490 694L489 693M676 694L677 695L676 694M490 695L491 696L490 695M677.333 696.667L677.667 697.333L677.333 696.667M491 697L492 698L491 697z"/>
<path style="fill:#ca38ff; stroke:none;" d="M678 698L679 699L678 698z"/>
<path style="fill:#a49cb4; stroke:none;" d="M492 699L493 700L492 699M678 699L679 700L678 699z"/>
<path style="fill:#ca38ff; stroke:none;" d="M679 700L680 701L679 700z"/>
<path style="fill:#a49cb4; stroke:none;" d="M679 701L680 702L679 701M493 702L494 703L493 702z"/>
<path style="fill:#ca38ff; stroke:none;" d="M680 702L680 704L682 704L680 702z"/>
<path style="fill:#a49cb4; stroke:none;" d="M494 704L495 705L494 704M680 704L681 705L680 704z"/>
<path style="fill:#ca38ff; stroke:none;" d="M681 705L682 706L681 705M687.333 705.667L687.667 706.333L687.333 705.667z"/>
<path style="fill:#a49cb4; stroke:none;" d="M495 706L496 707L495 706M681 706L682 707L681 706z"/>
<path style="fill:#ca38ff; stroke:none;" d="M682 707L683 708L682 707z"/>
<path style="fill:#a49cb4; stroke:none;" d="M682 708L683 709L682 708z"/>
<path style="fill:#ca38ff; stroke:none;" d="M686.333 708.667L686.667 709.333L686.333 708.667z"/>
<path style="fill:#a49cb4; stroke:none;" d="M496 709L497 710L496 709z"/>
<path style="fill:#ca38ff; stroke:none;" d="M683 709L684 710L683 709z"/>
<path style="fill:#a49cb4; stroke:none;" d="M683.333 710.667L683.667 711.333L683.333 710.667M497 711L498 712L497 711z"/>
<path style="fill:#ca38ff; stroke:none;" d="M687 711L688 712L687 711M684 712L685 713L684 712z"/>
<path style="fill:#a49cb4; stroke:none;" d="M498 713L499 714L498 713M684 713L685 714L684 713z"/>
<path style="fill:#ca38ff; stroke:none;" d="M685 714L686 715L685 714z"/>
<path style="fill:#a49cb4; stroke:none;" d="M499 715L500 716L499 715M685 715L686 716L685 715M686 717L687 718L686 717M500 718L501 719L500 718z"/>
<path style="fill:#ca38ff; stroke:none;" d="M687.333 718.667L687.667 719.333L687.333 718.667z"/>
<path style="fill:#a49cb4; stroke:none;" d="M501 720L502 721L501 720z"/>
<path style="fill:#ca38ff; stroke:none;" d="M691 720L692 721L691 720M688 721L689 722L688 721z"/>
<path style="fill:#a49cb4; stroke:none;" d="M502 722L503 723L502 722M688 722L689 723L688 722z"/>
<path style="fill:#ca38ff; stroke:none;" d="M689 723L690 724L689 723z"/>
<path style="fill:#a49cb4; stroke:none;" d="M503.333 724.667L503.667 725.333L503.333 724.667M689 724L690 725L689 724z"/>
<path style="fill:#ca38ff; stroke:none;" d="M690 726L691 727L690 726z"/>
<path style="fill:#a49cb4; stroke:none;" d="M504 727L505 728L504 727M690 727L691 728L690 727z"/>
<path style="fill:#ca38ff; stroke:none;" d="M691 728L692 729L691 728z"/>
<path style="fill:#a49cb4; stroke:none;" d="M505 729L506 730L505 729M691 729L692 730L691 729z"/>
<path style="fill:#ca38ff; stroke:none;" d="M692 730L693 731L692 730M694.333 730.667L694.667 731.333L694.333 730.667z"/>
<path style="fill:#a49cb4; stroke:none;" d="M506 731L507 732L506 731M692 731L693 732L692 731M693.333 733.667L693.667 734.333L693.333 733.667M507 734L508 735L507 734z"/>
<path style="fill:#ca38ff; stroke:none;" d="M694.333 734.667L694.667 735.333L694.333 734.667z"/>
<path style="fill:#a49cb4; stroke:none;" d="M508 736L509 737L508 736M694 736L695 737L694 736z"/>
<path style="fill:#ca38ff; stroke:none;" d="M695 737L696 738L695 737z"/>
<path style="fill:#a49cb4; stroke:none;" d="M509 738L510 739L509 738M695 738L696 739L695 738z"/>
<path style="fill:#ca38ff; stroke:none;" d="M698 738L699 739L698 738z"/>
<path style="fill:#a49cb4; stroke:none;" d="M696 740L697 741L696 740M510 741L511 742L510 741z"/>
<path style="fill:#ca38ff; stroke:none;" d="M697 741L698 745L699 745L697 741z"/>
<path style="fill:#a49cb4; stroke:none;" d="M511 743L512 744L511 743M697 743L698 744L697 743M512 745L513 746L512 745M698 745L699 746L698 745z"/>
<path style="fill:#ca38ff; stroke:none;" d="M699 746L700 747L699 746M702 746L703 747L702 746z"/>
<path style="fill:#a49cb4; stroke:none;" d="M513 747L514 748L513 747M699 747L700 748L699 747z"/>
<path style="fill:#ca38ff; stroke:none;" d="M700 749L701 752L702 752L700 749z"/>
<path style="fill:#a49cb4; stroke:none;" d="M514 750L515 751L514 750M700 750L701 751L700 750M515 752L516 753L515 752M701 752L702 753L701 752z"/>
<path style="fill:#ca38ff; stroke:none;" d="M703 752L704 753L703 752M702 753L703 754L702 753z"/>
<path style="fill:#a49cb4; stroke:none;" d="M516 754L517 755L516 754M702 754L703 755L702 754M703 756L704 757L703 756M517 757L518 758L517 757z"/>
<path style="fill:#ca38ff; stroke:none;" d="M704 758L706 760L704 758z"/>
<path style="fill:#a49cb4; stroke:none;" d="M518 759L519 760L518 759M704 759L705 760L704 759M519 761L520 762L519 761M705 761L706 762L705 761M520 763L521 764L520 763M706.333 763.667L706.667 764.333L706.333 763.667z"/>
<path style="fill:#ca38ff; stroke:none;" d="M707 765L708 766L707 765z"/>
<path style="fill:#a49cb4; stroke:none;" d="M521 766L522 767L521 766M707 766L708 767L707 766z"/>
<path style="fill:#ca38ff; stroke:none;" d="M708 767L709 768L708 767M710 767L711 768L710 767z"/>
<path style="fill:#a49cb4; stroke:none;" d="M522 768L523 769L522 768M708 768L709 769L708 768M523.333 770.667L523.667 771.333L523.333 770.667M709 770L710 771L709 770z"/>
<path style="fill:#ca38ff; stroke:none;" d="M710 772L711 773L710 772z"/>
<path style="fill:#a49cb4; stroke:none;" d="M524 773L525 774L524 773M710 773L711 774L710 773z"/>
<path style="fill:#ca38ff; stroke:none;" d="M711 774L712 775L711 774z"/>
<path style="fill:#a49cb4; stroke:none;" d="M525 775L526 776L525 775M711 775L712 776L711 775M526 777L527 778L526 777M712 777L713 778L712 777M713.333 779.667L713.667 780.333L713.333 779.667M527 780L528 781L527 780z"/>
<path style="fill:#ca38ff; stroke:none;" d="M714 781L715 782L714 781z"/>
<path style="fill:#a49cb4; stroke:none;" d="M528 782L529 783L528 782M714 782L715 783L714 782M529 784L530 785L529 784M715 784L716 785L715 784M530.333 786.667L530.667 787.333L530.333 786.667M716.333 786.667L716.667 787.333L716.333 786.667M531 789L532 790L531 789M716 789L717 790L716 789M532 791L533 792L532 791M715.333 791.667L715.667 792.333L715.333 791.667M533 793L534 794L533 793z"/>
<path style="fill:#ca38ff; stroke:none;" d="M715 793L716 794L715 793z"/>
<path style="fill:#a49cb4; stroke:none;" d="M714 794L715 795L714 794z"/>
<path style="fill:#ca38ff; stroke:none;" d="M714 795L715 796L714 795z"/>
<path style="fill:#a49cb4; stroke:none;" d="M534 796L535 797L534 796M713 797L714 798L713 797M535 798L536 799L535 798z"/>
<path style="fill:#ca38ff; stroke:none;" d="M713 798L714 799L713 798z"/>
<path style="fill:#a49cb4; stroke:none;" d="M536 800L537 801L536 800M712 800L713 801L712 800z"/>
<path style="fill:#ca38ff; stroke:none;" d="M713 800L714 801L713 800M712 801L713 802L712 801z"/>
<path style="fill:#a49cb4; stroke:none;" d="M537 802L538 803L537 802M711 803L712 804L711 803z"/>
<path style="fill:#ca38ff; stroke:none;" d="M711 804L712 805L711 804z"/>
<path style="fill:#a49cb4; stroke:none;" d="M538 805L539 806L538 805M710 806L711 807L710 806M539 807L540 808L539 807z"/>
<path style="fill:#ca38ff; stroke:none;" d="M710 807L711 808L710 807z"/>
<path style="fill:#a49cb4; stroke:none;" d="M709.333 808.667L709.667 809.333L709.333 808.667M540 809L541 810L540 809z"/>
<path style="fill:#ca38ff; stroke:none;" d="M709 810L710 811L709 810z"/>
<path style="fill:#a49cb4; stroke:none;" d="M541.333 811.667L541.667 812.333L541.333 811.667M708.333 811.667L708.667 812.333L708.333 811.667z"/>
<path style="fill:#ca38ff; stroke:none;" d="M708 813L709 814L708 813z"/>
<path style="fill:#a49cb4; stroke:none;" d="M542 814L543 815L542 814M707.333 814.667L707.667 815.333L707.333 814.667M543 816L544 817L543 816M706 817L707 818L706 817M544 818L545 819L544 818z"/>
<path style="fill:#ca38ff; stroke:none;" d="M706 818L708 820L708 818L706 818M710 818L711 819L710 818z"/>
<path style="fill:#a49cb4; stroke:none;" d="M705 820L706 821L705 820M545 821L546 822L545 821z"/>
<path style="fill:#ca38ff; stroke:none;" d="M705 821L706 822L705 821z"/>
<path style="fill:#a49cb4; stroke:none;" d="M546 823L547 824L546 823M704 823L705 824L704 823M547 825L548 826L547 825M703 826L704 827L703 826z"/>
<path style="fill:#ca38ff; stroke:none;" d="M703 827L704 828L703 827z"/>
<path style="fill:#a49cb4; stroke:none;" d="M548 828L549 829L548 828M702.333 828.667L702.667 829.333L702.333 828.667M549 830L550 831L549 830z"/>
<path style="fill:#ca38ff; stroke:none;" d="M702 830L703 831L702 830z"/>
<path style="fill:#a49cb4; stroke:none;" d="M701 831L702 832L701 831M550 832L551 833L550 832z"/>
<path style="fill:#ca38ff; stroke:none;" d="M701.333 832.667L701.667 833.333L701.333 832.667z"/>
<path style="fill:#a49cb4; stroke:none;" d="M551.333 834.667L551.667 835.333L551.333 834.667M700 834L701 835L700 834z"/>
<path style="fill:#ca38ff; stroke:none;" d="M700.333 835.667L700.667 836.333L700.333 835.667z"/>
<path style="fill:#a49cb4; stroke:none;" d="M552 837L553 838L552 837M699 837L700 838L699 837z"/>
<path style="fill:#ca38ff; stroke:none;" d="M699 838L700 839L699 838z"/>
<path style="fill:#a49cb4; stroke:none;" d="M553 839L554 840L553 839M698 840L699 841L698 840M554 841L555 842L554 841z"/>
<path style="fill:#ca38ff; stroke:none;" d="M698 841L699 842L698 841z"/>
<path style="fill:#a49cb4; stroke:none;" d="M697 843L698 844L697 843M555 844L556 845L555 844z"/>
<path style="fill:#ca38ff; stroke:none;" d="M697 844L698 845L697 844z"/>
<path style="fill:#a49cb4; stroke:none;" d="M556 846L557 847L556 846M696 846L697 847L696 846z"/>
<path style="fill:#ca38ff; stroke:none;" d="M696 847L697 848L696 847z"/>
<path style="fill:#a49cb4; stroke:none;" d="M557 848L558 849L557 848M695.333 848.667L695.667 849.333L695.333 848.667M558.333 850.667L558.667 851.333L558.333 850.667z"/>
<path style="fill:#ca38ff; stroke:none;" d="M695 850L696 851L695 850z"/>
<path style="fill:#a49cb4; stroke:none;" d="M694 851L695 852L694 851z"/>
<path style="fill:#ca38ff; stroke:none;" d="M694 852L695 853L694 852z"/>
<path style="fill:#a49cb4; stroke:none;" d="M559 853L560 854L559 853M693 854L694 855L693 854M560 855L561 856L560 855z"/>
<path style="fill:#ca38ff; stroke:none;" d="M693 855L694 856L693 855z"/>
<path style="fill:#a49cb4; stroke:none;" d="M561 857L562 858L561 857M692 857L693 858L692 857z"/>
<path style="fill:#ca38ff; stroke:none;" d="M692 858L693 859L692 858z"/>
<path style="fill:#a49cb4; stroke:none;" d="M562 860L563 861L562 860M691 860L692 861L691 860z"/>
<path style="fill:#ca38ff; stroke:none;" d="M691 861L692 862L691 861z"/>
<path style="fill:#a49cb4; stroke:none;" d="M563 862L564 863L563 862M690.333 862.667L690.667 863.333L690.333 862.667M564 864L565 865L564 864M689.333 865.667L689.667 866.333L689.333 865.667z"/>
<path style="fill:#ca38ff; stroke:none;" d="M694.333 865.667L694.667 866.333L694.333 865.667M689 867L690 868L689 867z"/>
<path style="fill:#a49cb4; stroke:none;" d="M688 868L689 869L688 868z"/>
<path style="fill:#ca38ff; stroke:none;" d="M690 868L691 869L690 868z"/>
<path style="fill:#a49cb4; stroke:none;" d="M566 869L567 870L566 869z"/>
<path style="fill:#ca38ff; stroke:none;" d="M688 869L689 870L688 869z"/>
<path style="fill:#a49cb4; stroke:none;" d="M567 871L568 872L567 871M687 871L688 872L687 871z"/>
<path style="fill:#ca38ff; stroke:none;" d="M687.333 872.667L687.667 873.333L687.333 872.667z"/>
<path style="fill:#a49cb4; stroke:none;" d="M568 873L569 874L568 873M686 874L687 875L686 874z"/>
<path style="fill:#ca38ff; stroke:none;" d="M686 875L687 876L686 875z"/>
<path style="fill:#a49cb4; stroke:none;" d="M569 876L570 877L569 876M685 877L686 878L685 877M570 878L571 879L570 878z"/>
<path style="fill:#ca38ff; stroke:none;" d="M685 878L686 879L685 878z"/>
<path style="fill:#a49cb4; stroke:none;" d="M571 880L572 881L571 880M684 880L685 881L684 880z"/>
<path style="fill:#ca38ff; stroke:none;" d="M686 880L687 881L686 880M684 881L685 882L684 881z"/>
<path style="fill:#a49cb4; stroke:none;" d="M572.333 882.667L572.667 883.333L572.333 882.667M683.333 882.667L683.667 883.333L683.333 882.667z"/>
<path style="fill:#ca38ff; stroke:none;" d="M683 884L684 885L683 884z"/>
<path style="fill:#a49cb4; stroke:none;" d="M573 885L574 886L573 885M682 885L683 886L682 885z"/>
<path style="fill:#ca38ff; stroke:none;" d="M684 885L685 886L684 885M682 886L683 887L682 886z"/>
<path style="fill:#a49cb4; stroke:none;" d="M574 887L575 888L574 887z"/>
<path style="fill:#ca38ff; stroke:none;" d="M685 887L686 888L685 887z"/>
<path style="fill:#a49cb4; stroke:none;" d="M681.333 888.667L681.667 889.333L681.333 888.667M575 889L576 890L575 889z"/>
<path style="fill:#ca38ff; stroke:none;" d="M681 890L682 891L681 890z"/>
<path style="fill:#a49cb4; stroke:none;" d="M680 891L681 892L680 891M576 892L577 893L576 892z"/>
<path style="fill:#ca38ff; stroke:none;" d="M680 892L681 893L680 892M682 893L683 894L682 893z"/>
<path style="fill:#a49cb4; stroke:none;" d="M577 894L578 895L577 894M679 894L680 895L679 894z"/>
<path style="fill:#ca38ff; stroke:none;" d="M679.667 895.333L680.333 895.667L679.667 895.333z"/>
<path style="fill:#a49cb4; stroke:none;" d="M578 896L579 897L578 896M678 897L679 898L678 897M579.333 898.667L579.667 899.333L579.333 898.667z"/>
<path style="fill:#ca38ff; stroke:none;" d="M678 898L679 899L678 898z"/>
<path style="fill:#a49cb4; stroke:none;" d="M677 900L678 901L677 900z"/>
<path style="fill:#ca38ff; stroke:none;" d="M678 900L677 902L679 902L678 900z"/>
<path style="fill:#a49cb4; stroke:none;" d="M580 901L581 902L580 901M676.333 902.667L676.667 903.333L676.333 902.667M581 903L582 904L581 903M582 905L583 906L582 905M675 905L676 906L675 905z"/>
<path style="fill:#ca38ff; stroke:none;" d="M675 906L676 907L675 906z"/>
<path style="fill:#a49cb4; stroke:none;" d="M583 908L584 909L583 908M674 908L675 909L674 908z"/>
<path style="fill:#ca38ff; stroke:none;" d="M678.333 908.667L678.667 909.333L678.333 908.667M674.333 909.667L674.667 910.333L674.333 909.667z"/>
<path style="fill:#a49cb4; stroke:none;" d="M584 910L585 911L584 910M673 911L674 912L673 911M585 912L586 913L585 912z"/>
<path style="fill:#ca38ff; stroke:none;" d="M673.333 912.667L673.667 913.333L673.333 912.667M675 912L676 913L675 912z"/>
<path style="fill:#a49cb4; stroke:none;" d="M586.333 914.667L586.667 915.333L586.333 914.667M672 914L673 915L672 914z"/>
<path style="fill:#ca38ff; stroke:none;" d="M672 915L673 916L672 915z"/>
<path style="fill:#a49cb4; stroke:none;" d="M587 917L588 918L587 917M671 917L672 918L671 917z"/>
<path style="fill:#ca38ff; stroke:none;" d="M671 918L672 919L671 918z"/>
<path style="fill:#a49cb4; stroke:none;" d="M588 919L589 920L588 919M670 920L671 921L670 920M589 921L590 922L589 921z"/>
<path style="fill:#ca38ff; stroke:none;" d="M670.333 921.667L670.667 922.333L670.333 921.667z"/>
<path style="fill:#a49cb4; stroke:none;" d="M669.333 922.667L669.667 923.333L669.333 922.667M590 924L591 925L590 924z"/>
<path style="fill:#ca38ff; stroke:none;" d="M669 924L670 925L669 924z"/>
<path style="fill:#a49cb4; stroke:none;" d="M668 925L669 926L668 925M591 926L592 927L591 926z"/>
<path style="fill:#ca38ff; stroke:none;" d="M668 926L669 927L668 926z"/>
<path style="fill:#652eff; stroke:none;" d="M586 927L587 928L586 927M589 927L590 928L589 927z"/>
<path style="fill:#a49cb4; stroke:none;" d="M592 928L593 929L592 928M667 928L668 929L667 928z"/>
<path style="fill:#ca38ff; stroke:none;" d="M670 928L671 929L670 928M667.333 929.667L667.667 930.333L667.333 929.667z"/>
<path style="fill:#a49cb4; stroke:none;" d="M593 931L594 932L593 931M666 931L667 932L666 931z"/>
<path style="fill:#ca38ff; stroke:none;" d="M666 932L667 933L666 932M670.333 932.667L670.667 933.333L670.333 932.667z"/>
<path style="fill:#a49cb4; stroke:none;" d="M594 933L595 934L594 933z"/>
<path style="fill:#ca38ff; stroke:none;" d="M667 933L668 934L667 933z"/>
<path style="fill:#a49cb4; stroke:none;" d="M665 934L666 935L665 934M595 935L596 936L595 935z"/>
<path style="fill:#ca38ff; stroke:none;" d="M665 935L664 939L665 939L667 935L665 935M669 935L670 936L669 935M671 935L672 936L671 935z"/>
<path style="fill:#652eff; stroke:none;" d="M594 936L595 937L594 936z"/>
<path style="fill:#a49cb4; stroke:none;" d="M664.333 936.667L664.667 937.333L664.333 936.667M596 937L597 938L596 937M663.333 939.667L663.667 940.333L663.333 939.667z"/>
<path style="fill:#ca38ff; stroke:none;" d="M666 939L667 940L666 939z"/>
<path style="fill:#a49cb4; stroke:none;" d="M597 940L598 941L597 940z"/>
<path style="fill:#ca38ff; stroke:none;" d="M663 941L665 943L665 941L663 941z"/>
<path style="fill:#a49cb4; stroke:none;" d="M598 942L599 943L598 942M662 942L663 943L662 942z"/>
<path style="fill:#ca38ff; stroke:none;" d="M662 943L663 944L662 943M667 943L668 944L667 943z"/>
<path style="fill:#a49cb4; stroke:none;" d="M599.333 944.667L599.667 945.333L599.333 944.667M661 945L662 946L661 945z"/>
<path style="fill:#ca38ff; stroke:none;" d="M661 946L662 947L661 946z"/>
<path style="fill:#a49cb4; stroke:none;" d="M600 947L601 948L600 947M660 948L661 949L660 948M601 949L602 950L601 949z"/>
<path style="fill:#ca38ff; stroke:none;" d="M660 949L662 952L660 949z"/>
<path style="fill:#a49cb4; stroke:none;" d="M602 951L603 952L602 951M659 951L660 952L659 951z"/>
<path style="fill:#ca38ff; stroke:none;" d="M659 952L658 956L659 956L659 952z"/>
<path style="fill:#a49cb4; stroke:none;" d="M603 953L604 954L603 953M658 954L659 955L658 954M604 956L605 957L604 956M657 957L658 958L657 957z"/>
<path style="fill:#ca38ff; stroke:none;" d="M661 957L662 958L661 957z"/>
<path style="fill:#a49cb4; stroke:none;" d="M605 958L606 959L605 958z"/>
<path style="fill:#ca38ff; stroke:none;" d="M657 958L658 959L657 958M662 959L663 960L662 959z"/>
<path style="fill:#a49cb4; stroke:none;" d="M606 960L607 961L606 960z"/>
<path style="fill:#ca38ff; stroke:none;" d="M656 960L655 965L656 965L658 960L656 960z"/>
<path style="fill:#a49cb4; stroke:none;" d="M655 962L656 963L655 962M607 963L608 964L607 963M608 965L609 966L608 965M654 965L655 966L654 965z"/>
<path style="fill:#ca38ff; stroke:none;" d="M654 966L655 967L654 966z"/>
<path style="fill:#652eff; stroke:none;" d="M603 967L604 968L603 967M608 967L609 968L608 967z"/>
<path style="fill:#a49cb4; stroke:none;" d="M653 968L654 969L653 968z"/>
<path style="fill:#ca38ff; stroke:none;" d="M655 968L656 969L655 968z"/>
<path style="fill:#a49cb4; stroke:none;" d="M610.333 969.667L610.667 970.333L610.333 969.667z"/>
<path style="fill:#ca38ff; stroke:none;" d="M653.333 969.667L653.667 970.333L653.333 969.667M655 970L655 974L656 974L655 970z"/>
<path style="fill:#a49cb4; stroke:none;" d="M652 971L653 972L652 971z"/>
<path style="fill:#652eff; stroke:none;" d="M610 972L611 973L610 972z"/>
<path style="fill:#a49cb4; stroke:none;" d="M611 972L612 973L611 972z"/>
<path style="fill:#ca38ff; stroke:none;" d="M652 972L653 973L652 972M653 973L655 976L653 973z"/>
<path style="fill:#a49cb4; stroke:none;" d="M612 974L613 975L612 974M651 974L652 975L651 974z"/>
<path style="fill:#652eff; stroke:none;" d="M611 975L612 976L611 975z"/>
<path style="fill:#ca38ff; stroke:none;" d="M651 975L653 977L653 975L651 975z"/>
<path style="fill:#652eff; stroke:none;" d="M2.33333 976.667L2.66667 977.333L2.33333 976.667M609 976L610 977L609 976M612 976L613 977L612 976z"/>
<path style="fill:#a49cb4; stroke:none;" d="M613 976L614 977L613 976M650.333 976.667L650.667 977.333L650.333 976.667z"/>
<path style="fill:#ca38ff; stroke:none;" d="M651 977L652 980L651 977M654.333 977.667L654.667 978.333L654.333 977.667z"/>
<path style="fill:#a49cb4; stroke:none;" d="M0 979L0 1173L0 1221L1.6034 1236.97L19 1238L65 1238L244 1238L244 1237L1 1237L1 1055L1 1003L0 979M614 979L615 980L614 979M649 979L650 980L649 979z"/>
<path style="fill:#ca38ff; stroke:none;" d="M649 980L651 983L651 980L649 980M652 980L651 984L654 980L652 980M655.333 980.667L655.667 981.333L655.333 980.667z"/>
<path style="fill:#a49cb4; stroke:none;" d="M615 981L616 982L615 981M648 982L649 983L648 982z"/>
<path style="fill:#652eff; stroke:none;" d="M612 983L613 984L612 983M615 983L616 984L615 983z"/>
<path style="fill:#a49cb4; stroke:none;" d="M616 983L617 984L616 983z"/>
<path style="fill:#ca38ff; stroke:none;" d="M648 983L649 984L648 983z"/>
<path style="fill:#a49cb4; stroke:none;" d="M617 985L618 986L617 985M647 985L648 986L647 985z"/>
<path style="fill:#652eff; stroke:none;" d="M616.333 986.667L616.667 987.333L616.333 986.667z"/>
<path style="fill:#ca38ff; stroke:none;" d="M647 986L648 987L647 986z"/>
<path style="fill:#a49cb4; stroke:none;" d="M618 988L619 989L618 988M646 988L647 989L646 988z"/>
<path style="fill:#ca38ff; stroke:none;" d="M646 989L647 990L646 989z"/>
<path style="fill:#a49cb4; stroke:none;" d="M619 990L620 991L619 990z"/>
<path style="fill:#652eff; stroke:none;" d="M617 991L617 994L618 994L617 991z"/>
<path style="fill:#a49cb4; stroke:none;" d="M645 991L646 992L645 991z"/>
<path style="fill:#ca38ff; stroke:none;" d="M647 991L648 992L647 991z"/>
<path style="fill:#a49cb4; stroke:none;" d="M620 992L621 993L620 992z"/>
<path style="fill:#ca38ff; stroke:none;" d="M645 992L644 996L647 992L645 992M647 993L646 998L647 998L647 993z"/>
<path style="fill:#a49cb4; stroke:none;" d="M644 994L645 995L644 994M621 995L622 996L621 995z"/>
<path style="fill:#652eff; stroke:none;" d="M618 996L617 998L619 998L618 996z"/>
<path style="fill:#a49cb4; stroke:none;" d="M643.333 996.667L643.667 997.333L643.333 996.667z"/>
<path style="fill:#652eff; stroke:none;" d="M1237 996L1237 1236L1238 1236L1238 1067L1238 1018L1237 996z"/>
<path style="fill:#a49cb4; stroke:none;" d="M622 997L623 998L622 997z"/>
<path style="fill:#ca38ff; stroke:none;" d="M644 997L643 999L645 999L644 997z"/>
<path style="fill:#652eff; stroke:none;" d="M3 998L3 1002L4 1002L3 998M616 999L617 1000L616 999M619 999L620 1000L619 999M622 999L623 1000L622 999z"/>
<path style="fill:#a49cb4; stroke:none;" d="M623 999L624 1000L623 999M642 999L643 1000L642 999z"/>
<path style="fill:#ca38ff; stroke:none;" d="M645 999L646 1002L647 1002L648 999L645 999z"/>
<path style="fill:#a49cb4; stroke:none;" d="M624 1001L625 1002L624 1001M641 1002L642 1003L641 1002z"/>
<path style="fill:#ca38ff; stroke:none;" d="M647 1003L647 1006L648 1006L647 1003z"/>
<path style="fill:#652eff; stroke:none;" d="M624 1004L625 1005L624 1004z"/>
<path style="fill:#a49cb4; stroke:none;" d="M625 1004L626 1005L625 1004M640 1005L641 1006L640 1005z"/>
<path style="fill:#652eff; stroke:none;" d="M641 1005L642 1006L641 1005z"/>
<path style="fill:#a49cb4; stroke:none;" d="M626 1006L627 1007L626 1006z"/>
<path style="fill:#652eff; stroke:none;" d="M640 1007L641 1008L640 1007M4 1008L4 1011L5 1011L4 1008M626 1008L627 1009L626 1008z"/>
<path style="fill:#a49cb4; stroke:none;" d="M627.333 1008.67L627.667 1009.33L627.333 1008.67M639 1008L640 1009L639 1008z"/>
<path style="fill:#652eff; stroke:none;" d="M627 1010L626 1012L628 1012L627 1010z"/>
<path style="fill:#a49cb4; stroke:none;" d="M638.333 1010.67L638.667 1011.33L638.333 1010.67M628 1011L629 1012L628 1011z"/>
<path style="fill:#652eff; stroke:none;" d="M639 1011L640 1012L639 1011M625 1013L624 1016L627 1016L625 1013M628 1013L629 1014L628 1013z"/>
<path style="fill:#a49cb4; stroke:none;" d="M629 1013L630 1014L629 1013M637 1014L638 1015L637 1014z"/>
<path style="fill:#652eff; stroke:none;" d="M639 1014L639 1020L640 1020L639 1014M628 1015L629 1018L630 1018L628 1015z"/>
<path style="fill:#a49cb4; stroke:none;" d="M630 1015L631 1016L630 1015z"/>
<path style="fill:#652eff; stroke:none;" d="M5.33333 1016.67L5.66667 1017.33L5.33333 1016.67z"/>
<path style="fill:#a49cb4; stroke:none;" d="M636 1016L637 1017L636 1016z"/>
<path style="fill:#652eff; stroke:none;" d="M626 1017L628 1020L626 1017z"/>
<path style="fill:#a49cb4; stroke:none;" d="M631.333 1017.67L631.667 1018.33L631.333 1017.67z"/>
<path style="fill:#652eff; stroke:none;" d="M630 1019L631 1020L630 1019z"/>
<path style="fill:#a49cb4; stroke:none;" d="M635 1019L636 1020L635 1019z"/>
<path style="fill:#652eff; stroke:none;" d="M636 1019L637 1020L636 1019M631 1020L632 1021L631 1020z"/>
<path style="fill:#a49cb4; stroke:none;" d="M632 1020L633 1021L632 1020z"/>
<path style="fill:#652eff; stroke:none;" d="M637.333 1020.67L637.667 1021.33L637.333 1020.67M628 1021L629 1024L630 1024L628 1021M635.333 1021.67L635.667 1022.33L635.333 1021.67M639 1021L639 1024L640 1024L639 1021M6.33333 1022.67L6.66667 1023.33L6.33333 1022.67M632 1022L633 1023L632 1022z"/>
<path style="fill:#a49cb4; stroke:none;" d="M633.667 1022.33L634.333 1022.67L633.667 1022.33z"/>
<path style="fill:#652eff; stroke:none;" d="M625 1023L626 1024L625 1023M636 1023L637 1024L636 1023M7 1028L8 1029L7 1028M8 1033L9 1034L8 1033M9.33333 1037.67L9.66667 1038.33L9.33333 1037.67M10.3333 1041.67L10.6667 1042.33L10.3333 1041.67M11 1045L12 1046L11 1045M12 1049L13 1050L12 1049M13 1052L14 1053L13 1052M15 1058L16 1059L15 1058M17 1064L18 1065L17 1064M18 1067L19 1068L18 1067M19 1070L20 1071L19 1070M20 1072L21 1073L20 1072M21 1075L22 1076L21 1075M22 1077L23 1078L22 1077M24 1082L25 1083L24 1082M25 1084L26 1085L25 1084M26 1086L27 1087L26 1086M31 1096L32 1097L31 1096M32 1098L33 1099L32 1098M33 1100L34 1101L33 1100M34 1102L35 1103L34 1102M37 1107L38 1108L37 1107M38 1109L39 1110L38 1109M40 1112L41 1113L40 1112M41 1114L42 1115L41 1114M43 1117L44 1118L43 1117M45 1120L46 1121L45 1120M47 1123L48 1124L47 1123M49 1126L50 1127L49 1126M52 1130L53 1131L52 1130M54 1133L55 1134L54 1133M55 1134L56 1135L55 1134M58 1138L59 1139L58 1138M59 1139L60 1140L59 1139M64 1145L65 1146L64 1145M65 1146L66 1147L65 1146M70 1152L71 1153L70 1152M71 1153L72 1154L71 1153M72 1154L73 1155L72 1154M73 1155L74 1156L73 1155M74 1156L75 1157L74 1156M75 1157L76 1158L75 1157M76 1158L77 1159L76 1158M77 1159L78 1160L77 1159M78 1160L79 1161L78 1160M79 1161L80 1162L79 1161M80 1162L81 1163L80 1162M81 1163L82 1164L81 1163M82 1164L83 1165L82 1164M83 1165L84 1166L83 1165M84 1166L85 1167L84 1166M85 1167L86 1168L85 1167M86 1168L87 1169L86 1168M92 1173L93 1174L92 1173M93 1174L94 1175L93 1174M98 1178L99 1179L98 1178M99 1179L100 1180L99 1179M103 1182L104 1183L103 1182M107 1185L108 1186L107 1185M111 1188L112 1189L111 1188M114 1190L115 1191L114 1190M117 1192L118 1193L117 1192M120 1194L121 1195L120 1194M123 1196L124 1197L123 1196M126 1198L127 1199L126 1198M128 1199L129 1200L128 1199M130 1200L131 1201L130 1200M133 1202L134 1203L133 1202M135 1203L136 1204L135 1203M137 1204L138 1205L137 1204M151 1211L152 1212L151 1211M153 1212L154 1213L153 1212M155 1213L156 1214L155 1213M157 1214L158 1215L157 1214M162 1216L163 1217L162 1216M167 1218L168 1219L167 1218M170 1219L171 1220L170 1219M172 1220L173 1221L172 1220M175 1221L176 1222L175 1221M178 1222L179 1223L178 1222M181 1223L182 1224L181 1223M184 1224L185 1225L184 1224M188 1225L189 1226L188 1225M191 1226L192 1227L191 1226M195 1227L196 1228L195 1227M199 1228L200 1229L199 1228M203.667 1229.33L204.333 1229.67L203.667 1229.33M208.667 1230.33L209.333 1230.67L208.667 1230.33M213.667 1231.33L214.333 1231.67L213.667 1231.33M219.667 1232.33L220.333 1232.67L219.667 1232.33M226 1233L226 1234L229 1234L226 1233M235 1234L235 1235L238 1235L235 1234z"/>
<path style="fill:#fffeff; stroke:none;" d="M0 1237L1 1238L0 1237z"/>
<path style="fill:#652eff; stroke:none;" d="M244 1237L244 1238L251 1238L244 1237M987 1237L987 1238L994 1238L987 1237z"/>
<path style="fill:#a49cb4; stroke:none;" d="M994 1237L994 1238L1238 1238L1215 1237L1166 1237L994 1237z"/>
</svg>
